<svg width="90" height="100" viewBox="0 0 90 100" fill="none" xmlns="http://www.w3.org/2000/svg">
<path d="M85.6075 14.5429C86.2261 15.1692 89.1622 18.3279 89.0448 18.9223L85.6048 21.453C78.428 13.5816 69.8125 7.59038 59.1647 5.49991C23.5592 -1.4896 -5.92658 34.1223 8.41068 67.6901C20.5878 96.1998 56.9508 104.524 80.3482 83.8878C82.1844 82.2682 83.7121 80.1519 85.5477 78.6739C86.2032 78.6591 89.1783 80.8525 89.0646 81.4835C81.6176 90.7317 70.0577 97.701 58.2145 99.4262C16.5492 105.494 -14.0392 62.2623 6.62361 25.2993C22.5364 -3.16668 62.5414 -8.82288 85.6075 14.5429Z" fill="white"/>
<path d="M46.6402 9.14405C57.2048 8.27356 68.3622 11.6432 76.4654 18.4716C77.3224 19.1934 81.7129 23.4944 81.8972 24.1708C82.1512 25.1029 79.4869 26.8671 78.542 27.1547C66.9027 13.7498 48.4572 9.56955 32.5737 18.2863C13.5916 28.7029 7.97077 53.8114 20.8704 71.3757C33.7126 88.8619 58.405 91.2625 74.6302 76.8243C75.3231 76.2078 77.9625 73.0689 78.2114 72.9855C78.6248 72.8472 78.9524 72.9411 79.3305 73.1193C79.7946 73.338 82.1646 75.4257 81.874 75.9784C81.7576 76.199 80.4922 77.6433 80.1801 78.0016C63.7208 96.8897 31.9692 94.4118 17.3054 74.604C-1.77117 48.8356 14.7087 11.7754 46.6402 9.14405Z" fill="white"/>
<path d="M47.3129 18.2257C57.7373 17.3858 68.643 21.6011 74.8798 30.0706L71.4765 32.9013C62.4719 22.3838 46.8938 19.3068 35.166 27.2694C20.0931 37.5027 18.5926 58.8685 32.5767 70.7692C44.2231 80.6803 61.4712 78.862 71.16 67.2758C72.3453 66.9236 73.9454 69.1103 74.9484 69.7911C70.9804 75.4883 63.6538 79.9124 56.8103 81.204C33.759 85.5538 14.7988 66.7168 18.889 43.6191C21.3074 29.9633 33.6181 19.329 47.3129 18.2257Z" fill="white"/>
<path d="M47.6473 27.3054C55.2183 26.5873 63.3229 29.5435 67.8149 35.7884L64.3619 38.5627C55.7094 28.1117 38.5508 30.3474 33.4277 43.0214C26.4611 60.2561 46.6284 75.6357 61.1429 64.3462C61.8432 63.8013 63.6111 61.6751 64.0995 61.551C65.1237 61.2907 67.0184 63.5682 67.7524 64.2059C61.1164 73.8284 46.3213 75.2647 36.9834 68.7171C19.9771 56.7922 26.9273 29.2704 47.6473 27.3054Z" fill="white"/>
</svg>
