<svg width="209" height="300" viewBox="0 0 209 300" fill="none" xmlns="http://www.w3.org/2000/svg">
<path d="M77.3292 242.416L88.7327 253.807C91.5495 250.634 91.4442 245.786 88.4045 242.743C85.3649 239.707 80.5051 239.602 77.3292 242.416Z" fill="#FFCB00"/>
<path d="M89.9399 244.901C89.556 244.122 89.0546 243.393 88.4045 242.743C85.3649 239.707 80.5051 239.602 77.3292 242.416L81.0251 246.107C83.5262 243.893 87.0611 243.498 89.9399 244.901Z" fill="#FF8A33"/>
<path d="M62.789 230.767L62.3031 231.253C61.4062 232.149 61.4062 233.601 62.3031 234.497L96.0978 268.255C96.9948 269.151 98.449 269.151 99.346 268.255L99.8319 267.77C100.729 266.874 100.729 265.421 99.8319 264.525L66.0372 230.767C65.1402 229.871 63.686 229.871 62.789 230.767Z" fill="#0000BF"/>
<path d="M63.6537 235.792C64.0066 237.209 51.8541 260.362 42.9208 272.353C39.6706 276.719 40.0606 282.785 43.9113 286.632C47.762 290.478 53.8413 290.868 58.2058 287.621C70.2098 278.697 93.3819 266.552 94.8058 266.911L63.6537 235.792Z" fill="#FFCB00"/>
<path d="M42.9146 272.353C42.3822 273.064 41.9612 273.824 41.6269 274.61L55.9462 288.914C56.7324 288.58 57.4939 288.153 58.2058 287.627C70.2098 278.704 93.3819 266.558 94.8058 266.917L63.6537 235.799C64.0066 237.215 51.8541 260.368 42.9208 272.359L42.9146 272.353Z" fill="#FF8A33"/>
<path d="M50.2197 261.382L69.1821 280.324C80.7341 273.249 93.7472 266.645 94.7996 266.904L63.6476 235.786C63.9138 236.837 57.2958 249.836 50.2135 261.376L50.2197 261.382Z" fill="#FFCB00"/>
<path d="M50.2197 261.382L56.2867 267.442C63.369 255.903 69.9807 242.904 69.7207 241.853L63.6537 235.792C63.9199 236.844 57.302 249.843 50.2197 261.382Z" fill="#FF8A33"/>
<path d="M48.0963 259.607L43.0817 268.061C42.2026 269.545 42.4379 271.437 43.6575 272.656L57.8963 286.879C58.0263 287.009 58.1687 287.12 58.3111 287.231L70.5255 299.439C71.2746 300.187 72.4942 300.187 73.2433 299.439L74.8653 297.819C75.4348 297.25 75.5896 296.384 75.2491 295.654L70.2779 284.968C69.8383 284.028 70.185 282.909 71.0827 282.377C72.457 281.561 72.6985 279.668 71.5656 278.543L52.1079 259.106C50.9255 257.925 48.9506 258.179 48.1025 259.607H48.0963Z" fill="#0000BF"/>
<path d="M165.684 194.217C164.05 192.584 164.05 189.907 165.684 188.274L174.339 179.629C175.973 177.996 178.654 177.996 180.288 179.629C181.923 181.261 181.923 183.939 180.288 185.572L171.634 194.217C169.999 195.849 167.319 195.849 165.684 194.217Z" fill="#FF8A33"/>
<path d="M157.376 99.0255C146.61 101.827 140.16 112.822 142.964 123.576C144.215 128.375 147.099 132.308 150.87 134.955L146.703 139.667C146.703 139.667 151.291 138.678 155.407 137.348C159.159 138.752 163.369 139.061 167.541 137.973C178.307 135.171 184.758 124.176 181.954 113.422C179.149 102.668 168.142 96.2241 157.376 99.0255ZM153.81 123.069C152.708 123.354 151.588 122.698 151.303 121.597C151.018 120.497 151.674 119.377 152.776 119.093C153.878 118.808 154.999 119.464 155.284 120.565C155.568 121.665 154.912 122.785 153.81 123.069ZM162.694 120.756C161.592 121.041 160.472 120.385 160.187 119.285C159.902 118.184 160.558 117.064 161.66 116.78C162.762 116.495 163.883 117.151 164.167 118.252C164.452 119.353 163.796 120.472 162.694 120.756ZM171.572 118.443C170.47 118.728 169.349 118.072 169.064 116.972C168.78 115.871 169.436 114.752 170.538 114.467C171.64 114.183 172.76 114.838 173.045 115.939C173.33 117.04 172.674 118.159 171.572 118.443Z" fill="#0000BF"/>
<path d="M75.9115 69.4718L67.944 69.7749C66.5696 69.8243 65.4119 68.6679 65.3562 67.1837L65.1272 61.2223C65.0467 59.1321 63.4928 57.3696 61.5551 57.3758C59.5492 57.3758 57.9582 59.1692 58.0387 61.3212C58.1192 63.3682 58.0201 65.8851 57.3639 67.9629C56.912 69.3914 56.0143 70.8014 55.0176 72.0506C52.8013 74.8334 49.514 75.291 46.1028 75.3714L44.4251 75.4147L45.1433 94.3071L48.9011 94.1648C52.6589 94.0226 56.4291 96.0633 56.4291 96.0633C57.6549 96.6446 58.9797 96.9167 60.3107 96.8673L75.3296 96.2983C77.4778 96.2179 79.205 94.3936 79.3226 92.0808L80.2451 74.2459C80.3813 71.593 78.3693 69.3791 75.9115 69.4718Z" fill="#FF8A33"/>
<path d="M46.2311 73.0898L40.385 73.3111C39.6573 73.3387 39.0897 73.9503 39.1173 74.6773L39.8892 95.0268C39.9167 95.7537 40.5291 96.3207 41.2568 96.2932L47.1029 96.0719C47.8306 96.0443 48.3982 95.4327 48.3707 94.7058L47.5987 74.3562C47.5712 73.6293 46.9589 73.0623 46.2311 73.0898Z" fill="#0000BF"/>
<path d="M149.217 192.572L121.241 201.52C118.826 202.293 116.238 200.964 115.464 198.552L97.5422 142.543C96.7683 140.131 98.0993 137.546 100.514 136.773L128.49 127.825C130.904 127.052 133.492 128.381 134.266 130.793L152.188 186.802C152.962 189.214 151.631 191.799 149.217 192.572Z" fill="#0000BF"/>
<path d="M116.913 188.027C116.053 188.305 115.124 187.829 114.845 186.963L101.987 146.767C101.709 145.907 102.185 144.979 103.052 144.701L131.028 135.753C131.889 135.474 132.817 135.951 133.096 136.816L145.954 177.013C146.233 177.872 145.756 178.8 144.889 179.078L116.913 188.027Z" fill="#8FD2FF"/>
<path d="M119.581 134.961L111.917 137.41C111.552 137.528 111.354 137.917 111.471 138.276C111.589 138.634 111.979 138.839 112.338 138.721L120.002 136.272C120.368 136.155 120.566 135.765 120.448 135.406C120.33 135.042 119.94 134.844 119.581 134.961Z" fill="white"/>
<path d="M135.82 189.474C135.337 187.959 133.715 187.13 132.198 187.612C130.681 188.095 129.852 189.715 130.335 191.23C130.818 192.745 132.44 193.574 133.956 193.091C135.473 192.609 136.303 190.989 135.82 189.474Z" fill="white"/>
<path d="M107.977 157.822L75.796 153.886C71.6556 153.38 67.8882 156.322 67.3813 160.458L63.7303 190.247C63.2234 194.383 66.1689 198.146 70.3093 198.653L102.49 202.588C106.631 203.095 110.398 200.152 110.905 196.016L114.556 166.228C115.063 162.092 112.117 158.328 107.977 157.822Z" fill="#FF8A33"/>
<path d="M113.36 176.147L114.542 166.481C115.068 162.208 112.245 158.343 108.24 157.855L75.5648 153.86C71.5594 153.371 67.8882 156.438 67.3682 160.718L66.1858 170.383L113.36 176.147Z" fill="#FFCB00"/>
<path d="M103.895 179.946C104.958 171.257 99.2258 163.408 91.0908 162.414C82.9558 161.421 75.4991 167.659 74.4357 176.348C73.3723 185.037 79.1049 192.886 87.2399 193.88C95.3749 194.873 102.832 188.635 103.895 179.946Z" fill="white"/>
<path d="M100.239 179.499C101.038 172.966 96.7287 167.065 90.613 166.318C84.4974 165.571 78.8915 170.262 78.092 176.795C77.2925 183.327 81.602 189.229 87.7177 189.976C93.8333 190.722 99.4392 186.032 100.239 179.499Z" fill="#006FA2"/>
<path d="M95.7159 173.519C95.5735 174.669 94.5891 175.498 93.5058 175.368C92.4286 175.238 91.6671 174.199 91.8095 173.043C91.9519 171.892 92.9362 171.064 94.0196 171.2C95.0968 171.33 95.8583 172.369 95.7159 173.525V173.519Z" fill="white"/>
<path d="M92.0819 180.198C91.7538 182.851 89.4756 184.755 86.9931 184.452C84.5105 184.149 82.7585 181.75 83.0805 179.097C83.4086 176.444 85.6868 174.539 88.1693 174.842C90.6518 175.145 92.4038 177.545 92.0819 180.198Z" fill="white"/>
<path d="M109.354 165.529C109.521 164.15 108.617 162.907 107.324 162.752C106.036 162.598 104.853 163.581 104.686 164.96C104.519 166.339 105.423 167.582 106.717 167.737C108.005 167.891 109.187 166.908 109.354 165.529Z" fill="white"/>
<path d="M159.37 181.082C150.294 179.159 141.379 184.947 139.454 194.007C137.528 203.072 143.323 211.978 152.393 213.901C161.468 215.824 170.383 210.036 172.308 200.976C174.234 191.91 168.439 183.005 159.37 181.082ZM161.673 205.763L147.205 202.695L147.669 200.593C147.954 199.288 148.876 198.218 150.121 197.736L153.284 196.505C152.095 195.305 151.52 193.549 151.91 191.774C152.541 188.917 155.438 187.136 158.299 187.915C160.781 188.589 162.415 191.069 162.044 193.617C161.759 195.571 160.434 197.074 158.738 197.705L161.091 200.147C162.019 201.106 162.403 202.466 162.112 203.771L161.673 205.769V205.763Z" fill="#24E4ED"/>
<path d="M138.323 39.3591L94.8421 45.4401C93.5892 45.6153 92.7158 46.7719 92.8912 48.0234L97.5042 80.9356C97.6796 82.187 98.8374 83.0595 100.09 82.8843L143.571 76.8033C144.824 76.6281 145.698 75.4715 145.522 74.22L140.909 41.3078C140.734 40.0564 139.576 39.1839 138.323 39.3591Z" fill="#8FD2FF"/>
<path d="M139.1 71.764L135.41 45.4416L99.3234 50.4885L103.013 76.8109L139.1 71.764Z" fill="white"/>
<path d="M132.44 54.494L124.354 63.8567L118.956 60.7399L114.92 65.9469L105.85 58.8538L101.269 64.4256L103.009 76.8123L139.095 71.7661L137.101 57.5489L132.44 54.494Z" fill="#FFCB00"/>
<path d="M100.408 106.545C100.408 106.545 92.5524 110.868 88.8627 115.345C88.4479 115.296 84.6777 107.065 84.6777 107.065C88.4479 105.772 94.7872 104.338 100.415 106.539L100.408 106.545Z" fill="#FFB532"/>
<path d="M88.875 115.37C92.5462 110.874 100.384 106.521 100.384 106.521C100.384 106.521 92.4162 107.188 86.504 111.01C87.5378 113.138 88.6584 115.351 88.875 115.376V115.37Z" fill="#FF8A33"/>
<path d="M88.3922 106.032C85.2658 101.988 81.3532 100.231 75.6391 101.777C71.3551 102.934 68.0864 105.927 66.1734 109.699C64.2728 113.471 63.7218 118.023 64.8795 122.302C64.8795 122.302 65.74 124.108 65.3995 127.212C64.7929 132.704 60.4469 142.252 40.9769 153.043C40.9769 153.043 50.3435 161.732 64.2295 161.986C71.0889 162.103 79.0564 160.167 87.544 154.095C104.581 141.9 91.7785 112.414 91.7785 112.414C91.5557 111.585 88.3922 106.026 88.3922 106.026V106.032Z" fill="#8FD2FF"/>
<path d="M80.5794 108.104C80.2389 106.836 78.9326 106.088 77.6635 106.434C76.3944 106.774 75.6453 108.079 75.992 109.347C76.3325 110.614 77.6387 111.363 78.9079 111.016C80.177 110.676 80.9261 109.371 80.5794 108.104Z" fill="#006FA2"/>
<path d="M82.3004 137.899C82.3004 137.899 71.7699 115.389 37.7267 124.411C37.7267 124.411 51.4022 159.122 82.3004 137.899Z" fill="#8FD2FF"/>
<path d="M82.3004 137.892C82.3004 137.892 72.4075 154.404 51.7241 146.154C53.0365 145.159 54.2252 144.194 55.3086 143.229C62.1494 145.925 71.0889 145.598 82.3004 137.892Z" fill="#5371FF"/>
<path d="M143.553 84.84L101.694 93.8271C100.28 94.1307 99.3798 95.5218 99.6837 96.9342L105.401 123.506C105.705 124.919 107.098 125.818 108.512 125.514L150.371 116.527C151.785 116.224 152.685 114.832 152.381 113.42L146.664 86.8478C146.36 85.4354 144.967 84.5365 143.553 84.84Z" fill="#FF8A33"/>
<path d="M125.017 114.653L133.22 106.329C134.365 105.172 133.944 103.218 132.427 102.631L121.525 98.4133C119.848 97.7639 118.114 99.2358 118.492 100.998L121.191 113.54C121.569 115.302 123.754 115.933 125.017 114.653Z" fill="white"/>
<path d="M157.741 75.1674C156.918 75.1674 156.126 75.2725 155.364 75.4642C154.974 71.0426 151.253 67.5733 146.728 67.5733C142.203 67.5733 138.358 71.1539 138.073 75.6806C137.819 75.6559 137.559 75.6373 137.293 75.6373C133.183 75.6373 129.846 78.9706 129.846 83.0768C129.846 87.183 133.183 90.5162 137.293 90.5162H161.697C164.83 90.5162 167.393 87.9993 167.405 84.8702C167.405 84.8516 167.405 84.8331 167.405 84.8145C167.405 79.4838 163.078 75.1612 157.741 75.1612V75.1674Z" fill="#0000BF"/>
<path d="M93.221 37.2776C92.4843 37.2776 91.7661 37.3765 91.079 37.5497C90.7261 33.5671 87.3769 30.438 83.2971 30.438C79.2174 30.438 75.7567 33.6661 75.5029 37.7414C75.2739 37.7166 75.0386 37.7043 74.8034 37.7043C71.0951 37.7043 68.0925 40.7035 68.0925 44.4078C68.0925 48.1121 71.0951 51.1113 74.8034 51.1113H96.7931C99.6161 51.1113 101.925 48.8418 101.938 46.0218C101.938 46.0033 101.938 45.9909 101.938 45.9724C101.938 41.1673 98.0374 37.2776 93.2334 37.2776H93.221Z" fill="#0000BF"/>
<path d="M106.048 81.7472C106.048 78.4202 103.312 75.693 99.9813 75.6497C98.2293 75.625 96.6445 76.3423 95.5054 77.4988C94.3725 76.3423 92.7876 75.6312 91.0294 75.6497C87.6988 75.693 84.9625 78.4202 84.9625 81.7472C84.9625 89.9844 95.1958 93.6144 95.4992 93.6577C95.8025 93.6082 106.036 89.9844 106.036 81.7472H106.048Z" fill="#0000BF"/>
<path d="M111.923 209.739C102.402 209.739 94.682 217.45 94.682 226.962C94.682 231.204 96.2235 235.087 98.7679 238.087L94.3044 241.092C94.3044 241.092 98.316 241.265 102.012 241.049C104.816 243.022 108.234 244.184 111.923 244.184C121.445 244.184 129.165 236.473 129.165 226.962C129.165 217.45 121.445 209.739 111.923 209.739ZM103.776 228.879C102.804 228.879 102.018 228.093 102.018 227.122C102.018 226.151 102.804 225.366 103.776 225.366C104.748 225.366 105.534 226.151 105.534 227.122C105.534 228.093 104.748 228.879 103.776 228.879ZM111.632 228.879C110.66 228.879 109.874 228.093 109.874 227.122C109.874 226.151 110.66 225.366 111.632 225.366C112.604 225.366 113.391 226.151 113.391 227.122C113.391 228.093 112.604 228.879 111.632 228.879ZM119.489 228.879C118.517 228.879 117.73 228.093 117.73 227.122C117.73 226.151 118.517 225.366 119.489 225.366C120.46 225.366 121.247 226.151 121.247 227.122C121.247 228.093 120.46 228.879 119.489 228.879Z" fill="#0000BF"/>
<path d="M93.0815 229.16C96.9449 229.128 100.051 225.974 100.019 222.115C99.9878 218.256 96.8302 215.153 92.9667 215.184C89.1033 215.216 85.9971 218.37 86.0288 222.23C86.0605 226.089 89.2181 229.192 93.0815 229.16Z" fill="#FF8A33"/>
<path d="M117.198 13.6482C110.84 12.4547 104.711 16.6537 103.516 23.0233C102.321 29.3929 106.506 35.5275 112.864 36.721C119.222 37.9145 125.351 33.7155 126.546 27.346C127.741 20.9764 123.556 14.8418 117.198 13.6482ZM119.21 30.8647L109.069 28.96L109.36 27.482C109.54 26.5668 110.165 25.7999 111.026 25.4413L113.211 24.526C112.363 23.7097 111.93 22.4853 112.177 21.2423C112.567 19.2325 114.561 17.94 116.573 18.4347C118.318 18.8614 119.495 20.5744 119.278 22.3554C119.111 23.7283 118.213 24.7981 117.043 25.2681L118.727 26.9378C119.389 27.5933 119.68 28.5395 119.501 29.4547L119.229 30.8585L119.21 30.8647Z" fill="#0000BF"/>
<path d="M199.127 80.4857C191.661 78.1048 183.668 82.2357 181.273 89.7185C178.883 97.2012 182.994 105.197 190.466 107.578C197.932 109.959 205.924 105.828 208.32 98.3452C210.71 90.8625 206.599 82.8665 199.127 80.4857ZM198.972 101.487L187.061 97.6897L187.631 95.9582C187.983 94.8822 188.85 94.0535 189.934 93.7505L192.701 92.9775C191.803 91.8643 191.469 90.3369 191.946 88.8774C192.719 86.5213 195.307 85.2598 197.647 86.1565C199.678 86.9295 200.842 89.1619 200.316 91.2769C199.907 92.9033 198.669 94.0597 197.189 94.4493L198.96 96.7065C199.659 97.597 199.864 98.772 199.511 99.848L198.972 101.493V101.487Z" fill="#FF8A33"/>
<path d="M62.3413 169.747C61.6851 169.747 61.0474 169.833 60.4345 169.988C60.1188 166.438 57.141 163.661 53.507 163.661C49.873 163.661 46.7962 166.531 46.5672 170.161C46.3629 170.142 46.1524 170.13 45.9419 170.13C42.6422 170.13 39.974 172.801 39.974 176.091C39.974 179.381 42.6484 182.053 45.9419 182.053H65.5048C68.0121 182.053 70.0736 180.031 70.0798 177.526C70.0798 177.514 70.0798 177.495 70.0798 177.483C70.0798 173.21 66.6129 169.747 62.3351 169.747H62.3413Z" fill="#0000BF"/>
<path d="M149.774 210.407C149.031 210.407 148.313 210.506 147.626 210.679C147.273 206.678 143.911 203.542 139.813 203.542C135.715 203.542 132.248 206.783 131.988 210.877C131.759 210.852 131.523 210.84 131.282 210.84C127.561 210.84 124.546 213.851 124.546 217.568C124.546 221.285 127.561 224.296 131.282 224.296H153.352C156.181 224.296 158.503 222.02 158.515 219.188C158.515 219.17 158.515 219.157 158.515 219.139C158.515 214.315 154.603 210.407 149.774 210.407Z" fill="#FF8A33"/>
<path d="M159.493 23.4933C154.039 22.4173 148.74 25.9669 147.663 31.4151C145.694 41.4085 153.699 52.8552 153.699 52.8552C153.699 52.8552 165.313 46.028 167.43 35.3049C168.507 29.8567 164.954 24.5631 159.5 23.4871L159.493 23.4933ZM156.596 38.1928C153.724 37.6301 151.854 34.841 152.417 31.9716C152.981 29.1022 155.773 27.2346 158.645 27.7974C161.518 28.3601 163.387 31.1492 162.824 34.0186C162.261 36.888 159.469 38.7556 156.596 38.1928Z" fill="#FF8A33"/>
<path d="M44.9624 119.049C47.533 118.254 48.9722 115.529 48.177 112.961C47.3817 110.393 44.6531 108.955 42.0825 109.75C39.5119 110.544 38.0727 113.27 38.8679 115.837C39.6632 118.405 42.3918 119.843 44.9624 119.049Z" fill="#FF8A33"/>
<path d="M114.536 7.09931C116.498 7.09931 118.089 5.51008 118.089 3.54966C118.089 1.58923 116.498 0 114.536 0C112.573 0 110.982 1.58923 110.982 3.54966C110.982 5.51008 112.573 7.09931 114.536 7.09931Z" fill="#FF8A33"/>
<path d="M126.633 10.7788C126.633 11.8425 125.766 12.7083 124.701 12.7083C123.636 12.7083 122.77 11.8425 122.77 10.7788C122.77 9.71517 123.636 8.8494 124.701 8.8494C125.766 8.8494 126.633 9.71517 126.633 10.7788Z" fill="#FFCB00"/>
<path d="M178.307 82.0317C178.307 83.9858 176.722 85.5751 174.76 85.5751C172.797 85.5751 171.213 83.992 171.213 82.0317C171.213 80.0713 172.797 78.4882 174.76 78.4882C176.722 78.4882 178.307 80.0713 178.307 82.0317Z" fill="#8FD2FF"/>
<path d="M163.652 175.302C166.017 175.239 167.883 173.273 167.82 170.91C167.758 168.548 165.789 166.683 163.424 166.746C161.059 166.809 159.193 168.775 159.255 171.137C159.318 173.5 161.286 175.364 163.652 175.302Z" fill="#FFCB00"/>
<path d="M58.1316 112.593C59.6667 112.593 60.9112 111.35 60.9112 109.817C60.9112 108.283 59.6667 107.04 58.1316 107.04C56.5964 107.04 55.3519 108.283 55.3519 109.817C55.3519 111.35 56.5964 112.593 58.1316 112.593Z" fill="#FFCB00"/>
<path d="M56.5777 198.237C58.1128 198.237 59.3573 196.993 59.3573 195.46C59.3573 193.926 58.1128 192.683 56.5777 192.683C55.0425 192.683 53.798 193.926 53.798 195.46C53.798 196.993 55.0425 198.237 56.5777 198.237Z" fill="#FFCB00"/>
<path d="M138.754 16.0786C136.352 16.0786 134.402 18.0266 134.402 20.426C134.402 22.8254 136.352 24.7734 138.754 24.7734C141.156 24.7734 143.106 22.8254 143.106 20.426C143.106 18.0266 141.156 16.0786 138.754 16.0786ZM138.754 22.4915C137.615 22.4915 136.687 21.57 136.687 20.426C136.687 19.2819 137.609 18.3605 138.754 18.3605C139.9 18.3605 140.822 19.2819 140.822 20.426C140.822 21.57 139.9 22.4915 138.754 22.4915Z" fill="#8FD2FF"/>
<path d="M83.3219 57.3449C80.6041 57.3449 78.4064 59.5464 78.4064 62.255C78.4064 64.9636 80.6103 67.1652 83.3219 67.1652C86.0335 67.1652 88.2374 64.9636 88.2374 62.255C88.2374 59.5464 86.0335 57.3449 83.3219 57.3449ZM83.3219 64.5926C82.0342 64.5926 80.988 63.5475 80.988 62.2612C80.988 60.9749 82.0342 59.9298 83.3219 59.9298C84.6096 59.9298 85.6558 60.9749 85.6558 62.2612C85.6558 63.5475 84.6096 64.5926 83.3219 64.5926Z" fill="#8FD2FF"/>
<path d="M84.8944 204.173C82.9752 204.173 81.4151 205.732 81.4151 207.649C81.4151 209.566 82.9752 211.124 84.8944 211.124C86.8135 211.124 88.3736 209.566 88.3736 207.649C88.3736 205.732 86.8135 204.173 84.8944 204.173ZM84.8944 208.96C84.17 208.96 83.5819 208.372 83.5819 207.649C83.5819 206.925 84.17 206.338 84.8944 206.338C85.6187 206.338 86.2068 206.925 86.2068 207.649C86.2068 208.372 85.6187 208.96 84.8944 208.96Z" fill="#8FD2FF"/>
<path d="M176.301 60.3132C176.153 57.5366 173.745 55.3783 170.965 55.4897C169.498 55.5453 168.204 56.2132 167.312 57.2274C166.316 56.3121 164.96 55.7865 163.493 55.8854C160.713 56.0648 158.546 58.4704 158.695 61.247C159.06 68.1237 167.764 70.7025 168.024 70.7272C168.278 70.6715 176.66 67.1899 176.295 60.3132H176.301Z" fill="#FFCB00"/>
<path d="M167.733 153.118C168.52 149.605 166.266 146.08 162.762 145.251C160.917 144.819 159.072 145.196 157.605 146.148C156.683 144.658 155.172 143.532 153.315 143.149C149.786 142.413 146.258 144.652 145.471 148.164C143.534 156.865 153.482 163.099 153.792 163.222C154.126 163.247 165.783 161.819 167.727 153.118H167.733Z" fill="#FF8A33"/>
<path d="M98.4336 12.7763C97.4802 11.4467 95.6044 11.1375 94.261 12.0713C93.5553 12.5598 93.1219 13.3019 92.9981 14.0873C92.2119 13.9513 91.3761 14.1182 90.6827 14.6253C89.3641 15.59 89.0484 17.4638 90.0018 18.7934C92.3605 22.0895 97.4864 20.6177 97.6226 20.5497C97.7341 20.4445 100.786 16.0724 98.4274 12.7763H98.4336Z" fill="#8FD2FF"/>
<path d="M74.8529 208.527C74.3329 205.824 71.6832 204.031 68.9716 204.52C67.5416 204.773 66.3653 205.602 65.6224 206.715C64.5205 205.954 63.1213 205.62 61.6975 205.911C58.9983 206.461 57.1967 209.108 57.7168 211.811C59.0045 218.508 67.8882 219.856 68.1421 219.85C68.3835 219.763 76.1344 215.218 74.8467 208.527H74.8529Z" fill="#8FD2FF"/>
<path d="M29.6663 152.338C32.1488 149.407 33.6532 145.622 33.6532 141.479C33.6532 132.197 26.119 124.671 16.8266 124.671C7.5342 124.671 0 132.197 0 141.479C0 150.761 7.5342 158.287 16.8266 158.287C20.4296 158.287 23.7665 157.156 26.5028 155.226C30.1058 155.437 34.0246 155.27 34.0246 155.27L29.6663 152.338ZM9.18714 144.144C8.22757 144.144 7.45372 143.371 7.45372 142.413C7.45372 141.454 8.22757 140.681 9.18714 140.681C10.1467 140.681 10.9206 141.454 10.9206 142.413C10.9206 143.371 10.1467 144.144 9.18714 144.144ZM16.9194 144.144C15.9599 144.144 15.186 143.371 15.186 142.413C15.186 141.454 15.9599 140.681 16.9194 140.681C17.879 140.681 18.6529 141.454 18.6529 142.413C18.6529 143.371 17.879 144.144 16.9194 144.144ZM24.6456 144.144C23.686 144.144 22.9121 143.371 22.9121 142.413C22.9121 141.454 23.686 140.681 24.6456 140.681C25.6051 140.681 26.379 141.454 26.379 142.413C26.379 143.371 25.6051 144.144 24.6456 144.144Z" fill="#FFCB00"/>
<path d="M186.776 68.6184C185.049 66.8931 185.049 64.067 186.776 62.3416L188.801 60.3194C190.528 58.5941 193.357 58.5941 195.084 60.3194C196.812 62.0448 196.812 64.8709 195.084 66.5962L193.06 68.6184C191.333 70.3438 188.503 70.3438 186.776 68.6184Z" fill="#0000BF"/>
<path d="M17.8914 214.352C15.7865 212.25 15.7865 208.811 17.8914 206.715L34.5446 190.08C36.6495 187.977 40.0916 187.977 42.1903 190.08C44.2951 192.182 44.2951 195.621 42.1903 197.717L25.537 214.352C23.4322 216.455 19.9901 216.455 17.8914 214.352Z" fill="#FF8A33"/>
<path d="M174.717 161.491C173.082 159.858 173.082 157.18 174.717 155.548L187.569 142.71C189.203 141.077 191.884 141.077 193.518 142.71C195.152 144.342 195.152 147.02 193.518 148.653L180.666 161.491C179.032 163.123 176.351 163.123 174.717 161.491Z" fill="#0000BF"/>
<path d="M19.3029 116.805C17.6685 115.172 17.6685 112.494 19.3029 110.862L27.1157 103.058C28.75 101.425 31.4307 101.425 33.065 103.058C34.6994 104.69 34.6994 107.368 33.065 109L25.2522 116.805C23.6179 118.437 20.9373 118.437 19.3029 116.805Z" fill="#0000BF"/>
<path d="M178.183 47.2587C176.549 45.6261 176.549 42.9484 178.183 41.3158L182.164 37.3394C183.798 35.7068 186.479 35.7068 188.113 37.3394C189.748 38.972 189.748 41.6497 188.113 43.2823L184.133 47.2587C182.498 48.8912 179.818 48.8912 178.183 47.2587Z" fill="#8FD2FF"/>
<path d="M49.514 54.5064C48.3377 53.3314 48.3377 51.402 49.514 50.2208L52.3803 47.3576C53.5566 46.1826 55.4881 46.1826 56.6705 47.3576C57.8468 48.5326 57.8468 50.462 56.6705 51.6432L53.8042 54.5064C52.6279 55.6814 50.6964 55.6814 49.514 54.5064Z" fill="#FFCB00"/>
<path d="M19.4515 182.43C17.8171 180.797 17.8171 178.12 19.4515 176.487L26.6947 169.252C28.3291 167.619 31.0097 167.619 32.6441 169.252C34.2784 170.884 34.2784 173.562 32.6441 175.195L25.4008 182.43C23.7665 184.063 21.0858 184.063 19.4515 182.43Z" fill="#8FD2FF"/>
<path d="M186.139 131.189C184.504 129.556 184.504 126.879 186.139 125.246L188.677 122.71C190.311 121.078 192.992 121.078 194.626 122.71C196.261 124.343 196.261 127.021 194.626 128.653L192.088 131.189C190.454 132.821 187.773 132.821 186.139 131.189Z" fill="#8FD2FF"/>
<path d="M41.856 213.956C40.2216 212.324 40.2216 209.646 41.856 208.014L44.3942 205.478C46.0286 203.845 48.7092 203.845 50.3435 205.478C51.9779 207.111 51.9779 209.788 50.3435 211.421L47.8053 213.956C46.1709 215.589 43.4903 215.589 41.856 213.956Z" fill="#0000BF"/>
</svg>
