<svg width="462" height="300" viewBox="0 0 462 300" fill="none" xmlns="http://www.w3.org/2000/svg">
<path d="M172.898 285.955C169.137 277.332 162.153 270.165 153.634 266.177C145.114 262.188 126.094 264.039 126.094 264.039L76.1242 263.938C77.1434 268.329 80.4019 279.592 82.8351 283.38C85.2682 287.175 88.8569 290.367 93.1993 291.594C98.5034 293.093 104.123 291.544 109.629 291.185C119.311 290.561 128.792 293.689 138.116 296.372C147.439 299.062 157.33 301.35 166.761 299.062C169.438 298.416 172.245 297.218 173.544 294.793C174.986 292.096 174.125 288.76 172.898 285.955Z" fill="#E1E1E1"/>
<path d="M410.746 125.269L346.925 139.843L356.754 182.841L420.575 168.266L410.746 125.269Z" fill="#F5F5F5"/>
<path d="M411.103 125.654C411.103 125.654 410.96 125.912 410.637 126.364C410.278 126.859 409.804 127.512 409.216 128.33C407.924 130.073 406.115 132.505 403.897 135.489C399.325 141.544 393.066 149.837 386.126 159.02L385.982 159.213L385.76 159.106C385.595 159.027 385.408 158.941 385.229 158.848C374.749 153.761 365.268 149.163 358.335 145.798C354.947 144.127 352.191 142.756 350.217 141.781C349.305 141.314 348.573 140.941 348.021 140.662C347.525 140.396 347.267 140.253 347.274 140.238C347.281 140.217 347.561 140.332 348.071 140.554C348.638 140.812 349.384 141.15 350.31 141.573C352.306 142.505 355.09 143.818 358.514 145.418C365.469 148.74 374.972 153.288 385.48 158.31C385.659 158.396 385.846 158.482 386.011 158.568L385.645 158.654C392.636 149.514 398.945 141.257 403.553 135.231C405.835 132.297 407.694 129.901 409.022 128.186C409.646 127.397 410.149 126.766 410.529 126.292C410.881 125.862 411.067 125.647 411.089 125.654H411.103Z" fill="#E1E1E1"/>
<path d="M357.114 183.225C356.971 183.153 360.423 176.158 364.823 167.614C369.23 159.063 372.912 152.197 373.063 152.276C373.206 152.348 369.754 159.343 365.354 167.887C360.954 176.431 357.265 183.303 357.114 183.225Z" fill="#E1E1E1"/>
<path d="M394.15 146.889C394.251 146.76 400.337 151.53 407.73 157.535C415.13 163.547 421.037 168.518 420.936 168.647C420.836 168.776 414.757 164.006 407.357 158.001C399.964 151.997 394.05 147.018 394.15 146.896V146.889Z" fill="#E1E1E1"/>
<path d="M126.411 8.22418L120.558 33.5631L158.169 42.2421L164.022 16.9031L126.411 8.22418Z" fill="#F5F5F5"/>
<path d="M164.149 17.306C164.149 17.306 164.005 17.4065 163.718 17.5643C163.402 17.7365 162.979 17.9588 162.462 18.2386C161.328 18.8269 159.742 19.6519 157.796 20.6706C153.813 22.708 148.358 25.4987 142.315 28.5835L142.185 28.648L142.099 28.5332C142.035 28.4471 141.956 28.3538 141.884 28.2606C137.635 22.8658 133.788 17.9876 130.974 14.4221C129.611 12.6645 128.498 11.2297 127.701 10.2039C127.335 9.7232 127.048 9.33582 126.826 9.04887C126.632 8.78343 126.531 8.6399 126.539 8.63272C126.546 8.62555 126.668 8.75469 126.883 9.00578C127.12 9.28556 127.429 9.65865 127.809 10.125C128.627 11.1365 129.768 12.5425 131.168 14.2714C134.003 17.8225 137.872 22.6793 142.157 28.0454C142.229 28.1387 142.307 28.2319 142.372 28.318L142.157 28.2678C148.215 25.2188 153.691 22.4569 157.689 20.4482C159.655 19.4797 161.256 18.6834 162.404 18.1166C162.943 17.8584 163.366 17.6575 163.696 17.4997C163.991 17.3634 164.149 17.2916 164.156 17.306H164.149Z" fill="#E1E1E1"/>
<path d="M120.682 33.9639C120.624 33.885 124.256 31.0656 128.792 27.6652C133.328 24.2647 137.054 21.5673 137.111 21.6462C137.168 21.7252 133.537 24.5445 129 27.945C124.464 31.3454 120.739 34.0428 120.682 33.9639Z" fill="#E1E1E1"/>
<path d="M149.686 24.2144C149.772 24.1714 151.775 28.2678 154.15 33.3541C156.526 38.4476 158.385 42.6013 158.299 42.6443C158.213 42.6873 156.21 38.591 153.835 33.5047C151.459 28.4184 149.6 24.2575 149.693 24.2144H149.686Z" fill="#E1E1E1"/>
<path d="M364.872 14.7692L337.392 26.5696L345.351 45.0846L372.831 33.2842L364.872 14.7692Z" fill="#F5F5F5"/>
<path d="M365.074 14.8022C365.074 14.8022 365.031 14.9314 364.923 15.1609C364.801 15.412 364.644 15.742 364.45 16.1581C364.012 17.0477 363.402 18.2888 362.648 19.8097C361.091 22.9088 358.959 27.1486 356.605 31.8475L356.555 31.9479L356.447 31.9193C356.368 31.8978 356.275 31.869 356.189 31.8475C351.064 30.427 346.42 29.1358 343.025 28.196C341.367 27.7225 340.011 27.3351 339.049 27.0625C338.604 26.9262 338.245 26.8186 337.972 26.7397C337.728 26.6607 337.599 26.6177 337.599 26.6106C337.599 26.6034 337.735 26.6249 337.987 26.6895C338.259 26.7612 338.625 26.8473 339.077 26.9621C340.054 27.2203 341.41 27.579 343.083 28.0166C346.477 28.9349 351.129 30.1975 356.26 31.5892C356.347 31.6108 356.44 31.6394 356.519 31.661L356.361 31.7328C358.751 27.0482 360.904 22.8227 362.476 19.7307C363.258 18.2242 363.897 16.9975 364.357 16.1151C364.572 15.7062 364.744 15.3834 364.881 15.1395C365.003 14.9171 365.067 14.8022 365.082 14.8094L365.074 14.8022Z" fill="#E1E1E1"/>
<path d="M345.552 45.1193C345.48 45.0977 346.456 41.6687 347.726 37.4719C349.004 33.268 350.095 29.8747 350.167 29.9034C350.239 29.9249 349.262 33.3469 347.985 37.5508C346.707 41.7547 345.616 45.1408 345.544 45.1193H345.552Z" fill="#E1E1E1"/>
<path d="M359.203 25.7425C359.239 25.6779 362.361 27.3208 366.18 29.4084C369.998 31.5032 373.063 33.2464 373.027 33.311C372.991 33.3756 369.869 31.7327 366.05 29.6451C362.232 27.5575 359.167 25.807 359.203 25.7425Z" fill="#E1E1E1"/>
<path d="M355.571 78.9085H100.499C94.7232 78.9085 90.0413 83.5882 90.0413 89.3609V250.875C90.0413 256.647 94.7232 261.327 100.499 261.327H355.571C361.347 261.327 366.029 256.647 366.029 250.875V89.3609C366.029 83.5882 361.347 78.9085 355.571 78.9085Z" fill="#375A64"/>
<path d="M378.259 249.54V252.733C378.259 259.778 372.539 265.502 365.483 265.502H92.0223C84.974 265.502 79.2463 259.785 79.2463 252.733V249.54H378.259Z" fill="#375A64"/>
<path d="M357.847 86.1542H97.4484V240.2H357.847V86.1542Z" fill="#1A2E35"/>
<path d="M200.825 247.833L204.536 253.73H256.745L260.19 247.833H200.825Z" fill="#1A2E35"/>
<path d="M105.164 91.3697H350.669C351.968 91.3697 353.016 92.4241 353.016 93.7155V237.359C353.016 238.658 351.961 239.705 350.669 239.705H105.164C103.865 239.705 102.817 238.65 102.817 237.359V93.7155C102.817 92.417 103.872 91.3697 105.164 91.3697Z" fill="#ECECEC"/>
<path d="M352.751 239.927H102.544L102.81 102.453H352.751V239.927Z" fill="#FAFAFA"/>
<path d="M123.33 97.1016C123.33 98.2064 122.433 99.0959 121.335 99.0959C120.237 99.0959 119.34 98.1992 119.34 97.1016C119.34 96.004 120.237 95.1072 121.335 95.1072C122.433 95.1072 123.33 96.004 123.33 97.1016Z" fill="#1A2E35"/>
<path d="M111.222 97.1016C111.222 98.2064 110.325 99.0959 109.227 99.0959C108.128 99.0959 107.231 98.1992 107.231 97.1016C107.231 96.004 108.128 95.1072 109.227 95.1072C110.325 95.1072 111.222 96.004 111.222 97.1016Z" fill="#1A2E35"/>
<path d="M117.036 97.1016C117.036 98.2064 116.138 99.0959 115.04 99.0959C113.942 99.0959 113.045 98.1992 113.045 97.1016C113.045 96.004 113.942 95.1072 115.04 95.1072C116.138 95.1072 117.036 96.004 117.036 97.1016Z" fill="#1A2E35"/>
<path d="M363.653 247.833C363.653 247.933 302.401 248.012 226.851 248.012C151.301 248.012 90.0341 247.933 90.0341 247.833C90.0341 247.733 151.279 247.654 226.851 247.654C302.422 247.654 363.653 247.733 363.653 247.833Z" fill="#1A2E35"/>
<path d="M182.932 156.157L284.73 155.203L287.709 224.374L182.3 223.614L182.932 156.157Z" fill="#5371FF"/>
<path d="M182.932 156.157L231.028 117.095C233.066 115.438 235.981 115.445 238.019 117.103L284.73 155.21" fill="#FF4F5B"/>
<path d="M182.932 156.157L231.028 117.095C233.066 115.438 235.981 115.445 238.019 117.103L284.73 155.21" fill="#0000BF"/>
<path d="M182.3 223.614C182.171 223.492 190.303 214.582 200.459 203.713C210.615 192.838 218.956 184.121 219.078 184.243C219.207 184.365 211.075 193.268 200.919 204.144C190.763 215.012 182.429 223.729 182.3 223.614Z" fill="#1A2E35"/>
<path d="M287.709 224.374C287.579 224.489 279.627 215.794 269.944 204.947C260.262 194.1 252.517 185.219 252.647 185.104C252.776 184.989 260.728 193.684 270.411 204.531C280.093 215.371 287.838 224.259 287.709 224.374Z" fill="#1A2E35"/>
<path d="M284.73 155.203L233.698 196.13L182.932 156.157" fill="black"/>
<path d="M188.064 159.924L187.841 128.15L276.978 126.909L278.048 160.34L233.691 195.592L188.064 159.924Z" fill="#FAFAFA"/>
<path d="M188.064 159.924C188.064 159.924 188.358 160.139 188.911 160.555C189.463 160.985 190.282 161.61 191.344 162.427C193.476 164.077 196.591 166.495 200.567 169.587C208.527 175.785 219.932 184.674 233.784 195.463H233.598C246.374 185.298 261.532 173.238 277.94 160.189L277.868 160.34C277.66 153.962 277.445 147.269 277.229 140.461C277.086 135.877 276.935 131.35 276.792 126.909L276.978 127.089C241.062 127.562 209.381 127.978 187.841 128.258L187.956 128.136C187.999 138.129 188.035 146.064 188.064 151.509C188.064 154.228 188.071 156.322 188.078 157.75C188.078 158.453 188.078 158.991 188.078 159.364C188.078 159.73 188.064 159.916 188.064 159.916C188.064 159.916 188.049 159.737 188.042 159.378C188.042 159.013 188.028 158.475 188.014 157.779C187.999 156.358 187.97 154.263 187.942 151.552C187.892 146.092 187.813 138.144 187.719 128.136V128.014H187.834C209.367 127.698 241.048 127.232 276.964 126.708H277.143V126.888C277.287 131.328 277.43 135.855 277.581 140.439C277.796 147.247 278.012 153.941 278.22 160.318V160.412L278.148 160.469C261.733 173.497 246.56 185.542 233.77 195.693L233.677 195.772L233.583 195.7C219.752 184.853 208.354 175.907 200.409 169.673C196.454 166.56 193.361 164.12 191.251 162.456C190.21 161.631 189.406 160.993 188.86 160.562C188.322 160.132 188.057 159.909 188.057 159.909L188.064 159.924Z" fill="#1A2E35"/>
<path d="M262.925 142.936C262.925 143.036 249.295 143.237 232.485 143.373C215.668 143.51 202.038 143.538 202.038 143.438C202.038 143.338 215.668 143.137 232.485 143C249.295 142.864 262.932 142.835 262.932 142.936H262.925Z" fill="#1A2E35"/>
<path d="M262.939 151.918C262.939 152.018 249.309 152.219 232.499 152.355C215.683 152.491 202.053 152.52 202.053 152.42C202.053 152.319 215.683 152.118 232.499 151.982C249.309 151.846 262.946 151.817 262.946 151.918H262.939Z" fill="#1A2E35"/>
<path d="M262.961 162.262C262.961 162.363 249.331 162.564 232.521 162.7C215.704 162.836 202.074 162.865 202.074 162.765C202.074 162.664 215.704 162.463 232.521 162.327C249.331 162.191 262.968 162.162 262.968 162.262H262.961Z" fill="#1A2E35"/>
<path d="M262.982 172.607C262.982 172.708 249.977 172.901 233.942 173.03C217.901 173.16 204.895 173.181 204.895 173.081C204.895 172.98 217.893 172.787 233.942 172.657C249.984 172.528 262.989 172.507 262.989 172.607H262.982Z" fill="#1A2E35"/>
<path d="M251.599 181.711C251.599 181.711 251.477 181.74 251.24 181.754C250.96 181.768 250.623 181.783 250.213 181.797C249.266 181.818 247.996 181.854 246.445 181.89C243.215 181.948 238.844 182.027 234.021 182.113C229.169 182.206 224.776 182.235 221.59 182.227C220.039 182.22 218.769 182.206 217.822 182.206C217.412 182.199 217.075 182.184 216.795 182.177C216.558 182.17 216.436 182.156 216.436 182.141C216.436 182.127 216.558 182.113 216.795 182.098C217.075 182.084 217.412 182.07 217.822 182.055C218.769 182.034 220.039 181.998 221.59 181.962C224.82 181.905 229.191 181.826 234.014 181.74C238.866 181.646 243.259 181.618 246.438 181.625C247.988 181.632 249.259 181.646 250.206 181.646C250.615 181.653 250.953 181.668 251.233 181.675C251.469 181.682 251.591 181.697 251.591 181.711H251.599Z" fill="#1A2E35"/>
<path d="M240.143 190.463C240.143 190.564 237.237 190.657 233.655 190.664C230.066 190.671 227.167 190.592 227.167 190.492C227.167 190.391 230.073 190.298 233.655 190.291C237.237 190.284 240.143 190.363 240.143 190.463Z" fill="#1A2E35"/>
<path d="M252.151 126.629C252.252 126.644 252.295 127.046 252.252 127.541C252.201 128.036 252.08 128.423 251.979 128.416C251.879 128.409 251.835 128 251.878 127.505C251.929 127.01 252.051 126.622 252.151 126.629Z" fill="#1A2E35"/>
<path d="M253.113 119.642C253.214 119.656 253.178 120.453 253.034 121.414C252.891 122.375 252.682 123.143 252.582 123.129C252.481 123.114 252.517 122.325 252.661 121.357C252.805 120.395 253.013 119.628 253.113 119.642Z" fill="#1A2E35"/>
<path d="M254.52 112.734C254.621 112.755 254.534 113.544 254.319 114.498C254.111 115.445 253.852 116.199 253.752 116.177C253.651 116.156 253.738 115.366 253.953 114.412C254.161 113.458 254.42 112.705 254.52 112.734Z" fill="#1A2E35"/>
<path d="M256.429 105.947C256.53 105.976 256.379 106.758 256.099 107.69C255.819 108.623 255.51 109.355 255.41 109.326C255.309 109.297 255.46 108.515 255.74 107.583C256.02 106.65 256.329 105.918 256.429 105.947Z" fill="#1A2E35"/>
<path d="M258.898 99.3327C258.991 99.3757 258.776 100.136 258.417 101.04C258.058 101.944 257.685 102.647 257.592 102.611C257.499 102.575 257.707 101.808 258.073 100.904C258.432 99.9998 258.805 99.2968 258.898 99.3327Z" fill="#1A2E35"/>
<path d="M261.956 92.9838C262.049 93.034 261.762 93.7729 261.317 94.6338C260.872 95.4946 260.441 96.1619 260.348 96.1188C260.255 96.0758 260.542 95.3368 260.987 94.4688C261.432 93.6007 261.862 92.9336 261.956 92.9838Z" fill="#1A2E35"/>
<path d="M265.645 86.9792C265.731 87.0366 265.358 87.7396 264.819 88.5431C264.303 89.3681 263.807 89.9851 263.721 89.9348C263.635 89.8846 263.987 89.1672 264.511 88.3422C265.056 87.5315 265.566 86.9218 265.652 86.9792H265.645Z" fill="#1A2E35"/>
<path d="M269.987 81.4265C270.066 81.4982 269.621 82.1583 269.004 82.9043C268.387 83.6504 267.813 84.2028 267.734 84.1382C267.655 84.0737 268.093 83.4137 268.717 82.6605C269.342 81.9072 269.908 81.3547 269.987 81.4265Z" fill="#1A2E35"/>
<path d="M274.961 76.4263C275.026 76.5052 274.516 77.1078 273.806 77.775C273.102 78.4422 272.471 78.9228 272.399 78.8511C272.327 78.7793 272.844 78.1767 273.555 77.5024C274.265 76.828 274.897 76.3474 274.961 76.4263Z" fill="#1A2E35"/>
<path d="M280.517 72.0789C280.574 72.165 279.985 72.6958 279.203 73.2697C278.421 73.8436 277.732 74.2454 277.667 74.1593C277.603 74.0804 278.191 73.5424 278.981 72.9685C279.77 72.3874 280.459 71.9928 280.517 72.0789Z" fill="#1A2E35"/>
<path d="M286.596 68.5064C286.639 68.5996 285.986 69.0515 285.132 69.5107C284.278 69.9698 283.546 70.2783 283.488 70.1851C283.438 70.099 284.091 69.647 284.952 69.1807C285.814 68.7144 286.546 68.4131 286.596 68.5064Z" fill="#1A2E35"/>
<path d="M293.127 65.8519C293.156 65.9524 292.445 66.2967 291.534 66.6267C290.622 66.9567 289.854 67.1505 289.811 67.05C289.768 66.9568 290.486 66.6052 291.405 66.2752C292.323 65.938 293.099 65.7515 293.127 65.8519Z" fill="#1A2E35"/>
<path d="M299.996 64.2522C300.011 64.3526 299.25 64.5607 298.295 64.7257C297.348 64.9266 296.558 65.0055 296.537 64.905C296.515 64.8046 297.269 64.5607 298.231 64.3598C299.192 64.1948 299.989 64.1517 300.003 64.2522H299.996Z" fill="#1A2E35"/>
<path d="M307.037 63.8648C307.037 63.9652 306.248 64.0585 305.279 64.0729C304.31 64.0872 303.52 64.0083 303.513 63.9079C303.513 63.8074 304.296 63.7141 305.272 63.6998C306.248 63.6855 307.045 63.7643 307.037 63.8648Z" fill="#1A2E35"/>
<path d="M314.035 64.6898C314.014 64.7902 313.217 64.7472 312.263 64.5965C311.308 64.4387 310.54 64.2306 310.547 64.1302C310.561 64.0297 311.351 64.0728 312.32 64.2234C313.289 64.3813 314.05 64.5893 314.028 64.6898H314.035Z" fill="#1A2E35"/>
<path d="M320.796 66.7057C320.761 66.799 319.985 66.6196 319.067 66.3039C318.148 65.9883 317.43 65.6511 317.459 65.5506C317.488 65.4502 318.263 65.6296 319.189 65.9524C320.115 66.2753 320.832 66.6125 320.796 66.7057Z" fill="#1A2E35"/>
<path d="M327.077 69.9053C327.019 69.9914 326.294 69.6757 325.455 69.1951C324.615 68.7144 323.969 68.2481 324.012 68.162C324.055 68.0759 324.787 68.3915 325.634 68.8722C326.488 69.36 327.127 69.8192 327.077 69.9053Z" fill="#1A2E35"/>
<path d="M332.604 74.2741C332.532 74.3459 331.879 73.8868 331.154 73.2555C330.429 72.617 329.89 72.0359 329.948 71.9498C330.012 71.8709 330.658 72.3229 331.398 72.9757C332.137 73.6214 332.675 74.2024 332.604 74.2813V74.2741Z" fill="#1A2E35"/>
<path d="M336.092 78.2844C336.006 78.3418 335.697 78.0764 335.396 77.689C335.094 77.3016 334.915 76.9285 334.994 76.8639C335.073 76.7994 335.388 77.0649 335.69 77.4594C335.998 77.854 336.178 78.2198 336.092 78.2844Z" fill="#1A2E35"/>
<path d="M369.28 121.514C369.237 121.608 368.476 121.349 367.572 120.926C366.668 120.51 365.979 120.094 366.022 120.001C366.065 119.907 366.833 120.173 367.73 120.589C368.627 121.005 369.316 121.421 369.28 121.514Z" fill="#1A2E35"/>
<path d="M376.056 123.868C376.034 123.968 375.238 123.81 374.283 123.523C373.328 123.229 372.589 122.921 372.625 122.82C372.661 122.72 373.451 122.878 374.398 123.164C375.338 123.451 376.084 123.767 376.056 123.868Z" fill="#1A2E35"/>
<path d="M383.133 124.994C383.133 125.094 382.322 125.094 381.331 124.987C380.341 124.879 379.551 124.707 379.566 124.606C379.58 124.506 380.391 124.506 381.367 124.614C382.343 124.721 383.133 124.893 383.133 124.994Z" fill="#1A2E35"/>
<path d="M390.303 124.771C390.317 124.872 389.521 125.015 388.53 125.094C387.54 125.166 386.729 125.144 386.729 125.044C386.729 124.944 387.518 124.8 388.502 124.721C389.485 124.649 390.289 124.671 390.303 124.771Z" fill="#1A2E35"/>
<path d="M397.351 123.451C397.38 123.552 396.619 123.824 395.65 124.061C394.674 124.269 393.87 124.334 393.849 124.233C393.827 124.126 394.603 123.903 395.564 123.695C396.519 123.459 397.316 123.351 397.344 123.451H397.351Z" fill="#1A2E35"/>
<path d="M404.012 120.811C404.062 120.905 403.366 121.314 402.462 121.73C401.557 122.146 400.789 122.404 400.753 122.311C400.718 122.218 401.414 121.801 402.304 121.393C403.201 120.984 403.962 120.725 404.012 120.811Z" fill="#1A2E35"/>
<path d="M409.955 116.816C410.02 116.894 409.46 117.483 408.663 118.085C407.866 118.688 407.141 119.061 407.091 118.975C407.034 118.889 407.651 118.379 408.441 117.784C409.23 117.189 409.883 116.737 409.955 116.816Z" fill="#1A2E35"/>
<path d="M414.836 111.579C414.922 111.636 414.52 112.346 413.881 113.114C413.242 113.881 412.625 114.412 412.553 114.341C412.474 114.269 412.969 113.63 413.594 112.877C414.218 112.117 414.749 111.514 414.836 111.579Z" fill="#1A2E35"/>
<path d="M418.202 105.266C418.295 105.301 418.108 106.09 417.699 107.002C417.29 107.913 416.831 108.587 416.738 108.537C416.644 108.487 416.96 107.748 417.355 106.851C417.757 105.954 418.094 105.23 418.195 105.266H418.202Z" fill="#1A2E35"/>
<path d="M419.53 98.2422C419.63 98.2422 419.716 99.0529 419.609 100.05C419.508 101.047 419.257 101.829 419.164 101.808C419.063 101.786 419.142 100.99 419.235 100.014C419.336 99.0385 419.422 98.2422 419.522 98.2422H419.53Z" fill="#1A2E35"/>
<path d="M418.489 91.176C418.582 91.1473 418.912 91.8933 419.135 92.869C419.357 93.8446 419.386 94.6625 419.286 94.6697C419.185 94.684 418.991 93.902 418.769 92.9479C418.554 91.9938 418.389 91.2047 418.489 91.176Z" fill="#1A2E35"/>
<path d="M415.374 84.7408C415.453 84.6834 415.998 85.2933 416.501 86.1613C417.003 87.0222 417.276 87.797 417.183 87.84C417.089 87.8831 416.673 87.2016 416.178 86.3479C415.683 85.5014 415.295 84.7982 415.374 84.7408Z" fill="#1A2E35"/>
<path d="M410.393 79.6259C410.45 79.5399 411.168 79.9416 411.921 80.5944C412.682 81.2472 413.178 81.9 413.099 81.9717C413.02 82.0435 412.417 81.5199 411.677 80.8814C410.938 80.2357 410.335 79.7192 410.393 79.6259Z" fill="#1A2E35"/>
<path d="M403.883 76.7133C403.904 76.6129 404.723 76.6918 405.677 77.0075C406.632 77.3231 407.335 77.7464 407.292 77.8325C407.249 77.9257 406.495 77.6674 405.562 77.359C404.629 77.0505 403.868 76.8137 403.89 76.7133H403.883Z" fill="#1A2E35"/>
<path d="M396.763 76.8281C396.734 76.7276 397.502 76.4334 398.5 76.3115C399.497 76.1824 400.316 76.2613 400.316 76.3618C400.316 76.4694 399.519 76.5482 398.55 76.6774C397.581 76.7993 396.792 76.9285 396.763 76.8281Z" fill="#1A2E35"/>
<path d="M390.583 80.2931C390.511 80.2285 390.999 79.5613 391.81 78.9516C392.614 78.3418 393.382 78.0405 393.432 78.1265C393.483 78.2198 392.815 78.6574 392.04 79.2457C391.258 79.834 390.669 80.3576 390.59 80.2859L390.583 80.2931Z" fill="#1A2E35"/>
<path d="M387.741 86.7281C387.64 86.7281 387.604 85.8959 387.841 84.9131C388.078 83.9303 388.501 83.2129 388.595 83.2559C388.695 83.2989 388.43 84.0522 388.207 84.9992C387.978 85.9462 387.848 86.728 387.741 86.7209V86.7281Z" fill="#1A2E35"/>
<path d="M389.14 93.6868C389.054 93.737 388.595 93.0483 388.265 92.0941C387.934 91.14 387.87 90.3222 387.963 90.3007C388.071 90.2791 388.293 91.0468 388.616 91.9722C388.932 92.8977 389.234 93.6366 389.133 93.6868H389.14Z" fill="#1A2E35"/>
<path d="M393.834 99.017C393.777 99.1031 393.052 98.7157 392.306 98.0485C391.552 97.3813 391.078 96.707 391.157 96.6425C391.236 96.5707 391.817 97.1231 392.557 97.7687C393.289 98.4144 393.899 98.9309 393.841 99.017H393.834Z" fill="#1A2E35"/>
<path d="M400.344 101.937C400.323 102.037 399.512 101.93 398.564 101.607C397.617 101.284 396.913 100.868 396.957 100.775C397 100.681 397.76 100.932 398.686 101.248C399.612 101.564 400.373 101.829 400.344 101.93V101.937Z" fill="#1A2E35"/>
<path d="M407.471 102.618C407.471 102.719 406.675 102.855 405.677 102.826C404.679 102.805 403.876 102.64 403.89 102.539C403.897 102.432 404.701 102.432 405.684 102.453C406.668 102.475 407.471 102.511 407.471 102.618Z" fill="#1A2E35"/>
<path d="M414.498 101.313C414.534 101.406 413.788 101.743 412.819 101.994C411.85 102.245 411.039 102.303 411.024 102.202C411.003 102.102 411.778 101.879 412.733 101.635C413.687 101.392 414.47 101.219 414.498 101.32V101.313Z" fill="#1A2E35"/>
<path d="M421.008 98.3355C421.066 98.4216 420.391 98.8735 419.508 99.3398C418.625 99.8061 417.879 100.107 417.836 100.014C417.793 99.9209 418.467 99.4689 419.336 99.0098C420.204 98.5507 420.958 98.2494 421.008 98.3355Z" fill="#1A2E35"/>
<path d="M426.765 94.0598C426.836 94.1388 426.269 94.7126 425.494 95.3439C424.726 95.9752 424.051 96.42 423.987 96.3339C423.929 96.2478 424.496 95.674 425.257 95.0498C426.018 94.4257 426.693 93.9809 426.765 94.0598Z" fill="#1A2E35"/>
<path d="M431.652 88.8157C431.731 88.8803 431.279 89.5402 430.626 90.3007C429.98 91.0611 429.392 91.6136 429.32 91.5418C429.248 91.4701 429.7 90.8029 430.346 90.0568C430.985 89.3107 431.573 88.7511 431.652 88.8157Z" fill="#1A2E35"/>
<path d="M435.6 82.8327C435.693 82.8829 435.349 83.6147 434.839 84.4684C434.323 85.3221 433.842 85.9676 433.755 85.9102C433.669 85.8529 434.014 85.1212 434.516 84.2747C435.026 83.4281 435.507 82.7825 435.6 82.8327Z" fill="#1A2E35"/>
<path d="M438.507 76.2757C438.607 76.3115 438.392 77.0863 438.026 78.0118C437.667 78.9444 437.279 79.6546 437.179 79.6044C437.093 79.5685 437.323 78.7937 437.674 77.8754C438.033 76.9572 438.406 76.2398 438.5 76.2757H438.507Z" fill="#1A2E35"/>
<path d="M440.517 69.3887C440.617 69.4103 440.495 70.2066 440.244 71.175C439.993 72.1363 439.713 72.8968 439.612 72.8609C439.512 72.8322 439.634 72.0359 439.885 71.0746C440.136 70.1205 440.416 69.36 440.517 69.3887Z" fill="#1A2E35"/>
<path d="M441.773 62.3295C441.873 62.3439 441.837 63.1474 441.687 64.1302C441.536 65.113 441.335 65.895 441.227 65.8735C441.127 65.852 441.163 65.0485 441.313 64.0729C441.464 63.0972 441.665 62.3152 441.773 62.3295Z" fill="#1A2E35"/>
<path d="M442.433 55.1915C442.533 55.1915 442.562 56.0021 442.483 56.9921C442.411 57.9821 442.268 58.7784 442.16 58.7641C442.06 58.7569 442.031 57.9462 442.11 56.9634C442.182 55.9806 442.325 55.1843 442.433 55.1915Z" fill="#1A2E35"/>
<path d="M442.663 48.0175C442.763 48.0175 442.835 48.821 442.813 49.811C442.792 50.801 442.699 51.6045 442.591 51.5973C442.49 51.5973 442.418 50.7867 442.44 49.8038C442.462 48.8138 442.555 48.0104 442.663 48.0175Z" fill="#1A2E35"/>
<path d="M442.612 40.8508C442.713 40.8508 442.813 41.6471 442.828 42.6443C442.842 43.6343 442.77 44.4378 442.67 44.4378C442.569 44.4378 442.469 43.6343 442.455 42.6443C442.44 41.6543 442.512 40.8508 442.612 40.8508Z" fill="#1A2E35"/>
<path d="M442.505 36.4389C442.605 36.4389 442.699 36.6182 442.706 36.8478C442.706 37.0774 442.634 37.2639 442.533 37.2639C442.433 37.2639 442.34 37.0845 442.332 36.8549C442.332 36.6253 442.404 36.4389 442.505 36.4389Z" fill="#1A2E35"/>
<path d="M458.247 15.0983L409.462 20.3955L413.035 53.2667L461.82 47.9696L458.247 15.0983Z" fill="#5371FF"/>
<path d="M412.998 53.3407V53.3263L409.424 20.4411H409.438L458.245 15.1395V15.1538L461.819 48.0391H461.805L412.998 53.3407ZM409.46 20.4697L413.027 53.3048L461.776 48.0104L458.209 15.1753L409.46 20.4697Z" fill="#1A2E35"/>
<path d="M458.431 15.534C458.431 15.534 458.302 15.7134 458.022 16.0219C457.714 16.3591 457.304 16.8038 456.795 17.3562C455.682 18.5399 454.125 20.1899 452.209 22.2202C448.275 26.3308 442.892 31.9624 436.928 38.1965L436.799 38.3256L436.648 38.2252C436.533 38.1534 436.404 38.0674 436.275 37.9884C428.918 33.2895 422.257 29.0353 417.391 25.929C415.015 24.3866 413.084 23.1313 411.699 22.2345C411.06 21.8113 410.551 21.4669 410.163 21.2086C409.811 20.9719 409.632 20.8356 409.646 20.8284C409.653 20.814 409.847 20.9217 410.213 21.1369C410.608 21.3736 411.139 21.6964 411.792 22.091C413.199 22.959 415.159 24.1786 417.563 25.6708C422.451 28.7484 429.133 32.9667 436.519 37.6226C436.648 37.7015 436.777 37.7875 436.892 37.8593L436.612 37.8952C442.612 31.6969 448.031 26.1012 451.986 22.0121C453.938 20.0249 455.532 18.4036 456.673 17.2414C457.211 16.7105 457.635 16.2873 457.965 15.9644C458.266 15.6775 458.424 15.5269 458.439 15.5412L458.431 15.534Z" fill="#1A2E35"/>
<path d="M413.214 53.6994C413.113 53.6276 416.293 48.7278 420.312 42.7448C424.339 36.7617 427.683 31.9695 427.784 32.0412C427.884 32.113 424.705 37.0128 420.685 42.9958C416.659 48.9717 413.314 53.7711 413.214 53.6994Z" fill="#1A2E35"/>
<path d="M443.955 29.8675C444.041 29.7814 448.153 33.8635 453.135 38.9785C458.116 44.0935 462.085 48.3118 461.999 48.3978C461.912 48.4839 457.8 44.4019 452.819 39.2869C447.838 34.1719 443.868 29.9536 443.955 29.8675Z" fill="#1A2E35"/>
<path d="M235.442 114.807C235.543 114.793 235.693 115.173 235.78 115.661C235.866 116.148 235.844 116.557 235.744 116.579C235.643 116.6 235.492 116.213 235.406 115.725C235.32 115.237 235.342 114.828 235.442 114.807Z" fill="#1A2E35"/>
<path d="M234.294 107.812C234.394 107.798 234.602 108.566 234.76 109.534C234.918 110.502 234.961 111.299 234.861 111.313C234.76 111.327 234.552 110.56 234.394 109.591C234.236 108.623 234.193 107.827 234.294 107.812Z" fill="#1A2E35"/>
<path d="M233.267 100.789C233.368 100.775 233.562 101.549 233.698 102.518C233.834 103.486 233.863 104.283 233.756 104.297C233.648 104.311 233.461 103.537 233.325 102.568C233.188 101.6 233.16 100.796 233.267 100.789Z" fill="#1A2E35"/>
<path d="M232.464 93.7441C232.564 93.737 232.729 94.519 232.837 95.4874C232.937 96.4631 232.937 97.2594 232.837 97.2737C232.736 97.2881 232.571 96.5061 232.464 95.5304C232.363 94.5548 232.363 93.7585 232.464 93.7441Z" fill="#1A2E35"/>
<path d="M231.968 86.6707C232.069 86.6707 232.198 87.4526 232.255 88.4283C232.313 89.4039 232.27 90.2003 232.169 90.2075C232.069 90.2147 231.94 89.4255 231.882 88.4498C231.825 87.4742 231.868 86.6707 231.968 86.6707Z" fill="#1A2E35"/>
<path d="M231.889 79.5756C231.99 79.5756 232.069 80.3719 232.069 81.3548C232.069 82.3304 231.976 83.1267 231.875 83.1267C231.775 83.1267 231.696 82.3304 231.696 81.3476C231.696 80.3647 231.789 79.5685 231.889 79.5756Z" fill="#1A2E35"/>
<path d="M232.334 72.5022C232.435 72.5166 232.456 73.3128 232.37 74.2813C232.291 75.257 232.141 76.039 232.04 76.0318C231.94 76.0318 231.918 75.2283 232.004 74.2526C232.083 73.277 232.234 72.4879 232.334 72.5022Z" fill="#1A2E35"/>
<path d="M233.404 65.4933C233.504 65.5148 233.447 66.3111 233.282 67.2724C233.109 68.2337 232.894 69.0013 232.787 68.987C232.686 68.9726 232.743 68.1763 232.909 67.2078C233.081 66.2394 233.303 65.4717 233.404 65.4933Z" fill="#1A2E35"/>
<path d="M235.212 58.6351C235.313 58.6709 235.162 59.4528 234.89 60.3854C234.61 61.3181 234.301 62.057 234.208 62.0283C234.107 61.9996 234.251 61.2176 234.538 60.2778C234.818 59.338 235.126 58.5992 235.22 58.6351H235.212Z" fill="#1A2E35"/>
<path d="M237.868 52.0637C237.962 52.1067 237.718 52.8671 237.323 53.7639C236.928 54.6534 236.533 55.3493 236.44 55.3135C236.347 55.2776 236.591 54.5172 236.985 53.6132C237.38 52.7165 237.775 52.0206 237.868 52.0637Z" fill="#1A2E35"/>
<path d="M241.328 45.8726C241.414 45.93 241.077 46.6545 240.574 47.4867C240.072 48.3189 239.591 48.9574 239.497 48.9071C239.404 48.8569 239.742 48.1323 240.251 47.293C240.761 46.4537 241.242 45.8152 241.328 45.8726Z" fill="#1A2E35"/>
<path d="M245.584 40.2052C245.663 40.2769 245.225 40.944 244.615 41.7045C244.005 42.4649 243.438 43.0317 243.359 42.9671C243.273 42.9025 243.711 42.2354 244.328 41.4678C244.945 40.7002 245.512 40.1334 245.584 40.2052Z" fill="#1A2E35"/>
<path d="M250.622 35.2193C250.687 35.2982 250.156 35.8937 249.438 36.5537C248.721 37.2137 248.075 37.6871 248.003 37.6154C247.931 37.5437 248.462 36.9482 249.187 36.2811C249.912 35.6139 250.558 35.1404 250.622 35.2193Z" fill="#1A2E35"/>
<path d="M256.422 31.1444C256.472 31.2377 255.848 31.7327 255.03 32.2564C254.211 32.7801 253.494 33.1388 253.436 33.0527C253.379 32.9667 254.003 32.4716 254.829 31.9407C255.661 31.4099 256.372 31.0512 256.422 31.1444Z" fill="#1A2E35"/>
<path d="M262.889 28.2391C262.917 28.3395 262.214 28.7053 261.303 29.0569C260.398 29.4084 259.623 29.6236 259.58 29.5304C259.537 29.4371 260.248 29.0712 261.166 28.7125C262.085 28.3538 262.853 28.1458 262.889 28.2391Z" fill="#1A2E35"/>
<path d="M268.071 26.9621C268.085 27.0626 267.712 27.2204 267.224 27.3136C266.743 27.4069 266.334 27.3997 266.312 27.2993C266.291 27.1988 266.671 27.041 267.159 26.9478C267.647 26.8545 268.057 26.8617 268.071 26.9621Z" fill="#1A2E35"/>
<path d="M229.871 0L216.9 33.5293L266.667 52.763L279.638 19.2337L229.871 0Z" fill="#5371FF"/>
<path d="M266.7 52.8098H266.686L216.903 33.5621V33.5477L229.887 0.00246233H229.901L279.684 19.2502V19.2645L266.7 52.8098ZM216.946 33.5406L266.679 52.7595L279.634 19.2645L229.901 0.0455479L216.946 33.5406Z" fill="#1A2E35"/>
<path d="M279.663 19.7237C279.663 19.7237 279.447 19.8313 279.024 19.9891C278.557 20.1613 277.94 20.3836 277.172 20.6634C275.507 21.2517 273.174 22.0695 270.318 23.0738C264.468 25.0825 256.451 27.8301 247.579 30.8719L247.393 30.9364L247.292 30.7643C247.213 30.6351 247.134 30.4917 247.048 30.3482C242.289 22.1412 237.983 14.7091 234.832 9.27839C233.311 6.60251 232.069 4.42168 231.179 2.86494C230.777 2.1332 230.454 1.55206 230.21 1.10728C229.995 0.705536 229.887 0.490315 229.901 0.475967C229.916 0.468793 230.052 0.669705 230.296 1.0571C230.562 1.48753 230.913 2.05428 231.344 2.7645C232.263 4.30689 233.555 6.45904 235.134 9.09904C238.313 14.5154 242.663 21.9189 247.472 30.0971C247.558 30.2406 247.637 30.3841 247.716 30.5132L247.429 30.4056C256.321 27.414 264.346 24.7167 270.217 22.7439C273.095 21.7969 275.442 21.0293 277.122 20.4769C277.904 20.233 278.529 20.0321 279.009 19.8815C279.44 19.7523 279.67 19.6878 279.677 19.7093L279.663 19.7237Z" fill="#1A2E35"/>
<path d="M216.924 34.0213C216.86 33.9065 222.379 30.7572 229.255 26.9837C236.131 23.2174 241.751 20.2545 241.816 20.3765C241.88 20.4912 236.361 23.6406 229.485 27.4141C222.609 31.1804 216.989 34.1432 216.924 34.0213Z" fill="#1A2E35"/>
<path d="M258.525 26.3523C258.654 26.3165 260.585 32.3066 262.838 39.7316C265.092 47.1638 266.822 53.2187 266.693 53.2546C266.564 53.2904 264.633 47.3002 262.379 39.8752C260.125 32.4502 258.396 26.3954 258.525 26.3523Z" fill="#1A2E35"/>
<path d="M214.541 122.662C214.642 122.662 214.692 123.078 214.656 123.573C214.613 124.068 214.498 124.463 214.398 124.456C214.297 124.449 214.247 124.04 214.283 123.545C214.326 123.05 214.441 122.655 214.541 122.662Z" fill="#1A2E35"/>
<path d="M214.721 115.366C214.821 115.366 214.907 116.184 214.9 117.189C214.9 118.2 214.814 119.018 214.706 119.011C214.606 119.011 214.52 118.193 214.527 117.189C214.527 116.184 214.613 115.366 214.721 115.366Z" fill="#1A2E35"/>
<path d="M214.226 108.085C214.326 108.071 214.484 108.881 214.577 109.886C214.671 110.89 214.663 111.715 214.556 111.722C214.455 111.722 214.297 110.926 214.204 109.921C214.111 108.924 214.118 108.099 214.226 108.085Z" fill="#1A2E35"/>
<path d="M213.005 100.889C213.106 100.868 213.343 101.65 213.537 102.647C213.73 103.637 213.809 104.455 213.702 104.476C213.601 104.491 213.357 103.709 213.171 102.719C212.977 101.736 212.905 100.918 213.005 100.889Z" fill="#1A2E35"/>
<path d="M211.025 93.8662C211.125 93.8303 211.448 94.5835 211.749 95.552C212.051 96.5205 212.216 97.324 212.115 97.3527C212.015 97.3814 211.692 96.6281 211.391 95.6668C211.089 94.7055 210.924 93.902 211.025 93.8662Z" fill="#1A2E35"/>
<path d="M208.232 87.1299C208.326 87.0868 208.735 87.797 209.151 88.7153C209.568 89.6407 209.826 90.4155 209.733 90.4586C209.639 90.4944 209.223 89.7842 208.814 88.8731C208.405 87.9548 208.139 87.1801 208.232 87.1299Z" fill="#1A2E35"/>
<path d="M204.608 80.7952C204.694 80.7378 205.211 81.3834 205.749 82.2371C206.266 83.1052 206.61 83.8513 206.524 83.9087C206.431 83.9589 205.943 83.2989 205.433 82.438C204.895 81.5915 204.522 80.8597 204.608 80.8023V80.7952Z" fill="#1A2E35"/>
<path d="M200.136 75.0274C200.215 74.9557 200.804 75.5296 201.45 76.3115C202.096 77.0863 202.555 77.7679 202.476 77.8325C202.397 77.897 201.809 77.3231 201.163 76.5483C200.517 75.7807 200.057 75.0992 200.136 75.0274Z" fill="#1A2E35"/>
<path d="M194.89 69.9554C194.954 69.8765 195.622 70.3643 196.368 71.0387C197.122 71.7202 197.674 72.3228 197.595 72.4017C197.524 72.4735 196.863 71.9928 196.117 71.3184C195.37 70.6441 194.818 70.0343 194.89 69.9554Z" fill="#1A2E35"/>
<path d="M188.968 65.6869C189.018 65.6009 189.751 65.981 190.59 66.5406C191.43 67.1002 192.069 67.6239 192.004 67.71C191.947 67.796 191.215 67.4087 190.382 66.8563C189.55 66.2967 188.911 65.7802 188.968 65.6869Z" fill="#1A2E35"/>
<path d="M182.465 62.3726C182.501 62.2794 183.284 62.5448 184.202 62.968C185.121 63.3913 185.832 63.8074 185.781 63.9007C185.731 63.9939 184.956 63.7285 184.044 63.3053C183.133 62.882 182.422 62.4659 182.465 62.3726Z" fill="#1A2E35"/>
<path d="M175.51 60.1774C175.532 60.0769 176.343 60.2061 177.319 60.4715C178.295 60.737 179.063 61.0311 179.035 61.1244C179.006 61.2248 178.195 61.0885 177.226 60.8302C176.257 60.572 175.489 60.2778 175.51 60.1774Z" fill="#1A2E35"/>
<path d="M168.276 59.2519C168.276 59.1515 169.101 59.1085 170.113 59.1658C171.125 59.2735 171.929 59.4385 171.915 59.5389C171.9 59.6393 171.082 59.6393 170.084 59.5389C169.087 59.4815 168.276 59.3524 168.276 59.2519Z" fill="#1A2E35"/>
<path d="M160.998 59.7541C160.983 59.6536 161.78 59.4743 162.792 59.3524C163.797 59.2304 164.622 59.2232 164.629 59.3237C164.629 59.4241 163.833 59.6034 162.835 59.7253C161.837 59.8401 161.019 59.8545 160.998 59.7541Z" fill="#1A2E35"/>
<path d="M153.949 61.6265C153.913 61.5332 154.667 61.2032 155.636 60.8947C156.605 60.5862 157.409 60.4213 157.43 60.5217C157.459 60.6222 156.705 60.9449 155.744 61.2534C154.789 61.5547 153.985 61.7269 153.949 61.6265Z" fill="#1A2E35"/>
<path d="M147.375 64.7902C147.317 64.7041 147.999 64.2377 148.889 63.7571C149.779 63.2764 150.54 62.9608 150.583 63.0541C150.626 63.1473 149.951 63.6137 149.069 64.0872C148.186 64.5606 147.425 64.8763 147.375 64.7902Z" fill="#1A2E35"/>
<path d="M141.547 69.1735C141.475 69.1018 142.049 68.5136 142.831 67.8607C143.614 67.2079 144.296 66.7487 144.353 66.8348C144.418 66.9209 143.844 67.502 143.068 68.1477C142.3 68.7862 141.619 69.2453 141.547 69.1735Z" fill="#1A2E35"/>
<path d="M136.774 74.6759C136.688 74.6185 137.082 73.8867 137.7 73.0832C138.324 72.2797 138.927 71.7202 139.006 71.7848C139.085 71.8565 138.611 72.5165 137.994 73.3128C137.384 74.102 136.86 74.7333 136.774 74.6759Z" fill="#1A2E35"/>
<path d="M134.111 79.4107C134.018 79.3676 134.111 78.9731 134.333 78.5211C134.549 78.0692 134.8 77.7463 134.893 77.7965C134.987 77.8468 134.886 78.2413 134.671 78.6861C134.455 79.1309 134.204 79.4537 134.111 79.4107Z" fill="#1A2E35"/>
<path d="M88.5053 121.751C88.5053 121.651 88.8857 121.514 89.3737 121.457C89.8618 121.4 90.2709 121.436 90.2853 121.536C90.3068 121.636 89.9121 121.766 89.4168 121.83C88.9216 121.887 88.5125 121.859 88.5053 121.751Z" fill="#1A2E35"/>
<path d="M81.3924 120.948C81.4211 120.847 82.2106 121.012 83.1724 121.213C84.1342 121.414 84.9237 121.579 84.9094 121.687C84.9022 121.787 84.0768 121.787 83.0935 121.579C82.1102 121.371 81.3565 121.041 81.3924 120.948Z" fill="#1A2E35"/>
<path d="M74.9686 117.77C75.026 117.684 75.7294 118.078 76.5763 118.588C77.4233 119.097 78.1051 119.52 78.0548 119.613C78.0118 119.707 77.2438 119.427 76.3825 118.91C75.5212 118.401 74.9112 117.856 74.9686 117.777V117.77Z" fill="#1A2E35"/>
<path d="M69.6285 112.977C69.7075 112.906 70.2961 113.458 70.9923 114.161C71.6885 114.864 72.2268 115.46 72.1622 115.531C72.0976 115.61 71.4301 115.13 70.7267 114.419C70.0233 113.709 69.5496 113.042 69.6285 112.977Z" fill="#1A2E35"/>
<path d="M65.4082 107.167C65.4943 107.116 66.0111 107.741 66.5494 108.566C67.0877 109.391 67.4609 110.108 67.382 110.173C67.2959 110.237 66.7863 109.606 66.2408 108.774C65.6953 107.941 65.3221 107.217 65.4082 107.167Z" fill="#1A2E35"/>
<path d="M62.3076 100.681C62.4009 100.646 62.7956 101.356 63.1832 102.26C63.5708 103.171 63.8077 103.938 63.7144 103.989C63.621 104.032 63.2263 103.329 62.8387 102.41C62.444 101.492 62.2071 100.717 62.3076 100.681Z" fill="#1A2E35"/>
<path d="M60.2404 93.8015C60.3409 93.78 60.628 94.5334 60.8792 95.4947C61.1304 96.4488 61.2525 97.2523 61.152 97.281C61.0515 97.3097 60.7644 96.5564 60.5132 95.5879C60.262 94.6266 60.1399 93.8231 60.2404 93.8015Z" fill="#1A2E35"/>
<path d="M58.9916 86.7209C59.092 86.7065 59.3002 87.4886 59.4437 88.4714C59.5945 89.4542 59.6303 90.2577 59.5299 90.2792C59.4294 90.3007 59.2284 89.5116 59.0777 88.5287C58.927 87.5459 58.8911 86.7352 58.9916 86.7209Z" fill="#1A2E35"/>
<path d="M58.3025 79.5613C58.403 79.5613 58.5538 80.3504 58.6327 81.3404C58.7117 82.3304 58.6973 83.1411 58.5896 83.1483C58.4891 83.1554 58.3384 82.3663 58.2595 81.3692C58.1805 80.3792 58.1948 79.5685 58.3025 79.5613Z" fill="#1A2E35"/>
<path d="M58.0083 74.1737C58.1088 74.1737 58.2164 74.5682 58.2379 75.0632C58.2595 75.5582 58.1949 75.96 58.0944 75.9672C57.9939 75.9672 57.8862 75.5726 57.8647 75.0776C57.8432 74.5826 57.9078 74.1809 58.0083 74.1737Z" fill="#1A2E35"/>
<path d="M85.0441 30.647L25.3653 33.46L27.2624 73.6682L86.9412 70.8552L85.0441 30.647Z" fill="#5371FF"/>
<path d="M27.2313 73.7217V73.7003L25.3365 33.476H25.358L85.0601 30.6639V30.6853L86.9549 70.9096H86.9334L27.2313 73.7217ZM25.3723 33.5119L27.2672 73.6859L86.9119 70.8737L85.0171 30.6997L25.3723 33.5119Z" fill="#1A2E35"/>
<path d="M85.2467 31.1589C85.2467 31.1589 85.0744 31.3669 84.7156 31.7184C84.3136 32.1058 83.7825 32.6152 83.1222 33.2537C81.6795 34.6095 79.6626 36.5034 77.1936 38.8277C72.1048 43.5338 65.1498 49.9689 57.434 57.107L57.269 57.2576L57.0895 57.1284C56.9532 57.028 56.8024 56.9204 56.6517 56.8128C48.0603 50.5572 40.2871 44.8969 34.6026 40.7576C31.8321 38.7058 29.5712 37.0343 27.9562 35.8434C27.2098 35.2767 26.6141 34.8247 26.1691 34.4876C25.76 34.1719 25.5517 33.9997 25.5661 33.9853C25.5805 33.971 25.803 34.1145 26.2336 34.4015C26.7002 34.7243 27.3174 35.1476 28.0854 35.6785C29.729 36.8406 32.0187 38.4619 34.8322 40.4562C40.5383 44.5597 48.3474 50.177 56.9747 56.3824C57.1254 56.49 57.2761 56.5976 57.4125 56.698L57.068 56.7196C64.8196 49.6317 71.8177 43.2397 76.9352 38.5623C79.4545 36.2882 81.5144 34.4445 82.9858 33.1173C83.6748 32.5075 84.2275 32.0269 84.6438 31.661C85.0242 31.331 85.2323 31.166 85.2467 31.1804V31.1589Z" fill="#1A2E35"/>
<path d="M27.461 74.1737C27.339 74.0804 31.5737 68.3629 36.9066 61.3898C42.2394 54.4239 46.6607 48.8498 46.7827 48.9359C46.9048 49.0291 42.6772 54.7467 37.3372 61.7198C32.0043 68.6857 27.583 74.2598 27.461 74.1737Z" fill="#1A2E35"/>
<path d="M66.5925 47.5083C66.7074 47.4078 71.4014 52.6735 77.0716 59.2592C82.749 65.852 87.2564 71.2683 87.1416 71.3688C87.0268 71.4692 82.3399 66.2035 76.6625 59.6179C70.9923 53.0322 66.4777 47.6087 66.5925 47.5154V47.5083Z" fill="#1A2E35"/>
<path d="M132.159 173.504C132.288 172.679 131.757 171.897 130.917 171.689L129.316 171.796L123.596 169.809C122.526 169.537 121.45 170.297 121.428 171.366C121.4 173.009 120.739 177.485 119.404 176.079C119.375 176.043 119.34 176.022 119.311 175.986C117.423 173.884 115.241 172.865 114.394 172.987C113.569 173.102 113.368 174.135 113.985 174.68C114.079 174.774 114.186 174.86 114.323 174.917C114.38 174.939 114.452 174.989 114.516 175.018C115.213 175.47 116.067 176.302 116.705 176.969C117.308 177.607 117.796 178.346 118.148 179.143C118.536 180.032 118.83 180.807 119.067 181.474L119.153 186.733L116.871 211.318C116.871 211.318 101.733 195.42 102.078 195.262L102.946 220.005L112.119 227.595C116.017 230.816 121.565 231.125 125.792 228.356C129.101 226.189 131.068 222.473 131.003 218.52L130.472 186.733L130.845 182.565L132.151 173.504H132.159Z" fill="#FFC19D"/>
<path d="M47.1272 208.448L30.5617 246.362L17.4484 273.709L7.70858 276.981C7.70858 276.981 0 279.219 0 280.811C0 282.404 2.03128 282.045 2.03128 282.045C2.4045 284.427 5.7061 283.078 8.01007 282.01C10.3212 280.941 15.4459 280.725 15.4459 280.725C14.0319 281.816 14.4842 283.495 15.3024 284.068C16.1206 284.642 17.5417 283.946 18.5107 282.921C19.4725 281.895 21.9559 281.414 24.712 280.431C27.4754 279.448 27.9275 275.74 27.9275 275.74L61.1089 219.876L47.12 208.455L47.1272 208.448Z" fill="#FFC19D"/>
<path d="M102.142 222.215L106.313 227.724L115.349 207.688C115.349 207.688 106.578 196.991 103.37 192.508C100.19 188.06 97.8072 187.285 97.8072 187.285C97.8072 187.285 91.9791 185.556 89.0722 185.614L74.6743 186.474L60.0538 192.852C56.4651 194.416 53.4075 196.991 51.2543 200.263L37.4879 222.366L56.9819 230.694L63.5205 268.049C64.7766 273.652 65.8675 278.939 71.0425 281.522L107.195 246.793L102.961 240.128L102.15 222.222L102.142 222.215Z" fill="#5371FF"/>
<path d="M67.5758 215.364C67.6619 215.421 65.4368 218.886 62.6017 223.097C59.7666 227.308 57.3981 230.68 57.312 230.623C57.2258 230.565 59.4509 227.108 62.286 222.889C65.1211 218.678 67.4896 215.306 67.5686 215.364H67.5758Z" fill="#1A2E35"/>
<path d="M97.8862 250.832C97.8862 250.832 97.5561 251.054 96.9245 251.406C96.2928 251.757 95.3741 252.245 94.2329 252.833C91.9505 254.017 88.7708 255.602 85.218 257.274C81.6651 258.945 78.421 260.387 76.0524 261.392C74.8682 261.894 73.9063 262.296 73.2388 262.554C72.5713 262.819 72.1981 262.956 72.1838 262.927C72.1766 262.905 72.5283 262.726 73.1815 262.418C73.892 262.088 74.8251 261.664 75.9448 261.148C78.2846 260.079 81.5073 258.601 85.0601 256.929C88.6058 255.258 91.7997 253.708 94.1109 252.589C95.2234 252.051 96.1421 251.606 96.8527 251.269C97.5058 250.961 97.8647 250.803 97.879 250.824L97.8862 250.832Z" fill="#1A2E35"/>
<path d="M66.4202 207.272C66.3772 207.3 65.9034 206.676 65.1498 205.679C64.389 204.682 63.3483 203.29 61.9415 202.02C60.5347 200.75 58.9916 199.94 57.8001 199.581C56.6158 199.215 55.8263 199.222 55.8263 199.158C55.8263 199.136 56.0201 199.108 56.379 199.115C56.7378 199.115 57.2546 199.172 57.8719 199.33C59.1136 199.624 60.7428 200.435 62.1855 201.74C63.6282 203.046 64.6546 204.488 65.3652 205.521C66.0686 206.569 66.4561 207.243 66.4202 207.272Z" fill="#1A2E35"/>
<path d="M96.1636 225.479C96.1636 225.479 96.1851 225.615 96.1779 225.874C96.1779 226.132 96.178 226.519 96.1421 227.007C96.0919 227.99 95.9339 229.417 95.5679 231.146C94.8573 234.597 93.0917 239.303 89.6896 243.536C86.2875 247.776 82.0742 250.523 78.8587 251.965C77.251 252.697 75.8873 253.163 74.9399 253.429C74.4661 253.572 74.0929 253.644 73.8417 253.708C73.5905 253.766 73.4542 253.787 73.4542 253.78C73.447 253.751 73.9709 253.601 74.9039 253.292C75.837 252.984 77.172 252.489 78.751 251.728C81.9091 250.236 86.0434 247.489 89.4025 243.306C92.7615 239.124 94.5415 234.497 95.3167 231.089C95.7114 229.382 95.9124 227.968 96.0057 226.993C96.1062 226.017 96.1349 225.472 96.1708 225.472L96.1636 225.479Z" fill="#1A2E35"/>
<path d="M59.5012 245.128C59.4366 244.77 64.1378 220.486 64.1378 220.486L57.0536 231.118" fill="black"/>
<path d="M101.217 198.907C101.217 198.907 101.245 199.05 101.267 199.323C101.288 199.639 101.31 200.033 101.346 200.521C101.403 201.611 101.475 203.111 101.568 204.933C101.748 208.706 101.999 213.836 102.272 219.496C102.544 225.185 102.76 230.343 102.867 234.073C102.925 235.939 102.961 237.452 102.968 238.493C102.968 238.98 102.968 239.382 102.968 239.698C102.968 239.97 102.961 240.114 102.946 240.121C102.932 240.121 102.918 239.977 102.896 239.705C102.875 239.389 102.853 238.995 102.817 238.507C102.76 237.416 102.688 235.917 102.595 234.095C102.415 230.321 102.164 225.192 101.891 219.525C101.619 213.836 101.403 208.685 101.295 204.954C101.238 203.089 101.202 201.575 101.195 200.535C101.195 200.047 101.195 199.646 101.195 199.33C101.195 199.057 101.202 198.914 101.217 198.907Z" fill="#1A2E35"/>
<path d="M72.356 262.905C71.2004 261.944 71.466 259.978 72.4852 258.874C73.5044 257.769 75.0188 257.295 76.4543 256.829C83.3231 254.605 90.2279 251.463 94.764 245.839C95.3885 245.064 95.977 244.232 96.7952 243.658C97.6134 243.084 98.726 242.811 99.616 243.27C101.001 243.995 101.059 246.004 100.477 247.453C99.7667 249.225 98.3959 250.724 96.6876 251.585" fill="black"/>
<path d="M101.367 203.211L105.38 226.483L102.25 222.358L101.367 203.211Z" fill="black"/>
<path d="M139.537 264.347L132.754 287.605L161.658 296.192C162.311 293.38 149.004 283.401 149.004 283.401L153.964 268.68L139.537 264.355V264.347Z" fill="#0000BF"/>
<path d="M140.434 279.484C139.831 279.47 139.257 279.986 139.221 280.589C139.185 281.192 139.702 281.78 140.305 281.801C140.908 281.823 141.618 281.228 141.59 280.625C141.561 280.022 140.915 279.362 140.319 279.484" fill="white"/>
<path d="M132.754 287.598L133.529 285.281L160.955 294.377C160.955 294.377 162.074 295.317 161.658 296.185L132.754 287.598Z" fill="white"/>
<path d="M149.514 283.387C149.471 283.523 148.746 283.387 147.913 283.631C147.081 283.853 146.535 284.363 146.427 284.269C146.305 284.205 146.765 283.423 147.777 283.143C148.782 282.849 149.585 283.272 149.521 283.394L149.514 283.387Z" fill="#1A2E35"/>
<path d="M152.176 285.539C152.169 285.683 151.487 285.747 150.827 286.199C150.16 286.637 149.844 287.247 149.707 287.196C149.571 287.182 149.715 286.321 150.54 285.776C151.365 285.216 152.212 285.41 152.176 285.539Z" fill="#1A2E35"/>
<path d="M152.815 289.678C152.679 289.671 152.693 288.904 153.282 288.244C153.87 287.576 154.624 287.469 154.653 287.605C154.696 287.741 154.143 288.036 153.669 288.588C153.181 289.133 152.959 289.714 152.815 289.686V289.678Z" fill="#1A2E35"/>
<path d="M150.274 279.9C150.174 280.008 149.585 279.628 148.774 279.441C147.963 279.24 147.267 279.326 147.224 279.183C147.174 279.054 147.935 278.717 148.889 278.946C149.844 279.169 150.375 279.814 150.274 279.9Z" fill="#1A2E35"/>
<path d="M150.605 276.27C150.59 276.328 150.002 276.249 149.162 275.833C148.739 275.625 148.265 275.323 147.784 274.915C147.547 274.714 147.31 274.484 147.081 274.226C146.973 274.104 146.844 273.968 146.743 273.752C146.628 273.559 146.65 273.157 146.901 272.985C147.116 272.805 147.403 272.791 147.619 272.848C147.834 272.906 147.992 272.999 148.143 273.085C148.444 273.257 148.71 273.458 148.954 273.659C149.435 274.075 149.786 274.527 150.03 274.929C150.519 275.747 150.59 276.342 150.533 276.357C150.454 276.385 150.26 275.847 149.729 275.13C149.463 274.771 149.105 274.384 148.652 274.018C148.423 273.838 148.171 273.666 147.899 273.516C147.619 273.343 147.353 273.265 147.238 273.379C147.195 273.422 147.188 273.444 147.224 273.551C147.267 273.652 147.368 273.774 147.468 273.896C147.676 274.14 147.892 274.362 148.1 274.563C148.53 274.965 148.961 275.273 149.341 275.517C150.102 275.991 150.633 276.192 150.612 276.27H150.605Z" fill="#1A2E35"/>
<path d="M150.361 276.421C150.303 276.421 150.174 275.84 150.397 274.907C150.504 274.448 150.719 273.91 151.064 273.379C151.236 273.114 151.452 272.856 151.696 272.612C151.947 272.375 152.27 272.052 152.837 272.153C153.124 272.224 153.296 272.518 153.325 272.734C153.361 272.956 153.325 273.128 153.318 273.308C153.267 273.659 153.167 273.989 153.031 274.283C152.758 274.871 152.356 275.309 151.968 275.596C151.179 276.177 150.54 276.17 150.547 276.12C150.518 276.034 151.093 275.912 151.739 275.316C152.054 275.022 152.385 274.613 152.6 274.09C152.708 273.831 152.787 273.544 152.822 273.243C152.866 272.92 152.822 272.64 152.7 272.64C152.557 272.597 152.241 272.755 152.054 272.963C151.832 273.178 151.631 273.408 151.466 273.638C151.129 274.104 150.899 274.585 150.755 275.001C150.461 275.84 150.461 276.407 150.375 276.407L150.361 276.421Z" fill="#1A2E35"/>
<path d="M169.209 229.719C169.941 235.085 168.103 241.133 166.165 246.19L153.49 275.976L139.458 273.824C139.458 273.824 136.53 277.081 132.79 278.322C131.118 278.882 125.613 279.958 121.084 276.701C121.084 276.701 114.674 285.625 104.59 288.323C94.5056 291.02 79.2391 292.512 71.8463 280.718L107.037 246.829C107.762 247.001 137.348 227.064 153.325 222.523C153.325 222.523 167.866 219.848 169.209 229.719Z" fill="#1A2E35"/>
<path d="M138.41 273.709C138.41 273.709 138.475 273.666 138.597 273.594C138.747 273.516 138.934 273.415 139.171 273.293C139.673 273.028 140.427 272.64 141.374 272.117C142.322 271.593 143.47 270.933 144.726 270.051C145.975 269.168 147.339 268.049 148.523 266.528C149.722 265.029 150.633 263.07 150.985 260.832C151.351 258.608 151.229 256.148 150.684 253.665C150.138 251.205 148.99 248.636 146.815 246.929C144.655 245.222 141.805 244.332 138.891 244.11C137.427 243.988 135.97 244.009 134.549 244.146C133.128 244.296 131.735 244.554 130.386 244.877C127.687 245.544 125.168 246.491 122.813 247.496C118.119 249.54 114.05 251.757 110.475 253.278C106.915 254.842 103.887 255.76 101.755 256.191C101.224 256.313 100.75 256.384 100.334 256.449C99.9246 256.521 99.5729 256.564 99.2858 256.592C99.0203 256.621 98.8049 256.635 98.6399 256.657C98.4963 256.671 98.4173 256.671 98.4173 256.664C98.4173 256.664 98.4891 256.643 98.6327 256.621C98.7978 256.592 99.0059 256.564 99.2715 256.521C99.5514 256.485 99.9031 256.427 100.312 256.348C100.721 256.269 101.195 256.191 101.719 256.054C103.829 255.588 106.829 254.634 110.361 253.041C113.913 251.492 117.962 249.253 122.67 247.18C125.031 246.161 127.565 245.2 130.292 244.526C131.656 244.196 133.063 243.937 134.506 243.78C135.948 243.643 137.434 243.622 138.92 243.744C141.884 243.973 144.798 244.877 147.037 246.649C148.15 247.539 149.04 248.651 149.679 249.856C150.325 251.061 150.734 252.338 151.021 253.594C151.566 256.119 151.681 258.615 151.294 260.889C150.92 263.164 149.973 265.179 148.731 266.693C147.511 268.228 146.119 269.348 144.841 270.223C143.564 271.098 142.394 271.736 141.439 272.246C140.477 272.755 139.716 273.114 139.2 273.358C138.956 273.473 138.762 273.559 138.611 273.63C138.475 273.688 138.41 273.716 138.403 273.709H138.41Z" fill="#375A64"/>
<path d="M147.217 234.619C147.303 234.676 145.99 236.821 144.274 239.411C142.566 242.001 141.109 244.059 141.023 244.002C140.937 243.945 142.25 241.8 143.966 239.21C145.674 236.62 147.131 234.561 147.217 234.619Z" fill="#375A64"/>
<path d="M137.097 271.342C137.104 271.399 136.121 271.607 134.549 272.002C132.977 272.389 130.809 272.992 128.476 273.803C126.144 274.62 124.077 275.503 122.605 276.177C121.127 276.852 120.23 277.304 120.201 277.253C120.187 277.232 120.402 277.088 120.789 276.859C121.184 276.622 121.758 276.306 122.483 275.94C123.933 275.201 125.993 274.276 128.347 273.451C130.702 272.633 132.883 272.067 134.484 271.744C135.281 271.579 135.934 271.464 136.386 271.407C136.838 271.342 137.089 271.32 137.097 271.349V271.342Z" fill="#375A64"/>
<path d="M153.239 274.025C153.174 274.047 153.009 273.387 152.413 272.511C151.832 271.643 150.741 270.574 149.212 270.072C147.683 269.577 146.169 269.807 145.186 270.165C144.188 270.524 143.664 270.962 143.628 270.904C143.614 270.89 143.729 270.761 143.965 270.567C144.202 270.373 144.583 270.137 145.085 269.914C146.083 269.47 147.683 269.183 149.32 269.706C150.956 270.237 152.083 271.414 152.629 272.361C152.909 272.834 153.074 273.25 153.153 273.544C153.239 273.838 153.253 274.011 153.232 274.011L153.239 274.025Z" fill="#375A64"/>
<path d="M92.5319 262.905C92.5319 262.905 92.6252 263.135 92.7113 263.573C92.7903 264.01 92.8692 264.656 92.8764 265.459C92.8764 267.052 92.5247 269.333 91.2184 271.449C89.9265 273.58 87.9383 274.871 86.4095 275.352C85.6415 275.61 84.9884 275.689 84.5434 275.711C84.0984 275.732 83.8472 275.696 83.8472 275.675C83.84 275.596 84.852 275.653 86.3234 275.101C87.7804 274.57 89.6537 273.3 90.9026 271.249C92.1586 269.211 92.5462 267.002 92.6108 265.445C92.6754 263.874 92.4601 262.905 92.5319 262.891V262.905Z" fill="#375A64"/>
<path d="M76.6983 279.004C76.6193 279.068 76.2461 278.745 75.9016 278.258C75.5499 277.77 75.3633 277.311 75.4566 277.253C75.5427 277.203 75.8657 277.562 76.2103 278.035C76.5548 278.516 76.7844 278.939 76.7055 279.004H76.6983Z" fill="#375A64"/>
<path d="M79.6555 282.117C79.5909 282.196 79.1818 281.923 78.7511 281.507C78.3205 281.091 78.0334 280.697 78.1052 280.625C78.177 280.553 78.5861 280.826 79.0096 281.235C79.433 281.644 79.7201 282.038 79.6555 282.117Z" fill="#375A64"/>
<path d="M83.1437 284.635C83.0935 284.728 82.6413 284.535 82.1389 284.205C81.6365 283.875 81.2776 283.545 81.335 283.459C81.3996 283.373 81.8445 283.566 82.3398 283.889C82.835 284.212 83.194 284.542 83.1437 284.635Z" fill="#375A64"/>
<path d="M87.0842 286.335C87.0555 286.436 86.5746 286.35 86.0076 286.149C85.4406 285.948 85.017 285.704 85.0601 285.611C85.1032 285.518 85.5841 285.604 86.1367 285.797C86.6894 285.998 87.1129 286.242 87.0842 286.335Z" fill="#375A64"/>
<path d="M91.326 287.003C91.326 287.103 90.8379 287.146 90.235 287.089C89.6321 287.031 89.1655 286.909 89.1799 286.802C89.1943 286.701 89.6823 286.658 90.2709 286.716C90.8523 286.766 91.326 286.895 91.326 287.003Z" fill="#375A64"/>
<path d="M95.6253 286.766C95.6396 286.866 95.1588 286.981 94.563 287.024C94.24 287.046 93.9529 287.038 93.7592 287.017H93.7735C93.5941 287.003 93.4864 286.967 93.4864 286.924C93.4864 286.881 93.5797 286.823 93.7448 286.773H93.7592C93.9529 286.723 94.2328 286.68 94.5487 286.658C95.13 286.615 95.6181 286.673 95.6325 286.773L95.6253 286.766Z" fill="#375A64"/>
<path d="M99.8528 286.005C99.8743 286.106 99.4222 286.285 98.8408 286.414C98.2595 286.536 97.7714 286.558 97.7498 286.457C97.7355 286.357 98.1876 286.17 98.7618 286.049C99.336 285.927 99.8241 285.905 99.8528 286.005Z" fill="#375A64"/>
<path d="M103.966 284.75C104.001 284.843 103.571 285.08 103.004 285.266C102.437 285.453 101.956 285.532 101.927 285.431C101.898 285.331 102.329 285.101 102.889 284.915C103.449 284.728 103.93 284.657 103.966 284.75Z" fill="#375A64"/>
<path d="M107.927 283.071C107.97 283.165 107.569 283.437 107.023 283.688C106.478 283.932 106.004 284.061 105.968 283.961C105.925 283.868 106.334 283.588 106.872 283.344C107.411 283.1 107.884 282.978 107.927 283.071Z" fill="#375A64"/>
<path d="M111.696 281.005C111.753 281.091 111.373 281.407 110.863 281.708C110.346 282.01 109.887 282.175 109.837 282.089C109.786 281.995 110.16 281.687 110.669 281.385C111.179 281.091 111.638 280.919 111.696 281.005Z" fill="#375A64"/>
<path d="M115.256 278.58C115.32 278.659 114.976 279.011 114.488 279.362C114 279.714 113.562 279.922 113.504 279.836C113.447 279.75 113.792 279.398 114.272 279.054C114.753 278.71 115.191 278.494 115.256 278.58Z" fill="#375A64"/>
<path d="M118.572 275.84C118.643 275.919 118.335 276.292 117.883 276.686C117.43 277.074 117.014 277.332 116.95 277.246C116.885 277.167 117.194 276.787 117.639 276.399C118.084 276.012 118.507 275.761 118.572 275.84Z" fill="#375A64"/>
<path d="M121.701 272.884C121.766 272.963 121.471 273.351 121.041 273.76C120.61 274.168 120.201 274.434 120.129 274.362C120.05 274.283 120.352 273.896 120.782 273.487C121.22 273.078 121.629 272.805 121.694 272.884H121.701Z" fill="#375A64"/>
<path d="M125.103 270.237C125.161 270.323 124.816 270.675 124.342 271.019C123.861 271.363 123.424 271.579 123.359 271.5C123.294 271.421 123.639 271.069 124.12 270.718C124.608 270.366 125.046 270.151 125.103 270.237Z" fill="#375A64"/>
<path d="M128.879 268.157C128.922 268.25 128.527 268.544 127.996 268.802C127.465 269.061 126.998 269.204 126.948 269.111C126.897 269.018 127.292 268.731 127.831 268.465C128.369 268.2 128.843 268.056 128.879 268.157Z" fill="#375A64"/>
<path d="M132.984 266.88C132.998 266.98 132.553 267.181 131.986 267.324C131.419 267.468 130.931 267.504 130.895 267.403C130.867 267.303 131.312 267.109 131.893 266.959C132.474 266.815 132.962 266.779 132.984 266.88Z" fill="#375A64"/>
<path d="M137.269 266.665C137.262 266.765 136.774 266.801 136.192 266.794C135.604 266.779 135.123 266.729 135.116 266.629C135.116 266.528 135.589 266.413 136.192 266.421C136.795 266.428 137.276 266.564 137.262 266.665H137.269Z" fill="#375A64"/>
<path d="M141.417 267.755C141.367 267.848 140.908 267.712 140.362 267.518C139.81 267.325 139.372 267.131 139.393 267.03C139.415 266.93 139.917 266.966 140.484 267.167C141.059 267.368 141.468 267.669 141.417 267.755Z" fill="#375A64"/>
<path d="M140.513 270.876C140.449 270.79 140.772 270.438 141.152 270.007C141.532 269.577 141.841 269.218 141.934 269.269C142.02 269.319 141.841 269.792 141.432 270.251C141.023 270.711 140.578 270.947 140.513 270.868V270.876Z" fill="#375A64"/>
<path d="M136.709 272.848C136.68 272.748 137.089 272.49 137.635 272.267C138.173 272.045 138.654 271.937 138.704 272.031C138.755 272.124 138.338 272.382 137.779 272.612C137.219 272.841 136.745 272.949 136.709 272.848Z" fill="#375A64"/>
<path d="M132.611 274.161C132.575 274.061 133.005 273.831 133.572 273.645C134.14 273.458 134.62 273.379 134.649 273.48C134.678 273.58 134.247 273.81 133.687 273.996C133.128 274.183 132.639 274.262 132.611 274.161Z" fill="#375A64"/>
<path d="M128.584 275.696C128.548 275.603 128.965 275.345 129.517 275.13C130.07 274.915 130.551 274.814 130.587 274.907C130.623 275.001 130.206 275.259 129.654 275.474C129.101 275.689 128.62 275.79 128.584 275.696Z" fill="#375A64"/>
<path d="M124.615 277.368C124.572 277.275 124.981 277.009 125.534 276.773C126.079 276.536 126.56 276.421 126.596 276.514C126.639 276.608 126.223 276.88 125.677 277.11C125.132 277.346 124.658 277.461 124.615 277.368Z" fill="#375A64"/>
<path d="M116.598 154.357C116.598 154.357 121.292 152.943 127.529 145.992C133.766 139.04 136.286 130.231 137.111 130.209C137.936 130.188 141.403 128.258 149.334 142.591C157.265 156.925 154.832 160.576 153.468 160.648C152.105 160.72 142.695 158.84 136.982 159.924C131.269 161.007 124.084 164.558 124.084 164.558L116.598 154.357Z" fill="#375A64"/>
<path d="M107.059 163.202L108.918 166.172L109.751 167.507C110.892 169.336 113.268 169.946 115.148 168.905L125.11 164.58L118.141 151.43L108.329 157.635C106.449 158.826 105.875 161.315 107.059 163.202Z" fill="#1A2E35"/>
<path d="M113.325 167.715L117.057 173.855L118.651 173.281L129.941 181.144L132.482 175.104C132.482 175.104 125.986 172.865 124.658 170.706C123.33 168.554 124.637 167.944 124.637 167.944L121.428 164.802L113.325 167.715Z" fill="#1A2E35"/>
<path d="M148.796 142.907C153.031 150.676 155.069 157.728 153.361 158.661C151.653 159.594 146.837 154.041 142.609 146.272C138.381 138.502 136.336 131.45 138.044 130.518C139.752 129.585 144.568 135.131 148.796 142.907Z" fill="#1A2E35"/>
<path d="M106.514 167.736L109.219 166.66L107.267 163.525L105.279 164.974L106.514 167.736Z" fill="#375A64"/>
<path d="M122.534 165.878L115.435 171.187L114.373 169.429L122.534 165.878Z" fill="#375A64"/>
<path d="M107.267 163.525L109.219 166.66L108.667 166.882L107.023 163.697L107.267 163.525Z" fill="#375A64"/>
<path d="M109.227 164.135C109.277 164.221 110.619 163.582 112.227 162.707C113.835 161.832 115.105 161.05 115.055 160.964C115.005 160.878 113.662 161.516 112.055 162.392C110.447 163.267 109.176 164.049 109.227 164.135Z" fill="#375A64"/>
<path d="M108.236 162.255C108.286 162.341 109.499 161.717 110.942 160.871C112.392 160.017 113.519 159.264 113.469 159.177C113.418 159.091 112.205 159.716 110.763 160.562C109.32 161.416 108.186 162.169 108.236 162.255Z" fill="#375A64"/>
<path d="M110.454 166.093C110.475 166.136 110.798 166.036 111.308 165.835C111.566 165.734 111.868 165.605 112.205 165.462C112.535 165.311 112.88 165.11 113.246 164.909C114.71 164.092 115.816 163.317 115.772 163.238C115.722 163.145 114.524 163.79 113.074 164.594C112.708 164.795 112.377 165.01 112.054 165.168C111.731 165.326 111.444 165.476 111.208 165.598C110.727 165.856 110.44 166.036 110.454 166.086V166.093Z" fill="#375A64"/>
<path d="M141.252 141.673C141.252 141.673 145.207 138.796 147.892 144.227C150.576 149.658 146.284 150.906 146.284 150.906C144.289 148.273 142.602 145.203 141.252 141.673Z" fill="#375A64"/>
<path d="M136.343 135.324C136.343 135.324 136.408 135.705 136.587 136.379C136.767 137.053 137.032 138.036 137.384 139.234C137.606 139.822 137.843 140.461 138.102 141.149C138.231 141.494 138.367 141.853 138.503 142.218C138.575 142.405 138.647 142.591 138.719 142.778C138.798 142.964 138.891 143.144 138.977 143.338C139.336 144.084 139.709 144.873 140.097 145.683C140.197 145.884 140.291 146.092 140.391 146.3C140.484 146.508 140.614 146.702 140.728 146.903C140.965 147.305 141.202 147.714 141.439 148.13C141.683 148.546 141.92 148.955 142.15 149.356C142.272 149.557 142.372 149.765 142.508 149.952C142.638 150.138 142.767 150.325 142.896 150.511C143.413 151.25 143.908 151.961 144.382 152.642C144.504 152.807 144.611 152.979 144.741 153.144C144.87 153.302 144.999 153.453 145.121 153.603C145.372 153.905 145.616 154.199 145.853 154.486C146.327 155.053 146.765 155.576 147.167 156.064C148.028 156.968 148.753 157.671 149.248 158.166C149.743 158.654 150.03 158.919 150.052 158.898C150.066 158.883 149.822 158.589 149.349 158.066C148.868 157.535 148.186 156.796 147.346 155.885C146.959 155.397 146.535 154.866 146.076 154.292C145.846 154.005 145.609 153.711 145.365 153.41C145.243 153.259 145.121 153.101 144.992 152.951C144.87 152.793 144.762 152.621 144.647 152.448C144.181 151.767 143.693 151.057 143.183 150.318C143.054 150.131 142.925 149.945 142.796 149.758C142.666 149.572 142.559 149.364 142.444 149.17C142.214 148.768 141.977 148.367 141.74 147.95C141.504 147.542 141.267 147.133 141.03 146.738C140.915 146.537 140.786 146.343 140.693 146.135C140.592 145.927 140.499 145.727 140.398 145.526C140.011 144.722 139.63 143.947 139.271 143.201C139.185 143.015 139.085 142.835 139.006 142.649C138.934 142.462 138.862 142.276 138.791 142.096C138.647 141.731 138.511 141.379 138.374 141.042C138.102 140.36 137.85 139.729 137.621 139.148C137.24 137.971 136.939 137.017 136.716 136.336C136.494 135.676 136.365 135.31 136.343 135.317V135.324Z" fill="#1A2E35"/>
<path d="M125.677 167.958C126.309 168.145 126.682 168.791 126.517 169.429C126.208 170.649 125.706 172.564 125.297 173.733C125.168 174.114 125.024 174.494 124.759 174.795C124.493 175.096 124.084 175.297 123.696 175.197C123.287 175.096 123.007 174.688 122.936 174.271C122.864 173.855 122.95 173.432 123.036 173.023C123.287 171.89 123.754 170.175 124.156 168.783C124.342 168.131 125.024 167.758 125.677 167.951V167.958Z" fill="#FFC19D"/>
<path d="M127.622 169.946C128.254 170.132 128.627 170.778 128.462 171.416C128.154 172.636 127.651 174.551 127.242 175.721C127.113 176.101 126.969 176.481 126.704 176.782C126.438 177.084 126.029 177.285 125.641 177.184C125.232 177.084 124.952 176.675 124.881 176.259C124.809 175.843 124.895 175.419 124.981 175.01C125.232 173.877 125.699 172.162 126.101 170.771C126.287 170.118 126.969 169.745 127.622 169.938V169.946Z" fill="#FFC19D"/>
<path d="M129.496 171.129C130.041 171.287 130.364 171.854 130.221 172.406C129.955 173.461 129.517 175.118 129.166 176.137C129.051 176.467 128.929 176.797 128.699 177.055C128.469 177.313 128.11 177.485 127.773 177.407C127.421 177.32 127.177 176.969 127.113 176.61C127.048 176.252 127.127 175.886 127.206 175.527C127.429 174.544 127.823 173.066 128.175 171.854C128.34 171.287 128.929 170.972 129.489 171.137L129.496 171.129Z" fill="#FFC19D"/>
<path d="M131.627 171.373C132.173 171.531 132.496 172.098 132.36 172.65C132.094 173.712 131.649 175.376 131.297 176.395C131.182 176.725 131.06 177.055 130.831 177.32C130.601 177.579 130.242 177.758 129.905 177.672C129.546 177.586 129.309 177.227 129.245 176.868C129.18 176.51 129.259 176.137 129.338 175.778C129.56 174.788 129.962 173.303 130.314 172.091C130.479 171.524 131.068 171.201 131.635 171.366L131.627 171.373Z" fill="#FFC19D"/>
<path d="M124.995 174.824C124.895 174.795 125.132 173.762 125.527 172.528C125.914 171.294 126.316 170.312 126.409 170.347C126.51 170.376 126.273 171.409 125.878 172.643C125.491 173.877 125.089 174.86 124.995 174.824Z" fill="#FF9C6A"/>
<path d="M129.044 176.452C128.943 176.417 129.259 175.412 129.625 174.171C129.998 172.93 130.285 171.926 130.386 171.94C130.486 171.961 130.357 173.016 129.984 174.271C129.611 175.527 129.137 176.488 129.044 176.445V176.452Z" fill="#FF9C6A"/>
<path d="M127.041 176.194C126.941 176.158 127.256 175.154 127.622 173.913C127.996 172.672 128.283 171.667 128.383 171.682C128.484 171.703 128.355 172.758 127.981 174.013C127.608 175.269 127.134 176.23 127.041 176.187V176.194Z" fill="#FF9C6A"/>
<path d="M163.503 115.524C163.581 115.589 160.639 119.585 156.928 124.449C153.217 129.313 150.138 133.208 150.059 133.143C149.98 133.079 152.923 129.09 156.634 124.219C160.344 119.355 163.424 115.46 163.503 115.524Z" fill="#1A2E35"/>
<path d="M182.767 126.909C182.81 127.002 176.623 129.965 168.943 133.524C161.263 137.089 155.004 139.894 154.961 139.801C154.918 139.707 161.105 136.745 168.785 133.179C176.458 129.621 182.724 126.809 182.767 126.902V126.909Z" fill="#1A2E35"/>
<path d="M179.896 150.605C179.889 150.705 175.475 150.368 170.041 149.844C164.608 149.321 160.215 148.811 160.222 148.711C160.23 148.61 164.644 148.948 170.077 149.471C175.51 149.995 179.903 150.504 179.896 150.605Z" fill="#1A2E35"/>
<path d="M66.7288 163.891L71.6023 191.582C72.4421 196.367 76.9854 199.631 81.8733 198.957C86.9549 198.254 90.4503 193.577 89.6249 188.598L88.8354 183.834C88.8354 183.834 95.654 181.983 94.9434 175.147C94.5989 171.847 93.3357 165.118 92.1155 159.034C90.7518 152.226 84.1413 147.707 77.1864 148.826C70.0161 150.06 65.2861 156.875 66.736 163.898L66.7288 163.891Z" fill="#FFC19D"/>
<path d="M88.8426 183.841C88.8426 183.841 84.5002 184.688 79.4975 182.335C79.4975 182.335 82.2107 187.012 89.0652 185.614L88.8426 183.841Z" fill="#FF9C6A"/>
<path d="M92.1514 147.326C91.2327 146.63 89.7613 146.666 89.0005 147.527C89.6249 146.645 89.2589 145.318 88.3904 144.658C87.5219 143.998 86.3089 143.926 85.2467 144.206C84.1844 144.485 83.2442 145.066 82.3183 145.648C82.426 145.231 82.1819 144.787 81.8302 144.536C81.4785 144.285 81.0335 144.191 80.5957 144.148C78.8085 143.969 77.007 144.485 75.4208 145.31C73.8346 146.135 72.0258 147.448 70.6334 148.56C69.1764 149.694 67.7265 151.222 66.2551 153.238C66.2336 153.252 66.2192 153.266 66.1977 153.288C65.1857 154.192 64.3316 156.918 64.4823 158.252C65.0494 163.173 66.6786 166.021 67.5973 170.692C67.6619 171 67.7265 171.33 67.949 171.56C68.516 172.148 69.5352 171.653 70.0735 171.029C71.3798 169.522 71.832 167.463 71.8966 165.483C71.9612 163.503 71.6813 161.531 71.7244 159.551C71.7244 159.508 71.7244 159.457 71.7244 159.407C71.7387 158.926 71.7818 158.41 71.8679 157.893C71.954 157.571 72.7938 154.744 75.5141 154.285C78.3994 153.797 84.0912 156.595 86.9119 156.15C89.7326 155.705 89.8761 153.718 89.8761 153.718L91.5341 157.09C91.5341 157.09 92.1658 155.11 91.7997 152.879C92.4887 152.197 93.0198 151.358 93.1993 150.418C93.4074 149.299 93.0414 148.036 92.1227 147.341L92.1514 147.326Z" fill="#1A2E35"/>
<path d="M69.4419 166.832C69.3199 166.796 64.511 165.986 65.2072 170.634C65.9034 175.283 70.5042 173.64 70.497 173.504C70.4826 173.368 69.4419 166.825 69.4419 166.825V166.832Z" fill="#FFC19D"/>
</svg>
