<svg width="407" height="300" viewBox="0 0 407 300" fill="none" xmlns="http://www.w3.org/2000/svg">
<g clip-path="url(#clip0_11_54)">
<path d="M322.123 19.2001L142.86 198.215L92.8892 148.324L48.4189 192.731V206.707L92.8892 162.3L142.86 212.192L328.43 26.8787L322.123 19.2001Z" fill="#8FD2FF"/>
<path d="M330.481 41.1005L306.89 17.5432L335.336 12.6953L330.481 41.1005Z" fill="#5371FF"/>
<path d="M118.401 64.2972H87.4274C84.1182 64.2972 81.4355 66.976 81.4355 70.2805V91.966C81.4355 95.2705 84.1182 97.9493 87.4274 97.9493H118.401C121.71 97.9493 124.392 95.2705 124.392 91.966V70.2805C124.392 66.976 121.71 64.2972 118.401 64.2972Z" fill="#D34C4C" stroke="#282F39" stroke-width="1.7" stroke-linecap="round" stroke-linejoin="round"/>
<path d="M112.025 81.1194L97.46 72.7275V89.5113L112.025 81.1194Z" fill="white" stroke="#282F39" stroke-width="1.7" stroke-linecap="round" stroke-linejoin="round"/>
<path d="M77.779 212.176C79.0695 212.176 80.2602 212.56 81.2665 213.212C81.2665 213.066 81.2588 212.92 81.2588 212.775C81.2588 207.881 85.2304 203.915 90.1314 203.915C95.0324 203.915 99.0039 207.881 99.0039 212.775C99.0039 213.91 98.7888 214.991 98.3971 215.989C99.0961 215.597 99.895 215.375 100.755 215.375C103.421 215.375 105.587 217.53 105.587 220.2C105.587 222.869 103.429 225.025 100.755 225.025H77.7866C74.2376 225.025 71.3569 222.148 71.3569 218.604C71.3569 215.06 74.2376 212.184 77.7866 212.184L77.779 212.176Z" fill="white"/>
<path d="M319.243 85.8677C317.153 85.8677 315.217 86.489 313.581 87.5399C313.596 87.3021 313.596 87.0643 313.596 86.8265C313.596 78.8949 307.159 72.4667 299.216 72.4667C291.273 72.4667 284.836 78.8949 284.836 86.8265C284.836 88.6676 285.189 90.4242 285.819 92.0351C284.69 91.3984 283.384 91.0378 282.001 91.0378C277.676 91.0378 274.173 94.5358 274.173 98.8545C274.173 103.173 277.676 106.671 282.001 106.671H319.25C325.004 106.671 329.674 102.015 329.674 96.2617C329.674 90.5086 325.012 85.8523 319.25 85.8523L319.243 85.8677Z" fill="white"/>
<path d="M218.472 219.801H180.116V243.995H218.472V219.801Z" fill="#464A4F" stroke="#282F39" stroke-width="1.7" stroke-linecap="round" stroke-linejoin="round"/>
<path d="M276.447 99.6062H122.142C116.393 99.6062 111.733 104.26 111.733 110V211.263C111.733 217.004 116.393 221.657 122.142 221.657H276.447C282.196 221.657 286.856 217.004 286.856 211.263V110C286.856 104.26 282.196 99.6062 276.447 99.6062Z" fill="#969DA3" stroke="#282F39" stroke-width="1.7" stroke-linecap="round" stroke-linejoin="round"/>
<path d="M277.515 109.793H121.074V205.249H277.515V109.793Z" fill="white" stroke="#282F39" stroke-width="1.7" stroke-linecap="round" stroke-linejoin="round"/>
<path d="M274.327 251.858H124.27C124.27 245.299 129.601 239.975 136.169 239.975H262.428C268.996 239.975 274.327 245.299 274.327 251.858Z" fill="#C0C4C9" stroke="#282F39" stroke-width="1.7" stroke-linecap="round" stroke-linejoin="round"/>
<g style="mix-blend-mode:multiply" opacity="0.25">
<path d="M125.322 246.979C124.646 248.467 124.262 250.116 124.262 251.858H274.319C274.319 250.116 273.935 248.467 273.259 246.979H125.314H125.322Z" fill="#282F39"/>
</g>
<path d="M111.733 205.242V211.118C111.733 216.932 116.457 221.65 122.28 221.65H276.309C282.132 221.65 286.856 216.932 286.856 211.118V205.242H111.733Z" fill="#C0C4C9" stroke="#282F39" stroke-width="1.7" stroke-linecap="round" stroke-linejoin="round"/>
<path d="M269.103 120.647H129.478V128.817H269.103V120.647Z" fill="#D9DCDD"/>
<path d="M160.605 139.065H129.478V173.891H160.605V139.065Z" fill="#D9DCDD"/>
<path d="M269.111 139.065H166.927V143.146H269.111V139.065Z" fill="#D9DCDD"/>
<path d="M269.111 149.313H166.927V153.394H269.111V149.313Z" fill="#D9DCDD"/>
<path d="M269.111 159.562H166.927V163.643H269.111V159.562Z" fill="#D9DCDD"/>
<path d="M269.111 169.81H166.927V173.891H269.111V169.81Z" fill="#D9DCDD"/>
<path d="M269.111 180.058H129.777V184.139H269.111V180.058Z" fill="#D9DCDD"/>
<path d="M269.111 190.307H129.777V194.387H269.111V190.307Z" fill="#D9DCDD"/>
<path d="M134.248 20.1206C134.248 22.583 132.251 24.5851 129.777 24.5851C127.304 24.5851 125.306 22.5907 125.306 20.1206C125.306 17.6506 127.304 15.6562 129.777 15.6562C132.251 15.6562 134.248 17.6506 134.248 20.1206Z" fill="#C3D1DD" stroke="#282F39" stroke-width="1.7" stroke-linecap="round" stroke-linejoin="round"/>
<path d="M148.721 24.7309C149.082 23.2504 149.274 21.7085 149.274 20.1207C149.274 18.5328 149.082 16.9909 148.721 15.5105L143.804 16.477C143.466 15.173 142.944 13.9379 142.276 12.8027L146.439 10.0105C144.818 7.34867 142.575 5.10877 139.91 3.49022L137.113 7.64783C135.977 6.98046 134.74 6.45884 133.434 6.12133L134.402 1.21197C132.919 0.85144 131.375 0.659668 129.785 0.659668C128.195 0.659668 126.651 0.85144 125.168 1.21197L126.136 6.12133C124.83 6.45884 123.593 6.98046 122.457 7.64783L119.66 3.49022C116.995 5.10877 114.752 7.34867 113.131 10.0105L117.294 12.8027C116.626 13.9379 116.104 15.173 115.766 16.477L110.849 15.5105C110.488 16.9909 110.296 18.5328 110.296 20.1207C110.296 21.7085 110.488 23.2504 110.849 24.7309L115.766 23.7643C116.104 25.0684 116.626 26.3034 117.294 27.4387L113.131 30.2309C114.752 32.8927 116.995 35.1326 119.66 36.7511L122.457 32.5935C123.593 33.2609 124.83 33.7825 126.136 34.12L125.168 39.0294C126.651 39.3899 128.195 39.5817 129.785 39.5817C131.375 39.5817 132.919 39.3899 134.402 39.0294L133.434 34.12C134.74 33.7825 135.977 33.2609 137.113 32.5935L139.91 36.7511C142.575 35.1326 144.818 32.8927 146.439 30.2309L142.276 27.4387C142.944 26.3034 143.466 25.0684 143.804 23.7643L148.721 24.7309ZM129.777 29.6556C124.508 29.6556 120.236 25.3905 120.236 20.1283C120.236 14.8661 124.508 10.6011 129.777 10.6011C135.047 10.6011 139.318 14.8661 139.318 20.1283C139.318 25.3905 135.047 29.6556 129.777 29.6556Z" fill="#C3D1DD" stroke="#282F39" stroke-width="1.7" stroke-linecap="round" stroke-linejoin="round"/>
<path d="M189.547 196.431C194.712 191.272 194.712 182.909 189.546 177.75C184.381 172.591 176.005 172.591 170.839 177.75C165.673 182.909 165.673 191.272 170.839 196.431C176.005 201.589 184.381 201.589 189.547 196.431Z" fill="#FFB024" stroke="#282F39" stroke-width="1.7" stroke-linecap="round" stroke-linejoin="round"/>
<path d="M186.624 193.512C190.176 189.966 190.176 184.215 186.624 180.668C183.072 177.121 177.313 177.121 173.761 180.668C170.21 184.215 170.209 189.966 173.761 193.512C177.313 197.059 183.072 197.059 186.624 193.512Z" fill="#FFDC31" stroke="#282F39" stroke-width="1.7" stroke-linecap="round" stroke-linejoin="round"/>
<g style="mix-blend-mode:multiply">
<path d="M180.193 180.68C184.756 180.68 188.528 184.047 189.173 188.427C189.235 187.99 189.281 187.545 189.281 187.092C189.281 182.076 185.21 178.01 180.186 178.01C175.162 178.01 171.09 182.076 171.09 187.092C171.09 187.545 171.136 187.99 171.198 188.427C171.843 184.047 175.615 180.68 180.178 180.68H180.193Z" fill="#FFDC31"/>
</g>
<path d="M181.376 182.244C181.783 182.344 182.16 182.49 182.49 182.674C182.82 182.858 183.105 183.065 183.343 183.303C183.581 183.533 183.765 183.779 183.904 184.032C184.042 184.285 184.111 184.53 184.119 184.768C184.119 184.853 184.088 184.922 184.027 184.983C183.965 185.044 183.904 185.075 183.827 185.075H182.037C181.906 185.075 181.806 185.06 181.73 185.021C181.653 184.983 181.576 184.929 181.492 184.86C181.461 184.83 181.422 184.791 181.361 184.722C181.299 184.661 181.215 184.592 181.107 184.523C181 184.454 180.862 184.392 180.7 184.346C180.539 184.293 180.339 184.27 180.101 184.27C179.924 184.27 179.763 184.277 179.602 184.3C179.44 184.323 179.302 184.362 179.179 184.408C179.056 184.461 178.957 184.53 178.88 184.622C178.803 184.714 178.764 184.83 178.764 184.96C178.764 185.09 178.811 185.213 178.895 185.297C178.98 185.389 179.126 185.474 179.333 185.551C179.54 185.627 179.809 185.704 180.147 185.773C180.485 185.85 180.9 185.934 181.407 186.034C181.906 186.134 182.344 186.264 182.721 186.417C183.097 186.571 183.404 186.763 183.658 187C183.911 187.23 184.096 187.507 184.219 187.821C184.342 188.136 184.403 188.504 184.403 188.933C184.403 189.317 184.326 189.662 184.188 189.984C184.042 190.307 183.835 190.583 183.573 190.828C183.312 191.074 182.989 191.281 182.621 191.442C182.244 191.603 181.837 191.726 181.392 191.795V192.761C181.392 192.861 181.353 192.945 181.284 193.022C181.215 193.099 181.123 193.129 181.023 193.129H179.233C179.133 193.129 179.049 193.091 178.972 193.022C178.895 192.945 178.864 192.861 178.864 192.761V191.749C178.426 191.649 178.035 191.503 177.681 191.319C177.328 191.135 177.028 190.92 176.783 190.682C176.529 190.445 176.337 190.191 176.199 189.915C176.06 189.639 175.991 189.355 175.984 189.079C175.984 188.995 176.014 188.926 176.076 188.864C176.137 188.803 176.199 188.78 176.276 188.78H178.065C178.196 188.78 178.296 188.795 178.365 188.826C178.434 188.857 178.511 188.903 178.58 188.972C178.619 189.01 178.672 189.064 178.741 189.148C178.811 189.233 178.91 189.317 179.033 189.401C179.156 189.486 179.31 189.562 179.494 189.624C179.679 189.685 179.909 189.716 180.186 189.716C180.67 189.716 181.069 189.662 181.392 189.562C181.714 189.455 181.876 189.271 181.876 188.995C181.876 188.857 181.814 188.742 181.699 188.657C181.584 188.565 181.399 188.481 181.169 188.404C180.931 188.327 180.631 188.251 180.262 188.182C179.894 188.113 179.456 188.021 178.957 187.906C178.019 187.706 177.336 187.369 176.898 186.901C176.468 186.433 176.253 185.804 176.253 185.029C176.253 184.714 176.314 184.408 176.429 184.108C176.544 183.809 176.721 183.541 176.944 183.295C177.167 183.05 177.443 182.835 177.766 182.651C178.088 182.467 178.457 182.329 178.864 182.229V181.217C178.864 181.117 178.903 181.032 178.972 180.956C179.041 180.879 179.133 180.848 179.233 180.848H181.023C181.123 180.848 181.207 180.887 181.284 180.956C181.361 181.025 181.392 181.117 181.392 181.217V182.237L181.376 182.244Z" fill="#DD6F0B"/>
<path d="M186.624 193.512C190.176 189.966 190.176 184.215 186.624 180.668C183.072 177.121 177.313 177.121 173.761 180.668C170.21 184.215 170.209 189.966 173.761 193.512C177.313 197.059 183.072 197.059 186.624 193.512Z" stroke="#282F39" stroke-width="1.7" stroke-linecap="round" stroke-linejoin="round"/>
<path d="M81.8656 170.24H16.301V251.85H81.8656V170.24Z" fill="#B6D9EF" stroke="#282F39" stroke-width="1.7" stroke-linecap="round" stroke-linejoin="round"/>
<path d="M76.4652 175.195H21.709V246.902H76.4652V175.195Z" fill="white" stroke="#282F39" stroke-width="1.7" stroke-linecap="round" stroke-linejoin="round"/>
<path d="M35.9511 206.316H29.8901V227.434H35.9511V206.316Z" fill="#9CB7D3"/>
<path d="M50.946 200.432H44.885V227.434H50.946V200.432Z" fill="#9CB7D3"/>
<path d="M65.9411 192.723H59.8801V227.434H65.9411V192.723Z" fill="#9CB7D3"/>
<path d="M28.9377 201.123L67.0013 185.259" stroke="#282F39" stroke-width="1.7" stroke-linecap="round" stroke-linejoin="round"/>
<path d="M63.2371 183.203L67.754 185.159L65.6492 189.355" stroke="#282F39" stroke-width="1.7" stroke-linecap="round" stroke-linejoin="round"/>
<path d="M70.7807 231.913H27.3936V234.046H70.7807V231.913Z" fill="#D9DCDD"/>
<path d="M70.7807 236.477H27.3936V238.61H70.7807V236.477Z" fill="#D9DCDD"/>
<path d="M70.7807 241.034H27.3936V243.166H70.7807V241.034Z" fill="#D9DCDD"/>
<path d="M101.055 94.2673H48.104V136.365H101.055V94.2673Z" fill="white" stroke="#282F39" stroke-width="1.7" stroke-linecap="round" stroke-linejoin="round"/>
<path d="M95.2321 98.8928H53.9268V131.724H95.2321V98.8928Z" fill="#97DAFC" stroke="#282F39" stroke-width="1.7" stroke-linecap="round" stroke-linejoin="round"/>
<path d="M83.2945 115.378L71.3569 131.732H95.2321L83.2945 115.378Z" fill="white" stroke="#282F39" stroke-width="1.7" stroke-linecap="round" stroke-linejoin="round"/>
<path d="M69.6822 110.154L53.9268 131.732H85.4377L69.6822 110.154Z" fill="white" stroke="#282F39" stroke-width="1.7" stroke-linecap="round" stroke-linejoin="round"/>
<path d="M79.9221 112.378C82.2131 112.378 84.0703 110.524 84.0703 108.236C84.0703 105.948 82.2131 104.094 79.9221 104.094C77.6311 104.094 75.7739 105.948 75.7739 108.236C75.7739 110.524 77.6311 112.378 79.9221 112.378Z" fill="#FFB024" stroke="#282F39" stroke-width="1.7" stroke-linecap="round" stroke-linejoin="round"/>
<path d="M356.423 127.797V135.667L378.416 149.329V114.127L356.423 127.797Z" fill="#D34C4C" stroke="#282F39" stroke-width="1.7" stroke-linecap="round" stroke-linejoin="round"/>
<path d="M347.896 136.618H355.785V148.278C355.785 149.206 355.032 149.958 354.103 149.958H349.578C348.649 149.958 347.896 149.206 347.896 148.278V136.618Z" fill="#C0C4C9" stroke="#282F39" stroke-width="1.7" stroke-linecap="round" stroke-linejoin="round"/>
<path d="M347.589 124.452H359.073V139.011H347.589C346.337 139.011 345.323 137.999 345.323 136.749V126.715C345.323 125.465 346.337 124.452 347.589 124.452Z" fill="#97DAFC" stroke="#282F39" stroke-width="1.7" stroke-linecap="round" stroke-linejoin="round"/>
<path d="M379.799 152.635C378.116 152.635 376.749 151.27 376.749 149.59V113.859C376.749 112.179 378.116 110.813 379.799 110.813C381.481 110.813 382.848 112.179 382.848 113.859V149.59C382.848 151.27 381.481 152.635 379.799 152.635Z" fill="#97DAFC" stroke="#282F39" stroke-width="1.7" stroke-linecap="round" stroke-linejoin="round"/>
<path d="M37.334 155.258C37.334 156.279 36.5044 157.099 35.4904 157.099C34.4764 157.099 33.6467 156.271 33.6467 155.258C33.6467 154.246 34.4764 153.417 35.4904 153.417C36.5044 153.417 37.334 154.246 37.334 155.258Z" fill="white"/>
<path d="M45.8763 157.023H44.0096C44.0096 151.354 39.3928 146.744 33.7236 146.744V144.88C40.4299 144.88 45.8763 150.326 45.8763 157.023Z" fill="white"/>
<path d="M41.7587 157.023H39.892C39.892 153.624 37.1189 150.855 33.7158 150.855V148.991C38.1483 148.991 41.7587 152.597 41.7587 157.023Z" fill="white"/>
<path d="M234.335 11.3145V20.0056" stroke="white" stroke-width="2" stroke-linecap="round" stroke-linejoin="round"/>
<path d="M238.683 15.6562H229.987" stroke="white" stroke-width="2" stroke-linecap="round" stroke-linejoin="round"/>
<path d="M367.416 89.2582V97.9416" stroke="white" stroke-width="1.7" stroke-linecap="round" stroke-linejoin="round"/>
<path d="M371.763 93.5999H363.068" stroke="white" stroke-width="1.7" stroke-linecap="round" stroke-linejoin="round"/>
<path d="M299.177 271.948V280.631" stroke="white" stroke-width="1.7" stroke-linecap="round" stroke-linejoin="round"/>
<path d="M303.525 276.289H294.83" stroke="white" stroke-width="1.7" stroke-linecap="round" stroke-linejoin="round"/>
<path d="M39.7998 60.899V69.5901" stroke="white" stroke-width="1.7" stroke-linecap="round" stroke-linejoin="round"/>
<path d="M44.1478 65.2484H35.4519" stroke="white" stroke-width="1.7" stroke-linecap="round" stroke-linejoin="round"/>
<path d="M103.905 235.626V244.317" stroke="white" stroke-width="1.7" stroke-linecap="round" stroke-linejoin="round"/>
<path d="M108.253 239.975H99.5493" stroke="white" stroke-width="1.7" stroke-linecap="round" stroke-linejoin="round"/>
<path d="M78.5623 35.4855C80.1533 35.4855 81.443 34.1976 81.443 32.6089C81.443 31.0202 80.1533 29.7323 78.5623 29.7323C76.9714 29.7323 75.6816 31.0202 75.6816 32.6089C75.6816 34.1976 76.9714 35.4855 78.5623 35.4855Z" stroke="white" stroke-width="1.7" stroke-linecap="round" stroke-linejoin="round"/>
<path d="M3.53377 125.02C5.12474 125.02 6.41447 123.732 6.41447 122.143C6.41447 120.555 5.12474 119.267 3.53377 119.267C1.94281 119.267 0.653076 120.555 0.653076 122.143C0.653076 123.732 1.94281 125.02 3.53377 125.02Z" stroke="white" stroke-width="1.7" stroke-linecap="round" stroke-linejoin="round"/>
<path d="M406.347 190.307C406.347 191.894 405.057 193.183 403.466 193.183C401.876 193.183 400.586 191.894 400.586 190.307C400.586 188.719 401.876 187.43 403.466 187.43C405.057 187.43 406.347 188.719 406.347 190.307Z" stroke="white" stroke-width="1.7" stroke-linecap="round" stroke-linejoin="round"/>
<path d="M103.621 276.289C103.621 277.877 102.33 279.166 100.74 279.166C99.1499 279.166 97.8594 277.877 97.8594 276.289C97.8594 274.701 99.1499 273.413 100.74 273.413C102.33 273.413 103.621 274.701 103.621 276.289Z" stroke="white" stroke-width="1.7" stroke-linecap="round" stroke-linejoin="round"/>
<path d="M336.496 57.9917C336.496 59.5796 335.205 60.8683 333.615 60.8683C332.025 60.8683 330.735 59.5796 330.735 57.9917C330.735 56.4039 332.025 55.1152 333.615 55.1152C335.205 55.1152 336.496 56.4039 336.496 57.9917Z" stroke="white" stroke-width="1.7" stroke-linecap="round" stroke-linejoin="round"/>
<path d="M304.071 217.339C305.662 217.339 306.952 216.051 306.952 214.462C306.952 212.873 305.662 211.586 304.071 211.586C302.48 211.586 301.19 212.873 301.19 214.462C301.19 216.051 302.48 217.339 304.071 217.339Z" stroke="white" stroke-width="1.7" stroke-linecap="round" stroke-linejoin="round"/>
<path d="M246.814 297.502C261.084 291.083 267.441 274.328 261.013 260.079C254.585 245.829 237.806 239.481 223.536 245.9C209.266 252.319 202.909 269.074 209.337 283.324C215.765 297.573 232.544 303.921 246.814 297.502Z" fill="#5371FF"/>
<path d="M249.774 284.6C256.896 276.547 256.132 264.253 248.068 257.141C240.003 250.029 227.692 250.792 220.57 258.845C213.448 266.898 214.212 279.191 222.276 286.303C230.34 293.415 242.651 292.652 249.774 284.6Z" fill="#8FD2FF"/>
<path d="M235.172 257.964C244.959 257.964 253.033 265.174 254.423 274.563C254.561 273.628 254.654 272.676 254.654 271.71C254.654 260.963 245.935 252.257 235.172 252.257C224.41 252.257 215.691 260.963 215.691 271.71C215.691 272.684 215.783 273.635 215.922 274.563C217.312 265.174 225.386 257.964 235.172 257.964Z" fill="#5371FF"/>
<path d="M237.707 261.308C238.583 261.523 239.382 261.83 240.096 262.229C240.811 262.628 241.418 263.072 241.925 263.571C242.432 264.07 242.831 264.591 243.123 265.136C243.415 265.681 243.569 266.21 243.592 266.716C243.592 266.893 243.53 267.046 243.4 267.169C243.277 267.291 243.131 267.36 242.977 267.36H239.144C238.867 267.36 238.652 267.322 238.483 267.245C238.314 267.169 238.145 267.046 237.968 266.893C237.907 266.831 237.815 266.739 237.692 266.601C237.561 266.463 237.385 266.325 237.154 266.179C236.924 266.033 236.624 265.903 236.278 265.796C235.925 265.688 235.495 265.635 234.988 265.635C234.619 265.635 234.258 265.658 233.92 265.711C233.582 265.757 233.275 265.834 233.014 265.941C232.752 266.049 232.537 266.202 232.368 266.394C232.199 266.586 232.123 266.831 232.123 267.123C232.123 267.414 232.215 267.66 232.399 267.851C232.583 268.043 232.898 268.227 233.336 268.388C233.774 268.549 234.358 268.718 235.08 268.872C235.802 269.025 236.701 269.209 237.769 269.424C238.844 269.639 239.781 269.915 240.58 270.245C241.379 270.575 242.048 270.989 242.585 271.487C243.123 271.986 243.522 272.569 243.784 273.244C244.045 273.919 244.175 274.709 244.175 275.622C244.175 276.443 244.022 277.187 243.707 277.87C243.392 278.552 242.954 279.158 242.393 279.68C241.825 280.209 241.141 280.646 240.342 280.992C239.543 281.344 238.668 281.598 237.707 281.751V283.822C237.707 284.037 237.63 284.221 237.477 284.374C237.323 284.528 237.139 284.605 236.924 284.605H233.09C232.875 284.605 232.691 284.528 232.537 284.374C232.384 284.221 232.307 284.037 232.307 283.822V281.659C231.37 281.444 230.525 281.137 229.78 280.738C229.027 280.34 228.382 279.887 227.851 279.381C227.314 278.874 226.899 278.322 226.607 277.731C226.315 277.141 226.161 276.535 226.138 275.937C226.138 275.76 226.2 275.607 226.33 275.484C226.453 275.361 226.599 275.292 226.753 275.292H230.586C230.863 275.292 231.078 275.323 231.232 275.392C231.385 275.461 231.546 275.561 231.7 275.699C231.777 275.775 231.892 275.906 232.053 276.075C232.207 276.251 232.422 276.427 232.683 276.612C232.945 276.796 233.275 276.957 233.674 277.095C234.074 277.233 234.565 277.302 235.149 277.302C236.186 277.302 237.047 277.187 237.738 276.964C238.429 276.742 238.775 276.335 238.775 275.752C238.775 275.461 238.644 275.215 238.391 275.024C238.137 274.832 237.753 274.648 237.246 274.487C236.739 274.326 236.094 274.157 235.303 274.003C234.512 273.85 233.582 273.651 232.507 273.42C230.494 272.991 229.027 272.278 228.105 271.273C227.175 270.268 226.715 268.933 226.715 267.253C226.715 266.57 226.845 265.918 227.099 265.282C227.352 264.645 227.721 264.07 228.197 263.54C228.673 263.011 229.257 262.559 229.956 262.167C230.648 261.776 231.431 261.477 232.315 261.262V259.099C232.315 258.884 232.391 258.7 232.545 258.547C232.699 258.393 232.883 258.317 233.098 258.317H236.931C237.147 258.317 237.331 258.393 237.485 258.547C237.638 258.7 237.715 258.884 237.715 259.099V261.293L237.707 261.308Z" fill="#DD6F0B"/>
<path d="M249.774 284.6C256.896 276.547 256.132 264.253 248.068 257.141C240.003 250.029 227.692 250.792 220.57 258.845C213.448 266.898 214.212 279.191 222.276 286.303C230.34 293.415 242.651 292.652 249.774 284.6Z" stroke="#282F39" stroke-width="1.7" stroke-linecap="round" stroke-linejoin="round"/>
<path d="M350.254 176.906L315.24 209.092L350.254 247.539L385.268 209.092L350.254 176.906Z" fill="#6CCEFF" stroke="#282F39" stroke-width="1.7" stroke-linecap="round" stroke-linejoin="round"/>
<path d="M379.599 160.39H320.909V244.639H379.599V160.39Z" fill="white" stroke="#282F39" stroke-width="1.7" stroke-linecap="round" stroke-linejoin="round"/>
<path d="M373.907 166.266H356.599V168.115H373.907V166.266Z" fill="#D9DCDD"/>
<path d="M373.907 171.858H356.599V173.707H373.907V171.858Z" fill="#D9DCDD"/>
<path d="M373.907 177.45H356.599V179.299H373.907V177.45Z" fill="#D9DCDD"/>
<path d="M373.907 183.042H356.599V184.891H373.907V183.042Z" fill="#D9DCDD"/>
<path d="M373.907 188.634H356.599V190.483H373.907V188.634Z" fill="#D9DCDD"/>
<path d="M373.907 194.226H356.599V196.075H373.907V194.226Z" fill="#D9DCDD"/>
<path d="M373.907 199.818H356.599V201.667H373.907V199.818Z" fill="#D9DCDD"/>
<path d="M373.907 205.411H356.599V207.259H373.907V205.411Z" fill="#D9DCDD"/>
<path d="M373.907 211.003H326.602V212.851H373.907V211.003Z" fill="#D9DCDD"/>
<path d="M373.907 216.595H326.602V218.443H373.907V216.595Z" fill="#D9DCDD"/>
<path d="M373.907 222.187H326.602V224.035H373.907V222.187Z" fill="#D9DCDD"/>
<path d="M373.907 227.786H326.602V229.635H373.907V227.786Z" fill="#D9DCDD"/>
<path d="M351.038 166.266H326.602V207.267H351.038V166.266Z" fill="#D9DCDD"/>
<path d="M342.442 230.594L315.24 209.338V251.858L342.442 230.594Z" fill="#B6D9EF" stroke="#282F39" stroke-width="1.7" stroke-linecap="round" stroke-linejoin="round"/>
<path d="M358.067 230.594L385.268 209.338V251.858L358.067 230.594Z" fill="#B6D9EF" stroke="#282F39" stroke-width="1.7" stroke-linecap="round" stroke-linejoin="round"/>
<path d="M350.254 220.146L315.24 251.858H385.268L350.254 220.146Z" fill="#B6D9EF" stroke="#282F39" stroke-width="1.7" stroke-linecap="round" stroke-linejoin="round"/>
<path d="M366.067 210.747L361.575 215.232L374.786 228.424L379.278 223.938L366.067 210.747Z" fill="#C0C4C9" stroke="#282F39" stroke-width="1.7" stroke-linecap="round" stroke-linejoin="round"/>
<path d="M355.301 218.643C363.137 218.643 369.49 212.299 369.49 204.475C369.49 196.65 363.137 190.307 355.301 190.307C347.465 190.307 341.113 196.65 341.113 204.475C341.113 212.299 347.465 218.643 355.301 218.643Z" fill="#C0C4C9" stroke="#282F39" stroke-width="1.7" stroke-linecap="round" stroke-linejoin="round"/>
<path d="M362.371 211.533C366.277 207.633 366.277 201.309 362.372 197.409C358.466 193.509 352.133 193.509 348.227 197.409C344.321 201.309 344.321 207.633 348.227 211.533C352.133 215.434 358.466 215.434 362.371 211.533Z" fill="#97DAFC" stroke="#282F39" stroke-width="1.7" stroke-linecap="round" stroke-linejoin="round"/>
<path d="M357.89 198.767C360.064 199.749 361.569 201.936 361.569 204.475Z" fill="#97DAFC"/>
<path d="M357.89 198.767C360.064 199.749 361.569 201.936 361.569 204.475" stroke="#282F39" stroke-width="1.7" stroke-linecap="round" stroke-linejoin="round"/>
<path d="M355.301 198.208C355.424 198.208 355.548 198.208 355.671 198.215Z" fill="#97DAFC"/>
<path d="M355.301 198.208C355.424 198.208 355.548 198.208 355.671 198.215" stroke="#282F39" stroke-width="1.7" stroke-linecap="round" stroke-linejoin="round"/>
<path d="M203.104 95.6308C207.76 93.5342 209.833 88.065 207.734 83.4151C205.634 78.7651 200.157 76.6952 195.5 78.7918C190.844 80.8884 188.771 86.3576 190.871 91.0075C192.97 95.6575 198.447 97.7274 203.104 95.6308Z" fill="white" stroke="#282F39" stroke-width="1.7" stroke-linecap="round" stroke-linejoin="round"/>
<path d="M238.514 96.7603C239.259 93.6996 239.666 90.5086 239.666 87.2178C239.666 83.927 239.259 80.7359 238.514 77.6752L228.335 79.6696C227.629 76.9695 226.553 74.4151 225.171 72.0601L233.79 66.2763C230.433 60.7686 225.785 56.1277 220.27 52.7756L214.477 61.3823C212.127 60.0015 209.569 58.9276 206.857 58.2219L208.854 48.058C205.789 47.3139 202.594 46.9073 199.298 46.9073C196.003 46.9073 192.807 47.3139 189.742 48.058L191.739 58.2219C189.035 58.9276 186.477 60.0015 184.119 61.3823L178.327 52.7756C172.811 56.1277 168.164 60.7686 164.807 66.2763L173.426 72.0601C172.043 74.4074 170.967 76.9618 170.261 79.6696L160.082 77.6752C159.337 80.7359 158.93 83.927 158.93 87.2178C158.93 90.5086 159.337 93.6996 160.082 96.7603L170.261 94.7659C170.967 97.466 172.043 100.02 173.426 102.375L164.807 108.159C168.164 113.667 172.811 118.308 178.327 121.66L184.119 113.053C186.469 114.434 189.027 115.508 191.739 116.214L189.742 126.378C192.807 127.122 196.003 127.528 199.298 127.528C202.594 127.528 205.789 127.122 208.854 126.378L206.857 116.214C209.561 115.508 212.119 114.434 214.477 113.053L220.27 121.66C225.785 118.308 230.433 113.667 233.79 108.159L225.171 102.375C226.553 100.028 227.629 97.4737 228.335 94.7659L238.514 96.7603ZM199.298 103.411C190.341 103.411 183.082 96.162 183.082 87.2178C183.082 78.2735 190.341 71.0246 199.298 71.0246C208.255 71.0246 215.514 78.2735 215.514 87.2178C215.514 96.162 208.255 103.411 199.298 103.411Z" fill="white" stroke="#282F39" stroke-width="1.7" stroke-linecap="round" stroke-linejoin="round"/>
<path d="M141.853 90.2017L185.479 146.698V167.187H213.118V146.698L256.743 90.2017H141.853Z" fill="#5371FF"/>
<path d="M205.551 146.698V167.187H213.118V146.698L256.743 90.2017H239.912L205.551 146.698Z" fill="#1D3BD0"/>
<path d="M193.037 167.187V146.698L158.684 90.2017H141.853L185.479 146.698V167.187H193.037Z" fill="#1D3BD0"/>
<path d="M222.912 90.2017L202.947 146.698V167.187H196.878V146.698L176.921 90.2017" fill="#8FD2FF"/>
<path d="M141.853 90.2017L185.479 146.698V167.187H213.118V146.698L256.743 90.2017H141.853Z" stroke="#282F39" stroke-width="1.7" stroke-linecap="round" stroke-linejoin="round"/>
<path d="M338.647 130.397H262.735V183.495H338.647V130.397Z" fill="white" stroke="#282F39" stroke-width="1.7" stroke-linecap="round" stroke-linejoin="round"/>
<path d="M338.647 130.397H262.735V138.743H338.647V130.397Z" fill="#C0C4C9" stroke="#282F39" stroke-width="1.7" stroke-linecap="round" stroke-linejoin="round"/>
<path d="M320.203 136.288C321.153 136.288 321.924 135.519 321.924 134.57C321.924 133.621 321.153 132.852 320.203 132.852C319.253 132.852 318.482 133.621 318.482 134.57C318.482 135.519 319.253 136.288 320.203 136.288Z" stroke="#282F39" stroke-width="1.7" stroke-linecap="round" stroke-linejoin="round"/>
<path d="M326.909 136.288C327.859 136.288 328.63 135.519 328.63 134.57C328.63 133.621 327.859 132.852 326.909 132.852C325.959 132.852 325.188 133.621 325.188 134.57C325.188 135.519 325.959 136.288 326.909 136.288Z" stroke="#282F39" stroke-width="1.7" stroke-linecap="round" stroke-linejoin="round"/>
<path d="M335.336 134.57C335.336 135.521 334.568 136.288 333.615 136.288C332.663 136.288 331.895 135.521 331.895 134.57C331.895 133.619 332.663 132.852 333.615 132.852C334.568 132.852 335.336 133.619 335.336 134.57Z" stroke="#282F39" stroke-width="1.7" stroke-linecap="round" stroke-linejoin="round"/>
<path d="M302.051 162.001H331.242V144.78H302.051V162.001Z" fill="#D9DCDD"/>
<path d="M270.14 146.828H298.563V144.78H270.14V146.828Z" fill="#D9DCDD"/>
<path d="M270.14 151.883H298.563V149.835H270.14V151.883Z" fill="#D9DCDD"/>
<path d="M270.14 156.946H298.563V154.898H270.14V156.946Z" fill="#D9DCDD"/>
<path d="M270.14 162.009H298.563V159.961H270.14V162.009Z" fill="#D9DCDD"/>
<path d="M270.14 167.064H331.249V165.016H270.14V167.064Z" fill="#D9DCDD"/>
<path d="M270.14 172.119H331.249V170.071H270.14V172.119Z" fill="#D9DCDD"/>
<path d="M270.14 177.174H331.249V175.126H270.14V177.174Z" fill="#D9DCDD"/>
<path d="M325.273 118.223H249.177V171.444H325.273V118.223Z" fill="white" stroke="#282F39" stroke-width="1.7" stroke-linecap="round" stroke-linejoin="round"/>
<path d="M325.273 118.223H249.177V126.592H325.273V118.223Z" fill="#768084" stroke="#282F39" stroke-width="1.7" stroke-linecap="round" stroke-linejoin="round"/>
<path d="M308.519 122.412C308.519 123.363 307.743 124.138 306.79 124.138C305.838 124.138 305.062 123.363 305.062 122.412C305.062 121.46 305.838 120.686 306.79 120.686C307.743 120.686 308.519 121.46 308.519 122.412Z" stroke="#282F39" stroke-width="1.7" stroke-linecap="round" stroke-linejoin="round"/>
<path d="M315.241 122.412C315.241 123.363 314.465 124.138 313.512 124.138C312.56 124.138 311.784 123.363 311.784 122.412C311.784 121.46 312.56 120.686 313.512 120.686C314.465 120.686 315.241 121.46 315.241 122.412Z" stroke="#282F39" stroke-width="1.7" stroke-linecap="round" stroke-linejoin="round"/>
<path d="M320.234 124.138C321.188 124.138 321.962 123.365 321.962 122.412C321.962 121.458 321.188 120.686 320.234 120.686C319.279 120.686 318.505 121.458 318.505 122.412C318.505 123.365 319.279 124.138 320.234 124.138Z" stroke="#282F39" stroke-width="1.7" stroke-linecap="round" stroke-linejoin="round"/>
<path d="M285.857 132.652H256.597V149.919H285.857V132.652Z" fill="#9CB7D3"/>
<path d="M317.86 132.652H289.36V134.7H317.86V132.652Z" fill="#D9DCDD"/>
<path d="M317.86 137.723H289.36V139.771H317.86V137.723Z" fill="#D9DCDD"/>
<path d="M317.86 142.793H289.36V144.841H317.86V142.793Z" fill="#D9DCDD"/>
<path d="M317.86 147.864H289.36V149.912H317.86V147.864Z" fill="#D9DCDD"/>
<path d="M317.86 152.934H256.597V154.982H317.86V152.934Z" fill="#D9DCDD"/>
<path d="M317.86 158.005H256.597V160.053H317.86V158.005Z" fill="#D9DCDD"/>
<path d="M317.86 163.075H256.597V165.123H317.86V163.075Z" fill="#D9DCDD"/>
<path d="M137.974 276.926C150.799 276.926 161.196 266.544 161.196 253.737C161.196 240.93 150.799 230.548 137.974 230.548C125.149 230.548 114.752 240.93 114.752 253.737C114.752 266.544 125.149 276.926 137.974 276.926Z" fill="#5371FF"/>
<path d="M149.262 265.011C155.495 258.786 155.495 248.693 149.262 242.468C143.028 236.243 132.921 236.243 126.687 242.468C120.453 248.693 120.453 258.786 126.687 265.011C132.921 271.236 143.028 271.236 149.262 265.011Z" fill="#8FD2FF"/>
<path d="M137.974 242.476C145.994 242.476 152.608 248.383 153.745 256.077C153.86 255.31 153.937 254.535 153.937 253.737C153.937 244.931 146.793 237.797 137.974 237.797C129.155 237.797 122.011 244.931 122.011 253.737C122.011 254.535 122.088 255.31 122.203 256.077C123.34 248.39 129.954 242.476 137.974 242.476Z" fill="#5371FF"/>
<path d="M140.048 245.222C140.77 245.399 141.415 245.652 141.999 245.974C142.583 246.304 143.082 246.664 143.497 247.079C143.912 247.485 144.242 247.915 144.481 248.36C144.719 248.805 144.849 249.242 144.865 249.648C144.865 249.794 144.811 249.917 144.711 250.017C144.611 250.124 144.488 250.17 144.365 250.17H141.223C141.001 250.17 140.816 250.139 140.686 250.078C140.547 250.017 140.409 249.917 140.263 249.787C140.217 249.74 140.14 249.656 140.033 249.549C139.925 249.434 139.779 249.319 139.587 249.204C139.395 249.081 139.157 248.981 138.865 248.889C138.573 248.797 138.228 248.759 137.813 248.759C137.505 248.759 137.214 248.782 136.937 248.82C136.66 248.858 136.407 248.927 136.192 249.012C135.977 249.096 135.8 249.227 135.662 249.38C135.524 249.541 135.462 249.74 135.462 249.978C135.462 250.216 135.539 250.416 135.693 250.577C135.846 250.738 136.1 250.883 136.461 251.022C136.822 251.16 137.298 251.29 137.89 251.42C138.481 251.551 139.218 251.697 140.094 251.873C140.97 252.049 141.738 252.272 142.399 252.54C143.052 252.809 143.605 253.154 144.043 253.561C144.481 253.967 144.811 254.45 145.026 254.995C145.241 255.547 145.349 256.192 145.349 256.943C145.349 257.611 145.218 258.224 144.965 258.784C144.711 259.344 144.35 259.835 143.889 260.265C143.428 260.694 142.867 261.055 142.214 261.339C141.561 261.623 140.839 261.83 140.056 261.96V263.663C140.056 263.84 139.994 263.993 139.864 264.116C139.733 264.246 139.587 264.307 139.411 264.307H136.269C136.092 264.307 135.938 264.246 135.815 264.116C135.685 263.985 135.623 263.84 135.623 263.663V261.891C134.855 261.715 134.164 261.462 133.549 261.139C132.935 260.81 132.405 260.441 131.967 260.027C131.529 259.613 131.191 259.16 130.945 258.677C130.707 258.194 130.576 257.703 130.561 257.204C130.561 257.058 130.615 256.936 130.715 256.836C130.815 256.729 130.937 256.683 131.06 256.683H134.202C134.425 256.683 134.602 256.713 134.732 256.767C134.863 256.821 134.986 256.905 135.116 257.02C135.178 257.082 135.278 257.189 135.401 257.327C135.531 257.473 135.7 257.618 135.915 257.772C136.13 257.925 136.399 258.056 136.73 258.171C137.06 258.286 137.459 258.34 137.943 258.34C138.788 258.34 139.495 258.247 140.063 258.063C140.632 257.879 140.916 257.549 140.916 257.074C140.916 256.836 140.809 256.637 140.601 256.476C140.394 256.314 140.079 256.169 139.664 256.031C139.249 255.893 138.719 255.762 138.066 255.632C137.421 255.501 136.653 255.348 135.777 255.156C134.133 254.803 132.927 254.22 132.167 253.399C131.406 252.579 131.03 251.482 131.03 250.109C131.03 249.549 131.137 249.012 131.345 248.49C131.552 247.969 131.852 247.493 132.243 247.063C132.635 246.634 133.111 246.258 133.68 245.936C134.248 245.614 134.894 245.368 135.608 245.192V243.42C135.608 243.243 135.669 243.09 135.8 242.967C135.931 242.837 136.077 242.775 136.253 242.775H139.395C139.572 242.775 139.725 242.837 139.848 242.967C139.979 243.098 140.04 243.243 140.04 243.42V245.215L140.048 245.222Z" fill="#DD6F0B"/>
<path d="M149.262 265.011C155.495 258.786 155.495 248.693 149.262 242.468C143.028 236.243 132.921 236.243 126.687 242.468C120.453 248.693 120.453 258.786 126.687 265.011C132.921 271.236 143.028 271.236 149.262 265.011Z" stroke="#282F39" stroke-width="1.7" stroke-linecap="round" stroke-linejoin="round"/>
</g>
<defs>
<clipPath id="clip0_11_54">
<rect width="407" height="300" fill="white"/>
</clipPath>
</defs>
</svg>
