<svg width="497" height="300" viewBox="0 0 497 300" fill="none" xmlns="http://www.w3.org/2000/svg">
<path d="M461.43 298.054H430.061L425.969 235.472H465.528L461.43 298.054Z" fill="#B75742"/>
<path d="M464.084 281.516H427.585L427.705 270.983L425.969 257.164H465.71L464.084 270.321V281.516Z" fill="#3C8F7C"/>
<path d="M468.328 240.005L423.164 239.797L423.284 237.407C423.373 235.602 424.243 234.214 425.286 234.214H466.221C467.264 234.214 468.135 235.602 468.223 237.407L468.328 240.005Z" fill="#F7CC7F"/>
<path d="M425.552 234.214L425.698 232.122C425.755 231.288 426.647 230.636 427.731 230.636H463.536C464.616 230.636 465.507 231.288 465.57 232.122L465.716 234.214H425.552Z" fill="#FAE0B2"/>
<path d="M429.879 258.473H427.997L429.962 270.457L429.462 280.249H429.962L430.379 270.206L429.879 258.473Z" fill="#96D9C9"/>
<path d="M433.132 258.473L434.571 280.249H434.988L434.738 258.416L433.132 258.473Z" fill="#96D9C9"/>
<path d="M438.444 258.473L439.878 280.249H440.295L440.045 258.416L438.444 258.473Z" fill="#96D9C9"/>
<path d="M460.137 258.473H462.019L460.054 270.457L460.554 280.249H460.054L459.637 270.206L460.137 258.473Z" fill="#96D9C9"/>
<path d="M456.884 258.473L455.445 280.249H455.028L455.278 258.416L456.884 258.473Z" fill="#96D9C9"/>
<path d="M451.681 258.473L450.242 280.249H449.825L450.075 258.416L451.681 258.473Z" fill="#96D9C9"/>
<path d="M445.274 258.473L444.555 280.249H444.346L444.471 258.416L445.274 258.473Z" fill="#96D9C9"/>
<path d="M452.239 232.592L452.677 227.495C452.713 227.062 453.261 226.723 453.928 226.723H457.27C457.932 226.723 458.485 227.062 458.521 227.495L458.959 232.592H452.239Z" fill="#FAE0B2"/>
<path d="M248.282 108.846L252.848 105.33L256.597 108.669L256.936 108.288L253.255 105.017L256.92 102.195L256.613 101.793L252.869 104.673L249.647 101.803L249.309 102.184L252.463 104.991L247.974 108.445L248.282 108.846Z" fill="#1D3BD0"/>
<path d="M256.623 109.332L251.858 112.629L248.099 109.608L247.781 110.005L251.425 112.926L246.499 116.338L246.785 116.755L251.837 113.26L256.42 116.943L256.738 116.547L252.27 112.957L256.91 109.744L256.623 109.332Z" fill="#1D3BD0"/>
<path d="M379.075 157.964C403.07 157.964 422.523 138.498 422.523 114.486C422.523 90.4737 403.07 71.0079 379.075 71.0079C355.079 71.0079 335.626 90.4737 335.626 114.486C335.626 138.498 355.079 157.964 379.075 157.964Z" fill="#9BC1F9"/>
<path d="M402.029 114.486C402.029 118.936 401.648 123.386 400.851 127.768C398.844 139.151 392.077 156.054 380.722 157.844C366.396 159.894 356.621 136.267 356.605 114.486C356.615 96.4926 363.799 73.2721 377.443 71.1279C390.846 69.2133 402.024 91.1662 402.034 114.486H402.029ZM399.761 114.486C399.746 75.9744 380.712 61.6122 367.965 77.2004C360.364 86.4292 357.914 102.487 357.914 114.486C357.914 134.999 365.197 157.786 379.075 157.964C379.622 157.959 380.169 157.917 380.717 157.839C392.139 156.007 397.311 139.266 398.917 127.46C399.495 123.162 399.761 118.821 399.761 114.486Z" fill="white"/>
<path d="M409.458 83.4033C409.119 83.0694 408.77 82.7408 408.421 82.4174C389.825 88.8759 367.167 88.8707 348.821 83.2833C348.623 83.4764 348.425 83.6694 348.232 83.8676C348.503 83.9668 348.816 84.0868 349.176 84.2172C349.145 84.2068 356.042 86.8987 365.056 88.2186C376.134 89.8463 388.605 89.382 400.773 86.1944C403.04 85.584 402.092 85.8605 405.36 84.8536C405.345 84.8536 405.647 84.7546 408.071 83.9146C408.056 83.9146 408.567 83.7476 409.458 83.4033Z" fill="white"/>
<path d="M370.4 141.635C362.538 142.229 355.166 143.565 348.566 145.438C348.842 145.714 349.124 145.98 349.41 146.247C362.752 142.835 378.934 141.619 395.064 143.382C400.022 143.925 404.771 144.739 409.223 145.793C409.588 145.438 409.948 145.083 410.297 144.718C398.458 141.823 384.533 140.586 370.394 141.635H370.4Z" fill="white"/>
<path d="M335.647 113.156C335.632 113.594 335.626 114.037 335.626 114.481H422.523C422.523 114.037 422.518 113.594 422.502 113.156H335.647Z" fill="white"/>
<path d="M271.622 68.8377C275.103 68.8377 277.925 66.0138 277.925 62.5304C277.925 59.047 275.103 56.2231 271.622 56.2231C268.141 56.2231 265.319 59.047 265.319 62.5304C265.319 66.0138 268.141 68.8377 271.622 68.8377Z" fill="#1D3BD0"/>
<path d="M254.126 88.1612C274.223 102.122 299.42 100.739 310.983 85.2397L236.984 33.8373C226.511 50.0985 234.028 74.2059 254.126 88.1664V88.1612Z" fill="#1D3BD0"/>
<path d="M255.283 92.9608C257.529 92.9608 259.35 91.1389 259.35 88.8915C259.35 86.6442 257.529 84.8224 255.283 84.8224C253.037 84.8224 251.217 86.6442 251.217 88.8915C251.217 91.1389 253.037 92.9608 255.283 92.9608Z" fill="#1D3BD0"/>
<path d="M244.106 132.75L242.516 132.422L251.853 87.2065H257.441V132.583H255.82V88.8237H253.172L244.106 132.75Z" fill="#1D3BD0"/>
<path d="M11.3495 205.412V263.721C11.3495 268.667 17.814 272.674 25.7905 272.674C33.767 272.674 40.2315 268.667 40.2315 263.721V205.412H11.3495Z" fill="#86B1F2"/>
<path d="M25.7853 272.674H22.6156V272.324C23.6374 272.543 24.6957 272.674 25.7853 272.674Z" fill="#9BC1F9"/>
<path d="M40.2263 258.75C40.2263 255.844 39.7832 89.3089 39.7832 89.3089H158.179C168.121 89.3089 176.175 96.4196 176.175 105.184V244.82C176.175 260.205 163.246 272.679 147.293 272.679H25.7853C33.7618 272.679 40.2263 266.445 40.2263 258.75Z" fill="#9BC1F9"/>
<path d="M165.405 110.375H52.9261V114.486H165.405V110.375Z" fill="#86B1F2"/>
<path d="M165.405 116.943H52.9261V121.054H165.405V116.943Z" fill="#86B1F2"/>
<path d="M165.405 123.506H52.9261V127.617H165.405V123.506Z" fill="#86B1F2"/>
<path d="M165.405 130.074H52.9261V134.185H165.405V130.074Z" fill="#86B1F2"/>
<path d="M165.405 150.18H52.9261V154.291H165.405V150.18Z" fill="#86B1F2"/>
<path d="M165.405 156.743H52.9261V160.854H165.405V156.743Z" fill="#86B1F2"/>
<path d="M165.405 163.807H52.9261V167.918H165.405V163.807Z" fill="#86B1F2"/>
<path d="M165.405 170.375H52.9261V174.486H165.405V170.375Z" fill="#86B1F2"/>
<path d="M165.405 177.439H52.9261V181.549H165.405V177.439Z" fill="#86B1F2"/>
<path d="M165.405 184.001H52.9261V188.112H165.405V184.001Z" fill="#86B1F2"/>
<path d="M165.405 191.065H52.9261V195.176H165.405V191.065Z" fill="#86B1F2"/>
<path d="M165.405 197.633H52.9261V201.744H165.405V197.633Z" fill="#86B1F2"/>
<path d="M372.772 187.742H422.398C429.488 187.742 435.238 193.501 435.238 200.591V285.726C435.238 292.821 429.483 298.576 422.398 298.576H372.772C365.681 298.576 359.931 292.816 359.931 285.726V200.591C359.931 193.496 365.687 187.742 372.772 187.742Z" fill="#13375B"/>
<path d="M365.603 204.744V278.626C365.603 285.835 371.443 291.679 378.647 291.679H417.445C424.649 291.679 430.489 285.835 430.489 278.626V204.744C430.489 197.535 424.649 191.691 417.445 191.691H378.647C371.443 191.691 365.603 197.535 365.603 204.744Z" fill="#86B1F2"/>
<path d="M378.157 243.756H386.942V232.342H378.157V243.756Z" fill="#9BC1F9"/>
<path d="M386.029 242.718V233.38H379.075V242.718H386.029Z" fill="white"/>
<path d="M378.157 260.821H386.942V249.406H378.157V260.821Z" fill="#9BC1F9"/>
<path d="M386.029 259.783V250.444H379.075V259.783H386.029Z" fill="white"/>
<path d="M378.157 278.256H386.942V266.841H378.157V278.256Z" fill="#9BC1F9"/>
<path d="M386.029 277.218V267.879H379.075V277.218H386.029Z" fill="white"/>
<path d="M375.483 227.975C375.764 227.798 376.113 227.912 376.27 228.231L382.635 241.148L384.502 235.915C384.622 235.581 384.96 235.414 385.258 235.55C385.555 235.686 385.696 236.067 385.576 236.406L382.802 244.179L375.258 228.867C375.102 228.549 375.201 228.147 375.483 227.975Z" fill="#B75742"/>
<path d="M375.483 243.96C375.764 243.782 376.113 243.897 376.27 244.215L382.635 257.133L384.502 251.9C384.622 251.566 384.96 251.399 385.258 251.535C385.555 251.67 385.696 252.051 385.576 252.39L382.802 260.163L375.258 244.852C375.102 244.534 375.201 244.137 375.483 243.96Z" fill="#B75742"/>
<path d="M368.674 203.226H427.966V200.32H368.674V203.226Z" fill="#355389"/>
<path d="M368.674 208.62H427.966V205.714H368.674V208.62Z" fill="#355389"/>
<path d="M368.126 225.852H427.418V222.946H368.126V225.852Z" fill="#355389"/>
<path d="M127.983 298.471H94.0075C85.2855 298.471 78.2058 291.387 78.2058 282.659V190.084C78.2058 181.357 85.2855 174.272 94.0075 174.272H127.983C136.705 174.272 143.785 181.357 143.785 190.084V282.659C143.785 291.387 136.705 298.471 127.983 298.471Z" fill="#184655"/>
<path d="M140.605 194.618V270.144C140.605 278.485 133.838 285.262 125.496 285.262H97.4431C89.1069 285.262 82.3347 278.491 82.3347 270.144V194.618C82.3347 186.276 89.1017 179.499 97.4431 179.499H125.496C133.832 179.499 140.605 186.271 140.605 194.618Z" fill="#1D3BD0"/>
<path d="M111.477 296.473C118.805 296.473 124.746 294.563 124.746 292.206C124.746 289.849 118.805 287.938 111.477 287.938C104.15 287.938 98.2095 289.849 98.2095 292.206C98.2095 294.563 104.15 296.473 111.477 296.473Z" fill="#13375B"/>
<path d="M102.219 193.46H120.799C125.465 193.46 129.255 197.252 129.255 201.922V211.505C129.255 216.174 125.465 219.967 120.799 219.967H102.219C97.5526 219.967 93.7624 216.174 93.7624 211.505V201.922C93.7624 197.252 97.5526 193.46 102.219 193.46Z" fill="#B75742"/>
<path d="M136.794 233.468H87.0841V234.914H136.794V233.468Z" fill="#184655"/>
<path d="M103.783 230.291C103.783 229.199 102.899 228.314 101.809 228.314C100.719 228.314 99.836 229.199 99.836 230.291V238.837C99.836 239.929 100.719 240.814 101.809 240.814C102.899 240.814 103.783 239.929 103.783 238.837V230.291Z" fill="#355389"/>
<path d="M118.63 204.822L110.226 199.965C108.772 199.125 106.952 200.174 106.952 201.854V211.568C106.952 213.248 108.772 214.296 110.226 213.456L118.63 208.599C120.085 207.759 120.085 205.657 118.63 204.817V204.822Z" fill="white"/>
<path d="M165.743 116.364H342.414C360.009 116.364 374.299 130.658 374.299 148.271V268.088C374.299 285.695 360.015 299.995 342.414 299.995H165.743C148.148 299.995 133.858 285.7 133.858 268.088V148.271C133.858 130.658 148.143 116.364 165.743 116.364Z" fill="#466EB6"/>
<path d="M155.927 120.678H353.612C362.887 120.678 370.415 128.212 370.415 137.493V277.651C370.415 286.932 362.887 294.465 353.612 294.465H155.927C146.652 294.465 139.124 286.932 139.124 277.651V137.493C139.124 128.212 146.652 120.678 155.927 120.678Z" fill="#184655"/>
<path d="M133.858 288.935V295.169C133.858 297.835 139.588 300 146.652 300H392.379C399.448 300 405.178 297.835 405.178 295.169V288.935H133.858Z" fill="#355389"/>
<path d="M355.067 126.688H155.066V275.809H355.067V126.688Z" fill="#1D3BD0"/>
<path d="M346.934 132.072H165.655V143.575H346.934V132.072Z" fill="white"/>
<path d="M250.695 154.291H172.385V156.743H250.695V154.291Z" fill="#96D9C9"/>
<path d="M340.579 154.291H267.696V156.743H340.579V154.291Z" fill="#96D9C9"/>
<path d="M250.695 160.494H172.385V162.946H250.695V160.494Z" fill="#96D9C9"/>
<path d="M340.579 160.494H267.696V162.946H340.579V160.494Z" fill="#96D9C9"/>
<path d="M250.695 166.697H172.385V169.149H250.695V166.697Z" fill="#96D9C9"/>
<path d="M340.579 166.697H267.696V169.149H340.579V166.697Z" fill="#96D9C9"/>
<path d="M250.695 172.905H172.385V175.357H250.695V172.905Z" fill="#96D9C9"/>
<path d="M340.579 172.905H267.696V175.357H340.579V172.905Z" fill="#96D9C9"/>
<path d="M340.579 179.108H267.696V181.56H340.579V179.108Z" fill="#96D9C9"/>
<path d="M250.695 179.108H172.385V181.56H250.695V179.108Z" fill="#96D9C9"/>
<path d="M250.695 185.311H172.385V187.763H250.695V185.311Z" fill="#96D9C9"/>
<path d="M340.579 185.311H267.696V187.763H340.579V185.311Z" fill="#96D9C9"/>
<path d="M250.695 191.519H172.385V193.971H250.695V191.519Z" fill="#96D9C9"/>
<path d="M340.579 191.519H267.696V193.971H340.579V191.519Z" fill="#96D9C9"/>
<path d="M250.695 197.722H172.385V200.174H250.695V197.722Z" fill="#96D9C9"/>
<path d="M340.579 197.722H267.696V200.174H340.579V197.722Z" fill="#96D9C9"/>
<path d="M250.695 203.925H172.385V206.377H250.695V203.925Z" fill="#96D9C9"/>
<path d="M340.579 203.925H267.696V206.377H340.579V203.925Z" fill="#96D9C9"/>
<path d="M250.695 210.133H172.385V212.585H250.695V210.133Z" fill="#96D9C9"/>
<path d="M340.579 210.133H267.696V212.585H340.579V210.133Z" fill="#96D9C9"/>
<path d="M340.579 216.336H267.696V218.788H340.579V216.336Z" fill="#96D9C9"/>
<path d="M250.695 216.336H172.385V218.788H250.695V216.336Z" fill="#96D9C9"/>
<path d="M250.695 222.539H172.385V224.991H250.695V222.539Z" fill="#96D9C9"/>
<path d="M340.579 222.539H267.696V224.991H340.579V222.539Z" fill="#96D9C9"/>
<path d="M340.579 228.747H267.696V231.199H340.579V228.747Z" fill="#96D9C9"/>
<path d="M250.695 228.747H172.385V231.199H250.695V228.747Z" fill="#96D9C9"/>
<path d="M410.344 62.8643C410.224 62.8225 410.136 62.713 410.12 62.5878C410.105 62.4626 410.162 62.3374 410.271 62.2644L412.32 60.9131L412.367 58.4612C412.367 58.3308 412.445 58.216 412.56 58.1638C412.675 58.1116 412.816 58.1273 412.915 58.2056L414.833 59.7341L417.179 59.0194C417.304 58.9829 417.435 59.0194 417.523 59.1133C417.612 59.2072 417.638 59.3429 417.591 59.4629L416.731 61.7583L418.133 63.772C418.206 63.8763 418.211 64.0172 418.154 64.1268C418.091 64.2416 417.972 64.3093 417.841 64.2989L415.391 64.1894L413.91 66.1457C413.832 66.2501 413.702 66.297 413.577 66.2709C413.452 66.2448 413.347 66.151 413.316 66.031L412.664 63.6677L410.35 62.8643H410.344Z" fill="#F47458"/>
<path d="M54.7143 73.1208L57.5556 74.2215L59.7973 72.0721L62.8889 73.5329L64.5676 70.5071L68.1387 72.0043L70.0312 69.4063L73.7014 70.2828L73.3729 71.6757L70.6255 71.0183L68.6288 73.7572L65.1984 72.3173L63.4884 75.3953L60.0736 73.7833L57.8892 75.8858L55.2565 74.8632L54.1095 76.5431L52.9261 75.7344L54.7143 73.1208Z" fill="#96D9C9"/>
<path d="M137.649 12.3539L137.617 15.4006L140.417 16.7414L140.141 20.1532L143.566 20.6645L143.42 24.5354L146.517 25.391L146.986 29.142L145.568 29.3194L145.213 26.5179L141.95 25.6102L142.09 21.8905L138.608 21.374L138.915 17.6073L136.178 16.2979L136.21 13.4756L134.234 12.9904L134.573 11.6026L137.649 12.3539Z" fill="#9BC1F9"/>
<path d="M164.617 12.526C164.445 10.0115 166.338 7.83603 168.851 7.65866C171.363 7.4865 173.537 9.38024 173.715 11.8948C173.887 14.4094 171.994 16.5848 169.481 16.7622C166.969 16.9343 164.795 15.0406 164.617 12.526Z" fill="#F7CC7F"/>
<path d="M172.349 25.4067C172.078 24.0816 171.911 22.6678 171.463 21.3896C171.077 20.2941 169.367 20.628 169.45 21.807C169.554 23.2469 170.008 24.7129 170.31 26.1267C170.43 26.7005 171.191 26.9666 171.692 26.7892C172.302 26.5753 172.474 25.9858 172.354 25.4067H172.349Z" fill="#F7CC7F"/>
<path d="M180.158 19.7567C178.647 18.8646 177.333 17.7586 175.936 16.7048C174.846 15.8805 173.673 17.2995 174.57 18.2751C175.857 19.6785 177.547 20.7792 179.173 21.7392C179.689 22.0417 180.409 21.7444 180.659 21.2384C180.94 20.6697 180.675 20.0593 180.158 19.7515V19.7567Z" fill="#F7CC7F"/>
<path d="M177.296 11.5923C176.952 11.8688 176.884 12.26 177.098 12.6461C177.609 13.5747 178.907 13.5277 179.825 13.4964C180.784 13.4651 181.749 13.2669 182.656 12.9591C184.001 12.5 183.271 10.4133 181.921 10.8723C179.283 11.7749 178.287 10.7941 177.291 11.5923H177.296Z" fill="#F7CC7F"/>
<path d="M175.847 2.72345C174.523 4.66415 173.438 5.32143 173.605 6.3909C173.704 7.01694 174.2 7.31431 174.799 7.17867C175.513 7.01694 175.899 6.26054 176.327 5.72841C176.738 5.21715 177.14 4.71105 177.505 4.16849C177.838 3.67809 177.885 3.04164 177.395 2.61907C176.989 2.26432 176.181 2.23306 175.847 2.72867V2.72345Z" fill="#F7CC7F"/>
<path d="M170.68 2.38433C170.258 1.20531 170.164 0.777517 169.612 0.229739C169.132 -0.245002 168.126 0.0575848 168.058 0.756654C167.98 1.57571 168.152 1.87831 168.595 3.11472C168.798 3.67815 169.44 3.99112 170.003 3.78766C170.566 3.58942 170.879 2.94254 170.675 2.37911L170.68 2.38433Z" fill="#F7CC7F"/>
<path d="M165.097 5.23281C163.184 3.77729 162.798 3.37041 162.047 3.44866C161.609 3.49561 161.114 3.91817 161.208 4.41378C161.385 5.33196 161.922 5.58235 163.679 6.86571C164.148 7.21003 164.8 7.22571 165.206 6.7614C165.571 6.34405 165.566 5.58756 165.102 5.23281H165.097Z" fill="#F7CC7F"/>
<path d="M157.412 11.9001C156.657 12.3018 156.964 13.606 157.777 13.7103C158.559 13.8147 158.862 13.6895 162.657 12.9956C163.241 12.8861 163.726 12.4583 163.684 11.8166C163.648 11.2688 163.095 10.6845 162.506 10.7889C158.565 11.4984 158.168 11.4984 157.412 11.9001Z" fill="#F7CC7F"/>
<path d="M163.361 18.1134C161.281 20.1271 160.973 19.7724 160.155 21.0035C159.779 21.567 160.4 22.4643 161.051 22.3443C161.891 22.1878 162.115 22.047 163.21 21.181C163.846 20.6749 164.456 20.1375 165.04 19.5741C165.472 19.1568 165.358 18.3742 164.93 18.0038C164.445 17.5812 163.794 17.6961 163.361 18.1134Z" fill="#F7CC7F"/>
<path d="M223.08 66.4379L219.326 66.8709L219.499 70.3871L215.823 70.9714L215.568 74.3519L212.888 75.2389L213.336 76.6005L216.923 75.411L217.163 72.2078L220.984 71.5974L220.823 68.1386L224.222 67.7474L223.08 66.4379Z" fill="#F48C7F"/>
<path d="M204.792 18.6768L201.028 18.7708L200.736 21.5462L197.024 21.7705L196.336 24.4155L193.567 24.9372L193.838 26.0327L197.535 25.3337L198.191 22.8295L202.055 22.6L202.336 19.8663L205.751 19.7828L204.792 18.6768Z" fill="#F7CC7F"/>
<path d="M444.049 81.1392L440.28 81.2331L439.993 84.0137L436.281 84.2329L435.593 86.8778L432.824 87.3995L433.09 88.5003L436.792 87.796L437.444 85.2918L441.312 85.0623L441.593 82.3287L445.008 82.2452L444.049 81.1392Z" fill="#96D9C9"/>
<path d="M373.747 47.5056L371.286 56.6874L379.085 53.7346L373.747 47.5056Z" fill="#96D9C9"/>
<path d="M472.644 189.391C465.439 185.254 462.937 176.014 467.076 168.805C471.21 161.595 480.443 159.091 487.648 163.233C494.853 167.37 497.356 176.609 493.216 183.819C489.082 191.029 479.849 193.533 472.644 189.391Z" fill="#F7CC7F"/>
<path d="M472.842 189.051C465.825 185.019 463.39 176.025 467.42 169.003C471.45 161.981 480.438 159.545 487.455 163.577C494.473 167.61 496.907 176.604 492.877 183.626C488.847 190.648 479.86 193.084 472.842 189.051Z" fill="#F7CC7F"/>
<path d="M490.51 182.342C487.216 188.086 479.891 190.074 474.151 186.777C468.411 183.48 466.425 176.15 469.719 170.406C473.014 164.662 480.339 162.675 486.079 165.972C491.819 169.269 493.805 176.599 490.51 182.342Z" fill="white"/>
<path d="M474.49 186.182C469.057 183.062 467.17 176.098 470.293 170.662C473.416 165.226 480.37 163.337 485.803 166.462C491.235 169.582 493.122 176.546 489.999 181.983C486.882 187.419 479.922 189.307 474.49 186.182Z" fill="white"/>
<path d="M471.919 170.897L470.157 169.884C469.865 169.718 469.495 169.817 469.328 170.109C469.162 170.401 469.261 170.771 469.553 170.938L471.315 171.95C471.607 172.117 471.977 172.018 472.144 171.726C472.311 171.434 472.211 171.064 471.919 170.897Z" fill="#F7CC7F"/>
<path d="M475.553 184.325C475.261 184.158 474.891 184.257 474.724 184.549L473.713 186.313C473.546 186.605 473.645 186.975 473.937 187.142C474.229 187.309 474.599 187.21 474.766 186.918L475.777 185.154C475.944 184.862 475.845 184.492 475.553 184.325Z" fill="#F7CC7F"/>
<path d="M490.74 181.701L488.978 180.689C488.686 180.522 488.316 180.621 488.149 180.913C487.982 181.205 488.081 181.576 488.373 181.743L490.135 182.755C490.427 182.922 490.797 182.822 490.964 182.53C491.131 182.238 491.032 181.868 490.74 181.701Z" fill="#F7CC7F"/>
<path d="M486.355 165.492C486.063 165.325 485.693 165.424 485.526 165.716L484.515 167.479C484.348 167.772 484.447 168.142 484.739 168.309C485.031 168.476 485.401 168.377 485.568 168.085L486.579 166.321C486.746 166.029 486.647 165.659 486.355 165.492Z" fill="#F7CC7F"/>
<path d="M494.943 164.452C495.108 164.343 495.325 164.388 495.434 164.553L496.94 166.84C497.049 167.006 497.005 167.222 496.839 167.331L494.846 168.646C494.68 168.755 494.464 168.711 494.355 168.545L492.848 166.259C492.739 166.093 492.784 165.876 492.949 165.767L494.943 164.452Z" fill="#F7CC7F"/>
<path d="M479.638 157.55L479.509 159.936C479.499 160.132 479.649 160.299 479.844 160.31L482.577 160.458C482.773 160.468 482.94 160.318 482.95 160.123L483.08 157.737C483.09 157.541 482.94 157.374 482.745 157.364L480.012 157.215C479.816 157.205 479.649 157.355 479.638 157.55Z" fill="#F7CC7F"/>
<path d="M488.504 158.009L487.648 159.502C487.553 159.667 487.61 159.878 487.775 159.972L490.814 161.717C490.979 161.812 491.189 161.755 491.283 161.59L492.14 160.097C492.234 159.932 492.177 159.722 492.013 159.627L488.974 157.882C488.809 157.787 488.599 157.844 488.504 158.009Z" fill="#F7CC7F"/>
<path d="M487.841 161.005C486.788 159.826 486.553 158.063 487.382 156.613C488.42 154.802 490.724 154.182 492.533 155.22C494.342 156.258 494.963 158.564 493.925 160.374C493.096 161.819 491.454 162.508 489.906 162.195L489.442 163.003C491.438 163.541 493.628 162.696 494.702 160.817C495.984 158.585 495.208 155.726 492.976 154.442C490.745 153.159 487.888 153.936 486.606 156.169C485.532 158.047 485.907 160.364 487.372 161.814L487.836 161.005H487.841Z" fill="#F7CC7F"/>
<path d="M487.799 162.972C488.154 163.175 488.498 163.389 488.832 163.619L490.067 161.47L488.389 160.504L487.169 162.628C487.382 162.737 487.591 162.852 487.805 162.972H487.799Z" fill="#F7CC7F"/>
<path d="M481.121 176.854C480.819 177.386 480.141 177.569 479.614 177.261C479.083 176.959 478.9 176.28 479.208 175.753C479.51 175.221 480.188 175.039 480.714 175.347C481.246 175.649 481.429 176.327 481.121 176.854Z" fill="#FAE0B2"/>
<path d="M488.055 171.747L480.36 176.64C480.167 176.766 479.912 176.708 479.786 176.51C479.661 176.317 479.719 176.061 479.917 175.936C479.948 175.915 479.588 176.103 488.055 171.742V171.747Z" fill="#FAE0B2"/>
<path d="M481.444 185.384L479.745 176.421C479.703 176.197 479.849 175.978 480.078 175.936C480.303 175.894 480.522 176.04 480.563 176.265C480.568 176.301 480.527 175.894 481.444 185.384Z" fill="#FAE0B2"/>
<path d="M480.553 176.531C480.428 176.745 480.151 176.823 479.938 176.698C479.719 176.573 479.646 176.296 479.771 176.082C479.896 175.863 480.172 175.79 480.386 175.915C480.6 176.04 480.678 176.317 480.553 176.531Z" fill="#FAE0B2"/>
<path d="M436.724 110.547C436.682 110.401 436.557 110.291 436.406 110.265C435.666 110.14 434.592 109.321 434.096 108.841L434.925 105.361C435.582 105.158 436.907 104.908 437.626 105.132C437.772 105.179 437.934 105.132 438.038 105.022L439.967 102.977C440.071 102.868 440.102 102.706 440.05 102.56C439.79 101.856 439.962 100.52 440.128 99.8471L443.554 98.8246C444.059 99.2941 444.935 100.317 445.102 101.047C445.138 101.198 445.253 101.313 445.399 101.35L448.131 102.002C448.282 102.038 448.439 101.986 448.532 101.866C449.012 101.287 450.253 100.765 450.915 100.577L453.516 103.035C453.365 103.708 452.917 104.981 452.369 105.492C452.255 105.596 452.213 105.758 452.26 105.904L453.063 108.601C453.104 108.747 453.23 108.857 453.381 108.883C454.121 109.008 455.195 109.827 455.685 110.307L454.856 113.787C454.199 113.99 452.875 114.241 452.156 114.016C452.01 113.969 451.848 114.016 451.744 114.126L449.815 116.171C449.711 116.28 449.679 116.442 449.731 116.588C449.992 117.293 449.82 118.628 449.653 119.301L446.228 120.324C445.722 119.854 444.846 118.832 444.68 118.101C444.643 117.95 444.529 117.835 444.383 117.799L441.646 117.146C441.494 117.11 441.338 117.162 441.244 117.282C440.764 117.861 439.524 118.383 438.862 118.571L436.26 116.114C436.411 115.441 436.86 114.168 437.407 113.656C437.522 113.552 437.563 113.39 437.516 113.244L436.714 110.547H436.724ZM444.085 113.004C445.978 113.453 447.875 112.284 448.324 110.391C448.772 108.497 447.604 106.598 445.712 106.149C443.819 105.701 441.922 106.869 441.473 108.763C441.025 110.657 442.193 112.556 444.085 113.004ZM443.559 115.201C446.666 115.941 449.778 114.022 450.519 110.912C451.259 107.803 449.34 104.688 446.233 103.948C443.126 103.207 440.014 105.127 439.273 108.236C438.533 111.345 440.452 114.46 443.559 115.201Z" fill="#F48C7F"/>
<path d="M452.13 131.498C452.208 131.404 452.333 131.363 452.448 131.394L454.611 131.91C454.731 131.937 454.82 132.03 454.851 132.15C454.987 132.729 455.68 133.543 456.076 133.914L458.787 133.105C458.917 132.578 459.058 131.519 458.85 130.961C458.808 130.846 458.834 130.721 458.917 130.632L460.445 129.015C460.528 128.926 460.653 128.895 460.768 128.932C461.336 129.109 462.384 128.911 462.906 128.749L463.562 125.994C463.171 125.614 462.322 124.967 461.738 124.868C461.618 124.847 461.519 124.758 461.488 124.643L460.852 122.509C460.815 122.395 460.852 122.264 460.94 122.186C461.378 121.779 461.733 120.772 461.852 120.24L459.793 118.294C459.267 118.445 458.287 118.858 457.906 119.312C457.828 119.405 457.703 119.447 457.588 119.416L455.424 118.899C455.305 118.873 455.216 118.779 455.185 118.659C455.054 118.08 454.356 117.266 453.959 116.896L451.249 117.705C451.118 118.232 450.977 119.291 451.186 119.849C451.228 119.964 451.202 120.089 451.118 120.178L449.591 121.795C449.507 121.883 449.382 121.915 449.262 121.878C448.694 121.701 447.646 121.899 447.125 122.061L446.468 124.815C446.859 125.196 447.709 125.843 448.293 125.942C448.412 125.963 448.512 126.052 448.543 126.167L449.179 128.3C449.215 128.415 449.179 128.545 449.09 128.624C448.652 129.031 448.298 130.038 448.178 130.57L450.237 132.516C450.764 132.364 451.744 131.952 452.124 131.498H452.13ZM454.215 128.775C452.349 128.332 451.202 126.459 451.645 124.596C452.088 122.729 453.959 121.581 455.821 122.024C457.682 122.468 458.834 124.341 458.391 126.203C457.948 128.066 456.076 129.218 454.215 128.775Z" fill="#F7A491"/>
<path d="M337.764 36.9833L349.396 29.6989C350.576 28.9599 352.135 29.3189 352.873 30.4997L360.153 42.1391C360.891 43.3199 360.532 44.8801 359.352 45.6191L347.721 52.9035C346.541 53.6425 344.982 53.2834 344.243 52.1027L336.964 40.4632C336.225 39.2824 336.584 37.7223 337.764 36.9833Z" fill="#F7A491"/>
<path d="M353.936 37.3483C355.818 40.3637 354.905 44.3338 351.897 46.2171C348.884 48.1004 344.917 47.1874 343.035 44.1772C341.153 41.1619 342.065 37.1918 345.073 35.3085C348.086 33.4251 352.054 34.3381 353.936 37.3483Z" fill="white"/>
<path d="M346.46 38.0473L348.993 41.0157C349.181 41.2348 349.155 41.5583 348.936 41.7461C348.717 41.9339 348.394 41.9078 348.206 41.6887C348.175 41.6522 348.149 41.6157 348.133 41.574L346.46 38.0473Z" fill="#F47458"/>
<path d="M348.363 41.0157L352.419 38.929L348.842 41.7618C348.649 41.9131 348.368 41.8818 348.217 41.6887C348.065 41.4957 348.097 41.214 348.29 41.0627C348.31 41.0471 348.337 41.0262 348.363 41.0157Z" fill="#F47458"/>
<path d="M76.9024 39.8523C77.7105 44.1459 74.8379 48.2777 70.5108 48.9872C66.434 49.6602 62.4979 46.9682 61.6324 42.9251C60.7149 38.6316 63.5145 34.4476 67.8051 33.6338C72.0331 32.8356 76.1047 35.6214 76.9024 39.8471V39.8523Z" fill="#F7CC7F"/>
<path d="M65.3861 43.2799C65.8136 45.5441 67.9928 47.0309 70.2501 46.6031C72.5075 46.1753 73.9986 43.9998 73.5711 41.7357L65.3861 43.2799Z" fill="#EFEFEF"/>
<path d="M127.237 43.666C127.237 43.666 131.288 44.4589 131.179 45.6797C131.121 46.3214 130.772 47.9752 130.772 47.9752L132.722 53.8911L128.233 54.7832C128.233 54.7832 127.582 50.5106 126.654 49.4098C126.487 49.2116 126.153 49.2481 125.872 49.0081C124.928 48.2047 123.546 46.3683 123.432 45.9562C122.921 44.1407 127.232 43.6607 127.232 43.6607L127.237 43.666Z" fill="#F7A491"/>
<path d="M124.5 45.5962L123.896 45.951C123.896 45.951 124.704 45.9249 125.741 46.457C126.779 46.9891 126.946 47.1144 126.946 47.1144C126.946 47.1144 127.441 46.7335 128.014 46.5092C128.64 46.264 129.338 46.0762 130.444 45.831C131.627 45.5702 127.915 44.1042 127.915 44.1042L124.5 45.5962Z" fill="#F48C7F"/>
<path d="M265.986 153.576C265.809 153.576 265.626 153.503 265.501 153.362L197.592 78.6351L66.4027 19.282C66.069 19.1307 65.923 18.7447 66.0742 18.4108C66.2254 18.0821 66.6112 17.9308 66.9449 18.0821L198.384 77.5447L198.478 77.6439L266.476 152.476C266.721 152.747 266.7 153.159 266.434 153.404C266.309 153.519 266.148 153.576 265.991 153.576H265.986Z" fill="#13375B"/>
<path d="M85.468 26.1997C85.468 26.1997 85.4002 29.5854 85.8694 30.7175C86.1144 31.3122 87.3187 33.8112 87.3187 33.8112L87.741 40.0089L92.3809 39.4663C92.3809 39.4663 90.8899 34.9797 91.4425 33.6494C91.8804 32.6008 92.1724 30.3993 92.1567 29.8463C92.0994 27.963 85.468 26.2049 85.468 26.2049V26.1997Z" fill="#F7A491"/>
<path d="M115.7 50.7505C115.7 50.7505 113.287 48.2047 111.347 51.3036C111.347 51.3036 109.851 50.4636 108.803 51.9609C108.803 51.9609 106.102 51.147 105.446 55.1902C105.446 55.1902 104.054 54.9293 103.871 56.5831C103.689 58.2369 104.528 59.3376 104.528 59.3376C104.528 59.3376 103.746 59.9219 104.101 61.4453C104.403 62.7391 105.472 62.9321 105.472 62.9321C105.472 62.9321 105.758 65.1076 106.702 65.7649C107.646 66.4222 108.928 66.104 108.928 66.104C108.928 66.104 109.267 67.283 110.372 67.1787C111.472 67.0743 112.838 66.0258 114.069 66.4953C115.299 66.97 118.5 66.4692 118.5 66.4692C118.5 66.4692 122.092 64.8676 121.018 61.1949C121.018 61.1949 122.905 59.4889 121.253 57.4439C121.253 57.4439 122.457 54.2407 120.074 52.3522C117.687 50.4636 115.695 50.7505 115.695 50.7505H115.7Z" fill="#07345A"/>
<path d="M88.8984 140.633C88.8984 140.633 84.7381 140.158 84.0499 139.819C83.3618 139.48 79.8688 142.819 80.5622 144.488C80.9532 145.433 82.1835 145.313 82.1835 145.313L83.1793 144.337L88.4552 145.438L88.8931 140.633H88.8984Z" fill="#F7A491"/>
<path d="M112.63 158.167C112.63 158.167 110.44 161.736 109.84 162.216C109.241 162.696 110.784 167.276 112.593 167.354C113.61 167.401 114.027 166.233 114.027 166.233L113.568 164.918L116.795 160.598L112.63 158.167Z" fill="#F7A491"/>
<path d="M109.971 162.075C109.971 162.075 111.227 163.682 111.915 164.318C112.802 165.142 113.938 165.951 113.938 165.951C113.938 165.951 115.226 168.283 115.575 169.102C116.357 170.917 117.233 172.936 117.108 173.948C117.066 174.272 116.336 174.621 115.726 174.434C113.187 173.651 106.697 167.714 105.878 166.118C104.935 164.276 109.971 162.08 109.971 162.08V162.075Z" fill="#07345A"/>
<path d="M128.499 107.714C128.265 107.052 128.035 106.441 127.821 105.867C125.121 106.457 122.071 107.104 118.938 107.777L118.557 119.28C118.557 118.393 120.914 137.628 120.914 137.628C120.914 137.628 114.506 150.363 110.336 158.235C112.046 160.369 113.359 161.308 115.841 162.763C122.311 155.001 130.579 141.317 130.934 138.953C131.137 137.597 131.32 115.634 128.504 107.709L128.499 107.714Z" fill="#B75742"/>
<path d="M104.403 111.037C105.138 119.014 106.353 131.086 106.572 135.15C101.421 135.891 89.2477 139.558 86.9746 139.553C86.1144 141.478 85.64 143.815 86.2343 145.735C86.3542 146.116 110.247 146.878 116.42 142.939C118.031 141.911 118.526 130.898 118.547 119.28L118.927 107.777C113.704 108.893 108.897 109.984 104.398 111.043L104.403 111.037Z" fill="#F47458"/>
<path d="M121.565 70.1732L115.7 71.0601C115.7 71.0601 111.279 71.1279 110.101 71.1384C109.997 71.1384 105.399 93.5973 104.278 102.049C103.157 110.5 104.028 111.997 104.028 111.997C104.028 111.997 111.827 113.75 117.598 113.239C123.599 112.707 130.35 109.467 130.35 109.467C130.35 109.467 125.058 93.6755 124.042 88.6046C123.025 83.5338 121.565 70.1784 121.565 70.1784V70.1732Z" fill="white"/>
<path d="M132.373 51.8827C132.373 51.8827 138.201 69.1194 137.57 70.4028C136.653 72.2652 125.241 78.0351 125.241 78.0351C125.241 78.0351 129.933 96.7274 132.008 103.864C132.216 104.584 133.139 109.227 133.139 109.676C133.139 110.678 128.775 111.956 128.254 111.877C127.79 111.81 123.202 92.3347 120.773 82.7147C119.949 79.4541 119.313 76.1935 117.379 73.4442L115.69 71.0392C115.69 71.0392 119.089 69.8132 120.611 69.3176C122.874 68.5768 130.517 65.7023 130.517 65.7023C130.517 65.7023 127.832 53.5416 127.613 52.3835C127.556 52.0757 131.742 50.6984 132.373 51.8774V51.8827Z" fill="#13375B"/>
<path d="M110.101 71.1384C110.101 71.1384 101.765 58.7846 99.445 54.4024C97.5421 50.8132 93.2567 40.0298 93.0951 39.4455C92.9387 38.8664 88.1164 38.3342 86.6358 39.0072C86.2343 39.1898 90.5771 53.5312 92.3705 58.2108C94.0231 62.5356 99.8986 75.1241 99.8986 75.1241C99.8986 75.1241 103.287 82.8556 102.756 88.8342C101.88 98.7568 100.138 113.062 100.561 113.489C103.188 115.148 111.467 115.086 112.103 114.058C119.157 102.69 110.101 71.1384 110.101 71.1384Z" fill="#13375B"/>
<path d="M115.294 68.029L115.732 71.2688C115.732 71.2688 116.712 75.9379 115.45 76.8404C114.194 77.743 110.101 71.1384 110.101 71.1384L110.534 62.9268L115.294 68.0342V68.029Z" fill="#F7A491"/>
<path d="M110.393 65.5875C111.431 68.389 113.907 70.1106 115.664 70.7784L115.294 68.029L110.534 62.9217L110.393 65.5823V65.5875Z" fill="#F47458"/>
<path d="M103.835 57.3395C103.835 58.5916 104.544 59.6037 105.425 59.6037C106.306 59.6037 107.015 58.5916 107.015 57.3395C107.015 56.0875 106.306 55.0754 105.425 55.0754C104.544 55.0754 103.835 56.0875 103.835 57.3395Z" fill="#07345A"/>
<path d="M108.6 52.4722C108.6 53.1921 109.465 53.7764 110.534 53.7764C111.603 53.7764 112.468 53.1921 112.468 52.4722C112.468 51.7522 111.603 51.1679 110.534 51.1679C109.465 51.1679 108.6 51.7522 108.6 52.4722Z" fill="#07345A"/>
<path d="M113.438 54.2928C115.992 53.4112 118.714 55.1119 119.105 57.7464C119.271 58.889 119.428 60.3288 119.454 61.9043C119.522 65.6918 117.561 69.375 115.846 69.375C114.131 69.375 109.382 66.9231 109.21 61.5496C109.105 58.2316 110.758 55.2162 113.438 54.2928Z" fill="#F7A491"/>
<path d="M110.477 61.9722C110.477 62.8069 109.924 63.4851 109.241 63.4851C108.558 63.4851 108.005 62.8069 108.005 61.9722C108.005 61.1375 108.558 60.4592 109.241 60.4592C109.924 60.4592 110.477 61.1375 110.477 61.9722Z" fill="#F7A491"/>
<path d="M120.882 52.4096C122.655 53.8182 123.281 55.9519 122.269 57.1831C121.263 58.4143 119.006 58.2682 117.233 56.8648C115.46 55.4562 114.835 53.3225 115.846 52.0914C116.852 50.8602 119.11 51.0062 120.882 52.4096Z" fill="#07345A"/>
<path d="M116.243 53.5625C116.243 54.1729 115.507 54.6685 114.595 54.6685C113.683 54.6685 112.948 54.1729 112.948 53.5625C112.948 52.9521 113.688 52.4565 114.595 52.4565C115.502 52.4565 116.243 52.9521 116.243 53.5625Z" fill="#07345A"/>
<path d="M121.143 58.2682C121.143 59.0559 120.512 59.6924 119.735 59.6924C118.959 59.6924 118.328 59.0559 118.328 58.2682C118.328 57.4804 118.959 56.8439 119.735 56.8439C120.512 56.8439 121.143 57.4804 121.143 58.2682Z" fill="#07345A"/>
<path d="M84.2324 139.877C84.2324 139.877 83.3096 141.697 83.0229 142.589C82.6527 143.742 82.4025 145.109 82.4025 145.109C82.4025 145.109 80.8333 147.264 80.2442 147.926C78.9356 149.403 77.3299 151.15 76.355 151.463C76.0422 151.563 75.1559 151.297 75.1663 150.608C75.1976 147.952 77.747 139.287 78.847 137.868C80.1138 136.235 84.2376 139.871 84.2376 139.871L84.2324 139.877Z" fill="#07345A"/>
<path d="M266.601 153.07C250.893 145.047 234.654 136.747 221.229 124.721C214.468 118.665 209.014 111.617 205.011 103.76C200.897 95.684 198.509 87.1282 197.92 78.322L198.827 78.2594C199.98 95.5275 208.149 111.783 221.834 124.038C235.17 135.985 251.357 144.254 267.013 152.251L266.601 153.065V153.07Z" fill="#13375B"/>
<path d="M186.07 81.9635C182.421 81.9635 178.902 81.3427 175.972 80.581C167.334 78.3429 158.799 73.9972 150.604 67.6639C143.66 62.2956 136.981 55.5971 130.199 47.1874L130.908 46.6135C145.557 64.7737 160.374 75.5936 176.201 79.6993C182.358 81.2957 191.164 82.2817 198.139 77.9152L198.624 78.6872C194.73 81.1288 190.314 81.9687 186.076 81.9687L186.07 81.9635Z" fill="#13375B"/>
<path d="M271.622 22.1409L273.04 47.5734L276.382 22.1409H271.622Z" fill="#1D3BD0"/>
<path d="M277.925 53.2547L301.771 29.7889L297.668 26.5962L277.925 53.2547Z" fill="#1D3BD0"/>
<path d="M288.409 56.8439L312.015 49.055L312.14 53.9173L288.409 56.8439Z" fill="#1D3BD0"/>
<path d="M210.041 184.565L210.985 180.6C210.985 180.6 214.541 184.706 216.214 186.38C218.086 188.253 221.271 191.368 222.543 191.128C222.955 191.05 229.112 184.914 229.957 184.038C230.999 182.958 231.521 181.623 232.214 180.652C232.907 179.682 234.894 179.593 235.608 179.823C236.322 180.057 234.159 182.88 234.159 182.88C234.159 182.88 230.655 186.986 228.617 190.903C226.578 194.827 219.796 198.974 219.144 198.28C218.492 197.586 210.041 184.554 210.041 184.554V184.565Z" fill="#F48C7F"/>
<path d="M214.973 171.439C215.531 168.945 216.073 166.431 214.608 163.692C213.42 161.475 211.366 160.197 208.988 159.92C202.253 159.132 203.692 165.33 194.281 166.676C191.357 167.093 187.16 166.744 184.72 168.179C180.31 170.766 179.001 177.042 181.926 183.814C189.084 200.388 207.784 184.946 209.953 181.685C211.569 179.259 214.614 173.056 214.973 171.45V171.439Z" fill="#13375B"/>
<path d="M188.041 276.127C188.041 276.127 187.561 280.927 186.331 281.809C185.101 282.69 183.453 285.951 184.277 287.714C184.532 288.267 185.049 288.585 185.632 288.763C187.363 289.29 189.209 288.403 189.944 286.77C190.356 285.857 190.715 284.641 190.788 283.108C190.971 279.205 192.207 277.223 192.207 277.223L188.041 276.122V276.127Z" fill="#F7A491"/>
<path d="M206.981 278.094C206.981 278.094 207.372 282.941 207.054 284.511C206.887 285.356 205.944 287.088 206.376 287.881C206.809 288.674 207.299 288.872 207.299 288.872L218.482 289.05C219.092 289.06 218.69 288.674 218.195 288.319C217.392 287.735 216.741 287.354 214.176 286.128C214.009 286.05 213.399 285.669 213.18 285.533C212.622 285.2 212.064 284.673 211.579 284.141C210.777 283.259 210.709 278.997 210.709 278.997L206.981 278.089V278.094Z" fill="#F7A491"/>
<path d="M215.724 213.696C215.724 213.696 217.132 221.563 216.209 226.718C215.286 231.872 210.844 279.67 210.844 279.67L205.912 279.941C205.912 279.941 204.88 259.976 205.063 257.2C205.245 254.425 206.71 249.777 206.71 249.777L206.22 233.656L212.445 212.481L215.724 213.696Z" fill="#355389"/>
<path d="M201.231 212.042C201.231 212.042 197.347 217.792 196.424 222.555C195.501 227.318 197.102 241.941 195.324 248.18C194.36 251.556 190.71 256.772 190.158 261.134C189.605 265.495 187.426 276.926 187.426 276.926L192.352 277.885L203.806 249.344L212.794 223.546L215.098 210.258L201.231 212.042Z" fill="#466EB6"/>
<path d="M204.369 179.317C204.369 179.317 201.429 180.157 199.396 182.337C197.363 184.518 202.227 201.598 202.592 204.374C202.962 207.149 199.563 213.628 199.563 213.628C199.563 213.628 212.268 215.945 215.719 213.696C215.719 213.696 216.089 193.731 215.719 191.749C215.349 189.766 212.268 181.701 211.527 180.908C210.787 180.115 204.369 179.322 204.369 179.322V179.317Z" fill="#F7CC7F"/>
<path d="M235.738 180.329C235.738 180.329 235.905 183.188 235.686 183.751C235.462 184.315 235.154 183.955 235.107 183.819C234.909 183.261 234.961 181.45 234.961 181.45L235.738 180.334V180.329Z" fill="#F48C7F"/>
<path d="M234.221 182.473C234.221 182.473 234.247 184.236 234.492 184.476C234.649 184.633 234.888 184.586 235.008 184.247C235.128 183.908 234.998 181.722 234.998 181.722L234.221 182.473Z" fill="#F48C7F"/>
<path d="M235.896 178.363L238.344 180.003C238.972 180.423 239.14 181.27 238.72 181.899C238.299 182.528 237.453 182.695 236.825 182.275L234.377 180.635C233.748 180.215 233.581 179.368 234.001 178.739C234.422 178.111 235.268 177.943 235.896 178.363Z" fill="#184655"/>
<path d="M229.711 190.408C229.446 190.231 229.373 189.871 229.55 189.604L238.705 175.91C238.882 175.644 239.242 175.571 239.507 175.748C239.773 175.926 239.846 176.286 239.669 176.552L230.514 190.246C230.337 190.512 229.977 190.585 229.711 190.408Z" fill="#184655"/>
<path d="M239.992 179.541L235.822 176.75L238.663 172.498C239.335 171.491 240.696 171.225 241.697 171.898L242.229 172.253C243.235 172.926 243.501 174.288 242.828 175.289L239.987 179.541H239.992Z" fill="#F7CC7F"/>
<path d="M240.569 179.17L235.699 175.909L235.131 176.759L240.001 180.02L240.569 179.17Z" fill="#184655"/>
<path d="M232.183 181.237C232.183 181.237 232.475 180.47 232.991 180.376C233.507 180.282 234.294 180.918 234.346 180.944C234.383 180.96 235.498 180.73 236.197 180.584C236.468 180.527 236.713 180.757 236.677 181.033C236.656 181.169 236.572 181.284 236.447 181.341C235.639 181.711 232.647 183.026 232.282 182.389C231.865 181.654 232.183 181.237 232.183 181.237Z" fill="#F7A491"/>
<path d="M198.901 182.562C201.486 177.199 216.329 193.084 217.862 193.7C219.394 194.315 229.253 188.212 229.253 188.212C229.253 188.212 229.341 186.224 230.045 185.186C230.749 184.148 233.517 182.969 233.705 183.391C233.893 183.819 232.834 184.737 232.615 185.024C232.495 185.181 232.522 185.123 232.787 185.165C233.564 185.274 234.482 184.325 234.482 184.325C234.482 184.325 234.815 186.245 233.408 187.857C232.005 189.464 231.416 190.116 231.416 190.116C231.416 190.116 220.437 200.169 217.663 199.986C215.078 199.814 195.361 189.918 198.906 182.567L198.901 182.562Z" fill="#F7A491"/>
<path d="M206.085 172.561C206.085 172.561 206.058 172.712 206.012 172.962C205.782 174.178 204.901 178.216 204.302 179.322C203.582 180.663 206.767 184.94 209.838 184.414C210.75 184.257 209.067 180.485 209.145 180.084C209.301 179.317 209.51 178.273 209.723 177.204C209.843 176.599 209.968 175.988 210.083 175.414C210.412 173.781 210.678 172.441 210.678 172.441L206.079 172.556L206.085 172.561Z" fill="#F7A491"/>
<path d="M206.006 172.962C206.053 172.707 206.079 172.561 206.079 172.561L210.678 172.446C210.678 172.446 210.412 173.781 210.083 175.42C209.968 175.993 209.849 176.599 209.723 177.199C209.014 177.094 208.274 176.755 207.529 176.113C206.715 175.414 206.189 174.574 205.866 173.677C205.923 173.39 205.97 173.145 206.006 172.957V172.962Z" fill="#F47458"/>
<path d="M208.848 161.783C208.848 161.783 206.971 162.038 205.615 163.77C204.255 165.497 202.795 170.844 206.168 173.75C209.541 176.656 212.878 173.364 213.373 169.879C213.868 166.389 213.769 161.657 208.853 161.783H208.848Z" fill="#F7A491"/>
<path d="M214.452 168.685C214.051 169.457 213.373 169.879 212.94 169.639C212.507 169.394 212.487 168.575 212.888 167.803C213.289 167.031 213.967 166.608 214.4 166.848C214.833 167.093 214.853 167.918 214.452 168.685Z" fill="#F7A491"/>
<path d="M209.421 161.704C209.421 161.704 206.528 166.791 204.453 167.026C202.383 167.26 202.112 169.963 202.112 169.963C202.112 169.963 202.852 163.739 204.901 162.539C206.95 161.339 209.421 161.71 209.421 161.71V161.704Z" fill="#13375B"/>
<path d="M205.13 168.231C205.297 169.133 204.958 169.963 204.375 170.083C203.791 170.203 203.175 169.566 203.009 168.664C202.842 167.761 203.181 166.932 203.765 166.817C204.348 166.697 204.964 167.333 205.13 168.236V168.231Z" fill="#F7A491"/>
<path d="M190.278 285.914C187.593 286.394 185.805 284.85 184.871 283.692C184.188 285.001 183.771 286.639 184.272 287.719C184.715 288.669 185.919 288.93 186.936 288.966C188.01 289.008 189.016 288.45 189.553 287.526C189.803 287.093 190.059 286.561 190.272 285.914H190.278Z" fill="#3C8F7C"/>
<path d="M213.18 285.539C210.224 286.285 208.034 285.779 206.814 285.294C206.502 286.175 206.079 287.276 206.303 287.912C206.575 288.69 206.96 288.93 207.304 288.94C210.005 289.008 217.199 289.039 219.259 289.065C219.545 289.065 219.707 288.737 219.519 288.523C219.008 287.923 213.404 285.669 213.18 285.539Z" fill="#3C8F7C"/>
<path d="M280.083 214.567C282.226 213.962 282.283 214.338 282.554 214.254C282.877 214.155 285.469 210.712 285.469 210.712C285.469 210.712 293.19 200.623 293.581 200.064L296.015 187.012L303.33 186.954C303.33 186.954 300.275 201.05 299.977 201.749C299.68 202.449 287.444 214.771 286.407 215.893C286.407 215.893 285.74 217.713 285.276 218.84C284.812 219.967 283.826 220.791 283.644 221.083C283.618 221.125 282.94 222.064 281.762 222.977C280.745 223.765 281.282 222.539 281.282 222.539C281.282 222.539 282.851 220.734 282.669 220.624C282.528 220.541 281.736 221.579 280.625 222.466C280.339 222.69 280.057 222.915 279.796 223.118C279.108 223.65 278.524 223.368 279.139 222.69C279.358 222.45 279.729 222.064 280.036 221.829C280.37 221.574 280.584 221.23 280.823 220.969C281.303 220.457 281.663 220.087 281.626 220.077C281.579 220.066 281.595 219.889 281.282 220.123C280.907 220.4 280.266 221.172 279.671 221.537C279.338 221.746 278.67 222.221 278.67 222.221C278.67 222.221 277.503 222.748 277.44 222.69C277.106 222.377 277.774 221.793 278.274 221.574C278.498 221.271 279.218 220.791 279.218 220.791C279.218 220.791 280.412 219.487 280.198 219.305C280.109 219.226 279.27 219.936 278.316 220.494C277.435 221.01 276.434 221.391 276.283 221.23C276.027 220.958 276.929 220.275 276.929 220.275C276.929 220.275 277.596 219.831 277.8 219.67C278.045 219.477 278.717 218.845 278.717 218.845C278.717 218.845 280.949 216.524 280.74 216.367C280.526 216.211 279.838 215.997 279.64 216.091C279.442 216.185 279.197 216.545 279.004 216.639C278.806 216.733 278.451 216.686 278.29 216.456C278.128 216.227 278.853 215.413 278.853 215.413C278.853 215.413 279.452 214.755 280.067 214.583L280.083 214.567Z" fill="#F48C7F"/>
<path d="M292.027 280.489C292.027 280.489 291.959 284.991 291.959 285.001C292.053 285.575 292.757 286.984 292.757 287.505C292.757 289.457 283.889 285.846 285.875 284.98C286.058 284.902 286.996 284.307 287.059 283.645C287.147 282.622 287.382 280.551 287.382 280.551L292.027 280.489Z" fill="#F7A491"/>
<path d="M285.901 284.965C285.901 284.965 287.981 285.565 289.05 285.711C290.119 285.862 291.521 284.605 292.277 284.944C293.106 285.319 293.023 288.997 293.023 288.997C293.023 288.997 282.377 289.149 278.769 288.945C277.466 288.872 281.647 286.358 285.901 284.965Z" fill="#B75742"/>
<path d="M311.76 280.489C311.76 280.489 312.02 284.991 312.02 285.001C312.114 285.575 312.495 286.984 312.495 287.505C312.495 289.457 303.627 285.846 305.613 284.98C305.795 284.902 307.015 283.869 307.073 283.202C307.161 282.179 307.114 280.546 307.114 280.546L311.76 280.484V280.489Z" fill="#F7A491"/>
<path d="M305.639 284.965C305.639 284.965 307.719 285.565 308.788 285.711C309.857 285.862 311.259 284.605 312.015 284.944C312.844 285.319 312.823 288.945 312.823 288.945C312.823 288.945 300.931 289.071 298.033 288.945C296.729 288.888 301.385 286.358 305.639 284.965Z" fill="#B75742"/>
<path d="M297.71 215.47L293.961 217.056L286.073 253.961L286.391 281.626L292.715 281.772C292.715 281.772 295.655 257.571 295.655 255.698C295.655 253.825 309.278 222.878 309.278 222.878L297.71 215.475V215.47Z" fill="#355389"/>
<path d="M300.603 217.499C300.603 217.499 303.366 245.932 303.366 250.726C303.366 255.52 305.608 282.341 305.608 282.341L311.947 282.304C311.947 282.304 312.406 274.129 313.084 262.099C313.188 260.216 312.948 256.412 313.084 254.461C314.069 240.433 316.019 227.229 315.091 221.996C314.94 221.156 314.658 218.95 314.111 218.397C309.961 214.192 300.608 217.499 300.608 217.499H300.603Z" fill="#466EB6"/>
<path d="M292.872 195.061L300.54 194.561C300.54 194.561 300.921 187.846 300.921 184.643C300.921 180.757 302.13 175.028 301.656 175.133C300.332 175.435 298.038 176.63 296.974 178.086C293.294 183.109 292.872 195.067 292.872 195.067V195.061Z" fill="#B75742"/>
<path d="M311.04 174.981C311.04 174.981 315.414 175.576 316.566 176.406C317.864 177.339 319.303 179.426 319.303 179.426C319.303 179.426 313.934 204.29 313.923 208.474C313.918 211.714 315.086 219.659 315.086 219.659C315.086 219.659 298.862 220.661 292.715 218.287C292.715 218.287 294.654 208.834 294.654 206.351C294.654 203.868 296.974 181.294 297.501 179.718C297.981 178.289 298.856 175.717 301.823 175.086C304.789 174.454 311.04 174.981 311.04 174.981Z" fill="#F47458"/>
<path d="M309.846 168.288L310.931 175.232C310.931 175.232 306.979 183.501 304.617 182.781C302.636 182.181 303.856 174.861 303.856 174.861C303.856 174.861 304.935 170.933 304.612 168.966C304.289 166.999 309.846 168.283 309.846 168.283V168.288Z" fill="#F7A491"/>
<path d="M304.607 168.966C304.284 166.999 309.841 168.283 309.841 168.283L309.93 168.857C309.768 169.243 309.57 169.571 309.325 169.827C308.084 171.126 306.14 171.909 304.461 171.966C304.628 170.907 304.732 169.77 304.602 168.966H304.607Z" fill="#F47458"/>
<path d="M310.759 158.465C310.915 158.407 312.02 166.374 309.924 168.565C307.834 170.756 303.757 171.476 302.292 169.749C300.676 167.839 300.754 159.278 304.007 157.025C307.26 154.771 310.753 158.465 310.753 158.465H310.759Z" fill="#F7A491"/>
<path d="M305.248 152.762C307.761 153.263 309.393 154.755 309.987 155.392C311.129 155.522 312.682 156.138 314.283 158.72C316.253 161.897 314.799 165.414 312.505 167.14C310.211 168.867 310.242 170.85 310.242 170.85L309.883 169.827C309.617 169.045 309.507 168.215 309.596 167.396C309.648 166.906 309.758 166.373 309.966 165.935C310.519 164.782 308.783 164.015 308.293 163.055C307.917 162.315 307.902 160.63 307.307 159.409L306.604 158.475C306.604 158.475 304.977 157.244 303.382 157.588C301.792 157.938 302.016 152.11 305.243 152.752L305.248 152.762Z" fill="#184655"/>
<path d="M308.402 164.48C308.386 165.45 308.84 166.248 309.414 166.259C309.992 166.269 310.472 165.487 310.487 164.516C310.503 163.546 310.05 162.748 309.476 162.737C308.897 162.727 308.418 163.509 308.402 164.48Z" fill="#F7A491"/>
<path d="M317.666 178.185C316.196 178.143 314.893 187.653 315.826 188.592C316.759 189.531 316.936 201.243 316.936 201.243L303.058 200.904C302.787 200.732 299.878 198.818 299.466 198.4C299.029 197.962 296.912 198.181 296.349 198.786C295.786 199.391 297.595 198.896 298.095 199.225C298.596 199.553 297.72 200.377 297.72 200.377C297.72 200.377 294.201 200.878 293.518 200.163C292.83 199.449 291 198.244 290.75 198.958C290.619 199.329 291.568 200.44 292.1 200.91C291.438 200.424 290.64 199.903 290.369 199.997C289.869 200.164 290.077 200.784 290.348 200.967C290.619 201.15 293.408 203.242 293.846 203.388C294.274 203.529 300.77 203.69 301.891 203.93C301.891 203.93 320.195 208.015 321.237 207.759C322.15 207.535 323.062 201.796 323.062 197.399C323.062 193.001 322.275 178.331 317.677 178.2L317.666 178.185Z" fill="#F7A491"/>
<path d="M315.758 176.014C315.758 176.014 318.318 176.593 320.966 179.504C323.37 182.155 324.887 196.981 324.887 196.981L316.582 198.296L315.92 191.123L313.699 187.841L315.758 176.014Z" fill="#F47458"/>
<path d="M443.569 286.989C443.569 286.989 445.097 288.502 445.128 289.055C445.165 289.608 445.264 295.55 444.638 296.103C444.012 296.656 442.182 297.052 442.772 297.673C443.215 298.143 446.64 298.044 448.908 297.918C449.57 297.882 450.399 292.524 450.665 291.736C451.045 290.594 452.416 288.105 452.072 287.307C451.905 286.921 450.649 286.034 449.512 285.288C448.319 284.506 447.172 282.758 447.172 282.758L443.569 286.989Z" fill="#F7A491"/>
<path d="M423.143 290.698C423.143 290.698 424.509 294.611 424.509 294.621C424.608 295.242 425.01 296.776 425.01 297.339C425.01 299.457 415.594 295.539 417.7 294.6C417.893 294.517 418.493 293.839 418.555 293.114C418.655 292.002 417.763 290.61 417.763 290.61L423.143 290.693V290.698Z" fill="#F7A491"/>
<path d="M426.209 216.832L429.133 226.671L433.58 256.371L448.626 284.151C448.626 284.151 446.364 287.625 443.934 288.173L422.58 260.096L411.006 224.944L411.413 217.134L426.209 216.832Z" fill="#1D3BD0"/>
<path d="M449.439 285.252C449.439 285.252 446.223 295.107 444.846 295.592C444.482 295.722 442.422 296.244 442.094 297.032C442.083 297.052 442.078 297.073 442.073 297.099C441.969 297.6 442.386 298.059 442.897 298.059H449.429C449.429 298.059 450.357 293.63 450.722 291.684C450.722 291.684 452.661 286.932 452.448 286.499C452.234 286.066 449.439 285.252 449.439 285.252Z" fill="#355389"/>
<path d="M425.547 298.038L424.494 294.585C424.494 294.585 422.2 295.555 421.068 295.393C419.937 295.232 417.727 294.585 417.727 294.585C413.207 296.093 409.505 296.828 410.178 298.038H425.547Z" fill="#355389"/>
<path d="M429.227 161.318C429.399 161.256 430.624 170.098 428.304 172.529C425.979 174.961 421.454 175.759 419.833 173.844C418.039 171.726 418.128 162.221 421.741 159.722C425.354 157.218 429.232 161.318 429.232 161.318H429.227Z" fill="#F7A491"/>
<path d="M423.112 154.985C425.901 155.538 427.71 157.197 428.377 157.906C429.644 158.052 431.37 158.736 433.148 161.6C435.337 165.127 433.721 169.029 431.172 170.944C428.628 172.858 428.659 175.065 428.659 175.065L428.258 173.928C427.96 173.062 427.84 172.143 427.94 171.23C427.997 170.683 428.117 170.093 428.351 169.608C428.961 168.33 427.038 167.479 426.495 166.415C426.078 165.596 426.058 163.718 425.406 162.367L424.624 161.334C424.624 161.334 422.815 159.967 421.047 160.353C419.28 160.739 419.536 154.275 423.117 154.985H423.112Z" fill="#13375B"/>
<path d="M426.615 167.996C426.594 169.076 427.1 169.958 427.741 169.968C428.383 169.978 428.914 169.112 428.935 168.032C428.956 166.953 428.45 166.071 427.809 166.06C427.168 166.05 426.636 166.916 426.615 167.996Z" fill="#F7A491"/>
<path d="M429.269 175.362C429.269 175.362 434.003 209.392 431.839 211.928L428.711 213.712C428.711 213.712 427.872 180.772 427.241 176.51L429.269 175.362Z" fill="#13375B"/>
<path d="M402.868 189.432C404.031 190.413 402.269 194.347 401.112 196.486C403.504 196.486 406.956 195.181 408.999 194.075C408.634 191.634 408.29 188.759 406.606 187.001C405.678 187.794 403.885 188.973 402.868 189.432Z" fill="#F48C7F"/>
<path d="M417.21 178.425C417.21 178.425 416.241 177.846 414.588 177.945C413.108 178.033 409.328 182.468 405.188 186.005C406.872 187.763 408.629 193.627 408.994 196.068C412.091 194.388 414.943 190.883 415.662 189.803C417.309 187.34 417.205 178.425 417.205 178.425H417.21Z" fill="#F47458"/>
<path d="M417.21 178.425C417.21 178.425 419.437 177.329 428.596 178.451C429.06 178.508 429.926 189.119 429.926 189.119C429.926 189.119 428.873 217.739 429.816 222.184C429.816 222.184 413.035 226.316 405.188 222.617C405.188 222.617 408.999 200.81 409.933 196.183C411.085 190.46 412.08 187.434 413.337 184.007C414.651 180.428 417.205 178.435 417.205 178.435L417.21 178.425Z" fill="#F7CC7F"/>
<path d="M427.241 179.499C427.241 179.499 429.029 176.99 432.037 178.706C436.39 181.19 432.069 198.405 430.494 203.69C429.801 206.017 427.131 203.868 424.947 201.379C422.174 198.218 419.671 191.796 419.671 191.796C419.348 189.751 421.809 186.13 421.809 186.13C421.809 186.13 425.812 194.394 426.657 193.543C427.507 192.693 425.395 183.172 427.241 179.489V179.499Z" fill="#F7A491"/>
<path d="M432.037 178.706C429.029 176.99 427.241 179.499 427.241 179.499C425.521 182.942 426.11 190.768 425.494 192.463C427.82 192.443 431.349 193.862 433.622 194.54C435.066 188.446 434.894 180.339 432.037 178.706Z" fill="#FAE0B2"/>
<path d="M413.942 175.79C413.816 176.333 412.367 178.216 412.07 179.489C411.773 180.757 411.033 182.212 409.844 184.513C408.65 186.813 404.49 195.187 402.868 196.053C401.247 196.919 394.574 197.075 398.823 190.857C399.688 189.589 407.899 181.252 408.16 180.115C408.426 178.983 408.223 178.211 408.082 176.933C407.941 175.66 408.655 173.928 409.151 173.834C409.646 173.74 408.598 175.347 408.733 175.54C408.869 175.733 409.797 173.077 410.574 172.806C411.345 172.535 409.682 174.914 409.573 175.383C409.463 175.853 409.317 176.166 409.526 176.218C409.734 176.265 410.079 175.007 410.506 174.314C410.934 173.615 411.643 172.603 412.195 172.973C412.748 173.338 411.116 174.329 410.996 174.846C410.876 175.357 410.47 176.333 410.704 176.484C410.944 176.635 412.039 173.176 412.711 173.192C413.384 173.208 412.779 174.084 412.378 174.867C411.976 175.649 411.533 176.933 411.861 177.006C412.19 177.084 412.544 176.813 413.144 176.192C413.744 175.566 414.082 175.258 413.952 175.801L413.942 175.79Z" fill="#F48C7F"/>
<path d="M431.219 179.259C432.392 179.536 433.575 178.795 433.851 177.621L434.899 173.114C435.176 171.94 434.435 170.756 433.262 170.479C432.089 170.208 430.906 170.943 430.63 172.117L429.582 176.625C429.311 177.799 430.046 178.983 431.219 179.259Z" fill="#13375B"/>
<path d="M422.6 172.835L423.624 168.44C423.906 167.231 425.114 166.479 426.322 166.761L433.502 168.435C434.71 168.717 435.462 169.926 435.18 171.136L434.156 175.53C433.875 176.74 432.666 177.492 431.458 177.21L424.279 175.535C423.07 175.254 422.319 174.044 422.6 172.835Z" fill="#13375B"/>
<path d="M423.347 165.335C421.798 164.855 420.219 164.501 418.628 164.349C417.612 164.25 416.59 164.245 415.584 164.344C414.051 164.49 412.524 164.725 411.038 165.059C410.615 165.153 410.157 165.241 409.771 165.419C408.786 165.867 407.571 167.052 407.003 168.831C406.44 170.61 405.465 176.004 406.382 176.922C407.3 177.84 410.975 179.473 412.195 179.828C413.41 180.188 418.467 180.251 418.467 180.251C418.467 180.251 419.238 178.378 421.292 178.983C423.347 179.588 423.435 180.704 423.435 180.704C423.435 180.704 426.381 181.002 427.898 180.882C429.415 180.757 430.697 180.151 430.995 179.228C431.829 176.609 432.428 173.995 432.965 171.298C433.064 170.797 433.158 170.25 432.892 169.78C432.548 169.17 431.756 168.919 431.12 168.627C430.259 168.231 429.41 167.813 428.549 167.417C426.86 166.634 425.14 165.894 423.352 165.335H423.347Z" fill="#355389"/>
<path d="M427.966 174.053L427.288 173.855C427.111 173.802 427.006 173.63 427.053 173.474L428.002 170.484C428.054 170.328 428.237 170.244 428.419 170.297L429.092 170.495C429.269 170.547 429.373 170.719 429.326 170.876L428.377 173.865C428.325 174.021 428.143 174.105 427.96 174.053H427.966Z" fill="#184655"/>
<path d="M429.441 173.573L430.306 173.828L429.373 176.776L428.461 176.661L429.441 173.573Z" fill="#184655"/>
<path d="M406.549 169.013L409.088 169.331C409.088 169.331 411.815 170.177 411.742 172.503C411.658 175.138 410.527 176.693 409.276 176.792C408.024 176.891 406.215 176.666 406.215 176.666L406.549 169.018V169.013Z" fill="#184655"/>
<path d="M414.463 165.758C416.59 164.788 423.753 165.883 425.849 166.233C425.312 166.019 424.775 165.81 424.228 165.622C420.959 165.142 416.037 164.636 414.27 165.445C411.804 166.572 410.282 168.319 409.609 170.443C409.166 171.83 408.337 175.842 407.915 177.945C408.035 178.007 408.155 178.075 408.28 178.138C408.692 176.077 409.542 171.956 409.99 170.552C410.668 168.413 412.174 166.801 414.463 165.758Z" fill="#184655"/>
<path d="M417.075 167.359C419.447 166.28 428.847 167.85 429.811 168.017C429.425 167.834 429.045 167.652 428.659 167.474C425.317 166.947 418.868 166.139 416.882 167.046C414.416 168.173 412.894 169.921 412.221 172.044C411.799 173.369 411.027 177.063 410.589 179.228C410.715 179.28 410.84 179.332 410.96 179.385C411.392 177.24 412.174 173.484 412.597 172.159C413.274 170.02 414.781 168.408 417.07 167.365L417.075 167.359Z" fill="#184655"/>
<path d="M414.234 177.11C415.266 174.016 416.256 169.065 419.421 168.768C419.921 168.721 420.839 168.768 421.965 168.878L420.391 174.074C420.104 175.028 420.974 176.004 422.101 175.983L423.899 175.947C424.608 175.931 425.197 175.519 425.369 174.908L426.881 169.483C428.106 169.655 429.316 169.837 430.369 170.004L427.945 177.632L428.325 177.741L430.765 170.062C431.724 170.213 432.527 170.344 433.064 170.432C433.064 170.312 433.043 170.187 433.012 170.072C430.254 169.618 421.48 168.22 419.364 168.419C416.679 168.674 415.495 171.846 414.755 174.178L413.764 177.293L413.926 177.36C413.926 177.36 414.88 177.757 415.156 178.425C415.281 178.732 415.245 179.056 415.052 179.395C414.875 179.697 414.682 179.932 414.494 180.11C414.661 180.12 414.828 180.131 414.995 180.141C415.135 179.979 415.271 179.791 415.401 179.572C415.98 178.581 415.365 177.679 414.234 177.12V177.11ZM426.485 169.425L424.989 174.804C424.858 175.263 424.41 175.581 423.873 175.592L422.074 175.628C421.22 175.644 420.557 174.903 420.776 174.178L422.372 168.914C423.602 169.039 425.051 169.227 426.49 169.425H426.485Z" fill="#184655"/>
<path d="M431.505 177.788C428.977 177.699 419.223 177.423 418.123 178.592C417.638 179.108 417.372 179.703 417.231 180.24C417.998 180.261 418.54 180.271 418.54 180.271C418.54 180.271 419.311 178.398 421.365 179.004C423.42 179.609 423.508 180.725 423.508 180.725C423.508 180.725 426.454 181.023 427.971 180.903C429.488 180.777 430.77 180.172 431.068 179.249C431.224 178.764 431.37 178.278 431.505 177.793V177.788Z" fill="#13375B"/>
<path d="M432.96 171.298C432.475 173.583 431.672 177.042 430.911 179.249C430.494 180.339 428.847 180.798 427.538 180.83C426.86 180.84 425.985 180.751 423.696 180.527C423.534 179.771 422.591 178.774 420.656 178.638C419.572 178.56 418.691 179.426 418.399 180.052C417.226 180.037 413.415 179.948 412.315 179.593C411.361 179.291 409.14 178.597 407.691 177.799C407.269 177.564 406.721 177.24 406.382 176.917C407.175 177.705 409.484 178.779 410.548 179.238C411.789 179.776 412.211 179.896 412.649 179.969C414.275 180.219 416.934 180.282 418.524 180.318C418.524 180.308 418.592 180.151 418.717 179.969C419.04 179.473 419.478 179.171 419.833 179.051C420.907 178.623 422.945 179.494 423.315 180.543C423.367 180.689 423.357 180.725 423.362 180.772C423.685 180.793 425.442 180.991 427.288 180.981C427.648 180.965 429.003 181.096 430.087 180.543C430.63 180.266 431 179.791 431.172 179.259C431.714 177.486 432.293 174.893 432.965 171.303L432.96 171.298Z" fill="#184655"/>
<path d="M417.638 169.399C417.085 169.238 416.762 168.711 416.918 168.225L418.295 163.895C418.561 163.061 419.463 162.555 420.443 162.69C421.798 162.878 424.295 163.233 425.766 163.488C426.839 163.671 427.767 164.354 428.185 165.267L428.836 166.686C429.055 167.166 429.217 168.09 428.278 167.871C427.736 167.745 427.142 167.792 426.923 167.313L426.271 165.893C426.13 165.591 425.828 165.367 425.474 165.309C424.05 165.064 421.626 164.72 420.271 164.532L418.91 168.82C418.759 169.305 418.185 169.566 417.633 169.405L417.638 169.399Z" fill="#184655"/>
<path d="M405.459 162.263C405.459 162.263 407.237 162.862 407.665 163.556C408.092 164.25 407.722 164.047 408.249 164.902C408.775 165.763 418.55 168.961 419.864 168.794C421.178 168.632 421.225 167.213 422.028 167.146C422.825 167.078 426.063 168.074 425.672 170.411C425.286 172.749 424.202 172.801 421.939 173.119C419.848 173.416 405.913 167.792 405.053 166.874C404.193 165.956 405.105 164.751 405.188 164.501C405.267 164.25 404.193 163.311 404.193 163.311L405.459 162.252V162.263Z" fill="#13375B"/>
<path d="M404.094 164.485C402.952 164.772 401.664 164.407 400.522 164.135C398.5 163.655 396.539 162.941 394.657 162.09C393.531 161.579 393.151 159.998 393.672 159.091C393.907 158.689 394.272 158.36 394.736 158.172C395.288 157.948 395.836 157.959 396.435 158.042C397.942 158.245 399.428 158.579 400.877 159.028C402.019 159.383 403.155 159.764 404.224 160.275C405.121 160.697 405.955 161.428 405.981 162.372C406.012 163.384 405.22 164.156 404.198 164.459C404.161 164.469 404.125 164.48 404.083 164.49L404.094 164.485Z" fill="#184655"/>
<path d="M396.983 158.59C398.479 159.471 397.42 161.991 396.211 162.325C396.826 161.981 397.201 161.203 397.4 160.577C397.619 159.868 397.572 159.148 396.983 158.59Z" fill="#13375B"/>
<path d="M395.095 165.565L406.507 168.225C406.507 168.225 410.23 169.337 409.432 172.801C408.634 176.265 406.153 176.964 406.153 176.964L398.421 176.661L395.095 165.56V165.565Z" fill="#13375B"/>
<path d="M391.952 162.576L395.46 162.81L405.95 167.865L403.942 176.406L402.931 177.016L399.636 177.413L391.952 162.576Z" fill="#466EB6"/>
<path d="M396.039 162.899L405.527 166.561C406.137 166.796 406.481 167.443 406.325 168.069L404.38 176.025C404.193 176.792 403.358 177.214 402.613 176.927L392.337 172.947L394.261 163.843C394.428 163.055 395.273 162.607 396.034 162.899H396.039Z" fill="#466EB6"/>
<path d="M392.572 162.654L402.045 166.389C402.655 166.629 402.988 167.302 402.827 167.965L400.778 176.353C400.58 177.162 399.74 177.621 398.995 177.324L389.783 173.677C389.183 173.437 388.844 172.785 388.985 172.128L390.784 163.666C390.961 162.836 391.816 162.351 392.577 162.654H392.572Z" fill="#355389"/>
<path d="M392.942 163.499L401.32 166.801C401.862 167.015 402.154 167.61 402.013 168.194L400.199 175.613C400.022 176.327 399.282 176.734 398.62 176.473L390.773 173.369C390.064 173.088 389.668 172.321 389.835 171.549L391.357 164.396C391.514 163.661 392.27 163.233 392.942 163.499Z" fill="#184655"/>
<path d="M401.32 166.806L393.964 163.906C393.954 163.948 393.938 163.989 393.933 164.031L392.405 171.215C392.244 171.971 392.635 172.717 393.323 172.994L400.173 175.707C400.184 175.68 400.189 175.649 400.199 175.618L402.013 168.199C402.154 167.615 401.862 167.02 401.32 166.806Z" fill="#13375B"/>
<path d="M401.32 166.806L397.556 165.325C397.201 165.847 396.936 166.441 396.774 167.088C396.086 169.916 397.733 172.722 400.465 173.364C400.554 173.385 400.648 173.406 400.736 173.422L402.013 168.205C402.154 167.62 401.862 167.026 401.32 166.812L401.32 166.806Z" fill="#184655"/>
<path d="M417.085 173.505C416.924 174.194 417.304 177.11 417.143 178.748C416.392 186.344 422.174 197.419 423.529 199.308C424.884 201.196 427.001 195.917 426.761 193.987C426.521 192.056 420.896 183.083 421.23 181.649C421.564 180.214 422.226 179.452 423.096 178.08C423.967 176.713 424.129 174.35 423.618 173.969C423.107 173.588 423.399 175.993 423.138 176.134C422.877 176.275 423.305 172.749 422.58 172.003C421.856 171.257 422.413 174.898 422.273 175.487C422.137 176.082 422.121 176.52 421.861 176.458C421.6 176.395 421.908 174.773 421.814 173.745C421.72 172.717 421.48 171.168 420.651 171.277C419.822 171.387 421.12 173.422 420.969 174.074C420.818 174.726 420.74 176.056 420.385 176.093C420.031 176.129 420.719 171.596 419.953 171.236C419.186 170.876 419.379 172.211 419.395 173.322C419.41 174.434 419.197 176.14 418.785 176.04C418.368 175.941 418.118 175.44 417.784 174.397C417.45 173.354 417.242 172.811 417.085 173.5V173.505Z" fill="#F7A491"/>
<path d="M412.524 181.247C412.524 181.247 425.13 211.933 431.834 211.933L429.024 215.22C429.024 215.22 423.055 214.599 416.46 199.047C409.865 183.495 410.334 181.576 410.334 181.576L412.529 181.252L412.524 181.247Z" fill="#184655"/>
<path d="M94.4975 244.278H82.8613V267.206H94.4975V244.278Z" fill="#F47458"/>
<path d="M27.8889 298.649C40.5966 298.649 50.8982 288.34 50.8982 275.624C50.8982 262.908 40.5966 252.599 27.8889 252.599C15.1813 252.599 4.87972 262.908 4.87972 275.624C4.87972 288.34 15.1813 298.649 27.8889 298.649Z" fill="#B75742"/>
<path d="M14.3211 243.308C14.3784 241.518 13.3931 223.16 17.8297 209.257C19.6231 203.648 22.5374 198.739 26.9062 194.368C30.6911 190.58 35.7272 186.892 40.8467 185.259C50.4915 182.186 61.4865 183.172 70.9956 186.793C75.4739 188.498 80.2598 192.359 83.2992 196.11C87.3917 201.082 90.1027 209.09 91.2861 215.475C93.3506 226.572 92.7667 238.706 92.4799 250.653H87.0841C86.1144 235.8 87.7045 217.145 80.8489 203.466L80.5935 202.965C80.2911 202.61 76.6365 193.705 64.8387 189.437C49.9597 184.403 34.6637 191.707 29.5441 205.234C24.873 217.228 25.3213 231.288 25.3109 243.297H14.3211V243.308Z" fill="#F47458"/>
<path d="M28.7152 234.214H12.2931V257.915H28.7152V234.214Z" fill="#F47458"/>
<path d="M28.7152 247.825C27.5318 247.591 26.3118 247.471 25.0606 247.471H16.5733C15.1031 247.471 13.6694 247.643 12.2931 247.961V257.92H28.7152V247.825Z" fill="#B75742"/>
<path d="M42.3743 277.452V273.806C42.3743 262.096 32.8884 252.604 21.1871 252.604C9.48575 252.604 0 262.096 0 273.806V277.452C0 289.162 9.48575 298.654 21.1871 298.654C32.8884 298.654 42.3743 289.162 42.3743 277.452Z" fill="#F47458"/>
<path d="M6.62616 273.67C6.62616 267.212 11.8604 261.974 18.3145 261.974C24.7687 261.974 30.0029 267.212 30.0029 273.67C30.0029 280.129 24.7687 285.366 18.3145 285.366C11.8604 285.366 6.62616 280.129 6.62616 273.67Z" fill="#B75742"/>
<path d="M2.29385 273.67C2.29385 267.212 7.52807 261.974 13.9822 261.974C20.4364 261.974 25.6706 267.212 25.6706 273.67C25.6706 280.129 20.4364 285.366 13.9822 285.366C7.52807 285.366 2.29385 280.129 2.29385 273.67Z" fill="#F47458"/>
<path d="M95.5298 250.022C95.4047 250.022 95.2795 250.022 95.1544 250.022H81.5371V263.33H95.5298V250.022Z" fill="#B75742"/>
<path d="M87.4959 298.19C99.9516 298.19 110.049 288.087 110.049 275.624C110.049 263.161 99.9516 253.058 87.4959 253.058H86.787C74.3313 253.058 64.2339 263.161 64.2339 275.624C64.2339 288.087 74.3313 298.19 86.787 298.19H87.4959Z" fill="#F47458"/>
<path d="M104.309 276.2V275.762C104.309 266.277 96.6252 258.588 87.1467 258.588C77.6682 258.588 69.9843 266.277 69.9843 275.762V276.2C69.9843 285.685 77.6682 293.375 87.1467 293.375C96.6252 293.375 104.309 285.685 104.309 276.2Z" fill="#B75742"/>
<path d="M83.0594 271.234C82.5537 271.234 82.1418 271.646 82.1418 272.152C82.1418 272.658 82.5537 273.07 83.0594 273.07C83.5651 273.07 83.9769 272.658 83.9769 272.152C83.9769 271.646 83.5651 271.234 83.0594 271.234Z" fill="#F47458"/>
<path d="M87.1467 271.234C86.641 271.234 86.2291 271.646 86.2291 272.152C86.2291 272.658 86.641 273.07 87.1467 273.07C87.6524 273.07 88.0642 272.658 88.0642 272.152C88.0642 271.646 87.6524 271.234 87.1467 271.234Z" fill="#F47458"/>
<path d="M91.2287 271.234C90.723 271.234 90.3112 271.646 90.3112 272.152C90.3112 272.658 90.723 273.07 91.2287 273.07C91.7344 273.07 92.1463 272.658 92.1463 272.152C92.1463 271.646 91.7344 271.234 91.2287 271.234Z" fill="#F47458"/>
<path d="M83.0594 274.562C82.5537 274.562 82.1418 274.974 82.1418 275.48C82.1418 275.986 82.5537 276.399 83.0594 276.399C83.5651 276.399 83.9769 275.986 83.9769 275.48C83.9769 274.974 83.5651 274.562 83.0594 274.562Z" fill="#F47458"/>
<path d="M87.1467 274.562C86.641 274.562 86.2291 274.974 86.2291 275.48C86.2291 275.986 86.641 276.399 87.1467 276.399C87.6524 276.399 88.0642 275.986 88.0642 275.48C88.0642 274.974 87.6524 274.562 87.1467 274.562Z" fill="#F47458"/>
<path d="M91.2287 274.562C90.723 274.562 90.3112 274.974 90.3112 275.48C90.3112 275.986 90.723 276.399 91.2287 276.399C91.7344 276.399 92.1463 275.986 92.1463 275.48C92.1463 274.974 91.7344 274.562 91.2287 274.562Z" fill="#F47458"/>
<path d="M83.0594 277.891C82.5537 277.891 82.1418 278.303 82.1418 278.809C82.1418 279.315 82.5537 279.727 83.0594 279.727C83.5651 279.727 83.9769 279.315 83.9769 278.809C83.9769 278.303 83.5651 277.891 83.0594 277.891Z" fill="#F47458"/>
<path d="M87.1467 277.891C86.641 277.891 86.2291 278.303 86.2291 278.809C86.2291 279.315 86.641 279.727 87.1467 279.727C87.6524 279.727 88.0642 279.315 88.0642 278.809C88.0642 278.303 87.6524 277.891 87.1467 277.891Z" fill="#F47458"/>
<path d="M91.2287 279.727C91.7355 279.727 92.1463 279.316 92.1463 278.809C92.1463 278.302 91.7355 277.891 91.2287 277.891C90.722 277.891 90.3112 278.302 90.3112 278.809C90.3112 279.316 90.722 279.727 91.2287 279.727Z" fill="#F47458"/>
<path d="M269.651 171.189C267.482 171.189 265.725 169.431 265.725 167.26V151.865C265.725 149.945 267.279 148.391 269.198 148.391H270.105C272.023 148.391 273.577 149.945 273.577 151.865V167.26C273.577 169.431 271.82 171.189 269.651 171.189Z" fill="#9BC1F9"/>
<path d="M265.725 165.909V167.839C265.725 169.691 267.482 171.189 269.651 171.189C271.82 171.189 273.577 169.686 273.577 167.839V165.909H265.725Z" fill="#13375B"/>
<path d="M273.577 163.301H265.725V165.163H273.577V163.301Z" fill="#13375B"/>
<path d="M124.777 48.6847C124.777 48.6847 124.464 47.9335 124.532 47.7248C124.594 47.5213 125.126 46.7544 125.465 46.9005C125.684 46.9944 125.507 47.9752 125.507 47.9752L126.221 48.7212L125.194 49.3002L124.777 48.6795V48.6847Z" fill="#F7A491"/>
<path d="M126.455 46.7231C126.455 46.7231 127.503 49.5715 128.228 49.7176L128.953 49.8637L129.526 49.7176C129.526 49.7176 130.001 49.8637 130.47 49.8637H130.944C130.944 49.8637 132.774 48.9768 132.467 48.0586C132.159 47.1404 129.557 46.0918 128.525 46.2692L127.488 46.4466L126.461 46.7231H126.455Z" fill="#F7A491"/>
<path d="M201.403 82.64C202.364 81.6784 202.364 80.1193 201.403 79.1577C200.442 78.196 198.884 78.196 197.923 79.1577C196.962 80.1193 196.962 81.6784 197.923 82.64C198.884 83.6016 200.442 83.6016 201.403 82.64Z" fill="#13375B"/>
<path d="M193.119 71.7729L191.988 72.7854L199.825 81.5473L200.956 80.5349L193.119 71.7729Z" fill="#13375B"/>
</svg>
