<svg width="485" height="300" viewBox="0 0 485 300" fill="none" xmlns="http://www.w3.org/2000/svg">
<path d="M448.864 115.517L314.68 89.8497C311.708 89.2797 309.767 86.4153 310.331 83.4467L325.466 4.44234C326.036 1.47377 328.903 -0.465888 331.875 0.0972378L466.059 25.7646C469.03 26.3347 470.971 29.199 470.408 32.1676L455.273 111.172C454.702 114.141 451.835 116.08 448.864 115.517Z" fill="#F5F5F5"/>
<path d="M401.176 61.1442C400.007 67.2343 394.12 71.2318 388.024 70.0638C381.928 68.8959 377.927 63.0144 379.096 56.9243C380.265 50.8342 386.152 46.8366 392.248 48.0046C398.344 49.1726 402.345 55.0541 401.176 61.1442Z" fill="#ECECEC"/>
<path d="M386.855 61.7491L388.101 55.2419C388.163 54.9221 388.539 54.79 388.789 54.9986L393.981 59.3923C394.231 59.6078 394.155 60.0111 393.841 60.1154L387.398 62.2288C387.092 62.3262 386.792 62.0619 386.848 61.7491H386.855Z" fill="white"/>
<path d="M319.565 80.1028L319.523 80.3322L318.43 80.1237L318.465 79.9429L319.161 79.498C319.328 79.3868 319.377 79.3033 319.391 79.2268C319.419 79.0948 319.335 78.9974 319.154 78.9627C319.008 78.9348 318.883 78.9627 318.778 79.053L318.611 78.8653C318.757 78.7332 318.98 78.6846 319.224 78.7263C319.544 78.7889 319.725 78.9905 319.669 79.2547C319.641 79.4007 319.579 79.5188 319.335 79.6718L318.869 79.9707L319.565 80.1028Z" fill="white"/>
<path d="M319.85 79.3937C319.871 79.2894 319.961 79.2338 320.059 79.2547C320.156 79.2755 320.219 79.3589 320.198 79.4632C320.177 79.5675 320.087 79.6231 319.989 79.6023C319.892 79.5814 319.829 79.498 319.85 79.3937ZM319.697 80.2002C319.718 80.0959 319.808 80.0402 319.906 80.0611C320.003 80.0819 320.066 80.1654 320.045 80.2697C320.024 80.3739 319.934 80.4295 319.836 80.4087C319.739 80.3878 319.676 80.3044 319.697 80.2002Z" fill="white"/>
<path d="M320.984 79.0809L320.699 80.5617L320.428 80.506L320.664 79.2547L320.351 79.192L320.393 78.9626L320.984 79.0739V79.0809Z" fill="white"/>
<path d="M322.376 80.5338L322.112 80.4852L322.049 80.8189L321.784 80.7702L321.847 80.4365L321.033 80.2836L321.068 80.0958L321.979 79.2824L322.272 79.3381L321.409 80.1167L321.896 80.2071L321.952 79.9081L322.209 79.9568L322.153 80.2557L322.418 80.3044L322.376 80.5338Z" fill="white"/>
<path d="M324.962 80.4301L324.848 81.0242L437.097 102.498L437.211 101.904L324.962 80.4301Z" fill="white"/>
<path d="M324.995 79.7873L324.691 81.3715L359.772 88.0827L360.076 86.4985L324.995 79.7873Z" fill="#ECECEC"/>
<path d="M360.99 87.5694C360.809 88.5149 359.897 89.1267 358.958 88.9459C358.011 88.7652 357.399 87.8545 357.58 86.9159C357.761 85.9705 358.672 85.3586 359.612 85.5393C360.558 85.7201 361.171 86.6309 360.99 87.5694Z" fill="#ECECEC"/>
<path d="M439.943 102.656C439.887 102.948 439.609 103.087 439.31 103.031C438.906 102.955 438.718 102.649 438.809 102.176C438.906 101.668 439.254 101.446 439.685 101.529C439.831 101.557 439.97 101.62 440.054 101.696L439.915 101.884C439.845 101.814 439.748 101.78 439.651 101.759C439.372 101.703 439.163 101.842 439.101 102.183C439.212 102.099 439.358 102.072 439.525 102.106C439.817 102.162 439.998 102.377 439.95 102.656H439.943ZM439.671 102.614C439.699 102.461 439.602 102.343 439.421 102.308C439.247 102.273 439.101 102.357 439.073 102.503C439.045 102.642 439.136 102.774 439.33 102.809C439.504 102.843 439.637 102.767 439.671 102.614Z" fill="white"/>
<path d="M440.172 102.169C440.193 102.065 440.284 102.009 440.381 102.03C440.478 102.051 440.541 102.134 440.52 102.239C440.499 102.343 440.409 102.398 440.311 102.378C440.214 102.357 440.151 102.273 440.172 102.169ZM440.019 102.975C440.04 102.871 440.13 102.816 440.228 102.836C440.325 102.857 440.388 102.941 440.367 103.045C440.346 103.149 440.256 103.205 440.158 103.184C440.061 103.163 439.998 103.08 440.019 102.975Z" fill="white"/>
<path d="M440.652 102.496C440.743 102.009 441.063 101.787 441.418 101.856C441.773 101.926 441.988 102.252 441.891 102.732C441.801 103.219 441.48 103.441 441.125 103.372C440.778 103.302 440.562 102.982 440.652 102.496ZM441.613 102.683C441.682 102.329 441.571 102.134 441.369 102.099C441.167 102.058 441 102.197 440.931 102.558C440.861 102.913 440.972 103.108 441.174 103.142C441.376 103.184 441.55 103.045 441.62 102.683H441.613Z" fill="white"/>
<path d="M442.072 102.767C442.162 102.28 442.482 102.058 442.837 102.127C443.192 102.197 443.408 102.524 443.311 103.003C443.22 103.49 442.9 103.712 442.545 103.643C442.197 103.573 441.981 103.254 442.072 102.767ZM443.032 102.955C443.102 102.6 442.991 102.405 442.789 102.371C442.587 102.329 442.42 102.468 442.35 102.829C442.281 103.184 442.392 103.379 442.594 103.413C442.796 103.455 442.97 103.316 443.039 102.955H443.032Z" fill="white"/>
<path d="M445.76 103.379L445.162 103.267L445.454 101.752L446.971 102.044L446.853 102.635L445.934 102.461L445.76 103.379Z" fill="white"/>
<path d="M446.303 105.52L444.786 105.235L445.078 103.719L445.67 103.831L445.496 104.755L446.414 104.929L446.303 105.52Z" fill="white"/>
<path d="M448.697 105.979L447.18 105.687L447.298 105.096L448.216 105.27L448.39 104.352L448.982 104.463L448.697 105.979Z" fill="white"/>
<path d="M449.072 104.011L448.481 103.9L448.655 102.982L447.729 102.802L447.848 102.211L449.365 102.496L449.072 104.011Z" fill="white"/>
<path d="M443.318 30.4712C443.276 30.4226 444.459 30.5616 446.4 30.8884L446.567 30.9162L446.539 31.083C446.331 32.2441 446.094 33.551 445.837 34.9623L445.746 35.4629L445.461 35.0388C445.356 34.8858 445.245 34.719 445.134 34.5522C444.848 34.1281 444.57 33.7179 444.299 33.3147L444.577 33.3773C443.909 33.7736 443.269 34.142 442.677 34.4966L442.315 34.7051L442.399 34.3019C442.643 33.1061 442.879 32.1189 443.039 31.4515C443.206 30.7841 443.297 30.4226 443.325 30.4573C443.345 30.4921 443.297 30.9092 443.199 31.5975C443.102 32.2858 442.963 33.2382 442.761 34.3644L442.482 34.1698C443.067 33.8083 443.693 33.4259 444.354 33.0158L444.521 32.9115L444.633 33.0714C444.904 33.4676 445.189 33.8848 445.475 34.3019C445.586 34.4688 445.697 34.6356 445.802 34.7885L445.426 34.865C445.711 33.4537 445.976 32.1537 446.205 30.9996L446.338 31.1943C444.577 30.8119 443.359 30.4921 443.318 30.4434V30.4712Z" fill="white"/>
<path d="M454.458 33.0992C454.5 33.0853 454.159 33.3703 453.54 33.8987C452.921 34.4201 451.995 35.2057 450.875 36.0608L450.457 36.3806L450.555 35.8661C450.666 35.2613 450.791 34.6147 450.916 33.9404L450.951 33.7527L450.986 33.9125C450.603 33.3633 450.235 32.835 449.887 32.3414L449.601 31.9312L450.088 32.0285C451.424 32.3066 452.566 32.5916 453.324 32.7863C454.09 32.981 454.5 33.0853 454.458 33.0922C454.417 33.0992 453.909 33.0227 453.108 32.9115C452.308 32.7933 451.243 32.6543 450.012 32.4179L450.214 32.105C450.569 32.5986 450.944 33.12 451.334 33.6692L451.383 33.7387L451.369 33.8291L451.334 34.0168C451.202 34.6842 451.077 35.3308 450.958 35.9356L450.638 35.741C451.675 34.9693 452.6 34.3506 453.289 33.8778C453.978 33.412 454.417 33.1061 454.458 33.0922V33.0992Z" fill="white"/>
<path d="M454.458 33.0992C454.479 33.2104 453.762 33.4607 452.851 33.6553C451.939 33.85 451.181 33.9126 451.16 33.8014C451.139 33.6902 451.856 33.4398 452.767 33.2452C453.679 33.0505 454.438 32.988 454.458 33.0992Z" fill="white"/>
<path d="M460.018 33.6623C460.018 33.6623 460.227 33.6275 460.568 33.7596C460.902 33.8847 461.389 34.1837 461.709 34.7815C462.029 35.3586 462.127 36.2624 461.661 37.048C461.229 37.8336 460.199 38.4036 459.149 38.1881C458.098 38.0004 457.353 37.0897 457.242 36.1998C457.103 35.296 457.527 34.4896 458.035 34.0725C458.55 33.6415 459.114 33.5372 459.469 33.5441C459.83 33.5511 460.018 33.6414 460.011 33.6623C460.011 33.697 459.81 33.6693 459.476 33.711C459.149 33.7527 458.654 33.8917 458.23 34.2949C457.805 34.6842 457.485 35.3864 457.617 36.1373C457.729 36.8811 458.362 37.6181 459.225 37.771C460.088 37.9448 460.944 37.4929 461.32 36.8394C461.723 36.1929 461.682 35.4212 461.431 34.8998C461.187 34.3644 460.784 34.0516 460.492 33.8917C460.192 33.7318 460.004 33.6831 460.011 33.6483L460.018 33.6623Z" fill="white"/>
<path d="M460.165 36.8811C460.067 36.9437 459.657 36.5057 459.246 35.9009L459.197 35.8313L459.211 35.7479C459.211 35.7479 459.211 35.7409 459.211 35.734C459.35 35.0109 459.552 34.4409 459.671 34.4617C459.782 34.4826 459.761 35.0875 459.622 35.8175V35.8313L459.587 35.6714C459.997 36.2763 460.255 36.8185 460.158 36.888L460.165 36.8811Z" fill="white"/>
<path d="M406.959 26.5572C406.938 26.6684 392.025 23.9154 373.654 20.3976C355.277 16.8798 340.399 13.9391 340.427 13.8278C340.448 13.7166 355.36 16.4696 373.738 19.9874C392.109 23.4983 406.986 26.439 406.966 26.5572H406.959Z" fill="white"/>
<path d="M337.281 13.2298C337.003 14.6758 335.604 15.6283 334.157 15.3502C332.71 15.0722 331.756 13.6748 332.035 12.2287C332.313 10.7827 333.712 9.83019 335.159 10.1083C336.606 10.3864 337.56 11.7837 337.281 13.2298Z" fill="white"/>
<path d="M69.7973 247.866C69.7555 247.803 70.6184 247.748 71.5787 246.67C72.0241 246.128 72.4416 245.307 72.4486 244.278C72.4625 243.764 72.3163 243.229 72.1632 242.638C72.0171 242.047 71.8571 241.421 71.6901 240.761C70.368 235.421 68.4682 227.76 66.1232 218.305C65.5386 215.934 64.9263 213.445 64.293 210.859C63.9729 209.566 63.6528 208.245 63.3188 206.896C63.1379 206.229 63.0335 205.513 62.7551 204.943C62.4698 204.359 62.0175 203.851 61.4538 203.504C60.8902 203.163 60.2222 202.989 59.5541 203.031C58.9139 203.087 58.1694 203.351 57.4596 203.511C56.0191 203.886 54.5648 204.262 53.0826 204.644C50.1182 205.416 47.0703 206.201 43.9389 207.015C31.4203 210.247 17.663 213.8 3.22378 217.526C1.55371 217.923 0.468147 219.744 0.781287 221.406C1.20577 223.185 1.63021 224.958 2.05469 226.71C2.91061 230.235 3.75261 233.711 4.58069 237.131C6.22989 243.965 7.8234 250.549 9.34039 256.834C9.52828 257.62 9.7162 258.398 9.90409 259.177C10.0572 259.928 10.4051 260.574 10.92 261.082C11.4419 261.575 12.11 261.909 12.8128 261.979C13.5087 262.09 14.2046 261.832 14.97 261.652C17.9344 260.894 20.8153 260.157 23.5988 259.448C29.1657 258.03 34.3568 256.709 39.0956 255.506C48.5455 253.122 56.207 251.189 61.5443 249.84C64.1677 249.193 66.2206 248.686 67.654 248.338C68.329 248.178 68.8579 248.053 69.2476 247.963C69.6095 247.88 69.7973 247.845 69.7973 247.859C69.7973 247.873 69.6234 247.928 69.2685 248.033C68.8788 248.144 68.3569 248.29 67.6889 248.477C66.2623 248.86 64.2235 249.409 61.607 250.111C56.2836 251.509 48.643 253.518 39.214 255.993C34.4821 257.223 29.2979 258.572 23.7379 260.025C20.9544 260.748 18.0805 261.492 15.1161 262.264C14.4063 262.43 13.5992 262.743 12.7293 262.618C11.8873 262.528 11.0801 262.138 10.4608 261.548C9.84149 260.964 9.41694 260.143 9.25689 259.337C9.06901 258.565 8.8742 257.779 8.68632 257.001C7.15541 250.723 5.54794 244.139 3.88482 237.312C3.05674 233.899 2.20778 230.423 1.35186 226.898C0.927381 225.125 0.495961 223.338 0.0645238 221.538C-0.311244 219.549 0.99004 217.346 3.03589 216.852C17.4821 213.14 31.2394 209.608 43.765 206.396C46.8964 205.596 49.9443 204.818 52.9156 204.053C54.3978 203.678 55.8591 203.302 57.2995 202.934C58.0372 202.767 58.6913 202.524 59.5124 202.44C60.3057 202.391 61.099 202.6 61.7601 203.003C62.4211 203.413 62.95 204.011 63.277 204.693C63.611 205.402 63.6876 206.097 63.8755 206.764C64.1956 208.113 64.5157 209.434 64.8289 210.727C65.4482 213.32 66.0466 215.809 66.6172 218.18C68.8649 227.656 70.695 235.338 71.9615 240.691C72.1146 241.351 72.2607 241.984 72.3999 242.575C72.5391 243.159 72.6852 243.729 72.6574 244.271C72.6295 245.363 72.1633 246.211 71.6901 246.753C71.196 247.296 70.688 247.567 70.3401 247.699C69.9921 247.838 69.7973 247.852 69.7973 247.852V247.866Z" fill="#E1E1E1"/>
<path d="M46.5624 230.742L33.4731 243.757L29.1031 225.48L46.5624 230.742Z" fill="#E1E1E1"/>
<path d="M19.862 34.2741C19.8272 34.2741 19.7924 33.7666 19.7576 32.842C19.7367 31.82 19.7089 30.513 19.6741 28.9418C19.6254 25.6465 19.5976 21.0928 19.5976 16.0664C19.5976 15.8439 19.5976 15.6214 19.5976 15.4128V15.1556H19.855C24.74 15.1556 29.1378 15.1903 32.311 15.2321C33.821 15.2668 35.0805 15.2946 36.0617 15.3155C36.9455 15.3433 37.4326 15.3781 37.4326 15.4128C37.4326 15.4476 36.9455 15.4824 36.0617 15.5102C35.0805 15.531 33.821 15.5588 32.311 15.5936C29.1378 15.6423 24.747 15.6701 19.855 15.6701L20.1125 15.4128C20.1125 15.6214 20.1125 15.8369 20.1125 16.0664C20.1125 21.0928 20.0847 25.6465 20.036 28.9418C20.0012 30.513 19.9733 31.8269 19.9524 32.842C19.9246 33.7666 19.8898 34.2741 19.855 34.2741H19.862Z" fill="#E1E1E1"/>
<path d="M55.4555 55.5408C55.3859 55.5408 55.3163 54.6161 55.2746 53.1283C55.2259 51.6336 55.198 49.5758 55.198 47.3024C55.198 47.1981 55.198 47.1009 55.198 47.0105V46.7533H55.4555C57.6684 46.7533 59.6586 46.788 61.0921 46.8297C62.5256 46.8784 63.4093 46.941 63.4093 47.0105C63.4093 47.08 62.5256 47.1426 61.0921 47.1913C59.6586 47.2399 57.6684 47.2677 55.4555 47.2677L55.713 47.0105C55.713 47.1009 55.713 47.2051 55.713 47.3024C55.713 49.5758 55.6852 51.6406 55.6364 53.1283C55.5877 54.6231 55.5251 55.5408 55.4555 55.5408Z" fill="#E1E1E1"/>
<path d="M63.7085 71.2457C63.7085 71.3153 62.783 71.3848 61.2938 71.4265C59.7977 71.4752 57.738 71.503 55.4625 71.503C55.3581 71.503 55.2607 71.503 55.1703 71.503H54.9128V71.2457C54.9128 69.035 54.9476 67.0467 54.9893 65.6145C55.038 64.1824 55.1007 63.2994 55.1703 63.2994C55.2399 63.2994 55.3025 64.1824 55.3512 65.6145C55.3999 67.0467 55.4277 69.035 55.4277 71.2457L55.1703 70.9885C55.2607 70.9885 55.3651 70.9885 55.4625 70.9885C57.738 70.9885 59.8047 71.0163 61.2938 71.065C62.79 71.1136 63.7085 71.1762 63.7085 71.2457Z" fill="#E1E1E1"/>
<path d="M87.8063 63.0005C87.8759 63.0005 87.9455 63.9251 87.9873 65.4129C88.036 66.9076 88.0638 68.9654 88.0638 71.2388C88.0638 71.3431 88.0638 71.4404 88.0638 71.5308V71.788H87.8063C85.5935 71.788 83.6033 71.7532 82.1698 71.7115C80.7364 71.6628 79.8526 71.6003 79.8526 71.5308C79.8526 71.4613 80.7364 71.3987 82.1698 71.35C83.6033 71.3014 85.5935 71.2736 87.8063 71.2736L87.5489 71.5308C87.5489 71.4404 87.5489 71.3361 87.5489 71.2388C87.5489 68.9654 87.5767 66.9006 87.6254 65.4129C87.6741 63.9181 87.7368 63.0005 87.8063 63.0005Z" fill="#E1E1E1"/>
<path d="M79.5534 47.0035C79.5534 46.934 80.4789 46.8645 81.9681 46.8228C83.4642 46.7741 85.5239 46.7463 87.7994 46.7463C87.9038 46.7463 88.0012 46.7463 88.0917 46.7463H88.3491V47.0035C88.3491 49.2143 88.3143 51.2026 88.2726 52.6348C88.2239 54.0669 88.1613 54.9498 88.0917 54.9498C88.0221 54.9498 87.9594 54.0669 87.9107 52.6348C87.862 51.2026 87.8342 49.2143 87.8342 47.0035L88.0917 47.2608C88.0012 47.2608 87.8968 47.2608 87.7994 47.2608C85.5239 47.2608 83.4572 47.233 81.9681 47.1843C80.472 47.1356 79.5534 47.0731 79.5534 47.0035Z" fill="#E1E1E1"/>
<path d="M38.0867 102.656C38.0867 102.69 37.5787 102.725 36.6532 102.76C35.6303 102.781 34.322 102.809 32.7494 102.843C29.451 102.892 24.8931 102.92 19.862 102.92C19.6393 102.92 19.4166 102.92 19.2079 102.92H18.9504V102.663C18.9504 97.7821 18.9852 93.3884 19.0269 90.2251C19.0617 88.7165 19.0895 87.4582 19.1104 86.478C19.1383 85.5951 19.1731 85.1083 19.2079 85.1083C19.2426 85.1083 19.2774 85.5951 19.3053 86.478C19.3262 87.4582 19.354 88.7165 19.3888 90.2251C19.4375 93.3953 19.4653 97.7821 19.4653 102.663L19.2079 102.405C19.4166 102.405 19.6393 102.405 19.862 102.405C24.8931 102.405 29.451 102.433 32.7494 102.482C34.322 102.517 35.6372 102.544 36.6532 102.565C37.5787 102.593 38.0867 102.628 38.0867 102.663V102.656Z" fill="#E1E1E1"/>
<path d="M122.537 83.8013C122.572 83.8013 122.607 84.3089 122.634 85.2335C122.655 86.2555 122.683 87.5625 122.718 89.1337C122.767 92.429 122.795 96.9827 122.795 102.009C122.795 102.232 122.795 102.454 122.795 102.663V102.92H122.537C117.652 102.92 113.254 102.885 110.088 102.843C108.578 102.809 107.318 102.781 106.337 102.76C105.454 102.732 104.966 102.697 104.966 102.663C104.966 102.628 105.454 102.593 106.337 102.565C107.318 102.544 108.578 102.517 110.088 102.482C113.261 102.433 117.652 102.405 122.537 102.405L122.28 102.663C122.28 102.454 122.28 102.239 122.28 102.009C122.28 96.9827 122.307 92.429 122.356 89.1337C122.391 87.5625 122.419 86.2485 122.44 85.2335C122.467 84.3089 122.502 83.8013 122.537 83.8013Z" fill="#E1E1E1"/>
<path d="M104.312 15.4128C104.312 15.3781 104.82 15.3434 105.746 15.3086C106.769 15.2878 108.077 15.2599 109.65 15.2251C112.948 15.1764 117.506 15.1486 122.537 15.1486C122.76 15.1486 122.982 15.1486 123.191 15.1486H123.449V15.4059C123.449 20.2863 123.414 24.6801 123.372 27.8503C123.337 29.3589 123.309 30.6172 123.289 31.5975C123.261 32.4804 123.226 32.9671 123.191 32.9671C123.156 32.9671 123.122 32.4804 123.094 31.5975C123.073 30.6172 123.045 29.3589 123.01 27.8503C122.962 24.6801 122.934 20.2932 122.934 15.4059L123.191 15.6631C122.982 15.6631 122.767 15.6631 122.537 15.6631C117.506 15.6631 112.948 15.6353 109.65 15.5866C108.077 15.5519 106.762 15.5241 105.746 15.5032C104.82 15.4754 104.312 15.4406 104.312 15.3989V15.4128Z" fill="#E1E1E1"/>
<path d="M116.448 22.4415C116.448 23.4078 115.662 24.1934 114.695 24.1934C113.727 24.1934 112.941 23.4078 112.941 22.4415C112.941 21.4751 113.727 20.6896 114.695 20.6896C115.662 20.6896 116.448 21.4751 116.448 22.4415Z" fill="#E1E1E1"/>
<path d="M31.9074 20.6826H24.3573C24.169 20.6826 24.0163 20.8351 24.0163 21.0233V23.8528C24.0163 24.0409 24.169 24.1934 24.3573 24.1934H31.9074C32.0957 24.1934 32.2484 24.0409 32.2484 23.8528V21.0233C32.2484 20.8351 32.0957 20.6826 31.9074 20.6826Z" fill="#E1E1E1"/>
<path d="M34.2108 21.649H32.7703V23.2271H34.2108V21.649Z" fill="#E1E1E1"/>
<path d="M62.6508 291.97V70.2585C62.6508 65.83 66.2484 62.2288 70.688 62.2288H396.152C400.584 62.2288 404.189 65.823 404.189 70.2585V291.97C404.189 296.399 400.584 300 396.152 300H70.688C66.2554 300 62.6508 296.399 62.6508 291.97Z" fill="#1A2E35"/>
<path d="M86.018 69.7301V292.506H371.24V69.7301H86.018Z" fill="#ECECEC"/>
<path d="M387.022 171.997C392.067 171.997 396.152 176.085 396.152 181.118C396.152 186.151 392.06 190.239 387.022 190.239C381.984 190.239 377.892 186.158 377.892 181.118C377.892 176.078 381.984 171.997 387.022 171.997Z" fill="#375A64"/>
<path d="M72.4903 146.162V216.08C72.4903 216.549 72.8704 216.929 73.3392 216.929H75.413C75.8819 216.929 76.2619 216.549 76.2619 216.08V146.162C76.2619 145.694 75.8819 145.314 75.413 145.314H73.3392C72.8704 145.314 72.4903 145.694 72.4903 146.162Z" fill="#375A64"/>
<path d="M185.84 114.043C184.754 121.809 185.583 128.323 180.948 134.441C179.132 136.846 176.627 138.89 175.806 141.789C175.228 143.812 175.562 146.009 175.019 148.046C173.732 152.864 168.318 155.026 164.393 158.099C159.411 161.999 156.433 168.02 155.034 174.193C153.635 180.36 153.656 186.756 153.684 193.083C153.698 195.78 153.921 198.908 156.12 200.473C157.63 201.543 159.634 201.529 161.485 201.467C173.398 201.071 185.311 200.681 197.231 200.285C198.296 200.25 199.479 200.167 200.231 199.416C200.857 198.783 201.031 197.838 201.163 196.962C204.253 177.023 207.342 157.084 210.439 137.145L185.847 114.05L185.84 114.043Z" fill="#1A2E35"/>
<path d="M283.428 134.761C278.78 115.649 287.318 118.076 284.813 98.5677C284.187 93.6804 280.367 71.1762 278.536 66.6017C273.77 54.6995 253.979 30.8049 230.104 47.4693C228.893 50.6395 231.739 61.4362 234.217 63.7583C236.694 66.0803 247.897 58.4537 249.999 61.1303C251.641 63.2229 252.567 65.7744 253.958 68.0408C255.239 70.1195 256.909 71.9618 258.015 74.1379C259.296 76.6685 259.748 79.5327 260.103 82.3483C261.237 91.3375 261.578 100.563 259.456 109.371C257.034 119.459 251.509 128.552 248.6 138.508C245.859 147.88 245.511 157.946 247.598 167.485C248.023 169.417 248.565 171.378 249.742 172.97C252.302 176.432 257.347 177.259 261.481 176.043C265.614 174.819 269.038 171.969 272.274 169.125C275.099 166.637 277.924 164.05 279.852 160.817C281.953 157.293 282.858 153.198 283.728 149.193C284.208 146.99 284.688 144.772 284.695 142.512C284.695 139.891 284.055 137.312 283.435 134.761H283.428Z" fill="#1A2E35"/>
<path d="M251.384 150.834C251.453 143.493 251.384 141.789 251.384 141.859C251.384 141.859 266.881 139.252 270.054 119.035C271.626 108.982 271.091 92.4985 270.207 79.0321C269.414 66.9075 261.342 52.0508 249.247 53.3508L211.504 62.9726C207.829 63.3689 205.074 66.5043 205.15 70.1959L209.381 151.251C209.395 151.522 209.806 152.211 210.536 153.17C219.228 164.592 233.883 170.773 245.622 162.507C249.261 158.933 250.82 155.089 251.377 150.841L251.384 150.834Z" fill="#FFC19D"/>
<path d="M251.384 141.852C251.384 141.852 237.773 142.756 224.273 134.691C224.273 134.691 231.113 148.665 251.363 146.732L251.384 141.852Z" fill="#FF9C6A"/>
<path d="M239.171 52.9129C238.969 52.4888 238.615 52.1551 238.26 51.8423C232.268 46.5864 223.333 45.2864 215.769 47.8031C208.205 50.3198 202.924 59.879 199.347 66.998C196.452 72.7544 193.3 81.1318 193.168 87.5903C192.214 93.4163 192.019 93.6874 190.161 99.2839C188.025 105.729 184.963 112.194 185.59 118.959C186.007 123.422 188.032 127.774 187.482 132.223C186.919 136.756 183.773 140.58 182.806 145.043C182.187 147.921 182.5 150.925 182.764 153.824C183.112 157.613 183.641 161.388 184.546 165.086C184.678 165.635 184.866 166.171 185.256 166.574C185.687 167.012 186.292 167.22 186.877 167.415C196.577 170.62 206.73 173.867 216.834 172.33C217.551 172.219 218.302 172.073 218.831 171.586C218.915 171.51 218.984 171.406 219.033 171.301C221.858 165.128 211.232 157.105 210.919 150.236C210.613 143.493 210.042 136.04 214.558 131.021C218.427 126.717 219.332 121.76 215.261 110.213C214.426 107.835 213.89 105.346 213.814 102.829C213.807 102.51 213.807 102.19 213.814 101.87C214.092 94.2296 221.051 88.8764 226.263 83.273C233.472 75.5213 238.12 65.4338 239.331 54.9221C239.408 54.2477 239.464 53.5386 239.178 52.9199L239.171 52.9129Z" fill="#1A2E35"/>
<path d="M238.782 54.2476C240.633 57.9392 244.975 59.4826 248.816 60.9982C252.97 62.6459 256.985 64.6481 260.799 66.9701C262.462 67.9851 264.111 69.0836 265.398 70.5505C267.284 72.7126 268.238 75.5143 269.087 78.2465C270.193 81.8269 271.202 85.4351 272.114 89.0711C274.765 82.0424 275.516 74.1656 273.387 66.9562C271.258 59.7468 266.08 53.323 259.129 50.4517C252.177 47.5805 243.548 48.665 238.023 53.761" fill="#1A2E35"/>
<path d="M187.169 118.375C187.169 118.375 186.947 117.172 186.953 114.968C186.974 112.778 187.274 109.552 188.596 105.826C189.911 102.127 192.312 97.9073 196.222 94.4103C200.098 90.8717 205.227 88.1951 210.362 85.1501C215.553 82.1537 219.965 78.4621 223.326 74.5202C225.003 72.5458 226.444 70.5505 227.682 68.6108C228.872 66.6434 229.923 64.7663 230.71 62.9726C232.352 59.4131 233.236 56.3473 233.744 54.2199C234.029 53.1632 234.161 52.315 234.286 51.7518C234.342 51.4877 234.391 51.2722 234.425 51.1053C234.46 50.9593 234.481 50.8898 234.481 50.8898C234.481 50.8898 234.481 50.9663 234.46 51.1123C234.432 51.2791 234.405 51.4946 234.363 51.7658C234.265 52.3358 234.154 53.184 233.89 54.2546C233.423 56.3959 232.567 59.4896 230.953 63.0839C230.174 64.8915 229.137 66.7894 227.947 68.7777C226.715 70.7382 225.275 72.7544 223.591 74.7497C221.907 76.738 219.951 78.6707 217.766 80.4852C215.581 82.2997 213.146 83.9612 210.557 85.4768C205.401 88.5288 200.293 91.1776 196.452 94.6745C192.576 98.1159 190.175 102.273 188.846 105.93C187.503 109.615 187.169 112.813 187.107 114.989C187.086 116.08 187.106 116.935 187.148 117.512C187.162 117.784 187.176 117.999 187.183 118.166C187.183 118.312 187.183 118.388 187.183 118.388L187.169 118.375Z" fill="#375A64"/>
<path d="M187.545 129.686C187.545 129.686 187.524 129.602 187.496 129.442C187.468 129.262 187.441 129.025 187.399 128.726C187.308 128.101 187.218 127.169 187.141 125.966C187.016 123.575 186.953 120.036 187.928 115.823C188.422 113.724 189.208 111.464 190.44 109.239C191.657 107.008 193.362 104.839 195.478 102.92C197.572 100.973 199.987 99.1865 202.527 97.4207C205.067 95.6479 207.739 93.882 210.286 91.8242C215.38 87.7085 219.499 82.9393 222.784 78.323C226.082 73.6998 228.622 69.2504 230.654 65.4615C232.679 61.6726 234.203 58.5441 235.254 56.382C235.768 55.3183 236.179 54.4841 236.464 53.8932C236.597 53.622 236.708 53.4134 236.784 53.2466C236.861 53.1006 236.903 53.031 236.903 53.031C236.903 53.031 236.882 53.1145 236.812 53.2605C236.743 53.4273 236.645 53.6428 236.52 53.9209C236.249 54.5188 235.866 55.36 235.372 56.4376C234.363 58.6206 232.867 61.763 230.87 65.5797C228.866 69.3895 226.347 73.8667 223.048 78.5107C219.771 83.1617 215.637 87.9588 210.509 92.1023C207.941 94.1671 205.262 95.9398 202.729 97.7057C200.189 99.4646 197.788 101.237 195.707 103.156C193.599 105.054 191.915 107.175 190.704 109.378C189.479 111.575 188.686 113.8 188.178 115.879C187.183 120.05 187.204 123.568 187.281 125.959C187.336 127.155 187.406 128.087 187.468 128.719C187.496 129.018 187.517 129.255 187.531 129.435C187.545 129.595 187.545 129.679 187.538 129.679L187.545 129.686Z" fill="#375A64"/>
<path d="M274.445 91.2332C274.445 91.2332 274.459 91.1776 274.507 91.0734C274.563 90.9482 274.64 90.8022 274.73 90.6145C274.82 90.4129 274.967 90.1765 275.085 89.8706C275.203 89.5578 275.329 89.2102 275.475 88.8139C276.01 87.2149 276.358 84.7121 275.781 81.7435C275.217 78.7819 273.693 75.3823 271.063 72.372C268.419 69.3617 264.661 66.9076 260.514 64.8636C256.352 62.8197 252.198 61.2694 248.524 59.6009C244.843 57.9462 241.656 56.1526 239.206 54.3242C236.757 52.4888 235.052 50.6603 234.036 49.2907C233.792 48.9431 233.57 48.6373 233.375 48.3661C233.194 48.095 233.055 47.8517 232.936 47.657C232.832 47.4762 232.748 47.3372 232.679 47.219C232.623 47.1217 232.595 47.0661 232.602 47.0661C232.602 47.0661 232.644 47.1078 232.714 47.2051C232.79 47.3163 232.888 47.4554 232.999 47.6223C233.124 47.803 233.27 48.0394 233.465 48.3036C233.667 48.5678 233.89 48.8667 234.147 49.2004C235.191 50.5353 236.91 52.3219 239.359 54.1156C241.809 55.9092 244.989 57.6612 248.663 59.2949C252.33 60.9426 256.491 62.486 260.681 64.5369C264.849 66.5947 268.641 69.0766 271.32 72.1495C273.979 75.2223 275.502 78.6776 276.038 81.6949C276.588 84.7191 276.198 87.2566 275.614 88.8625C275.454 89.2518 275.315 89.6064 275.189 89.9193C275.057 90.2182 274.904 90.4545 274.8 90.6562C274.695 90.8369 274.612 90.9829 274.549 91.1011C274.494 91.1984 274.459 91.2472 274.452 91.2472L274.445 91.2332Z" fill="#375A64"/>
<path d="M191.769 151.828L210.766 146.684C210.766 146.684 218.198 164.467 234.906 164.301C253.214 164.12 251.412 147.678 251.412 147.678L285.175 153.128L289.949 210.873C289.949 210.873 287.116 262.277 282.016 273.811L289.949 292.506H178.025L176.23 159.754L191.776 151.828H191.769Z" fill="#375A64"/>
<path d="M283.533 266.671C283.171 265.003 282.245 263.529 281.473 262.006C279.559 258.224 278.592 254.025 276.769 250.202C273.436 243.201 267.465 237.827 261.286 233.141C255.107 228.455 248.51 224.207 243.179 218.576L242.957 218.708C248.739 228.045 254.752 237.882 260.757 247.066C265.148 253.775 269.532 260.484 273.923 267.193C274.869 268.639 275.85 270.126 277.291 271.079C278.731 272.031 280.756 272.33 282.155 271.308C283.533 270.3 283.888 268.34 283.526 266.671H283.533Z" fill="black"/>
<path d="M336.154 246.816C332.216 232.884 323.121 210.936 319.481 202.524C315.842 194.118 302.683 168.59 302.683 168.59C302.683 168.59 296.051 155.151 283.922 152.92L279.469 204.408L266.762 192.408C266.762 192.408 241.955 210.296 242.372 217.498L272.496 249.235C272.496 249.235 278.557 262.563 290.686 271.649C302.808 280.736 303.72 286.791 314.026 286.186C324.331 285.581 322.209 289.217 328.576 279.22C334.943 269.223 340.093 260.748 336.154 246.816Z" fill="#375A64"/>
<path d="M259.47 231.869C259.414 231.903 258.843 230.958 257.695 229.616C256.568 228.254 254.821 226.543 252.859 224.666C250.89 222.803 249.22 220.975 248.141 219.556C247.598 218.854 247.181 218.263 246.902 217.846C246.631 217.429 246.492 217.193 246.513 217.179C246.534 217.165 246.707 217.373 247.021 217.763C247.327 218.152 247.772 218.715 248.343 219.397C249.47 220.766 251.147 222.546 253.116 224.409C255.079 226.279 256.818 228.038 257.904 229.456C258.461 230.158 258.857 230.763 259.122 231.187C259.372 231.618 259.505 231.862 259.484 231.876L259.47 231.869Z" fill="#1A2E35"/>
<path d="M265.705 230.715C265.705 230.715 265.447 230.534 265.03 230.166C264.612 229.797 264.014 229.241 263.297 228.546C261.856 227.155 259.922 225.167 257.904 222.866C255.886 220.565 254.174 218.389 252.984 216.776C252.386 215.969 251.919 215.309 251.606 214.843C251.293 214.377 251.126 214.113 251.147 214.099C251.168 214.085 251.37 214.321 251.718 214.759C252.107 215.26 252.601 215.879 253.186 216.623C254.425 218.194 256.164 220.335 258.175 222.629C260.186 224.924 262.086 226.933 263.478 228.365C264.132 229.039 264.689 229.609 265.127 230.061C265.517 230.464 265.725 230.694 265.705 230.715Z" fill="#1A2E35"/>
<path d="M271.647 227.524C271.647 227.524 271.376 227.343 270.938 226.967C270.499 226.592 269.866 226.036 269.1 225.341C267.563 223.95 265.482 221.99 263.241 219.765C261.001 217.54 259.024 215.468 257.619 213.946C256.916 213.181 256.359 212.562 255.976 212.124C255.601 211.686 255.399 211.436 255.413 211.422C255.434 211.408 255.67 211.624 256.081 212.034C256.54 212.5 257.118 213.084 257.807 213.779C259.254 215.253 261.258 217.29 263.499 219.515C265.739 221.739 267.792 223.721 269.281 225.16C269.984 225.841 270.569 226.411 271.035 226.87C271.446 227.28 271.668 227.51 271.647 227.531V227.524Z" fill="#1A2E35"/>
<path d="M274.299 220.975C274.299 220.975 274.076 220.808 273.721 220.467C273.31 220.064 272.816 219.577 272.232 219C270.924 217.693 269.226 216.011 267.354 214.141C265.468 212.284 263.763 210.609 262.441 209.316C261.863 208.739 261.369 208.245 260.959 207.842C260.611 207.487 260.43 207.286 260.451 207.265C260.472 207.244 260.681 207.418 261.056 207.738C261.432 208.058 261.968 208.53 262.615 209.128C263.916 210.317 265.691 211.992 267.604 213.883C269.518 215.774 271.209 217.533 272.413 218.819C273.011 219.466 273.491 219.994 273.818 220.363C274.146 220.731 274.312 220.947 274.299 220.968V220.975Z" fill="#1A2E35"/>
<path d="M275.704 214.669C275.704 214.669 275.781 214.85 275.871 215.225L275.934 215.475L275.767 215.274C274.953 214.3 272.809 211.554 270.116 208.468C268.412 206.507 266.811 204.776 265.642 203.532C265.099 202.955 264.64 202.461 264.264 202.058C263.937 201.703 263.77 201.502 263.784 201.488C263.805 201.467 264.007 201.641 264.362 201.96C264.717 202.28 265.218 202.76 265.823 203.358C267.041 204.561 268.676 206.264 270.388 208.238C273.088 211.332 275.161 214.155 275.864 215.204L275.753 215.253C275.697 214.871 275.683 214.676 275.704 214.676V214.669Z" fill="#1A2E35"/>
<path d="M280.645 212.423C280.645 212.423 280.443 212.187 280.13 211.735C279.824 211.276 279.365 210.623 278.787 209.816C277.639 208.21 275.962 206.055 273.923 203.851C271.87 201.648 269.852 199.819 268.335 198.554C267.577 197.921 266.957 197.414 266.526 197.073C266.094 196.725 265.865 196.524 265.879 196.503C265.892 196.482 266.15 196.642 266.609 196.955C267.069 197.261 267.716 197.74 268.495 198.352C270.061 199.569 272.128 201.383 274.187 203.608C276.247 205.833 277.896 208.023 278.996 209.677C279.545 210.505 279.97 211.179 280.248 211.666C280.527 212.145 280.666 212.417 280.645 212.43V212.423Z" fill="#1A2E35"/>
<path d="M305.926 284.726C305.926 284.726 305.682 284.545 305.23 284.17C304.764 283.788 304.096 283.231 303.219 282.501C301.458 281.027 298.884 278.872 295.599 276.126C293.957 274.75 292.141 273.22 290.157 271.559C288.181 269.897 286.003 268.11 283.915 265.941C281.821 263.786 279.768 261.318 277.82 258.565C275.864 255.812 273.992 252.781 272.378 249.423L272.406 249.465C263.373 240.135 252.768 229.192 241.37 217.422L241.301 217.353L241.322 217.262C241.746 215.288 242.936 213.605 244.154 211.992C245.413 210.393 246.833 208.885 248.308 207.418C251.231 204.54 254.313 201.905 257.396 199.416C260.486 196.927 263.582 194.577 266.672 192.387L266.79 192.304L266.895 192.401C271.153 196.468 275.238 200.438 279.225 204.178C280.22 205.11 281.209 206.034 282.211 206.91C283.296 207.71 284.117 208.801 285.001 209.74C285.224 209.976 285.446 210.213 285.676 210.428C285.906 210.644 286.156 210.818 286.421 211.026C286.942 211.422 287.416 211.867 287.868 212.319C288.766 213.237 289.566 214.21 290.345 215.17C291.125 216.129 291.897 217.068 292.739 217.923C293.581 218.771 294.493 219.515 295.488 220.106C296.476 220.71 297.506 221.225 298.473 221.816C299.447 222.4 300.331 223.102 301.131 223.846C301.938 224.59 302.676 225.361 303.407 226.105C304.137 226.856 304.847 227.6 305.508 228.365C306.83 229.887 307.923 231.521 308.605 233.238C310.01 236.666 310.205 240.044 310.233 242.909C310.219 245.794 310.01 248.255 309.913 250.264C309.802 252.266 309.781 253.824 309.795 254.866C309.809 255.381 309.823 255.777 309.83 256.055C309.836 256.326 309.836 256.458 309.836 256.458C309.836 256.458 309.774 255.916 309.732 254.866C309.697 253.817 309.697 252.259 309.788 250.25C309.864 248.241 310.059 245.78 310.052 242.902C310.01 240.044 309.795 236.693 308.389 233.315C307.039 229.887 304.019 227.058 300.943 224.034C300.15 223.297 299.28 222.622 298.32 222.045C297.36 221.461 296.337 220.954 295.328 220.342C294.319 219.744 293.372 218.979 292.523 218.124C291.674 217.262 290.888 216.317 290.109 215.357C289.322 214.398 288.529 213.432 287.645 212.535C287.2 212.09 286.734 211.659 286.226 211.269C285.982 211.075 285.704 210.887 285.46 210.658C285.217 210.435 284.987 210.192 284.764 209.955C283.86 208.996 283.08 207.946 281.995 207.154C280.979 206.271 279.998 205.346 278.996 204.415C275.008 200.674 270.917 196.711 266.651 192.651L266.874 192.665C263.798 194.855 260.701 197.205 257.619 199.687C254.543 202.176 251.467 204.797 248.558 207.668C247.09 209.121 245.678 210.623 244.439 212.208C243.228 213.793 242.066 215.468 241.676 217.318L241.628 217.165C253.012 228.949 263.603 239.905 272.622 249.249L272.636 249.27L272.649 249.298C274.243 252.621 276.108 255.659 278.042 258.405C279.984 261.151 282.016 263.619 284.089 265.774C286.156 267.937 288.313 269.723 290.29 271.399C292.266 273.074 294.075 274.611 295.71 276.001C298.967 278.775 301.528 280.951 303.274 282.439C304.137 283.183 304.798 283.746 305.258 284.142C305.703 284.531 305.926 284.74 305.926 284.74V284.726Z" fill="#1A2E35"/>
<path d="M323.816 257.647C323.816 257.647 323.726 257.237 323.622 256.493C323.517 255.687 323.385 254.623 323.218 253.33C323.058 251.974 322.87 250.389 322.668 248.637C322.564 247.754 322.48 246.823 322.306 245.884C322.132 244.946 321.833 244 321.269 243.173C320.135 241.504 318.403 240.483 316.92 239.53C315.417 238.585 314.039 237.764 312.877 237.09C311.75 236.45 310.818 235.915 310.108 235.512C309.454 235.143 309.092 234.935 309.106 234.914C309.12 234.893 309.502 235.06 310.177 235.393C310.852 235.727 311.827 236.221 313.01 236.867C314.193 237.514 315.584 238.313 317.101 239.252C318.59 240.19 320.372 241.206 321.576 242.978C322.167 243.861 322.48 244.862 322.654 245.829C322.835 246.795 322.905 247.727 323.002 248.609C323.176 250.361 323.336 251.953 323.475 253.309C323.594 254.602 323.691 255.673 323.761 256.479C323.823 257.23 323.844 257.647 323.816 257.647Z" fill="#1A2E35"/>
<path d="M310.442 206.82C310.442 206.82 310.289 207.063 309.962 207.46C309.635 207.856 309.141 208.419 308.514 209.093C307.269 210.449 305.473 212.257 303.365 214.113C301.256 215.976 299.245 217.533 297.735 218.597C296.97 219.125 296.26 219.431 295.738 219.522C295.481 219.57 295.272 219.577 295.14 219.57C295.001 219.556 294.931 219.549 294.931 219.536C294.931 219.501 295.223 219.522 295.71 219.383C296.197 219.258 296.859 218.931 297.589 218.388C299.044 217.283 301.027 215.691 303.128 213.842C305.23 211.992 307.046 210.22 308.333 208.913C308.932 208.301 309.447 207.779 309.857 207.362C310.219 206.994 310.428 206.799 310.442 206.82Z" fill="#1A2E35"/>
<path d="M297.387 182.898C297.387 182.898 297.373 183.023 297.318 183.252C297.262 183.482 297.179 183.815 297.06 184.246C296.824 185.108 296.455 186.339 295.982 187.861C295.056 190.907 293.609 195.064 292.509 199.777C291.459 204.505 291.25 208.92 291.382 212.076C291.452 213.661 291.584 214.94 291.723 215.816C291.855 216.692 291.946 217.179 291.911 217.186C291.897 217.186 291.862 217.067 291.807 216.845C291.751 216.616 291.653 216.282 291.584 215.844C291.403 214.968 291.229 213.689 291.132 212.097C290.93 208.913 291.104 204.47 292.161 199.701C293.261 194.953 294.75 190.809 295.738 187.785C296.225 186.318 296.629 185.108 296.921 184.212C297.053 183.822 297.158 183.502 297.248 183.238C297.325 183.016 297.373 182.905 297.387 182.905V182.898Z" fill="#1A2E35"/>
<path d="M191.769 151.828C191.769 151.828 174.212 157.098 167.059 165.135C161.659 171.204 154.192 200.007 154.192 200.007C154.192 200.007 135.355 271.155 135.814 276.668C136.273 282.175 145.925 291.497 152.814 295.029C159.703 298.561 171.192 302.371 184.518 285.845C191.922 276.661 199.138 267.978 202.617 259.99C205.401 253.608 205.199 246.823 205.199 246.823L227.731 220.968L204.28 195.87L183.606 222.497L191.783 151.828H191.769Z" fill="#375A64"/>
<path d="M206.382 202.524C206.382 202.524 206.194 202.802 205.804 203.246C205.408 203.691 204.851 204.352 204.169 205.172C202.798 206.806 200.996 209.135 198.971 211.686C196.946 214.245 195.005 216.477 193.474 217.978C192.715 218.729 192.075 219.32 191.616 219.702C191.156 220.085 190.899 220.293 190.878 220.272C190.857 220.251 191.094 220.015 191.518 219.598C191.95 219.188 192.555 218.576 193.286 217.804C194.761 216.268 196.661 214.022 198.686 211.464C200.704 208.913 202.548 206.604 203.974 205.005C204.684 204.206 205.276 203.573 205.7 203.149C206.125 202.725 206.368 202.503 206.382 202.517V202.524Z" fill="#1A2E35"/>
<path d="M208.163 207.147C208.163 207.147 208.031 207.411 207.732 207.849C207.44 208.287 206.987 208.913 206.424 209.67C205.296 211.193 203.675 213.237 201.824 215.448C199.973 217.658 198.254 219.619 196.995 221.037C196.403 221.691 195.902 222.247 195.492 222.699C195.13 223.088 194.921 223.29 194.907 223.276C194.886 223.262 195.06 223.026 195.387 222.608C195.714 222.191 196.194 221.6 196.8 220.87C198.066 219.362 199.716 217.394 201.546 215.218C203.397 213.008 205.046 210.991 206.215 209.517C206.765 208.829 207.231 208.245 207.607 207.772C207.941 207.362 208.129 207.14 208.15 207.154L208.163 207.147Z" fill="#1A2E35"/>
<path d="M211.678 212.062C211.678 212.062 211.538 212.298 211.225 212.681C210.87 213.126 210.432 213.661 209.924 214.294C208.824 215.656 207.342 217.561 205.7 219.675C204.065 221.788 202.541 223.672 201.386 224.993C200.808 225.653 200.335 226.182 199.994 226.536C199.653 226.891 199.458 227.079 199.437 227.058C199.416 227.044 199.576 226.821 199.89 226.439C200.245 225.994 200.683 225.459 201.191 224.826C202.29 223.464 203.773 221.559 205.415 219.445C207.05 217.332 208.574 215.448 209.722 214.127C210.3 213.466 210.773 212.938 211.114 212.583C211.455 212.229 211.65 212.041 211.671 212.062H211.678Z" fill="#1A2E35"/>
<path d="M216.222 217.505C216.222 217.505 216.103 217.714 215.839 218.055C215.574 218.395 215.178 218.875 214.677 219.459C213.675 220.627 212.255 222.212 210.662 223.936C209.103 225.626 207.697 227.148 206.591 228.351C205.547 229.484 204.9 230.179 204.865 230.145C204.844 230.131 204.983 229.936 205.248 229.595C205.512 229.255 205.909 228.775 206.403 228.184C207.398 227.009 208.811 225.417 210.404 223.693C211.97 222.011 213.382 220.488 214.489 219.292C215.54 218.166 216.187 217.471 216.229 217.505H216.222Z" fill="#1A2E35"/>
<path d="M219.457 220.14C219.499 220.168 218.991 220.905 218.121 222.038C217.251 223.178 215.999 224.715 214.614 226.404C213.222 228.094 211.977 229.63 211.086 230.749C210.195 231.869 209.646 232.564 209.604 232.536C209.562 232.508 210.042 231.757 210.884 230.596C211.726 229.435 212.951 227.871 214.336 226.182C215.7 224.541 216.938 223.06 217.926 221.885C218.852 220.787 219.423 220.113 219.464 220.147L219.457 220.14Z" fill="#1A2E35"/>
<path d="M183.739 219.473C183.704 219.48 183.62 219.028 183.37 218.249C183.119 217.471 182.611 216.393 181.762 215.204C180.92 214.016 179.723 212.729 178.241 211.485C176.752 210.247 174.998 209.024 173.057 207.912C169.153 205.708 165.389 204.129 162.64 203.094C161.262 202.572 160.135 202.19 159.355 201.926C158.576 201.661 158.145 201.516 158.152 201.488C158.152 201.474 158.27 201.495 158.479 201.55C158.687 201.599 159 201.682 159.397 201.794C160.19 202.016 161.332 202.364 162.723 202.857C165.507 203.838 169.299 205.381 173.238 207.599C175.2 208.718 176.961 209.962 178.457 211.234C179.939 212.514 181.136 213.835 181.971 215.065C182.806 216.296 183.286 217.415 183.502 218.215C183.634 218.611 183.655 218.938 183.704 219.146C183.739 219.362 183.752 219.473 183.739 219.473Z" fill="#1A2E35"/>
<path d="M184.031 220.836C184.031 220.836 183.975 220.69 183.899 220.398C183.822 220.071 183.718 219.647 183.585 219.118C183.314 217.964 182.938 216.365 182.486 214.412C181.554 210.442 180.224 204.964 178.638 198.943C177.044 192.923 175.499 187.5 174.351 183.586C173.788 181.66 173.321 180.089 172.987 178.949C172.841 178.427 172.716 178.01 172.626 177.683C172.549 177.391 172.514 177.239 172.521 177.239C172.535 177.239 172.591 177.385 172.695 177.663C172.806 177.982 172.946 178.393 173.12 178.907C173.482 179.992 173.989 181.563 174.595 183.509C175.806 187.41 177.392 192.825 178.986 198.853C180.572 204.88 181.867 210.372 182.736 214.363C183.175 216.358 183.509 217.978 183.725 219.098C183.822 219.626 183.906 220.057 183.968 220.391C184.017 220.69 184.038 220.843 184.031 220.849V220.836Z" fill="#1A2E35"/>
<path d="M153.67 263.091C153.67 263.091 153.705 262.952 153.795 262.688C153.886 262.416 154.025 262.027 154.199 261.513C154.561 260.484 155.09 258.961 155.89 257.029C156.697 255.11 157.769 252.76 159.488 250.299C161.199 247.824 163.732 245.488 166.53 242.95C169.369 240.448 171.93 237.145 174.692 233.621C177.441 230.075 180.322 226.21 183.377 222.129C186.432 218.048 189.646 213.737 193.07 209.288C196.501 204.853 200.119 200.257 204.127 195.745L204.26 195.599L204.392 195.745C208.532 200.209 212.84 204.853 217.237 209.601C220.759 213.404 224.224 217.137 227.522 220.703L227.634 220.822L227.522 220.947C223.292 225.563 219.249 230.103 215.456 234.538C213.563 236.763 211.733 238.96 210.008 241.157C209.576 241.706 209.152 242.255 208.741 242.811C208.317 243.361 207.934 243.917 207.593 244.494C206.911 245.655 206.403 246.906 206.006 248.165C205.22 250.688 204.789 253.247 204.176 255.687C203.87 256.904 203.508 258.099 203.063 259.239C202.61 260.379 202.061 261.436 201.574 262.507C199.514 266.727 197.35 270.523 195.158 273.832C190.76 280.443 186.383 285.129 183.168 288.105C182.764 288.48 182.389 288.828 182.034 289.162C181.665 289.481 181.324 289.773 181.011 290.051C180.377 290.608 179.835 291.066 179.382 291.414C178.937 291.769 178.603 292.04 178.366 292.227C178.137 292.408 178.012 292.492 178.012 292.492C178.012 292.492 178.123 292.387 178.346 292.2C178.575 292.005 178.909 291.727 179.341 291.365C179.786 291.004 180.322 290.538 180.948 289.975C181.261 289.697 181.602 289.398 181.964 289.071C182.319 288.738 182.688 288.383 183.084 288.008C186.258 285.011 190.607 280.311 194.963 273.7C197.134 270.398 199.284 266.602 201.323 262.389C201.803 261.325 202.353 260.254 202.798 259.135C203.237 258.016 203.592 256.834 203.891 255.617C204.496 253.191 204.921 250.626 205.707 248.074C206.104 246.795 206.612 245.53 207.314 244.334C207.669 243.743 208.059 243.166 208.484 242.617C208.894 242.061 209.312 241.504 209.75 240.955C211.476 238.744 213.306 236.541 215.199 234.316C218.991 229.867 223.034 225.327 227.265 220.703V220.947C223.967 217.387 220.501 213.654 216.98 209.851C212.582 205.103 208.275 200.459 204.141 195.988H204.406C200.405 200.48 196.786 205.068 193.348 209.497C189.918 213.932 186.696 218.236 183.634 222.316C180.572 226.397 177.684 230.249 174.922 233.794C172.145 237.319 169.564 240.621 166.697 243.131C163.885 245.655 161.359 247.97 159.641 250.41C157.915 252.836 156.836 255.172 156.008 257.077C155.194 258.996 154.644 260.512 154.262 261.534C154.074 262.041 153.928 262.423 153.83 262.695C153.733 262.959 153.67 263.084 153.67 263.084V263.091Z" fill="#1A2E35"/>
<path d="M206.939 151.502C206.939 151.502 206.987 151.599 207.064 151.787C207.147 152.002 207.252 152.273 207.384 152.621C207.732 153.316 208.233 154.352 209.117 155.513C210.829 157.856 213.8 160.845 217.836 163.765L217.801 163.744C220.063 164.53 222.561 165.316 225.24 165.969C227.919 166.616 230.807 167.151 233.806 167.227C238.357 167.311 242.72 166.372 246.255 164.627C249.811 162.896 252.455 160.352 254.07 157.856C255.712 155.36 256.436 152.996 256.7 151.356C256.777 150.945 256.825 150.577 256.853 150.257C256.888 149.937 256.916 149.666 256.916 149.444C256.93 149.242 256.937 149.075 256.944 148.943C256.951 148.832 256.958 148.769 256.965 148.769C256.965 148.769 257.069 149.701 256.839 151.376C256.617 153.038 255.921 155.444 254.285 157.995C252.678 160.546 249.999 163.153 246.401 164.926C242.818 166.713 238.406 167.672 233.799 167.589C230.758 167.512 227.856 166.97 225.156 166.31C222.457 165.642 219.958 164.843 217.697 164.043H217.676L217.662 164.022C213.612 161.054 210.669 158.016 208.978 155.617C208.108 154.428 207.628 153.372 207.308 152.656C207.196 152.301 207.106 152.016 207.036 151.801C206.974 151.606 206.953 151.509 206.96 151.502H206.939Z" fill="#1A2E35"/>
<path d="M236.437 192.019C235.455 193.743 235.636 196.051 236.875 197.601C238.99 196.218 240.779 194.383 242.546 192.575C242.692 192.422 242.838 192.276 242.985 192.123L244.439 187.987L240.563 185.908L236.965 185.435L236.444 192.026L236.437 192.019Z" fill="#FF9C6A"/>
<path d="M242.47 189.433C241.6 190.976 240.862 192.617 240.514 194.355C240.166 196.093 240.215 197.942 240.883 199.583C240.939 199.722 241.008 199.868 241.127 199.951C241.217 200.014 241.335 200.042 241.447 200.063C242.08 200.195 242.713 200.334 243.346 200.466C243.792 199.624 244.161 198.749 244.453 197.838" fill="#FF9C6A"/>
<path d="M214.204 214.905C214.204 214.905 219.221 207.522 220.619 205.979C222.018 204.442 223.556 204.018 223.556 204.018C223.556 204.018 230.974 199.687 233.354 196.746C235.734 193.813 239.373 188.494 239.373 188.494L241.189 187.938L243.005 189.752C243.005 189.752 242.303 198.144 245.942 199.124L247.904 198.568V182.487L236.151 174.52L226.917 169.626C226.917 169.626 220.202 181.653 218.24 183.468C216.277 185.282 205.561 196.58 204.399 197.838C204.399 197.838 205.171 204.463 214.204 214.905Z" fill="#FFC19D"/>
<path d="M216.222 165.239L232.178 158.954L252.038 166.518C252.038 166.518 260.326 186.93 261.328 188.501C262.33 190.072 266.755 194.939 266.755 194.939C266.755 194.939 266.324 197.824 264.021 200.695C262.058 203.142 259.992 205.868 258.182 207.133C258.182 207.133 249.881 203.205 248.892 199.207C247.904 195.21 244.439 186.36 244.439 186.36L241.488 180.791L235.803 176.94L229.749 177.795C229.749 177.795 228.949 181.646 225.992 180.652L223.034 179.081L226.374 174.937C226.374 174.937 222.164 179.936 219.457 177.51L218.462 176.369L221.747 173.512C221.747 173.512 218.601 175.799 217.599 174.082L220.745 168.374C220.745 168.374 215.839 168.52 216.222 165.232V165.239Z" fill="#FFC19D"/>
<path d="M266.762 194.953C266.762 194.953 266.616 194.814 266.359 194.536C266.087 194.244 265.705 193.826 265.211 193.277C264.71 192.721 264.097 192.033 263.387 191.212C263.032 190.802 262.657 190.357 262.26 189.871C261.877 189.377 261.425 188.877 261.098 188.244C259.859 185.706 258.558 182.55 257.013 178.914C255.482 175.271 253.771 171.135 251.913 166.588L251.996 166.671C246.019 164.405 239.324 161.86 232.122 159.128H232.247C227.223 161.11 221.858 163.223 216.298 165.42L216.409 165.274C216.389 165.74 216.409 166.226 216.646 166.643C216.883 167.054 217.272 167.373 217.718 167.603C218.615 168.062 219.708 168.208 220.745 168.215H221.058L220.912 168.486C220.327 169.549 219.694 170.69 219.061 171.844C218.629 172.629 218.198 173.415 217.766 174.2V174.02C217.94 174.312 218.233 174.506 218.581 174.548C218.921 174.597 219.297 174.527 219.645 174.423C220.355 174.194 221.03 173.818 221.642 173.394L221.865 173.679C220.759 174.638 219.666 175.591 218.581 176.536L218.601 176.286C218.935 176.668 219.269 177.051 219.596 177.426L219.583 177.412C220.077 177.836 220.71 178.059 221.357 178.01C222.004 177.968 222.637 177.732 223.215 177.405C224.37 176.745 225.379 175.841 226.249 174.861L226.52 175.083C225.386 176.488 224.273 177.864 223.173 179.22L223.118 178.963C224.113 179.491 225.101 180.019 226.075 180.534L226.047 180.52C226.465 180.631 226.903 180.735 227.321 180.631C227.731 180.548 228.107 180.339 228.413 180.04C229.025 179.442 229.387 178.601 229.589 177.788L229.617 177.677L229.728 177.663C231.816 177.371 233.827 177.086 235.782 176.814H235.845L235.894 176.842C237.877 178.191 239.763 179.47 241.572 180.708L241.6 180.729L241.614 180.763C242.644 182.717 243.625 184.573 244.557 186.339V186.353C246.005 190.114 247.25 193.541 248.224 196.593C248.461 197.358 248.691 198.095 248.879 198.825C248.962 199.194 249.087 199.527 249.206 199.854C249.345 200.174 249.526 200.473 249.7 200.758C250.472 201.877 251.412 202.718 252.281 203.434C254.049 204.832 255.566 205.715 256.596 206.306C257.111 206.598 257.514 206.813 257.779 206.959C258.05 207.105 258.182 207.182 258.182 207.182C258.182 207.182 258.036 207.126 257.758 206.994C257.486 206.862 257.076 206.66 256.554 206.375C255.51 205.805 253.979 204.936 252.184 203.553C251.307 202.843 250.347 202.002 249.547 200.862C249.366 200.57 249.178 200.264 249.032 199.93C248.906 199.59 248.774 199.235 248.691 198.881C248.503 198.165 248.266 197.428 248.03 196.67C247.041 193.632 245.775 190.211 244.314 186.464V186.478C243.381 184.712 242.393 182.863 241.356 180.916L241.405 180.965C239.589 179.741 237.696 178.462 235.713 177.12L235.824 177.148C233.869 177.426 231.858 177.711 229.77 178.01L229.909 177.885C229.687 178.768 229.325 179.63 228.643 180.311C228.302 180.645 227.863 180.895 227.376 180.993C226.889 181.104 226.395 180.993 225.936 180.868H225.929L225.915 180.854C224.941 180.339 223.953 179.818 222.958 179.282L222.777 179.185L222.909 179.025C224.001 177.67 225.115 176.286 226.249 174.882L226.52 175.104C225.623 176.119 224.607 177.037 223.396 177.732C222.797 178.08 222.116 178.337 221.385 178.386C220.661 178.441 219.903 178.184 219.346 177.697H219.339L219.332 177.683C218.998 177.301 218.671 176.926 218.337 176.543L218.219 176.411L218.351 176.293C219.436 175.348 220.529 174.395 221.635 173.436L221.858 173.721C221.211 174.173 220.522 174.548 219.756 174.798C219.374 174.91 218.956 174.993 218.532 174.937C218.1 174.889 217.676 174.618 217.453 174.235L217.404 174.145L217.453 174.054C217.885 173.276 218.316 172.49 218.748 171.698C219.381 170.551 220.007 169.403 220.599 168.34L220.766 168.611C219.659 168.604 218.553 168.458 217.558 167.957C217.071 167.707 216.618 167.339 216.34 166.852C216.055 166.358 216.027 165.788 216.055 165.267V165.163L216.166 165.121C221.726 162.931 227.098 160.824 232.122 158.85L232.185 158.829L232.247 158.85C239.443 161.603 246.13 164.155 252.1 166.442L252.156 166.463L252.177 166.518C254.035 171.065 255.726 175.208 257.222 178.865C258.746 182.508 260.033 185.685 261.237 188.209C261.55 188.828 261.996 189.328 262.371 189.822C262.761 190.309 263.137 190.761 263.485 191.178C264.188 191.998 264.786 192.7 265.273 193.27C265.753 193.826 266.129 194.25 266.387 194.556C266.637 194.848 266.762 195.001 266.762 195.001V194.953Z" fill="#FF9C6A"/>
<path d="M220.508 168.597C220.508 168.597 220.599 168.368 220.856 168.013C221.12 167.658 221.552 167.179 222.192 166.706C223.479 165.795 225.296 164.662 227.3 163.383C229.325 162.125 231.113 160.957 232.505 160.199C233.229 159.837 233.952 159.851 234.37 160.039C234.794 160.22 234.919 160.47 234.906 160.477C234.885 160.505 234.725 160.303 234.321 160.178C233.924 160.046 233.284 160.067 232.616 160.435C231.308 161.221 229.506 162.444 227.495 163.696C225.525 164.926 223.744 166.046 222.338 166.922C221.065 167.791 220.557 168.653 220.501 168.604L220.508 168.597Z" fill="#FF9C6A"/>
<path d="M244.481 168.354C244.481 168.354 244.084 168.312 243.381 168.152C242.678 167.992 241.676 167.735 240.445 167.366C239.213 166.998 237.766 166.511 236.179 165.9C235.379 165.594 234.585 165.197 233.702 165.336C232.811 165.462 231.865 165.656 230.946 165.934C230.028 166.219 229.165 166.609 228.434 167.13C227.703 167.658 227.084 168.291 226.486 168.889C225.289 170.085 224.217 171.176 223.285 172.052C222.352 172.935 221.559 173.609 220.988 174.047C220.703 174.263 220.473 174.43 220.313 174.527C220.153 174.631 220.07 174.68 220.063 174.666C220.049 174.645 220.362 174.402 220.905 173.936C221.448 173.47 222.206 172.768 223.111 171.864C224.022 170.968 225.073 169.862 226.256 168.653C226.847 168.055 227.474 167.401 228.232 166.845C228.998 166.289 229.895 165.879 230.842 165.587C231.795 165.295 232.728 165.114 233.66 164.982C234.133 164.919 234.634 164.975 235.073 165.114C235.511 165.253 235.908 165.434 236.297 165.587C237.863 166.212 239.303 166.72 240.514 167.123C241.732 167.519 242.72 167.811 243.409 168.02C244.098 168.222 244.474 168.333 244.467 168.361L244.481 168.354Z" fill="#FF9C6A"/>
<path d="M246.527 174.743C246.527 174.743 246.22 174.687 245.678 174.527C245.072 174.339 244.314 174.103 243.409 173.818C242.428 173.498 241.301 173.13 240.062 172.727C239.429 172.518 238.768 172.296 238.086 172.066C237.397 171.844 236.701 171.573 235.97 171.434C234.502 171.142 233.096 171.677 231.899 172.191C230.675 172.734 229.52 173.06 228.622 173.471C226.799 174.291 226.11 175.424 226.047 175.348C226.04 175.341 226.075 175.271 226.166 175.153C226.249 175.028 226.388 174.861 226.576 174.652C226.959 174.235 227.599 173.686 228.518 173.241C229.429 172.789 230.577 172.435 231.774 171.885C232.38 171.614 233.041 171.343 233.757 171.162C234.474 170.989 235.267 170.919 236.047 171.079C236.826 171.232 237.522 171.503 238.211 171.732C238.893 171.969 239.547 172.191 240.18 172.407C241.412 172.838 242.532 173.234 243.506 173.575C244.397 173.901 245.142 174.173 245.74 174.388C246.262 174.59 246.547 174.708 246.541 174.736L246.527 174.743Z" fill="#FF9C6A"/>
<path d="M227.397 220.835C227.397 220.835 227.265 220.863 227.021 220.891C226.771 220.912 226.409 220.94 225.936 220.947C224.989 220.961 223.612 220.933 221.942 220.627C221.106 220.467 220.195 220.245 219.269 219.855C218.323 219.494 217.432 218.833 216.604 218.089C214.913 216.602 213.355 214.676 211.838 212.597C210.321 210.519 208.887 208.523 207.718 206.611C206.556 204.7 205.665 202.878 205.116 201.272C204.573 199.666 204.329 198.303 204.28 197.358C204.225 196.885 204.26 196.517 204.253 196.267C204.253 196.016 204.267 195.884 204.273 195.891C204.308 195.891 204.315 196.412 204.42 197.344C204.51 198.276 204.788 199.61 205.359 201.189C205.93 202.767 206.834 204.554 208.003 206.438C209.179 208.322 210.613 210.303 212.13 212.382C213.64 214.453 215.178 216.365 216.827 217.839C218.407 219.424 220.362 220.043 221.99 220.377C223.633 220.71 224.996 220.78 225.936 220.808C226.875 220.835 227.397 220.808 227.397 220.842V220.835Z" fill="#1A2E35"/>
<path d="M266.728 192.45C266.728 192.45 266.769 192.575 266.818 192.818C266.874 193.062 266.908 193.423 266.922 193.896C266.943 194.834 266.721 196.225 266.004 197.761C265.308 199.305 264.146 200.966 262.726 202.663C261.321 204.373 259.678 206.18 257.862 207.988C256.039 209.789 254.223 211.408 252.497 212.806C250.771 214.196 249.192 215.427 247.71 216.247C246.241 217.088 244.884 217.45 243.938 217.505C243.465 217.54 243.096 217.513 242.852 217.485C242.609 217.45 242.477 217.422 242.484 217.415C242.484 217.373 243.006 217.471 243.924 217.373C244.843 217.269 246.151 216.887 247.577 216.032C249.011 215.197 250.57 213.953 252.281 212.556C253.986 211.151 255.789 209.531 257.605 207.738C259.407 205.944 261.049 204.15 262.469 202.461C263.895 200.786 265.057 199.166 265.774 197.664C266.505 196.169 266.755 194.834 266.783 193.91C266.804 192.985 266.686 192.471 266.728 192.464V192.45Z" fill="#1A2E35"/>
<path d="M212.666 237.945C209.618 241.497 207.064 243.305 205.867 247.824C204.858 251.627 203.752 258.433 199.813 265.601C194.156 275.897 187.538 285.087 180.023 290.865C193.063 288.473 203.821 278.226 207.996 265.649C210.181 259.072 210.502 251.967 212.895 245.46C214.927 239.954 218.386 235.067 222.317 230.708C224.586 228.191 226.541 225.507 226.701 222.122C222.408 226.335 217.3 232.529 212.659 237.938L212.666 237.945Z" fill="black"/>
<path d="M154.909 259.935C153.587 263.814 151.631 267.471 149.14 270.724C147.546 269.111 147.073 266.644 147.435 264.405C147.797 262.173 148.89 260.122 150.093 258.203C156.906 247.309 166.801 238.557 177.051 230.805C173.544 235.324 170.503 239.029 166.794 242.888C162.146 247.713 157.149 252.85 154.916 259.935" fill="black"/>
<path d="M243.284 231.632C243.284 231.632 243.235 231.764 243.11 232.001C242.964 232.272 242.776 232.606 242.546 233.023C242.059 233.906 241.301 235.164 240.319 236.68C239.345 238.202 238.107 239.975 236.673 241.887C235.219 243.792 233.563 245.836 231.712 247.893C229.854 249.944 227.996 251.808 226.249 253.448C224.488 255.075 222.86 256.486 221.441 257.613C220.028 258.746 218.859 259.629 218.031 260.206C217.641 260.477 217.328 260.699 217.077 260.873C216.855 261.019 216.736 261.096 216.73 261.082C216.723 261.068 216.827 260.977 217.036 260.81C217.279 260.623 217.578 260.386 217.947 260.087C218.748 259.476 219.896 258.565 221.281 257.411C222.672 256.264 224.28 254.839 226.019 253.205C227.745 251.557 229.596 249.694 231.44 247.65C233.277 245.599 234.94 243.569 236.402 241.685C237.849 239.787 239.102 238.042 240.104 236.541C241.113 235.039 241.899 233.808 242.428 232.953C242.678 232.55 242.887 232.23 243.047 231.966C243.193 231.743 243.277 231.625 243.284 231.632Z" fill="#1A2E35"/>
<path d="M309.711 254.137C310.233 254.853 310.762 255.569 311.284 256.285C314.04 249.645 314.109 241.935 311.465 235.247C308.821 228.559 303.441 223.929 296.886 220.968C299.788 222.664 301.702 224.645 303.998 226.814C309.739 232.216 311.242 239.127 309.711 254.13" fill="black"/>
<path d="M98.7315 272.81V273.519H95.3913V272.956L97.1936 271.246C97.632 270.829 97.7086 270.558 97.7086 270.307C97.7086 269.89 97.4232 269.654 96.8665 269.654C96.4281 269.654 96.0593 269.8 95.8018 270.127L95.2104 269.675C95.5583 269.202 96.1915 268.924 96.9361 268.924C97.9173 268.924 98.5575 269.424 98.5575 270.224C98.5575 270.662 98.4322 271.065 97.8059 271.656L96.5951 272.81H98.7315Z" fill="#1A2E35"/>
<path d="M99.1908 270.564C99.1908 270.238 99.4273 270.029 99.7196 270.029C100.012 270.029 100.248 270.245 100.248 270.564C100.248 270.884 100.012 271.1 99.7196 271.1C99.4273 271.1 99.1908 270.87 99.1908 270.564ZM99.1908 273.026C99.1908 272.699 99.4273 272.49 99.7196 272.49C100.012 272.49 100.248 272.706 100.248 273.026C100.248 273.345 100.012 273.561 99.7196 273.561C99.4273 273.561 99.1908 273.331 99.1908 273.026Z" fill="#1A2E35"/>
<path d="M102.357 268.986V273.519H101.515V269.695H100.555V268.986H102.357Z" fill="#1A2E35"/>
<path d="M107.298 272.49H106.497V273.519H105.683V272.49H103.199V271.906L105.433 268.986H106.33L104.222 271.774H105.704V270.863H106.497V271.774H107.298V272.49Z" fill="#1A2E35"/>
<path d="M334.094 271.566H113.846V272.678H334.094V271.566Z" fill="white"/>
<path d="M187.448 270.363H111.139V273.331H187.448V270.363Z" fill="#5371FF"/>
<path d="M192.437 272.122C192.437 274.173 190.774 275.834 188.721 275.834C186.668 275.834 185.005 274.173 185.005 272.122C185.005 270.071 186.668 268.409 188.721 268.409C190.774 268.409 192.437 270.071 192.437 272.122Z" fill="#5371FF"/>
<path d="M340.204 272.448C340.204 273.38 339.446 273.964 338.492 273.964C337.219 273.964 336.467 273.144 336.467 271.635C336.467 270.029 337.407 269.146 338.764 269.146C339.23 269.146 339.682 269.244 339.995 269.445L339.675 270.099C339.418 269.932 339.112 269.869 338.785 269.869C337.901 269.869 337.344 270.419 337.344 271.482C337.622 271.162 338.075 271.003 338.597 271.003C339.522 271.003 340.211 271.566 340.211 272.442L340.204 272.448ZM339.362 272.49C339.362 272.004 338.993 271.698 338.423 271.698C337.852 271.698 337.469 272.038 337.469 272.497C337.469 272.956 337.817 273.283 338.437 273.283C338.979 273.283 339.355 272.977 339.355 272.49H339.362Z" fill="#1A2E35"/>
<path d="M340.629 270.849C340.629 270.516 340.872 270.293 341.178 270.293C341.485 270.293 341.728 270.516 341.728 270.849C341.728 271.183 341.478 271.406 341.178 271.406C340.879 271.406 340.629 271.169 340.629 270.849ZM340.629 273.394C340.629 273.06 340.872 272.838 341.178 272.838C341.485 272.838 341.728 273.06 341.728 273.394C341.728 273.728 341.478 273.95 341.178 273.95C340.879 273.95 340.629 273.714 340.629 273.394Z" fill="#1A2E35"/>
<path d="M342.285 271.566C342.285 270.029 343.127 269.16 344.24 269.16C345.353 269.16 346.202 270.029 346.202 271.566C346.202 273.102 345.36 273.971 344.24 273.971C343.12 273.971 342.285 273.102 342.285 271.566ZM345.319 271.566C345.319 270.439 344.88 269.918 344.233 269.918C343.586 269.918 343.155 270.439 343.155 271.566C343.155 272.692 343.593 273.213 344.233 273.213C344.873 273.213 345.319 272.692 345.319 271.566Z" fill="#1A2E35"/>
<path d="M346.78 271.566C346.78 270.029 347.622 269.16 348.735 269.16C349.849 269.16 350.698 270.029 350.698 271.566C350.698 273.102 349.856 273.971 348.735 273.971C347.615 273.971 346.78 273.102 346.78 271.566ZM349.814 271.566C349.814 270.439 349.376 269.918 348.728 269.918C348.081 269.918 347.65 270.439 347.65 271.566C347.65 272.692 348.088 273.213 348.728 273.213C349.369 273.213 349.814 272.692 349.814 271.566Z" fill="#1A2E35"/>
<path d="M358.373 271.155H357.441V268.472H360.12V269.403H358.373V271.155Z" fill="#1A2E35"/>
<path d="M360.12 274.652H357.441V271.976H358.366V273.721H360.12V274.652Z" fill="#1A2E35"/>
<path d="M364.392 274.652H361.713V273.721H363.46V271.969H364.392V274.652Z" fill="#1A2E35"/>
<path d="M364.392 271.148H363.467V269.403H361.713V268.472H364.392V271.148Z" fill="#1A2E35"/>
<path d="M112.847 94.8471C114.984 92.5325 114.837 88.9259 112.52 86.7916C110.204 84.6572 106.594 84.8034 104.457 87.118C102.321 89.4325 102.467 93.0391 104.784 95.1735C107.101 97.3078 110.711 97.1617 112.847 94.8471Z" fill="#E1E1E1"/>
<path d="M114.375 90.8509C114.333 90.8509 114.361 90.3434 114.131 89.4744C113.901 88.6262 113.331 87.3748 112.043 86.4154C111.41 85.9496 110.61 85.5464 109.691 85.3934C108.78 85.2405 107.757 85.2752 106.776 85.6507C106.282 85.8245 105.808 86.0817 105.377 86.4084C104.939 86.7282 104.535 87.1245 104.208 87.5834C103.526 88.4872 103.143 89.6481 103.136 90.8509C103.15 92.0466 103.526 93.2146 104.208 94.1184C104.535 94.5773 104.939 94.9735 105.377 95.2933C105.808 95.6201 106.282 95.8773 106.776 96.0511C107.75 96.4265 108.78 96.4543 109.691 96.3083C110.61 96.1484 111.403 95.7521 112.043 95.2863C113.324 94.3269 113.901 93.0825 114.131 92.2274C114.361 91.3584 114.333 90.8509 114.375 90.8509C114.388 90.8509 114.395 90.976 114.395 91.2193C114.395 91.4627 114.368 91.8172 114.27 92.2622C114.082 93.1451 113.526 94.4591 112.203 95.488C111.549 95.9885 110.721 96.4265 109.754 96.6003C108.794 96.7741 107.708 96.7533 106.671 96.364C105.635 96.0025 104.639 95.3002 103.93 94.3269C103.206 93.3675 102.788 92.1301 102.781 90.8509C102.795 89.5786 103.206 88.3342 103.93 87.3748C104.284 86.8881 104.709 86.4711 105.175 86.1304C105.641 85.7897 106.142 85.5186 106.664 85.3378C107.701 84.9485 108.787 84.9276 109.747 85.1014C110.714 85.2822 111.542 85.7133 112.196 86.2138C113.519 87.2427 114.075 88.5566 114.263 89.4396C114.368 89.8845 114.395 90.246 114.388 90.4824C114.388 90.7257 114.388 90.8509 114.368 90.8509H114.375Z" fill="#1A2E35"/>
<path d="M206.848 90.0305C206.848 90.1279 187.615 90.2113 163.892 90.2113C140.17 90.2113 120.937 90.1279 120.937 90.0305C120.937 89.9332 140.163 89.8498 163.892 89.8498C187.621 89.8498 206.848 89.9332 206.848 90.0305Z" fill="#1A2E35"/>
<path d="M315.125 93.7054C317.407 91.4248 317.407 87.7272 315.125 85.4467C312.842 83.1661 309.141 83.166 306.858 85.4466C304.576 87.7272 304.576 91.4248 306.858 93.7054C309.141 95.986 312.842 95.986 315.125 93.7054Z" fill="#E1E1E1"/>
<path d="M332.962 93.7102C335.245 91.4296 335.245 87.7321 332.962 85.4515C330.679 83.1709 326.978 83.1708 324.696 85.4514C322.413 87.732 322.413 91.4296 324.696 93.7102C326.978 95.9908 330.679 95.9908 332.962 93.7102Z" fill="#E1E1E1"/>
<path d="M348.903 94.9513C351.889 93.7233 353.312 90.3101 352.083 87.3278C350.854 84.3455 347.437 82.9233 344.452 84.1513C341.467 85.3793 340.044 88.7924 341.273 91.7748C342.502 94.7571 345.918 96.1793 348.903 94.9513Z" fill="#E1E1E1"/>
<path d="M429.192 141.741H423.04V146.19H429.192V141.741Z" fill="#375A64"/>
<path d="M377.593 105.68H367.009V136.554H377.593V105.68Z" fill="#FF735D"/>
<path d="M377.593 105.68H367.009V136.554H377.593V105.68Z" fill="#0000BF"/>
<path d="M377.593 103.156V138.717H407.891L415.107 134.392V108.204L407.773 103.156H377.593Z" fill="#5371FF"/>
<path d="M389.249 103.156H386.938V138.717H389.249V103.156Z" fill="#0000BF"/>
<path d="M402.261 138.411C402.178 138.411 402.101 130.562 402.101 120.884C402.101 111.207 402.171 103.358 402.261 103.358C402.352 103.358 402.421 111.2 402.421 120.884C402.421 130.569 402.352 138.411 402.261 138.411Z" fill="#1A2E35"/>
<path d="M402.004 131.744C402.004 131.827 399.151 131.903 395.623 131.903C392.095 131.903 389.242 131.834 389.242 131.744C389.242 131.653 392.095 131.584 395.623 131.584C399.151 131.584 402.004 131.653 402.004 131.744Z" fill="#1A2E35"/>
<path d="M402.004 129.776C402.004 129.859 399.151 129.936 395.623 129.936C392.095 129.936 389.242 129.866 389.242 129.776C389.242 129.686 392.095 129.616 395.623 129.616C399.151 129.616 402.004 129.686 402.004 129.776Z" fill="#1A2E35"/>
<path d="M402.004 127.809C402.004 127.892 399.151 127.968 395.623 127.968C392.095 127.968 389.242 127.899 389.242 127.809C389.242 127.718 392.095 127.649 395.623 127.649C399.151 127.649 402.004 127.718 402.004 127.809Z" fill="#1A2E35"/>
<path d="M402.004 125.841C402.004 125.925 399.151 126.001 395.623 126.001C392.095 126.001 389.242 125.932 389.242 125.841C389.242 125.751 392.095 125.681 395.623 125.681C399.151 125.681 402.004 125.751 402.004 125.841Z" fill="#1A2E35"/>
<path d="M402.004 123.874C402.004 123.957 399.151 124.034 395.623 124.034C392.095 124.034 389.242 123.964 389.242 123.874C389.242 123.783 392.095 123.714 395.623 123.714C399.151 123.714 402.004 123.783 402.004 123.874Z" fill="#1A2E35"/>
<path d="M402.004 121.906C402.004 121.99 399.151 122.066 395.623 122.066C392.095 122.066 389.242 121.997 389.242 121.906C389.242 121.816 392.095 121.746 395.623 121.746C399.151 121.746 402.004 121.816 402.004 121.906Z" fill="#1A2E35"/>
<path d="M402.004 119.939C402.004 120.022 399.151 120.099 395.623 120.099C392.095 120.099 389.242 120.029 389.242 119.939C389.242 119.848 392.095 119.779 395.623 119.779C399.151 119.779 402.004 119.848 402.004 119.939Z" fill="#1A2E35"/>
<path d="M402.004 117.971C402.004 118.055 399.151 118.131 395.623 118.131C392.095 118.131 389.242 118.062 389.242 117.971C389.242 117.881 392.095 117.811 395.623 117.811C399.151 117.811 402.004 117.881 402.004 117.971Z" fill="#1A2E35"/>
<path d="M402.004 116.004C402.004 116.087 399.151 116.164 395.623 116.164C392.095 116.164 389.242 116.094 389.242 116.004C389.242 115.913 392.095 115.844 395.623 115.844C399.151 115.844 402.004 115.913 402.004 116.004Z" fill="#1A2E35"/>
<path d="M402.004 114.036C402.004 114.12 399.151 114.196 395.623 114.196C392.095 114.196 389.242 114.127 389.242 114.036C389.242 113.946 392.095 113.876 395.623 113.876C399.151 113.876 402.004 113.946 402.004 114.036Z" fill="#1A2E35"/>
<path d="M402.004 112.069C402.004 112.152 399.151 112.229 395.623 112.229C392.095 112.229 389.242 112.159 389.242 112.069C389.242 111.978 392.095 111.909 395.623 111.909C399.151 111.909 402.004 111.978 402.004 112.069Z" fill="#1A2E35"/>
<path d="M402.004 110.101C402.004 110.185 399.151 110.261 395.623 110.261C392.095 110.261 389.242 110.192 389.242 110.101C389.242 110.011 392.095 109.942 395.623 109.942C399.151 109.942 402.004 110.011 402.004 110.101Z" fill="#1A2E35"/>
<path d="M402.004 108.134C402.004 108.217 399.151 108.294 395.623 108.294C392.095 108.294 389.242 108.224 389.242 108.134C389.242 108.044 392.095 107.974 395.623 107.974C399.151 107.974 402.004 108.044 402.004 108.134Z" fill="#1A2E35"/>
<path d="M402.004 106.166C402.004 106.25 399.151 106.326 395.623 106.326C392.095 106.326 389.242 106.257 389.242 106.166C389.242 106.076 392.095 106.007 395.623 106.007C399.151 106.007 402.004 106.076 402.004 106.166Z" fill="#1A2E35"/>
<path d="M402.004 104.199C402.004 104.282 399.151 104.359 395.623 104.359C392.095 104.359 389.242 104.289 389.242 104.199C389.242 104.109 392.095 104.039 395.623 104.039C399.151 104.039 402.004 104.109 402.004 104.199Z" fill="#1A2E35"/>
<path d="M402.004 133.968C402.004 134.052 399.151 134.128 395.623 134.128C392.095 134.128 389.242 134.059 389.242 133.968C389.242 133.878 392.095 133.808 395.623 133.808C399.151 133.808 402.004 133.878 402.004 133.968Z" fill="#1A2E35"/>
<path d="M402.004 136.193C402.004 136.276 399.151 136.353 395.623 136.353C392.095 136.353 389.242 136.283 389.242 136.193C389.242 136.102 392.095 136.033 395.623 136.033C399.151 136.033 402.004 136.102 402.004 136.193Z" fill="#1A2E35"/>
<path d="M409.7 97.4693V99.1031C409.7 99.8469 410.111 100.528 410.772 100.876L415.107 103.163V139.544H419.693C421.342 139.544 422.678 138.209 422.678 136.554H440.402C443.276 136.554 445.607 134.225 445.607 131.354V99.7009C445.607 98.7068 444.8 97.9073 443.812 97.9073H441.529V95.919L437.653 92.2621L421.426 92.8879L411.203 95.5296C410.32 95.7591 409.7 96.5586 409.7 97.4693Z" fill="#5371FF"/>
<path d="M445.607 100.229C445.607 100.313 437.556 99.7704 427.647 99.0057C417.731 98.241 409.7 97.5527 409.707 97.4693C409.707 97.3859 417.758 97.9281 427.675 98.6929C437.591 99.4576 445.621 100.146 445.614 100.229H445.607Z" fill="#1A2E35"/>
<path d="M422.636 106.639C422.72 106.639 422.796 113.341 422.796 121.607C422.796 129.873 422.727 136.582 422.636 136.582C422.546 136.582 422.476 129.88 422.476 121.607C422.476 113.334 422.546 106.639 422.636 106.639Z" fill="#1A2E35"/>
<path d="M429.992 98.8319C430.054 98.8945 428.461 100.688 426.429 102.843C424.397 104.998 422.699 106.702 422.636 106.639C422.574 106.577 424.167 104.783 426.199 102.628C428.231 100.473 429.929 98.7693 429.992 98.8319Z" fill="#1A2E35"/>
<path d="M418.99 99.8331C418.329 99.8122 417.696 100.347 417.619 101.001C417.543 101.654 418.051 102.329 418.698 102.419C419.352 102.51 420.166 101.981 420.173 101.321C420.173 100.459 419.804 99.8331 418.99 99.8331Z" fill="#1A2E35"/>
<path d="M415.107 139.537C415.024 139.537 414.947 131.403 414.947 121.364C414.947 111.325 415.017 103.191 415.107 103.191C415.198 103.191 415.267 111.325 415.267 121.364C415.267 131.403 415.198 139.537 415.107 139.537Z" fill="#1A2E35"/>
<path d="M407.891 138.717C407.808 138.717 407.71 130.756 407.675 120.94C407.64 111.116 407.682 103.163 407.773 103.163C407.863 103.163 407.954 111.123 407.988 120.94C408.023 130.756 407.982 138.717 407.891 138.717Z" fill="#1A2E35"/>
<path d="M404.794 106.125C405.372 106 405.97 106.604 405.845 107.181C405.72 107.758 404.92 108.05 404.446 107.703C403.973 107.348 404.036 106.5 404.551 106.215" fill="#1A2E35"/>
<path d="M422.636 136.304H441.543V138.988C441.543 139.766 440.91 140.399 440.131 140.399H422.636V136.304Z" fill="#1A2E35"/>
<path d="M421.321 140.399H430.514C430.722 140.399 430.889 140.566 430.889 140.774V141.782C430.889 141.991 430.722 142.158 430.514 142.158H421.321C421.112 142.158 420.945 141.991 420.945 141.782V140.774C420.945 140.566 421.112 140.399 421.321 140.399Z" fill="#1A2E35"/>
<path d="M439.769 146.19H414.418C414.022 146.19 413.702 146.511 413.702 146.906V148.832C413.702 149.227 414.022 149.548 414.418 149.548H439.769C440.165 149.548 440.485 149.227 440.485 148.832V146.906C440.485 146.511 440.165 146.19 439.769 146.19Z" fill="#1A2E35"/>
<path d="M447.416 144.633H439.017C438.256 144.633 437.639 145.249 437.639 146.009V149.715C437.639 150.475 438.256 151.091 439.017 151.091H447.416C448.177 151.091 448.794 150.475 448.794 149.715V146.009C448.794 145.249 448.177 144.633 447.416 144.633Z" fill="#1A2E35"/>
<path d="M430.333 149.548H420.792V182.404H430.333V149.548Z" fill="#1A2E35"/>
<path d="M420.681 180.993H430.437V297.921C430.437 299.068 429.505 300 428.356 300H422.762C421.614 300 420.681 299.068 420.681 297.921V180.993Z" fill="#1A2E35"/>
<path d="M431.655 270.398H419.088C418.169 270.398 417.424 271.142 417.424 272.059V279.825C417.424 280.742 418.169 281.486 419.088 281.486H431.655C432.573 281.486 433.318 280.742 433.318 279.825V272.059C433.318 271.142 432.573 270.398 431.655 270.398Z" fill="#375A64"/>
<path d="M433.318 272.101H439.003C439.908 272.101 440.638 272.838 440.638 273.735V278.135C440.638 279.039 439.901 279.769 439.003 279.769H433.318V272.094V272.101Z" fill="#375A64"/>
<path d="M417.417 279.783H411.732C410.828 279.783 410.097 279.046 410.097 278.149V273.748C410.097 272.845 410.835 272.115 411.732 272.115H417.417V279.79V279.783Z" fill="#375A64"/>
<path d="M437.932 179.081H413.18C412.265 179.081 411.523 179.822 411.523 180.735V185.192C411.523 186.106 412.265 186.846 413.18 186.846H437.932C438.846 186.846 439.588 186.106 439.588 185.192V180.735C439.588 179.822 438.846 179.081 437.932 179.081Z" fill="#1A2E35"/>
<path d="M459.295 291.289H393.055C391.572 291.289 390.369 292.49 390.369 293.972V297.316C390.369 298.798 391.572 300 393.055 300H459.295C460.778 300 461.981 298.798 461.981 297.316V293.972C461.981 292.49 460.778 291.289 459.295 291.289Z" fill="#375A64"/>
<path d="M473.08 181.424H438.467V184.49H473.08V181.424Z" fill="#1A2E35"/>
<path d="M482.891 178.01H471.939C470.774 178.01 469.83 178.953 469.83 180.117V185.769C469.83 186.932 470.774 187.875 471.939 187.875H482.891C484.056 187.875 485 186.932 485 185.769V180.117C485 178.953 484.056 178.01 482.891 178.01Z" fill="#1A2E35"/>
<path d="M362.959 104.213L363.383 137.514L367.858 139.537V102.35C367.538 102.454 362.959 104.206 362.959 104.206V104.213Z" fill="#5371FF"/>
<path d="M384.308 139.155C384.225 139.155 384.148 130.993 384.148 120.926C384.148 110.859 384.218 102.697 384.308 102.697C384.399 102.697 384.468 110.859 384.468 120.926C384.468 130.993 384.399 139.155 384.308 139.155Z" fill="#1A2E35"/>
<path d="M365.631 138.007C365.548 138.007 365.471 130.2 365.471 120.571C365.471 110.943 365.541 103.135 365.631 103.135C365.721 103.135 365.791 110.943 365.791 120.571C365.791 130.2 365.721 138.007 365.631 138.007Z" fill="#1A2E35"/>
<path d="M376.835 121.788C376.835 121.871 374.872 121.948 372.451 121.948C370.029 121.948 368.067 121.878 368.067 121.788C368.067 121.698 370.029 121.628 372.451 121.628C374.872 121.628 376.835 121.698 376.835 121.788Z" fill="#1A2E35"/>
<path d="M437.451 135.373C437.368 135.373 437.291 127.412 437.291 117.603C437.291 107.793 437.361 99.8331 437.451 99.8331C437.542 99.8331 437.611 107.786 437.611 117.603C437.611 127.419 437.542 135.373 437.451 135.373Z" fill="#1A2E35"/>
<path d="M185.937 79.8942L178.172 66.2263C181.609 60.6576 183.592 54.1017 183.592 47.08C183.592 26.8839 167.205 10.5186 146.997 10.5186C126.789 10.5186 110.401 26.8909 110.401 47.08C110.401 67.2691 126.789 83.6414 146.997 83.6414C155.438 83.6414 163.203 80.7771 169.397 75.9871L169.383 76.001L185.937 79.8942Z" fill="#FAFAFA"/>
<path d="M185.937 79.8942C185.151 79.7135 179.911 78.5177 169.355 76.1053L169.188 76.0635L169.292 75.9245L169.306 75.9106L169.466 76.0705C167.379 77.6834 164.881 79.2755 161.937 80.6033C158.994 81.9103 155.619 82.974 151.896 83.4676C150.038 83.704 148.096 83.857 146.099 83.7596C145.104 83.704 144.088 83.6762 143.065 83.5928C142.049 83.4398 141.019 83.2869 139.969 83.127C135.821 82.3066 131.583 80.7354 127.631 78.2883C123.678 75.8481 120.025 72.5319 117.088 68.4579C114.159 64.3909 111.939 59.5661 110.902 54.3242C109.872 49.0892 109.956 43.4788 111.334 38.0491C112.718 32.6403 115.307 27.3567 119.183 23.0046L120.679 21.3639C121.173 20.8147 121.758 20.3558 122.287 19.8483C122.843 19.3686 123.344 18.8264 123.95 18.4023L125.71 17.0883C126.281 16.6295 126.907 16.261 127.526 15.8856C128.146 15.5102 128.765 15.1348 129.384 14.7593C130.032 14.4465 130.686 14.1267 131.326 13.8139C131.98 13.5149 132.606 13.1604 133.288 12.9448C138.605 10.8383 144.276 10.0319 149.697 10.4282C155.118 10.8175 160.309 12.3747 164.762 14.8775C169.23 17.3594 172.994 20.6756 175.896 24.3811C178.812 28.0866 180.865 32.1745 182.138 36.2416C183.405 40.3294 183.746 44.3826 183.732 48.1367C183.62 51.8978 182.938 55.367 181.936 58.4051C180.934 61.4501 179.619 64.0711 178.262 66.2749V66.1637C183.161 74.9303 185.555 79.2129 185.931 79.8872C185.548 79.2198 183.091 74.9651 178.074 66.268L178.039 66.2124L178.074 66.1567C179.41 63.9529 180.698 61.3459 181.679 58.3147C182.653 55.2905 183.321 51.8492 183.411 48.1158C183.411 44.3964 183.057 40.3781 181.797 36.3319C180.524 32.3066 178.485 28.2674 175.59 24.6036C172.709 20.9468 168.972 17.6722 164.554 15.2251C160.149 12.7571 155.02 11.2276 149.662 10.8453C144.304 10.4629 138.702 11.2624 133.448 13.348C132.773 13.5635 132.154 13.9112 131.507 14.2101C130.867 14.5229 130.226 14.8288 129.586 15.1417C128.974 15.5101 128.368 15.8856 127.749 16.2541C127.137 16.6225 126.511 16.991 125.954 17.4429L124.221 18.7429C123.63 19.1601 123.136 19.6954 122.579 20.1751C122.05 20.6757 121.472 21.1275 120.985 21.6698L119.51 23.2966C115.683 27.5931 113.129 32.8141 111.758 38.1534C110.394 43.5135 110.304 49.0614 111.32 54.2268C112.343 59.4062 114.528 64.1754 117.416 68.2007C120.31 72.2329 123.922 75.5213 127.826 77.9476C131.729 80.3809 135.926 81.9451 140.024 82.7654C141.061 82.9253 142.077 83.0853 143.086 83.2382C144.102 83.3286 145.104 83.3495 146.092 83.412C148.068 83.5163 149.996 83.3703 151.84 83.1409C155.535 82.6612 158.882 81.6253 161.812 80.3391C164.734 79.0391 167.226 77.4679 169.313 75.8759L169.995 75.3545L169.473 76.0358L169.459 76.0497L169.397 75.8689C179.918 78.4204 185.144 79.6857 185.931 79.8734L185.937 79.8942Z" fill="#1A2E35"/>
<path d="M136.684 47.0591C136.684 49.11 135.021 50.7716 132.968 50.7716C130.915 50.7716 129.252 49.11 129.252 47.0591C129.252 45.0082 130.915 43.3467 132.968 43.3467C135.021 43.3467 136.684 45.0082 136.684 47.0591Z" fill="#1A2E35"/>
<path d="M151.562 47.0591C151.562 49.11 149.899 50.7716 147.846 50.7716C145.793 50.7716 144.13 49.11 144.13 47.0591C144.13 45.0082 145.793 43.3467 147.846 43.3467C149.899 43.3467 151.562 45.0082 151.562 47.0591Z" fill="#1A2E35"/>
<path d="M166.398 45.2029C167.427 46.9827 166.815 49.249 165.034 50.278C163.252 51.3069 160.984 50.6951 159.954 48.9154C158.924 47.1356 159.536 44.8692 161.318 43.8402C163.099 42.8113 165.368 43.4232 166.398 45.2029Z" fill="#1A2E35"/>
</svg>
