<svg width="307" height="300" viewBox="0 0 307 300" fill="none" xmlns="http://www.w3.org/2000/svg">
<path d="M131.841 62.933C131.841 39.8755 113.134 21.1865 90.0529 21.1865C66.9714 21.1865 48.2462 39.8755 48.2462 62.933C48.2462 78.5798 56.875 92.1954 69.6372 99.3464L70.501 71.6607C70.501 60.3267 79.715 51.126 91.0746 51.126H92.2263C101.171 51.126 108.434 58.3697 108.434 67.3015V100.376C122.293 93.5681 131.841 79.3775 131.841 62.933Z" fill="#5371FF"/>
<path d="M108.444 67.3015C108.444 58.3697 101.19 51.126 92.2356 51.126H91.0839C79.7243 51.126 70.5103 60.3175 70.5103 71.6607L67.7331 160.375C67.2965 162.258 67.0271 204.672 67.0271 204.672C63.4511 201.027 59.4572 196.854 55.8533 192.838C47.4659 183.498 32.0659 177.2 21.8209 176.041C16.4244 175.41 12.3004 176.152 9.56964 178.22C8.67796 178.888 7.83271 179.63 7.00605 180.437C1.73958 185.64 -2.25439 194.034 1.43307 200.193C3.03994 202.882 5.78001 204.663 8.67797 206.537C12.5419 209.041 19.053 211.749 23.9201 217.963C32.131 228.416 51.0791 251.789 62.7267 264.273C65.1323 265.776 70.2688 270.886 72.693 272.185C80.0401 276.869 86.0589 281.283 88.1395 283.676C89.7743 285.541 99.3876 290.456 99.3876 290.456C107.162 295.381 121.336 299.972 137.683 299.972C154.031 299.972 168.836 300.946 179.797 291.319H180.41L180.679 290.586C191.853 280.393 198.763 266.267 198.763 250.639V175.939C198.763 172.266 197.965 160.004 187.627 156.313C182.667 154.551 177.967 155.219 173.973 156.944L173.025 156.99L172.737 157.009C170.945 150.266 166.468 145.916 159.827 144.756C151.802 143.374 146.247 145.767 142.913 148.179C139.587 141.046 132.909 137.336 123.909 138.088C117.138 138.663 112.122 141.983 108.462 146.352V67.3015H108.444Z" fill="#1D3BD0"/>
<path d="M289.622 72.5418C293.105 69.5831 296.151 67.0047 298.334 65.1683C299.421 64.2408 300.294 63.508 300.888 62.9979L301.576 62.4136L301.752 62.2652L301.789 62.2374V62.2188H301.826C305.096 59.4363 306.991 55.3739 307 51.0889C307 46.7946 305.133 42.7136 301.864 39.9312L255.784 0.698208C254.568 -0.349859 252.71 -0.201467 251.651 1.0321L236.474 18.8214C235.424 20.0457 235.582 21.8914 236.808 22.9395L252.738 36.5087H158.053C157.272 36.5087 156.511 36.8241 155.972 37.3806C155.433 37.9185 155.127 38.679 155.127 39.4396V62.8124C155.127 63.5915 155.433 64.3335 155.981 64.8807C156.52 65.4279 157.272 65.734 158.053 65.734H252.487C249.998 67.858 247.592 69.917 245.474 71.7349C243.208 73.6734 241.239 75.3707 239.678 76.7341C238.898 77.4112 238.22 78.0048 237.663 78.5056C237.087 79.025 236.632 79.4331 236.13 79.9154C235.564 80.4626 235.257 81.1861 235.229 81.9652C235.22 82.7443 235.508 83.477 236.056 84.0427L252.329 100.849C253.425 101.971 255.227 102.036 256.397 100.969L257.159 100.274L257.14 100.292C258.859 98.7713 262.62 95.5066 267.153 91.6389C273.98 85.7957 282.655 78.4314 289.612 72.5325L289.622 72.5418Z" fill="#0000BF"/>
</svg>
