<svg width="353" height="300" viewBox="0 0 353 300" fill="none" xmlns="http://www.w3.org/2000/svg">
<path d="M321.654 299.992C321.654 299.992 436.915 -20.641 225.394 1.06503C134.797 10.3589 151.709 66.7578 111.702 119.525C85.7684 153.728 35.8822 125.746 17.195 155.635C-1.49988 185.524 20.4702 270.739 28.1762 300H321.654V299.992Z" fill="#E5F0F8"/>
<path d="M127.252 107.289L164.252 91.0688L180.176 114.422L132.395 131.761L127.252 107.289Z" fill="#E89780"/>
<path d="M267.46 47.7793V70.6347C267.46 73.2703 267.888 75.883 268.738 78.3808C271.761 87.2609 279.206 108.975 280.852 112.162C282.933 116.184 285.764 122.145 284.127 129.899C282.918 135.623 275.617 165.167 271.883 180.222C270.452 185.992 270.827 192.052 272.947 197.599L299.937 298.659H198.718L190.247 230.936C189.642 228.569 188.089 226.569 185.954 225.397L169.547 216.417C167.879 215.505 166.555 214.072 165.767 212.348L137.055 149.138L197.953 98.6617L242.942 121.915V60.8811C242.942 52.2538 249.928 45.2586 258.545 45.2586H264.919C266.32 45.2586 267.452 46.3926 267.452 47.7947L267.46 47.7793Z" fill="#FDAE97"/>
<path d="M164.711 56.9199C170.626 51.5873 171.108 42.3854 165.782 36.4704L149.176 18.0054C143.85 12.0827 134.66 11.6 128.752 16.9327C122.837 22.2653 122.355 31.4672 127.681 37.3822L144.286 55.8473C149.613 61.7699 158.803 62.2526 164.711 56.9199Z" fill="#FDAE97"/>
<path d="M174.896 204.342H215.553C231.419 204.342 244.281 191.464 244.281 175.579V60.2145C244.281 44.3294 231.419 31.4519 215.553 31.4519H174.896C159.031 31.4519 146.169 44.3294 146.169 60.2145V175.579C146.169 191.464 159.031 204.342 174.896 204.342Z" fill="#442D2D"/>
<path d="M235.993 189.516V39.7497H154.449V189.516H235.993Z" fill="#93ACBF"/>
<path d="M234.616 188.137V41.1365H155.834V188.137H234.616Z" fill="white"/>
<path d="M185.541 199.906H204.917C206.421 199.906 207.641 198.684 207.641 197.178V196.718C207.641 195.212 206.421 193.991 204.917 193.991H185.541C184.036 193.991 182.816 195.212 182.816 196.718V197.178C182.816 198.684 184.036 199.906 185.541 199.906Z" fill="#93ACBF"/>
<path d="M189.459 36.4551H205.085C205.628 36.4551 206.072 36.0107 206.072 35.4667C206.072 34.9227 205.628 34.4784 205.085 34.4784H189.459C188.915 34.4784 188.472 34.9227 188.472 35.4667C188.472 36.0107 188.915 36.4551 189.459 36.4551Z" fill="#586773"/>
<path d="M185.372 36.4551C185.916 36.4551 186.36 36.0107 186.36 35.4667C186.36 34.9227 185.916 34.4784 185.372 34.4784C184.829 34.4784 184.385 34.9227 184.385 35.4667C184.385 36.0107 184.829 36.4551 185.372 36.4551Z" fill="#586773"/>
<path d="M213.549 50.6066C214.513 51.5949 216.028 51.6945 217.115 50.9283L219.747 53.6177L220.382 52.9971L217.75 50.3077C218.546 49.2351 218.477 47.718 217.513 46.7297C216.441 45.634 214.689 45.611 213.594 46.676C212.5 47.7487 212.477 49.5109 213.549 50.6066ZM217.084 47.1511C217.918 48.0015 217.903 49.3807 217.046 50.2158C216.189 51.0509 214.819 51.0356 213.985 50.1775C213.151 49.3194 213.166 47.9479 214.023 47.1128C214.872 46.2776 216.25 46.2929 217.084 47.1511Z" fill="#BBDBF3"/>
<path d="M172.011 45.7949H160.976V47.3656H172.011V45.7949Z" fill="#BBDBF3"/>
<path d="M172.011 48.5685H160.976V50.1392H172.011V48.5685Z" fill="#BBDBF3"/>
<path d="M172.011 51.3497H160.976V52.9205H172.011V51.3497Z" fill="#BBDBF3"/>
<path d="M231.019 45.8945H226.772V50.1469H231.019V45.8945Z" fill="#BBDBF3"/>
<path d="M188.12 178.575H181.814V184.888H188.12V178.575Z" fill="#E5F0F8"/>
<path d="M167.588 178.575H161.282V184.888H167.588V178.575Z" fill="#E5F0F8"/>
<path d="M222.869 184.881H229.175V178.567H222.869V184.881Z" fill="#E5F0F8"/>
<path d="M202.338 184.881H208.643V178.567H202.338V184.881Z" fill="#E5F0F8"/>
<path d="M188.9 120.038H160.173V122.674H188.9V120.038Z" fill="#E5F0F8"/>
<path d="M196.514 125.57H160.173V128.206H196.514V125.57Z" fill="#E5F0F8"/>
<path d="M225.808 128.374C228.153 128.374 230.055 126.471 230.055 124.122C230.055 121.774 228.153 119.87 225.808 119.87C223.462 119.87 221.561 121.774 221.561 124.122C221.561 126.471 223.462 128.374 225.808 128.374Z" fill="#6ADB6A"/>
<path d="M188.9 131.47H160.173V134.105H188.9V131.47Z" fill="#E5F0F8"/>
<path d="M196.514 136.994H160.173V139.63H196.514V136.994Z" fill="#E5F0F8"/>
<path d="M207.932 139.806C210.277 139.806 212.179 137.902 212.179 135.554C212.179 133.205 210.277 131.301 207.932 131.301C205.586 131.301 203.685 133.205 203.685 135.554C203.685 137.902 205.586 139.806 207.932 139.806Z" fill="#F74242"/>
<path d="M230.17 158.999H160.288V172.851H230.17V158.999Z" fill="#E5F0F8"/>
<path d="M227.223 165.925L219.426 161.42V170.438L227.223 165.925Z" fill="white"/>
<path d="M230.17 143.491H160.288V157.344H230.17V143.491Z" fill="#E5F0F8"/>
<path d="M227.223 150.418L219.426 145.905V154.923L227.223 150.418Z" fill="white"/>
<path d="M122.485 149.697C122.485 151.176 122.737 152.678 123.273 154.141L131.3 176.253C133.757 183.034 141.31 186.559 148.082 184.091C154.854 181.624 158.375 174.07 155.911 167.289L147.883 145.177C145.419 138.396 137.874 134.872 131.101 137.339C129.624 137.875 128.293 138.664 127.153 139.622C124.207 142.112 122.485 145.828 122.485 149.69V149.697Z" fill="#FDAE97"/>
<path d="M127.16 139.63L133.16 156.172C135.67 163.083 143.376 166.691 150.286 164.171C151.671 163.665 152.926 162.952 154.02 162.079L147.891 145.192C145.427 138.411 137.881 134.887 131.109 137.354C129.632 137.89 128.301 138.68 127.16 139.637V139.63Z" fill="#E89780"/>
<path d="M121.612 117.962C121.612 119.471 121.873 121.011 122.416 122.505L131.645 147.935C134.155 154.846 141.861 158.455 148.771 155.942C155.673 153.421 159.278 145.706 156.768 138.795L147.539 113.365C146.888 111.557 145.871 109.978 144.623 108.676C141.065 104.983 135.524 103.504 130.413 105.358C126.709 106.707 123.946 109.549 122.584 112.959C121.957 114.529 121.62 116.23 121.62 117.954L121.612 117.962Z" fill="#FDAE97"/>
<path d="M245.13 212.617C245.13 212.617 221.316 213.712 217.941 181.318C214.566 148.923 239.773 123.095 248.704 118.123L268.156 126.865L262.203 206.947L245.13 212.609V212.617Z" fill="#FDAE97"/>
<path d="M122.485 114.514C122.385 116.131 123.617 117.502 125.224 117.594L134.109 118.046C139.305 118.314 143.843 114.537 144.524 109.373L144.616 108.683C141.057 104.99 135.517 103.512 130.405 105.366C126.701 106.714 123.939 109.557 122.577 112.966L122.485 114.514Z" fill="#E89780"/>
<path d="M146.728 65.0645L130.527 73.3393C126.824 75.2318 124.398 78.9325 124.138 83.0852L122.492 109.059C122.393 110.668 123.617 112.047 125.224 112.131L134.109 112.583C139.305 112.852 143.843 109.074 144.524 103.902L146.728 87.2685V65.0645Z" fill="#FDAE97"/>
<path d="M333.898 291.978L334.686 291.878C335.375 296.836 334.771 298.728 334.771 298.728C334.771 298.728 333.707 297.058 333.102 292.085L333.891 291.986L333.898 291.978Z" fill="#BBDBF3"/>
<path d="M276.582 292.016L275.793 291.878C274.89 296.805 275.411 298.713 275.411 298.713C275.411 298.713 276.543 297.089 277.362 292.147L276.574 292.009L276.582 292.016Z" fill="#586773"/>
<path d="M331.893 293.196L335.926 292.668L336.163 282.125L317.392 137.714L311.783 138.442L331.893 293.196Z" fill="#93ACBF"/>
<path d="M327.96 279.167C327.983 279.275 328.006 279.374 328.044 279.474C328.281 279.382 328.557 279.505 328.656 279.75C328.763 280.003 328.656 280.278 328.411 280.386C328.457 280.478 328.511 280.57 328.572 280.654C328.786 280.508 329.077 280.554 329.238 280.761C329.399 280.968 329.368 281.259 329.169 281.435C329.238 281.512 329.314 281.581 329.391 281.658C329.552 281.458 329.85 281.428 330.057 281.589C330.263 281.749 330.309 282.048 330.156 282.255C330.248 282.309 330.34 282.362 330.432 282.416C330.546 282.179 330.822 282.071 331.059 282.171C331.312 282.27 331.426 282.546 331.335 282.791C331.434 282.822 331.534 282.853 331.641 282.876C331.694 282.615 331.932 282.439 332.184 282.477C332.444 282.516 332.628 282.746 332.613 282.998C332.712 283.006 332.819 282.998 332.926 282.998C332.903 282.738 333.087 282.508 333.347 282.477C333.607 282.447 333.852 282.615 333.891 282.876C333.99 282.853 334.097 282.83 334.197 282.791C334.113 282.546 334.235 282.278 334.472 282.179C334.709 282.071 334.985 282.179 335.1 282.424C335.191 282.378 335.283 282.324 335.375 282.27C335.23 282.056 335.268 281.757 335.482 281.596C335.689 281.435 335.98 281.474 336.156 281.673C336.232 281.596 336.301 281.527 336.378 281.451C336.179 281.282 336.14 280.983 336.309 280.776C336.469 280.57 336.768 280.524 336.982 280.677C337.036 280.585 337.089 280.493 337.143 280.401C336.906 280.294 336.799 280.018 336.898 279.773C336.997 279.535 337.273 279.405 337.51 279.497C337.541 279.397 337.571 279.298 337.594 279.198C337.334 279.152 337.158 278.915 337.189 278.646C337.227 278.386 337.464 278.202 337.717 278.225C337.717 278.118 337.717 278.01 337.717 277.911C337.457 277.926 337.227 277.742 337.196 277.482C337.166 277.221 337.334 276.976 337.594 276.938C337.571 276.838 337.548 276.731 337.51 276.631C337.273 276.723 336.997 276.601 336.89 276.356C336.791 276.11 336.898 275.835 337.135 275.727C337.089 275.635 337.036 275.543 336.974 275.451C336.76 275.597 336.469 275.551 336.309 275.352C336.148 275.145 336.179 274.846 336.385 274.678C336.309 274.601 336.232 274.524 336.156 274.448C335.995 274.647 335.697 274.678 335.49 274.517C335.283 274.363 335.237 274.065 335.39 273.85C335.299 273.796 335.207 273.743 335.115 273.689C335 273.927 334.725 274.026 334.487 273.927C334.243 273.827 334.128 273.559 334.212 273.314C334.113 273.283 334.013 273.252 333.906 273.229C333.852 273.482 333.615 273.659 333.363 273.628C333.102 273.59 332.919 273.36 332.934 273.099C332.827 273.099 332.72 273.099 332.62 273.099C332.643 273.36 332.46 273.597 332.192 273.628C331.932 273.659 331.694 273.482 331.648 273.222C331.549 273.245 331.442 273.268 331.35 273.306C331.434 273.551 331.312 273.819 331.074 273.927C330.837 274.026 330.562 273.911 330.447 273.682C330.355 273.728 330.263 273.781 330.172 273.835C330.317 274.049 330.271 274.34 330.064 274.501C329.858 274.662 329.567 274.632 329.391 274.432C329.314 274.509 329.246 274.578 329.169 274.655C329.368 274.823 329.406 275.122 329.238 275.321C329.077 275.528 328.779 275.574 328.572 275.421C328.519 275.513 328.465 275.605 328.411 275.697C328.649 275.812 328.748 276.087 328.649 276.325C328.549 276.562 328.274 276.685 328.029 276.593C327.998 276.693 327.968 276.792 327.945 276.9C328.205 276.945 328.381 277.183 328.343 277.444C328.312 277.704 328.075 277.896 327.822 277.873C327.822 277.98 327.822 278.087 327.822 278.187C328.082 278.164 328.312 278.355 328.343 278.616C328.373 278.876 328.205 279.114 327.945 279.16L327.96 279.167Z" fill="#F9ECB8"/>
<path d="M331.426 278.225C331.526 278.976 332.215 279.505 332.965 279.405C333.715 279.305 334.243 278.616 334.143 277.865C334.044 277.114 333.355 276.585 332.605 276.685C331.855 276.785 331.327 277.474 331.426 278.225Z" fill="#F9E181"/>
<path d="M325.619 245.265L324.397 245.424L324.832 248.767L326.053 248.608L325.619 245.265Z" fill="#586773"/>
<path d="M278.533 293.319L274.523 292.622L274.745 282.079L299.723 138.618L305.293 139.591L278.533 293.319Z" fill="#93ACBF"/>
<path d="M283.063 279.482C283.033 279.589 283.01 279.688 282.971 279.788C282.734 279.688 282.459 279.796 282.344 280.033C282.229 280.278 282.329 280.562 282.558 280.677C282.505 280.769 282.451 280.853 282.382 280.937C282.175 280.776 281.877 280.815 281.716 281.014C281.548 281.213 281.571 281.504 281.755 281.688C281.686 281.757 281.602 281.834 281.525 281.903C281.372 281.696 281.081 281.65 280.859 281.803C280.645 281.956 280.584 282.247 280.729 282.47C280.637 282.523 280.546 282.569 280.446 282.615C280.339 282.378 280.071 282.255 279.826 282.339C279.574 282.431 279.444 282.7 279.528 282.945C279.428 282.968 279.321 282.991 279.222 283.014C279.183 282.753 278.954 282.562 278.694 282.592C278.433 282.615 278.234 282.837 278.25 283.098C278.15 283.098 278.043 283.098 277.944 283.083C277.982 282.822 277.806 282.585 277.546 282.539C277.286 282.493 277.041 282.654 276.987 282.914C276.888 282.883 276.788 282.86 276.689 282.822C276.781 282.585 276.673 282.309 276.436 282.194C276.199 282.079 275.923 282.179 275.793 282.408C275.702 282.355 275.61 282.301 275.526 282.24C275.686 282.033 275.656 281.734 275.449 281.566C275.25 281.397 274.959 281.42 274.776 281.612C274.707 281.535 274.63 281.458 274.561 281.382C274.768 281.221 274.814 280.93 274.661 280.715C274.508 280.501 274.209 280.439 273.995 280.585C273.949 280.493 273.896 280.401 273.85 280.301C274.095 280.202 274.209 279.934 274.125 279.681C274.033 279.436 273.765 279.298 273.521 279.382C273.49 279.282 273.467 279.183 273.444 279.075C273.704 279.045 273.896 278.807 273.873 278.539C273.842 278.279 273.62 278.079 273.36 278.095C273.36 277.987 273.36 277.88 273.375 277.781C273.635 277.811 273.873 277.635 273.919 277.375C273.964 277.114 273.804 276.869 273.544 276.815C273.574 276.716 273.597 276.616 273.635 276.516C273.873 276.616 274.148 276.509 274.263 276.264C274.37 276.026 274.278 275.743 274.041 275.62C274.095 275.528 274.148 275.436 274.217 275.352C274.424 275.513 274.722 275.474 274.883 275.275C275.051 275.068 275.036 274.777 274.837 274.601C274.913 274.524 274.998 274.455 275.074 274.386C275.227 274.593 275.518 274.639 275.74 274.486C275.954 274.34 276.015 274.049 275.87 273.827C275.962 273.774 276.054 273.728 276.145 273.682C276.253 273.919 276.52 274.042 276.765 273.95C277.01 273.858 277.14 273.597 277.064 273.344C277.163 273.314 277.27 273.291 277.37 273.275C277.408 273.528 277.638 273.72 277.898 273.697C278.158 273.666 278.357 273.452 278.349 273.191C278.456 273.191 278.564 273.191 278.663 273.206C278.632 273.467 278.801 273.705 279.061 273.75C279.321 273.796 279.566 273.628 279.62 273.375C279.719 273.406 279.819 273.429 279.918 273.467C279.826 273.712 279.933 273.98 280.171 274.095C280.408 274.203 280.683 274.103 280.813 273.881C280.905 273.927 280.997 273.988 281.081 274.049C280.921 274.256 280.959 274.555 281.158 274.716C281.357 274.884 281.647 274.861 281.831 274.678C281.9 274.754 281.977 274.831 282.045 274.907C281.839 275.068 281.793 275.359 281.946 275.574C282.099 275.789 282.39 275.85 282.604 275.704C282.658 275.796 282.704 275.888 282.749 275.988C282.512 276.095 282.39 276.363 282.482 276.608C282.573 276.854 282.841 276.984 283.086 276.907C283.117 277.007 283.132 277.114 283.163 277.214C282.902 277.244 282.711 277.482 282.742 277.742C282.765 278.003 282.987 278.202 283.247 278.187C283.247 278.294 283.247 278.401 283.232 278.501C282.971 278.47 282.734 278.646 282.688 278.907C282.642 279.167 282.811 279.413 283.063 279.466V279.482Z" fill="#F9ECB8"/>
<path d="M279.556 278.745C279.856 278.05 279.537 277.242 278.843 276.941C278.148 276.641 277.342 276.961 277.042 277.656C276.741 278.351 277.061 279.158 277.755 279.459C278.449 279.76 279.256 279.44 279.556 278.745Z" fill="#F9E181"/>
<path d="M335.016 239.682L333.377 239.896L334.926 251.817L336.565 251.603L335.016 239.682Z" fill="#93ACBF"/>
<path d="M333.924 244.192L331.223 244.543L331.657 247.887L334.358 247.535L333.924 244.192Z" fill="#586773"/>
<path d="M328.059 241.701C327.73 241.747 327.424 241.509 327.378 241.18L326.644 235.533C326.598 235.204 326.835 234.897 327.164 234.851C327.493 234.805 327.799 235.043 327.845 235.372L328.58 241.019C328.626 241.349 328.388 241.655 328.059 241.701Z" fill="#586773"/>
<path d="M313.26 124.268H303.686L304.207 116.836H312.739L313.26 124.268Z" fill="#322A28"/>
<path d="M312.594 118.529H304.36C303.962 118.529 303.648 118.199 303.663 117.809L304.589 95.3671C304.635 94.1719 305.623 93.2218 306.824 93.2218H310.13C311.324 93.2218 312.311 94.1642 312.364 95.3671L313.29 117.809C313.306 118.199 312.992 118.529 312.594 118.529Z" fill="#586773"/>
<path d="M308.477 122.889C301.735 122.659 298.628 125.118 298.628 125.118V141.629C298.628 141.813 298.659 141.99 298.72 142.158C299.118 143.254 300.694 147.682 301.368 150.479C302.125 153.628 302.217 156.892 302.217 158.302C302.217 158.792 302.477 159.259 302.906 159.482C304.857 160.508 307.031 160.669 308.469 160.669C309.908 160.669 312.081 160.508 314.033 159.482C314.469 159.252 314.721 158.792 314.721 158.302C314.721 156.892 314.821 153.628 315.571 150.479C316.244 147.682 317.82 143.254 318.218 142.158C318.28 141.99 318.31 141.813 318.31 141.629V125.118C318.31 125.118 315.203 122.659 308.462 122.889H308.477Z" fill="#586773"/>
<path d="M301.284 136.343C301.016 135.117 301.651 133.906 302.753 133.416C302.914 133.347 303.082 133.286 303.258 133.247C303.434 133.209 303.61 133.186 303.786 133.186C304.995 133.171 306.082 133.998 306.35 135.224C306.617 136.45 305.982 137.661 304.88 138.151C304.727 138.22 304.551 138.281 304.375 138.32C304.199 138.358 304.023 138.381 303.847 138.381C302.638 138.404 301.551 137.569 301.284 136.343Z" fill="#F9ECB8"/>
<path d="M303.847 138.381L302.753 133.416C302.914 133.347 303.082 133.286 303.258 133.247C303.434 133.209 303.61 133.186 303.786 133.186L304.88 138.151C304.727 138.22 304.551 138.281 304.375 138.32C304.199 138.358 304.023 138.381 303.847 138.381Z" fill="#F9E181"/>
<path d="M315.67 136.343C315.938 135.117 315.303 133.906 314.201 133.416C314.04 133.347 313.872 133.286 313.696 133.247C313.52 133.209 313.344 133.186 313.168 133.186C311.959 133.171 310.872 133.998 310.604 135.224C310.336 136.45 310.972 137.661 312.074 138.151C312.227 138.22 312.403 138.281 312.579 138.32C312.755 138.358 312.931 138.381 313.107 138.381C314.316 138.404 315.402 137.569 315.67 136.343Z" fill="#F9ECB8"/>
<path d="M313.099 138.381L314.193 133.416C314.033 133.347 313.864 133.286 313.688 133.247C313.512 133.209 313.336 133.186 313.16 133.186L312.066 138.151C312.219 138.22 312.395 138.281 312.571 138.319C312.747 138.358 312.923 138.381 313.099 138.381Z" fill="#F9E181"/>
<path d="M98.127 171.043L109.437 170.852L108.565 153.275L108.55 152.992L99.6958 149.268L99.4127 153.291L98.127 171.043Z" fill="#FDAE97"/>
<path d="M44.9121 175.786C44.6825 176.23 46.741 178.475 48.6847 179.556C50.33 180.475 54.3475 182.191 55.5337 182.689L58.5946 177.533C57.9977 177.066 57.3626 176.529 56.8652 176.001C55.6484 174.713 51.9294 171.58 51.4779 172.124C51.0264 172.66 53.1461 175.319 52.7711 175.395C52.3962 175.464 50.3912 173.878 49.5954 173.135C48.7919 172.392 47.3303 170.522 46.7028 170.637C46.0676 170.752 46.0064 171.695 46.0064 171.695C46.0064 171.695 45.5319 170.913 45.0957 171.304C44.6596 171.695 45.0957 173.089 45.0957 173.089C45.0957 173.089 44.8815 172.629 44.5142 173.173C44.1468 173.725 45.509 175.579 45.509 175.579C45.509 175.579 45.1264 175.326 44.9044 175.786H44.9121Z" fill="#FDAE97"/>
<path d="M120.243 207.851L124.995 247.263C125.148 248.259 125.14 249.294 124.933 250.344C123.977 255.262 119.217 258.48 114.304 257.523C109.391 256.565 107.509 252.765 106.621 247.118C104.93 236.269 99.0071 203.721 99.0071 203.721L120.235 207.851H120.243Z" fill="#088CFC"/>
<path d="M89.4109 205.866L106.881 207.039L106.79 226.416L104.716 229.488L102.795 248.168L85.1179 246.75L89.4109 205.866Z" fill="#088CFC"/>
<path d="M116.571 166.326L116.634 166.299C119.527 165.084 122.87 166.447 124.087 169.351L133.954 192.899C135.168 195.796 133.807 199.143 130.907 200.361L130.843 200.388C127.943 201.606 124.607 200.24 123.391 197.336L113.523 173.788C112.309 170.891 113.67 167.544 116.571 166.326Z" fill="#1D3BD0"/>
<path d="M82.9676 196.205C81.2152 198.963 77.7716 199.959 75.3458 198.404L63.0177 190.091L58.6558 187.141L54.1026 184.076L58.3804 176.031L58.5487 175.702L63.5687 178.452L81.7279 188.367C84.1537 189.922 84.7277 193.454 82.9752 196.212L82.9676 196.205Z" fill="#1D3BD0"/>
<path d="M103.637 166.071C99.4892 166.163 97.7215 164.094 97.1858 163.29L98.7392 162.585L109.001 162.071L110.233 162.47C109.713 163.443 107.876 165.986 103.637 166.078V166.071Z" fill="#FDAE97"/>
<path d="M88.9135 191.922L88.6687 208.908H120.61L120.235 166.078L109.277 162.11C109.154 162.332 109.024 162.569 108.856 162.814L108.817 162.868C108.221 163.627 107.088 164.347 103.905 164.416C101.257 164.477 99.956 164.109 99.2137 163.627H99.206C98.8081 163.351 98.5709 163.029 98.3872 162.745L88.0411 165.029L88.7375 186.651L88.9212 191.914L88.9135 191.922Z" fill="#1D3BD0"/>
<path d="M108.932 161.083L102.55 157.083L108.81 156.854L108.932 161.083Z" fill="#EA9D85"/>
<path d="M128.316 287.266H111.886L106.935 248.972C106.415 243.984 110.027 239.517 115.008 238.989C119.99 238.468 124.444 242.084 124.972 247.072C125.018 247.509 125.025 247.93 125.01 248.359L128.324 287.274L128.316 287.266Z" fill="#088CFC"/>
<path d="M75.56 198.473C78.3914 199.921 81.8886 198.779 83.3349 195.944L94.936 173.158C96.3823 170.323 95.2421 166.822 92.4107 165.374C89.5793 163.925 86.0821 165.067 84.6358 167.902L73.0347 190.688C71.5884 193.523 72.7286 197.025 75.56 198.473Z" fill="#1D3BD0"/>
<path d="M99.206 163.627L103.897 171.043L108.81 162.868C108.213 163.627 107.08 164.347 103.897 164.416C101.249 164.477 99.9483 164.109 99.206 163.627Z" fill="#D6EAFF"/>
<path d="M122.829 231.71C123.319 231.817 124.941 229.235 125.469 227.074C125.921 225.243 126.518 220.907 126.678 219.635L120.901 218.041C120.61 218.738 120.258 219.497 119.883 220.11C118.965 221.627 116.929 226.04 117.572 226.331C118.207 226.622 120.212 223.879 120.38 224.217C120.549 224.561 119.546 226.914 119.041 227.879C118.536 228.852 117.12 230.76 117.396 231.334C117.679 231.917 118.605 231.725 118.605 231.725C118.605 231.725 117.977 232.392 118.467 232.706C118.957 233.02 120.189 232.231 120.189 232.231C120.189 232.231 119.799 232.56 120.426 232.775C121.054 232.989 122.485 231.181 122.485 231.181C122.485 231.181 122.347 231.618 122.844 231.718L122.829 231.71Z" fill="#FDAE97"/>
<path d="M102.864 247.478L98.6474 287.274H82.5084L85.095 247.263C85.072 246.842 85.1945 246.367 85.2251 245.938C85.6689 240.942 89.6329 237.211 94.6222 237.648C99.604 238.092 103.3 242.49 102.864 247.486V247.478Z" fill="#088CFC"/>
<path d="M118.758 218.309L122.508 193.378C123.128 190.558 126.234 188.819 129.433 189.508C132.624 190.206 134.736 193.086 134.124 195.914L130.206 209.835L128.79 214.9L127.321 220.133L118.75 218.317L118.758 218.309Z" fill="#1D3BD0"/>
<path d="M107.968 143.491C107.968 143.491 108.978 147.161 109.69 149.766L110.279 151.919C110.746 153.62 110.96 156.271 109.208 157.382C107.463 158.493 104.624 158.417 102.244 156.93C99.8641 155.436 93.3443 147.575 98.0735 142.702C102.81 137.829 107.585 142.656 107.96 143.499L107.968 143.491Z" fill="#FDAE97"/>
<path d="M99.1142 156.432C99.1142 156.432 102.183 151.705 100.515 149.015C98.8464 146.326 100.515 145.652 101.685 145.851C102.856 146.058 104.899 145.997 105.734 145.675C105.734 145.675 103.247 145.736 102.19 145.116C102.19 145.116 107.096 145.522 108.167 144.196L108.427 145.154C108.427 145.154 110.195 140.986 107.54 140.013C104.884 139.04 103.775 140.143 103.775 140.143C103.775 140.143 104.624 138.442 103.407 138.113C102.19 137.791 101.073 140.258 101.073 140.258C101.073 140.258 99.3744 138.143 97.6067 140.227C95.8466 142.311 96.5812 144.227 96.5812 144.227C96.5812 144.227 94.5227 145.928 95.5252 148.609C96.52 151.283 98.8923 153.812 99.1218 156.424L99.1142 156.432Z" fill="#322A28"/>
<path d="M100.561 153.007C101.509 153.865 101.884 154.547 101.211 155.291C100.538 156.034 99.1371 156.241 98.1882 155.39C97.2393 154.532 97.0174 153.237 97.6908 152.486C98.3643 151.743 99.6116 152.149 100.561 153.007Z" fill="#FDAE97"/>
<path d="M98.7622 162.224L103.897 164.423L101.196 167.703L98.127 162.853L98.7622 162.224Z" fill="white"/>
<path d="M108.986 161.742L103.897 164.423L106.323 167.565L109.437 162.179L108.986 161.742Z" fill="white"/>
<path d="M96.3134 293.487L96.742 287.266H84.6511L84.1767 293.487H96.3134Z" fill="#FDAE97"/>
<path d="M84.4369 290.086L96.742 287.266H84.6511L84.4369 290.086Z" fill="#EA9D85"/>
<path d="M114.266 293.487L113.799 287.258L126.188 287.266L126.395 293.487H114.266Z" fill="#FDAE97"/>
<path d="M114.059 290.737L126.188 287.266L113.799 287.258L114.059 290.737Z" fill="#EA9D85"/>
<path d="M96.9639 144.058C96.9639 144.058 95.5252 143.292 94.0866 144.503C94.0866 144.503 96.5506 143.798 96.9639 144.74C97.3771 145.683 96.9639 144.066 96.9639 144.066V144.058Z" fill="#322A28"/>
<path d="M78.2154 298.721H96.0762L96.1068 297.993L96.3287 293.173H84.1767C82.6691 293.173 81.2841 294.054 80.2127 294.982C79.3327 295.771 78.6746 296.805 78.3685 297.993C78.2996 298.23 78.246 298.475 78.2154 298.721Z" fill="#322A28"/>
<path d="M78.2154 298.721H96.0762L96.1068 297.993H78.3685C78.2996 298.23 78.246 298.475 78.2154 298.721Z" fill="#FFF1F0"/>
<path d="M132.265 298.721H114.404L114.373 297.993L114.151 293.173H126.303C127.811 293.173 129.196 294.054 130.267 294.982C131.147 295.771 131.805 296.805 132.111 297.993C132.18 298.23 132.234 298.475 132.265 298.721Z" fill="#322A28"/>
<path d="M132.265 298.721H114.404L114.373 297.993H132.111C132.18 298.23 132.234 298.475 132.265 298.721Z" fill="#FFF1F0"/>
<path d="M71.0069 78.0973H75.2157L77.9017 84.5869L72.9965 84.9393L71.0069 78.0973Z" fill="#586773"/>
<path d="M32.9743 78.0973H37.1908L31.8111 88.4178L29.6149 82.5488L32.9743 78.0973Z" fill="#586773"/>
<path d="M86.7326 106.576C86.7326 94.6546 80.4806 84.1655 71.0069 78.0896V109.503L51.9982 120.544L32.982 109.503V78.0896C23.5159 84.1732 17.2639 94.6546 17.2639 106.576C17.2639 121.839 27.5181 134.749 41.6445 139.063V253.148C33.6324 257.009 28.0997 265.215 28.0997 274.716C28.0997 287.925 38.7978 298.644 51.9982 298.644C65.1987 298.644 75.8968 287.925 75.8968 274.716C75.8968 265.215 70.3641 257.009 62.352 253.148V139.063C76.4783 134.749 86.7326 121.839 86.7326 106.576ZM69.5146 274.724L60.7526 289.909H43.2362L34.4818 274.724L43.2362 259.538H60.7526L69.5146 274.724Z" fill="#586773"/>
<path d="M90.9414 106.576C90.9414 94.6546 84.6894 84.1655 75.2157 78.0896V109.503L56.2071 120.544L37.1908 109.503V78.0896C27.7247 84.1732 21.4727 94.6546 21.4727 106.576C21.4727 121.839 31.727 134.749 45.8533 139.063V253.148C37.8412 257.009 32.3085 265.215 32.3085 274.716C32.3085 287.925 43.0066 298.644 56.2071 298.644C69.4075 298.644 80.1056 287.925 80.1056 274.716C80.1056 265.215 74.5729 257.009 66.5608 253.148V139.063C80.6872 134.749 90.9414 121.839 90.9414 106.576ZM73.7235 274.724L64.9614 289.909H47.445L38.6907 274.724L47.445 259.538H64.9614L73.7235 274.724Z" fill="#93ACBF"/>
<path d="M56.2071 244.62C54.2786 244.62 52.7023 243.042 52.7023 241.111V147.008C52.7023 145.077 54.2786 143.499 56.2071 143.499C58.1355 143.499 59.7119 145.077 59.7119 147.008V241.111C59.7119 243.042 58.1355 244.62 56.2071 244.62Z" fill="#586773"/>
<path d="M306.931 5.02618H222.785C221.79 5.02618 220.979 5.93792 220.979 7.07188V81.5068H308.737V7.07188C308.737 5.94559 307.926 5.02618 306.931 5.02618Z" fill="#0775EF"/>
<path d="M307.413 10.6576H222.303V80.3116H307.413V10.6576Z" fill="white"/>
<path d="M305.01 40.8683H224.698V78.0054H305.01V40.8683Z" fill="#BBDBF3"/>
<path d="M256.456 43.2359H256.991V46.676H258.797V47.1741H256.456V43.2282V43.2359Z" fill="white"/>
<path d="M261.147 47.2813C260.848 47.2813 260.573 47.2277 260.32 47.1204C260.068 47.0132 259.853 46.8676 259.67 46.6837C259.494 46.4998 259.348 46.2776 259.249 46.0248C259.149 45.7719 259.096 45.4961 259.096 45.205C259.096 44.9138 259.149 44.638 259.249 44.3851C259.348 44.1323 259.494 43.9101 259.67 43.7262C259.846 43.5423 260.068 43.3968 260.32 43.2895C260.573 43.1822 260.848 43.1286 261.147 43.1286C261.445 43.1286 261.721 43.1822 261.973 43.2895C262.226 43.3968 262.44 43.5423 262.624 43.7262C262.8 43.9101 262.945 44.1323 263.044 44.3851C263.144 44.638 263.197 44.9138 263.197 45.205C263.197 45.4961 263.144 45.7719 263.044 46.0248C262.945 46.2776 262.8 46.4998 262.624 46.6837C262.44 46.8676 262.226 47.0132 261.973 47.1204C261.721 47.2277 261.445 47.2813 261.147 47.2813ZM261.147 46.7756C261.376 46.7756 261.575 46.7373 261.759 46.6531C261.942 46.5688 262.096 46.4539 262.226 46.3159C262.356 46.178 262.455 46.0094 262.524 45.8179C262.593 45.6264 262.631 45.4272 262.631 45.205C262.631 44.9828 262.593 44.7836 262.524 44.592C262.455 44.4005 262.356 44.2319 262.226 44.094C262.096 43.9561 261.942 43.8411 261.759 43.7569C261.575 43.6726 261.376 43.6343 261.147 43.6343C260.917 43.6343 260.718 43.6726 260.534 43.7569C260.351 43.8411 260.198 43.9561 260.068 44.094C259.938 44.2319 259.838 44.4005 259.769 44.592C259.7 44.7836 259.662 44.9828 259.662 45.205C259.662 45.4272 259.7 45.6264 259.769 45.8179C259.838 46.0094 259.938 46.178 260.068 46.3159C260.198 46.4539 260.351 46.5688 260.534 46.6531C260.718 46.7373 260.917 46.7756 261.147 46.7756Z" fill="white"/>
<path d="M267.322 44.9751V46.9212C267.223 46.9825 267.116 47.0361 266.993 47.0745C266.871 47.1204 266.741 47.1587 266.61 47.1894C266.48 47.22 266.343 47.243 266.213 47.2583C266.075 47.2737 265.952 47.2813 265.83 47.2813C265.493 47.2813 265.195 47.2277 264.935 47.1128C264.674 46.9978 264.452 46.8522 264.269 46.6607C264.093 46.4691 263.955 46.2546 263.856 46.0018C263.764 45.7489 263.71 45.4884 263.71 45.205C263.71 44.9138 263.764 44.638 263.863 44.3851C263.963 44.1323 264.108 43.9101 264.284 43.7262C264.46 43.5423 264.682 43.3968 264.935 43.2895C265.187 43.1822 265.463 43.1286 265.761 43.1286C266.121 43.1286 266.419 43.1745 266.649 43.2665C266.878 43.3584 267.07 43.481 267.23 43.6419L266.855 44.048C266.695 43.8948 266.519 43.7875 266.335 43.7186C266.151 43.6573 265.96 43.6266 265.761 43.6266C265.531 43.6266 265.333 43.6649 265.149 43.7492C264.965 43.8335 264.812 43.9484 264.682 44.0863C264.552 44.2242 264.452 44.3928 264.384 44.5844C264.315 44.7759 264.276 44.9751 264.276 45.1973C264.276 45.4195 264.315 45.6264 264.391 45.8179C264.468 46.0094 264.575 46.178 264.713 46.3159C264.85 46.4539 265.011 46.5688 265.195 46.6454C265.378 46.722 265.585 46.768 265.799 46.768C265.991 46.768 266.167 46.7526 266.335 46.7143C266.503 46.676 266.649 46.63 266.764 46.5611V45.4654H265.891V44.9674H267.299L267.322 44.9751Z" fill="white"/>
<path d="M268.294 43.2359H268.83V47.1817H268.294V43.2359Z" fill="white"/>
<path d="M269.84 43.2359H270.544L272.709 46.4768H272.717V43.2359H273.253V47.1817H272.572L270.383 43.9407H270.375V47.1817H269.84V43.2359Z" fill="white"/>
<path d="M249.997 60.8198H251.382C251.635 60.8198 251.841 60.8505 252.002 60.9194C252.163 60.9884 252.293 61.0726 252.392 61.1799C252.484 61.2872 252.553 61.4021 252.591 61.54C252.629 61.6703 252.645 61.8005 252.645 61.9231C252.645 62.0457 252.629 62.176 252.591 62.3062C252.553 62.4365 252.492 62.5591 252.392 62.6663C252.3 62.7736 252.17 62.8579 252.002 62.9268C251.841 62.9958 251.635 63.0264 251.382 63.0264H250.533V64.7657H249.997V60.8198ZM250.533 62.559H251.237C251.344 62.559 251.443 62.5514 251.543 62.5361C251.642 62.5208 251.734 62.4901 251.818 62.4441C251.895 62.3982 251.964 62.3369 252.01 62.2526C252.056 62.1683 252.079 62.0611 252.079 61.9231C252.079 61.7852 252.056 61.678 252.01 61.5937C251.964 61.5094 251.895 61.4481 251.818 61.4021C251.742 61.3562 251.65 61.3255 251.543 61.3102C251.443 61.2948 251.336 61.2872 251.237 61.2872H250.533V62.559Z" fill="white"/>
<path d="M254.122 60.8198H254.604L256.287 64.7657H255.667L255.27 63.7926H253.395L253.004 64.7657H252.385L254.122 60.8198ZM255.078 63.3252L254.344 61.517H254.336L253.594 63.3252H255.086H255.078Z" fill="white"/>
<path d="M256.915 63.9382C257.014 64.0838 257.137 64.191 257.282 64.26C257.435 64.329 257.588 64.3596 257.749 64.3596C257.841 64.3596 257.925 64.3443 258.024 64.3213C258.116 64.2907 258.2 64.2523 258.277 64.1987C258.353 64.1451 258.415 64.0761 258.461 63.9918C258.507 63.9075 258.53 63.8156 258.53 63.7083C258.53 63.5551 258.484 63.4402 258.384 63.3636C258.285 63.287 258.17 63.218 258.024 63.1644C257.879 63.1107 257.726 63.0571 257.558 63.0111C257.389 62.9575 257.236 62.8885 257.091 62.8042C256.945 62.7123 256.831 62.5974 256.731 62.4441C256.632 62.2909 256.586 62.0917 256.586 61.8312C256.586 61.7163 256.609 61.5937 256.662 61.4634C256.716 61.3331 256.792 61.2182 256.9 61.111C257.007 61.0037 257.144 60.9117 257.313 60.8428C257.481 60.7738 257.688 60.7355 257.925 60.7355C258.139 60.7355 258.346 60.7662 258.545 60.8275C258.744 60.8888 258.912 61.0037 259.065 61.1876L258.629 61.586C258.56 61.4787 258.468 61.4021 258.346 61.3332C258.223 61.2719 258.086 61.2412 257.933 61.2412C257.78 61.2412 257.657 61.2642 257.565 61.3025C257.466 61.3408 257.389 61.3944 257.328 61.4557C257.267 61.517 257.229 61.586 257.206 61.6549C257.183 61.7239 257.167 61.7929 257.167 61.8465C257.167 62.0151 257.213 62.1453 257.313 62.2296C257.412 62.3215 257.527 62.3905 257.672 62.4441C257.818 62.4978 257.971 62.5514 258.139 62.5974C258.308 62.6434 258.461 62.7046 258.606 62.7813C258.751 62.8579 258.866 62.9651 258.966 63.103C259.065 63.241 259.111 63.4248 259.111 63.6623C259.111 63.8539 259.073 64.0225 259.004 64.1757C258.935 64.329 258.836 64.4592 258.713 64.5588C258.591 64.6661 258.445 64.7427 258.277 64.7963C258.109 64.85 257.933 64.8806 257.741 64.8806C257.489 64.8806 257.252 64.8346 257.022 64.7504C256.792 64.6584 256.616 64.5205 256.479 64.3366L256.915 63.9612V63.9382Z" fill="white"/>
<path d="M260.006 63.9382C260.106 64.0838 260.228 64.191 260.374 64.26C260.527 64.329 260.68 64.3596 260.841 64.3596C260.932 64.3596 261.017 64.3443 261.116 64.3213C261.208 64.2907 261.292 64.2523 261.369 64.1987C261.445 64.1451 261.506 64.0761 261.552 63.9918C261.598 63.9075 261.621 63.8156 261.621 63.7083C261.621 63.5551 261.575 63.4402 261.476 63.3636C261.376 63.287 261.261 63.218 261.116 63.1644C260.971 63.1107 260.818 63.0571 260.649 63.0111C260.481 62.9575 260.328 62.8885 260.182 62.8042C260.037 62.7123 259.922 62.5974 259.823 62.4441C259.723 62.2909 259.677 62.0917 259.677 61.8312C259.677 61.7163 259.7 61.5937 259.754 61.4634C259.807 61.3331 259.884 61.2182 259.991 61.111C260.098 61.0037 260.236 60.9117 260.404 60.8428C260.573 60.7738 260.779 60.7355 261.017 60.7355C261.231 60.7355 261.437 60.7662 261.636 60.8275C261.835 60.8888 262.004 61.0037 262.157 61.1876L261.721 61.586C261.652 61.4787 261.56 61.4021 261.437 61.3332C261.315 61.2719 261.177 61.2412 261.024 61.2412C260.871 61.2412 260.749 61.2642 260.657 61.3025C260.557 61.3408 260.481 61.3944 260.42 61.4557C260.358 61.517 260.32 61.586 260.297 61.6549C260.274 61.7239 260.259 61.7929 260.259 61.8465C260.259 62.0151 260.305 62.1453 260.404 62.2296C260.504 62.3215 260.619 62.3905 260.764 62.4441C260.909 62.4978 261.062 62.5514 261.231 62.5974C261.399 62.6434 261.552 62.7046 261.698 62.7813C261.843 62.8579 261.958 62.9651 262.057 63.103C262.157 63.241 262.203 63.4248 262.203 63.6623C262.203 63.8539 262.164 64.0225 262.096 64.1757C262.027 64.329 261.927 64.4592 261.805 64.5588C261.682 64.6661 261.537 64.7427 261.369 64.7963C261.2 64.85 261.024 64.8806 260.833 64.8806C260.58 64.8806 260.343 64.8346 260.114 64.7504C259.884 64.6584 259.708 64.5205 259.57 64.3366L260.006 63.9612V63.9382Z" fill="white"/>
<path d="M262.486 60.8198H263.044L263.917 63.9688H263.924L264.85 60.8198H265.463L266.389 63.9688H266.396L267.269 60.8198H267.827L266.679 64.7657H266.113L265.164 61.5477H265.157L264.208 64.7657H263.641L262.493 60.8198H262.486Z" fill="white"/>
<path d="M270.146 64.8653C269.847 64.8653 269.572 64.8117 269.319 64.7044C269.067 64.5971 268.853 64.4515 268.669 64.2677C268.493 64.0838 268.348 63.8616 268.248 63.6087C268.149 63.3559 268.095 63.0801 268.095 62.7889C268.095 62.4978 268.149 62.2219 268.248 61.9691C268.348 61.7163 268.493 61.494 268.669 61.3102C268.845 61.1263 269.067 60.9807 269.319 60.8735C269.572 60.7662 269.847 60.7126 270.146 60.7126C270.444 60.7126 270.72 60.7662 270.972 60.8735C271.225 60.9807 271.439 61.1263 271.623 61.3102C271.799 61.494 271.944 61.7163 272.044 61.9691C272.143 62.2219 272.197 62.4978 272.197 62.7889C272.197 63.0801 272.143 63.3559 272.044 63.6087C271.944 63.8616 271.799 64.0838 271.623 64.2677C271.439 64.4515 271.225 64.5971 270.972 64.7044C270.72 64.8117 270.444 64.8653 270.146 64.8653ZM270.146 64.3673C270.375 64.3673 270.574 64.3289 270.758 64.2447C270.942 64.1604 271.095 64.0454 271.225 63.9075C271.355 63.7696 271.454 63.6011 271.523 63.4095C271.592 63.218 271.63 63.0187 271.63 62.7966C271.63 62.5744 271.592 62.3752 271.523 62.1836C271.454 61.9921 271.355 61.8235 271.225 61.6856C271.095 61.5477 270.942 61.4328 270.758 61.3485C270.574 61.2642 270.375 61.2259 270.146 61.2259C269.916 61.2259 269.717 61.2642 269.534 61.3485C269.35 61.4328 269.197 61.5477 269.067 61.6856C268.937 61.8235 268.837 61.9921 268.768 62.1836C268.7 62.3752 268.661 62.5744 268.661 62.7966C268.661 63.0187 268.7 63.218 268.768 63.4095C268.837 63.6011 268.937 63.7696 269.067 63.9075C269.197 64.0454 269.35 64.1604 269.534 64.2447C269.717 64.3289 269.916 64.3673 270.146 64.3673Z" fill="white"/>
<path d="M274.347 60.8198C274.6 60.8198 274.806 60.8505 274.967 60.9194C275.128 60.9884 275.258 61.0726 275.357 61.1799C275.449 61.2872 275.518 61.4021 275.556 61.54C275.594 61.6703 275.61 61.8005 275.61 61.9231C275.61 62.0457 275.587 62.1683 275.541 62.2909C275.495 62.4058 275.434 62.5131 275.35 62.605C275.265 62.697 275.166 62.7812 275.043 62.8425C274.921 62.9115 274.791 62.9498 274.638 62.9651L275.755 64.7657H275.089L274.087 63.0264H273.49V64.7657H272.954V60.8198H274.347ZM273.498 62.559H274.202C274.309 62.559 274.408 62.5514 274.508 62.5361C274.607 62.5208 274.699 62.4901 274.783 62.4441C274.86 62.3982 274.929 62.3369 274.975 62.2526C275.02 62.1683 275.043 62.0611 275.043 61.9231C275.043 61.7852 275.02 61.678 274.975 61.5937C274.929 61.5094 274.86 61.4481 274.783 61.4021C274.707 61.3562 274.615 61.3255 274.508 61.3102C274.408 61.2948 274.301 61.2872 274.202 61.2872H273.498V62.559Z" fill="white"/>
<path d="M276.268 60.8198H277.645C277.921 60.8198 278.166 60.8505 278.38 60.9118C278.587 60.9731 278.77 61.0573 278.923 61.1646C279.076 61.2718 279.206 61.3945 279.306 61.5324C279.405 61.6703 279.49 61.8082 279.551 61.9538C279.612 62.0993 279.65 62.2449 279.681 62.3905C279.704 62.5361 279.719 62.6663 279.719 62.7889C279.719 63.0418 279.673 63.2869 279.581 63.5244C279.489 63.762 279.352 63.9688 279.168 64.1527C278.984 64.3366 278.763 64.4822 278.495 64.5971C278.227 64.712 277.913 64.7657 277.561 64.7657H276.275V60.8198H276.268ZM276.804 64.26H277.477C277.706 64.26 277.921 64.2294 278.12 64.1681C278.319 64.1068 278.502 64.0148 278.648 63.8922C278.801 63.7697 278.923 63.6164 279.007 63.4325C279.099 63.2486 279.137 63.0341 279.137 62.7889C279.137 62.6663 279.115 62.5131 279.076 62.3445C279.038 62.176 278.961 62.0151 278.847 61.8618C278.732 61.7086 278.579 61.5783 278.38 61.4711C278.181 61.3638 277.921 61.3102 277.599 61.3102H276.796V64.2523L276.804 64.26Z" fill="white"/>
<path d="M301.628 49.5569H228.088V58.1152H301.628V49.5569Z" fill="white"/>
<path d="M233.427 55.6685C234.439 55.2491 234.919 54.0883 234.5 53.0758C234.081 52.0633 232.922 51.5824 231.91 52.0018C230.899 52.4212 230.419 53.5821 230.838 54.5946C231.257 55.6072 232.416 56.088 233.427 55.6685Z" fill="#BBDBF3"/>
<path d="M240.411 55.6685C241.422 55.2491 241.902 54.0883 241.483 53.0758C241.064 52.0632 239.905 51.5824 238.894 52.0018C237.883 52.4212 237.402 53.582 237.821 54.5946C238.24 55.6071 239.399 56.0879 240.411 55.6685Z" fill="#BBDBF3"/>
<path d="M247.394 55.6655C248.405 55.2461 248.885 54.0853 248.466 53.0728C248.047 52.0602 246.888 51.5794 245.877 51.9988C244.865 52.4182 244.385 53.579 244.804 54.5916C245.223 55.6041 246.382 56.0849 247.394 55.6655Z" fill="#BBDBF3"/>
<path d="M254.377 55.6655C255.388 55.2461 255.869 54.0853 255.45 53.0727C255.031 52.0602 253.871 51.5793 252.86 51.9987C251.849 52.4181 251.369 53.579 251.787 54.5915C252.206 55.6041 253.366 56.0849 254.377 55.6655Z" fill="#BBDBF3"/>
<path d="M261.353 55.6654C262.364 55.246 262.844 54.0852 262.425 53.0727C262.007 52.0601 260.847 51.5793 259.836 51.9987C258.825 52.4181 258.344 53.5789 258.763 54.5915C259.182 55.604 260.342 56.0848 261.353 55.6654Z" fill="#BBDBF3"/>
<path d="M301.628 67.0106H228.088V75.5689H301.628V67.0106Z" fill="white"/>
<path d="M232.672 73.2703C233.767 73.2703 234.654 72.3819 234.654 71.2859C234.654 70.1899 233.767 69.3015 232.672 69.3015C231.577 69.3015 230.69 70.1899 230.69 71.2859C230.69 72.3819 231.577 73.2703 232.672 73.2703Z" fill="#BBDBF3"/>
<path d="M239.475 73.2703C240.57 73.2703 241.457 72.3819 241.457 71.2859C241.457 70.1899 240.57 69.3015 239.475 69.3015C238.38 69.3015 237.493 70.1899 237.493 71.2859C237.493 72.3819 238.38 73.2703 239.475 73.2703Z" fill="#BBDBF3"/>
<path d="M246.278 73.2703C247.373 73.2703 248.26 72.3819 248.26 71.2859C248.26 70.1899 247.373 69.3015 246.278 69.3015C245.183 69.3015 244.296 70.1899 244.296 71.2859C244.296 72.3819 245.183 73.2703 246.278 73.2703Z" fill="#BBDBF3"/>
<path d="M253.081 73.2703C254.176 73.2703 255.063 72.3819 255.063 71.2859C255.063 70.1899 254.176 69.3015 253.081 69.3015C251.986 69.3015 251.099 70.1899 251.099 71.2859C251.099 72.3819 251.986 73.2703 253.081 73.2703Z" fill="#BBDBF3"/>
<path d="M259.892 73.2703C260.986 73.2703 261.874 72.3819 261.874 71.2859C261.874 70.1899 260.986 69.3015 259.892 69.3015C258.797 69.3015 257.91 70.1899 257.91 71.2859C257.91 72.3819 258.797 73.2703 259.892 73.2703Z" fill="#BBDBF3"/>
<path d="M266.695 73.2703C267.789 73.2703 268.677 72.3819 268.677 71.2859C268.677 70.1899 267.789 69.3015 266.695 69.3015C265.6 69.3015 264.713 70.1899 264.713 71.2859C264.713 72.3819 265.6 73.2703 266.695 73.2703Z" fill="#BBDBF3"/>
<path d="M273.498 73.2703C274.592 73.2703 275.48 72.3819 275.48 71.2859C275.48 70.1899 274.592 69.3015 273.498 69.3015C272.403 69.3015 271.516 70.1899 271.516 71.2859C271.516 72.3819 272.403 73.2703 273.498 73.2703Z" fill="#BBDBF3"/>
<path d="M277.936 26.0733C277.936 33.3061 272.082 39.1674 264.858 39.1674C260.917 39.1674 257.389 37.4205 254.994 34.6622C252.989 32.3637 251.78 29.3602 251.78 26.0733C251.78 18.8405 257.634 12.9792 264.858 12.9792C272.082 12.9792 277.936 18.8405 277.936 26.0733Z" fill="#BBDBF3"/>
<path d="M264.858 25.5753C259.226 25.2535 256.379 30.3563 254.994 34.6546C257.389 37.4205 260.917 39.1597 264.858 39.1597C268.799 39.1597 272.327 37.4128 274.722 34.6546C273.337 30.3563 270.49 25.2535 264.858 25.5753Z" fill="#E5F0F8"/>
<path d="M269.618 21.4379C269.618 25.3148 267.483 29.3679 264.858 29.3679C262.233 29.3679 260.098 25.3071 260.098 21.4379C260.098 17.5686 262.233 15.339 264.858 15.339C267.483 15.339 269.618 17.5686 269.618 21.4379Z" fill="#E5F0F8"/>
<path d="M61.6556 21.9665C61.6556 28.686 56.2224 34.1259 49.5188 34.1259H9.56553C4.28536 34.1259 0 29.8353 0 24.5486C0 19.2619 4.28536 14.9713 9.56553 14.9713C10.5221 14.9713 11.448 15.1092 12.3204 15.3697C13.9121 12.3049 17.1185 10.2209 20.7993 10.2209C21.2508 10.2209 21.687 10.2515 22.1232 10.3128C24.0745 4.32126 29.6991 0 36.3261 0C42.9531 0 48.2792 4.0914 50.3683 9.83013C56.6662 10.2669 61.6479 15.5306 61.6479 21.9589L61.6556 21.9665Z" fill="#E5F0F8"/>
<path d="M28.7425 23.6291L22.0925 15.316L15.4502 23.6291H19.154V29.5978H25.0387V23.6291H28.7425Z" fill="#BBDBF3"/>
<path d="M32.9131 21.2846L39.563 29.5978L46.2053 21.2846H42.5016V15.316H36.6169V21.2846H32.9131Z" fill="#BBDBF3"/>
<path d="M233.942 170.622C233.697 171.059 235.687 173.38 237.6 174.529C239.215 175.51 243.194 177.364 244.365 177.901L247.609 172.829C247.028 172.338 246.4 171.779 245.926 171.235C244.747 169.902 241.12 166.638 240.653 167.166C240.187 167.687 242.222 170.43 241.84 170.492C241.465 170.553 239.506 168.89 238.725 168.116C237.944 167.343 236.536 165.419 235.909 165.511C235.266 165.611 235.174 166.553 235.174 166.553C235.174 166.553 234.723 165.757 234.279 166.124C233.835 166.5 234.225 167.917 234.225 167.917C234.225 167.917 234.026 167.45 233.636 167.979C233.246 168.523 234.554 170.43 234.554 170.43C234.554 170.43 234.179 170.17 233.935 170.614L233.942 170.622Z" fill="#B37661"/>
<path d="M284.862 140.549C289.07 140.917 292.728 144.495 292.774 149.613C292.828 154.731 293.754 157.359 296.838 156.769C296.838 156.769 288.19 161.795 276.788 157.359C276.788 157.359 278.219 155.666 278.418 151.82C278.617 147.981 284.862 140.549 284.862 140.549Z" fill="#322A28"/>
<path d="M262.723 192.811C265.401 194.259 268.784 193.24 270.222 190.558L281.074 170.377C282.52 167.695 281.502 164.309 278.824 162.868C276.145 161.42 272.763 162.439 271.324 165.121L260.473 185.302C259.027 187.984 260.045 191.37 262.723 192.811Z" fill="#1D3BD0"/>
<path d="M287.387 199.522C291.014 204.273 292.376 214.126 290.065 224.745C287.754 235.357 286.974 242.337 286.974 242.337C286.369 247.248 281.908 250.742 276.995 250.144C272.09 249.539 268.6 245.072 269.197 240.153L272.885 199.522H287.387Z" fill="#0775EF"/>
<path d="M288.183 160.562L297.871 164.96C297.871 164.96 295.713 189.937 295.491 192.673C295.269 195.408 296.103 199.53 296.103 199.53H272.878C272.878 199.53 273.153 186.145 271.6 182.413C270.544 179.885 269.817 178.345 270.429 175.441C271.041 172.545 275.526 167.419 274.799 162.401L279.857 160.776L288.175 160.57L288.183 160.562Z" fill="#1D3BD0"/>
<path d="M305.645 196.841C308.507 195.791 309.992 192.588 308.944 189.731L301.069 168.208C300.021 165.343 296.822 163.856 293.968 164.906C291.106 165.956 289.621 169.159 290.67 172.016L298.544 193.539C299.592 196.404 302.791 197.89 305.645 196.841Z" fill="#1D3BD0"/>
<path d="M278.694 146.089C278.694 146.089 277.377 142.84 280.546 141.859L278.694 146.089Z" fill="#322A28"/>
<path d="M279.864 149.483V160.769C279.864 160.769 280.094 163.244 283.025 163.466C285.558 163.657 287.173 161.987 287.854 161.098L288.213 160.57H288.221L287.027 149.483H279.864Z" fill="#B37661"/>
<path d="M279.864 159.482L284.862 154.042L279.864 155.926V159.482Z" fill="#824C3A"/>
<path d="M284.823 155.252C282.489 156.631 279.734 156.631 278.066 155.513C276.406 154.402 276.673 151.835 277.171 150.203C277.171 150.203 277.171 150.198 277.171 150.188C277.278 149.851 277.423 149.376 277.584 148.839C278.219 146.732 279.16 143.622 279.16 143.622C279.574 141.974 284.28 138.274 288.741 143.101C293.195 147.935 287.157 153.865 284.816 155.245L284.823 155.252Z" fill="#B37661"/>
<path d="M279.313 142.955C279.313 142.955 279.375 144.924 282.137 146.25C284.9 147.567 287.517 149.582 287.188 152.494C286.859 155.405 287.854 157.053 287.854 157.053C287.854 157.053 288.267 153.421 290.096 150.349C290.807 149.153 291.427 146.64 290.249 144.472C288.389 141.047 283.591 138.45 279.321 142.963L279.313 142.955Z" fill="#322A28"/>
<path d="M286.713 151.866C286.116 152.747 285.948 153.367 286.637 153.835C287.326 154.302 288.496 154.187 289.086 153.314C289.683 152.433 289.598 151.345 288.91 150.877C288.221 150.41 287.295 150.985 286.706 151.866H286.713Z" fill="#B37661"/>
<path d="M265.991 288.561H281.724L287.127 242.268L287.195 241.211C287.195 236.177 283.056 232.124 277.99 232.277C273.429 232.407 269.603 236.123 269.335 240.697L265.998 288.569L265.991 288.561Z" fill="#0775EF"/>
<path d="M294.71 288.561H309.724L304.957 240.743L304.941 240.575C304.62 235.932 300.748 232.262 296.026 232.262C291.305 232.262 287.096 236.261 287.096 241.203C287.096 241.479 287.111 241.747 287.134 242.015L294.703 288.553L294.71 288.561Z" fill="#088CFC"/>
<path d="M242.842 180.291L261.208 191.93L262.294 192.834C264.506 194.374 267.758 193.569 269.503 191.048C271.248 188.528 270.85 185.21 268.638 183.678L248.061 172.131L247.602 172.836L242.834 180.291H242.842Z" fill="#F9E181"/>
<path d="M280.171 199.53L280.377 200.833L287.111 242.053C287.624 246.98 292.032 250.55 296.952 250.029C301.865 249.516 305.439 245.103 304.919 240.176C304.919 240.176 304.107 233.204 303.977 222.339C303.87 213.919 301.965 207.131 298.973 202.74C298.1 201.461 297.136 200.388 296.103 199.53H280.163H280.171Z" fill="#088CFC"/>
<path d="M312.747 298.721H301.153L299.654 296.43L299.684 298.721H297.136L297.366 292.093L296.807 288.561H306.242L306.281 292.093L312.747 298.721Z" fill="#B37661"/>
<path d="M279.505 160.723L280.086 172.591L287.854 161.098C287.173 161.987 285.558 163.665 283.025 163.466C280.086 163.244 279.505 160.723 279.505 160.723Z" fill="#E5F0F8"/>
<path d="M288.152 159.918L282.359 163.366L283.584 165.511L288.971 160.922L288.152 159.918Z" fill="white"/>
<path d="M279.864 160.416L282.359 163.366L280.852 165.19L279.283 160.96L279.864 160.416Z" fill="white"/>
<path d="M248.727 197.002L279.918 198.312L272.755 174.583L241.564 173.273L248.727 197.002Z" fill="#A5BBD6"/>
<path d="M279.627 197.163L290.203 188.558L260.037 187.286L248.436 195.852L279.627 197.163Z" fill="#89A5C7"/>
<path d="M249.339 196.504L280.53 197.814L273.368 174.085L242.176 172.775L249.339 196.504Z" fill="#A5BBD6"/>
<path d="M242.176 172.775L241.564 173.273L272.755 174.583L279.918 198.312L280.53 197.814L273.368 174.085L242.176 172.775Z" fill="#89A5C7"/>
<path d="M290.203 188.558L290.501 189.708L279.918 198.312L279.574 197.155L290.203 188.558Z" fill="#586773"/>
<path d="M255.958 185.854C255.92 186.696 257.443 187.455 259.356 187.532C261.269 187.608 262.845 186.988 262.876 186.145C262.914 185.302 261.392 184.543 259.478 184.467C257.565 184.39 255.989 185.011 255.958 185.854Z" fill="#89A5C7"/>
<path d="M271.064 298.721L273.834 296.652L273.597 298.721H276.176L277.446 292.093L278.127 288.561H268.126L267.743 292.093L259.723 298.721H271.064Z" fill="#B37661"/>
<path d="M306.281 292.093L312.747 298.721H301.153L299.654 296.43L299.684 298.721H297.136L297.366 292.093H306.281Z" fill="#322A28"/>
<path d="M271.064 298.721L273.834 296.652L273.597 298.721H276.176L277.446 292.093H267.743L259.723 298.721H271.064Z" fill="#322A28"/>
<path d="M267.039 191.355C266.588 191.815 267.07 192.627 267.07 192.627C267.07 192.627 266.228 192.259 266.098 192.818C265.975 193.339 266.97 194.174 267.1 194.282C267.008 194.236 266.687 194.121 266.695 194.695C266.695 195.324 268.684 196.029 268.868 196.098C268.799 196.105 268.432 196.167 268.501 196.619C268.577 197.124 271.554 197.791 273.773 197.569C275.64 197.385 279.91 196.473 281.188 196.205L280.852 190.213C280.071 190.175 279.199 190.091 278.479 189.937C276.727 189.57 271.883 189.141 271.822 189.845C271.761 190.543 275.028 191.523 274.76 191.792C274.492 192.06 271.937 191.906 270.85 191.761C269.756 191.608 267.483 190.903 267.031 191.363L267.039 191.355Z" fill="#B37661"/>
<path d="M280.752 188.397L280.859 190.213L281.196 196.205L281.288 197.798L304.505 197.415C307.199 197.323 309.319 194.741 309.219 191.677C309.104 188.612 306.809 186.191 304.107 186.283L302.355 186.582H302.347L280.752 188.397Z" fill="#1D3BD0"/>
<path d="M114.327 42.9677L91.3929 58.2301L68.4662 42.9677H114.327Z" fill="#F2BB16"/>
<path d="M114.327 42.9677V73.4925H68.4662V42.9677L91.3929 58.2301L114.327 42.9677Z" fill="#F2BB16"/>
<path d="M68.4662 73.4925L91.3929 58.2301L114.327 73.4925H68.4662Z" fill="#F2BB16"/>
<path d="M116.08 42.9677L93.1453 58.2301L70.2187 42.9677H116.08Z" fill="#F9ECB8"/>
<path d="M116.08 42.9677V73.4925H70.2187V42.9677L93.1453 58.2301L116.08 42.9677Z" fill="#F9E181"/>
<path d="M70.2187 73.4925L93.1453 58.2301L116.08 73.4925H70.2187Z" fill="#F9ECB8"/>
<path d="M116.08 46.5994C118.083 46.5994 119.707 44.9734 119.707 42.9677C119.707 40.9619 118.083 39.336 116.08 39.336C114.076 39.336 112.452 40.9619 112.452 42.9677C112.452 44.9734 114.076 46.5994 116.08 46.5994Z" fill="#F74242"/>
<path d="M194.532 250.834L171.598 266.096L148.671 250.834H194.532Z" fill="#BBDBF3"/>
<path d="M194.532 250.834V281.359H148.671V250.834L171.598 266.096L194.532 250.834Z" fill="#BBDBF3"/>
<path d="M148.671 281.359L171.598 266.096L194.532 281.359H148.671Z" fill="#BBDBF3"/>
<path d="M196.782 250.834L173.848 266.096L150.921 250.834H196.782Z" fill="white"/>
<path d="M196.782 250.834V281.359H150.921V250.834L173.848 266.096L196.782 250.834Z" fill="#E5F0F8"/>
<path d="M150.921 281.359L173.848 266.096L196.782 281.359H150.921Z" fill="white"/>
<path d="M196.782 254.466C198.785 254.466 200.409 252.84 200.409 250.834C200.409 248.828 198.785 247.202 196.782 247.202C194.779 247.202 193.155 248.828 193.155 250.834C193.155 252.84 194.779 254.466 196.782 254.466Z" fill="#6ADB6A"/>
<path d="M74.4504 19.668L86.0515 13.3852V16.4577L78.2996 20.6793L86.0515 24.901V27.9734L74.4504 21.6907V19.668Z" fill="#E5F0F8"/>
<path d="M89.5869 30.4865L87.6815 29.6514L94.8365 7.9683L96.742 8.86477L89.5869 30.4942V30.4865Z" fill="#E5F0F8"/>
<path d="M110.241 21.6907L98.6398 27.9734V24.901L106.392 20.6793L98.6398 16.4577V13.3852L110.241 19.668V21.6907Z" fill="#E5F0F8"/>
<path d="M339.653 77.7296C338.865 77.1779 337.992 76.7641 337.082 76.5113C336.921 77.492 336.049 78.2122 335.038 78.1586C334.028 78.105 333.232 77.3005 333.171 76.3121C332.245 76.473 331.342 76.7871 330.493 77.2621C331.067 78.0666 330.96 79.193 330.21 79.8749C329.46 80.5568 328.327 80.5491 327.585 79.8902C327.034 80.6793 326.621 81.5528 326.368 82.4569C327.348 82.6178 328.059 83.4912 328.014 84.5026C327.96 85.514 327.156 86.3108 326.169 86.3721C326.33 87.2992 326.651 88.211 327.118 89.0538C327.922 88.4791 329.047 88.5787 329.728 89.3372C330.409 90.0881 330.401 91.2297 329.743 91.9653C330.531 92.5169 331.404 92.9307 332.307 93.1835C332.467 92.2028 333.34 91.4826 334.35 91.5362C335.36 91.5898 336.156 92.3943 336.217 93.3827C337.143 93.2218 338.046 92.9077 338.895 92.4327C338.321 91.6282 338.428 90.5018 339.178 89.8199C339.928 89.138 341.061 89.1457 341.803 89.8046C342.354 89.0154 342.767 88.142 343.02 87.2379C342.04 87.077 341.329 86.2036 341.375 85.1922C341.428 84.1808 342.232 83.384 343.219 83.3227C343.058 82.3956 342.744 81.4915 342.27 80.6411C341.459 81.2157 340.334 81.1161 339.661 80.3576C338.979 79.599 338.987 78.4728 339.645 77.7296H339.653ZM337.809 82.0355C339.362 83.7518 339.224 86.4104 337.51 87.9581C335.788 89.5135 333.141 89.3755 331.595 87.6593C330.041 85.9354 330.179 83.2844 331.893 81.729C333.615 80.1737 336.263 80.3116 337.816 82.0355H337.809Z" fill="white"/>
<path d="M330.967 103.956C329.835 106.255 327.049 107.197 324.754 106.055C322.458 104.914 321.524 102.133 322.657 99.834C323.797 97.5354 326.575 96.593 328.871 97.7347C331.166 98.8763 332.1 101.658 330.967 103.956ZM336.148 104.102C336.393 103.06 336.462 102.002 336.355 100.96C335.283 101.19 334.189 100.585 333.829 99.5199C333.47 98.4549 333.975 97.3132 334.962 96.8459C334.419 95.9571 333.73 95.1526 332.896 94.4784C332.299 95.3978 331.097 95.7502 330.095 95.2522C329.093 94.7542 328.641 93.5896 329.008 92.5552C327.968 92.3101 326.912 92.2411 325.878 92.3484C326.108 93.421 325.504 94.5167 324.447 94.8691C323.384 95.2292 322.244 94.7235 321.777 93.7275C320.889 94.2715 320.086 94.9687 319.405 95.7962C320.323 96.3862 320.675 97.5891 320.177 98.6004C319.68 99.6042 318.509 100.056 317.476 99.6884C317.231 100.73 317.162 101.788 317.27 102.822C318.341 102.592 319.435 103.198 319.795 104.263C320.154 105.328 319.649 106.469 318.662 106.937C319.206 107.825 319.894 108.63 320.728 109.304C321.325 108.385 322.527 108.032 323.529 108.53C324.532 109.028 324.983 110.193 324.616 111.227C325.657 111.472 326.713 111.541 327.746 111.434C327.516 110.361 328.121 109.266 329.177 108.913C330.24 108.553 331.381 109.059 331.847 110.055C332.735 109.511 333.539 108.821 334.212 107.986C333.286 107.389 332.942 106.186 333.439 105.182C333.936 104.171 335.107 103.719 336.14 104.094L336.148 104.102Z" fill="white"/>
<path d="M36.0659 62.7276C37.9484 67.1638 42.7541 69.4318 47.2843 68.3284L54.2633 84.8091L57.1177 83.5985L50.1387 67.1179C54.095 64.6354 55.8015 59.5939 53.919 55.15C51.8299 50.2158 46.1365 47.8943 41.216 49.986C36.2878 52.0776 33.9768 57.7934 36.0659 62.7276ZM51.9829 55.9699C53.6129 59.8085 51.7993 64.2906 47.9654 65.9149C44.1086 67.5546 39.6549 65.7311 38.0326 61.8925C36.3949 58.0309 38.1933 53.587 42.0501 51.9474C45.8839 50.3154 50.3453 52.1083 51.9829 55.9699Z" fill="#E5F0F8"/>
<path d="M158.742 220.968L152.375 217.068C151.755 217.359 151.059 217.528 150.324 217.528C149.59 217.528 148.893 217.367 148.273 217.068L141.907 220.968C141.907 220.968 141.042 233.916 150.324 237.824C159.607 233.916 158.742 220.968 158.742 220.968Z" fill="white"/>
<path d="M338.36 153.98V149.966C338.36 147.828 336.622 146.089 334.487 146.089C332.352 146.089 330.615 147.828 330.615 149.966V153.98H327.715C327.524 153.98 327.363 154.134 327.363 154.325V164.99C327.363 165.182 327.516 165.335 327.715 165.335H341.268C341.459 165.335 341.62 165.182 341.62 164.99V154.325C341.62 154.134 341.466 153.98 341.268 153.98H338.36ZM331.84 149.966C331.84 148.502 333.026 147.315 334.487 147.315C335.949 147.315 337.135 148.502 337.135 149.966V153.98H331.847V149.966H331.84Z" fill="white"/>
</svg>
