<svg width="324" height="300" viewBox="0 0 324 300" fill="none" xmlns="http://www.w3.org/2000/svg">
<path d="M159.777 15.8758C81.5464 15.8758 17.8955 79.6037 17.8955 157.938C17.8955 236.272 81.5464 300 159.777 300C238.007 300 301.65 236.272 301.65 157.938C301.65 79.6037 238.007 15.8758 159.777 15.8758ZM151.026 82.8702C138.271 82.4909 125.872 81.2988 114.168 79.356C123.352 56.0492 136.408 39.5773 151.026 34.8092V82.8702ZM151.026 149.183H100.64C101.305 130.111 104.126 112.075 108.579 96.1529C122.045 98.537 136.354 99.9768 151.026 100.387V149.183ZM151.026 215.489C136.354 215.899 122.037 217.347 108.579 219.723C104.126 203.801 101.313 185.765 100.64 166.692H151.026V215.489ZM151.026 233.013V281.067C136.408 276.298 123.344 259.834 114.168 236.528C125.872 234.585 138.279 233.393 151.026 233.013ZM168.519 233.006C181.274 233.385 193.681 234.577 205.377 236.512C196.194 259.827 183.137 276.291 168.519 281.059V232.998V233.006ZM168.519 215.489V166.7H218.905C218.24 185.773 215.419 203.808 210.974 219.723C197.516 217.339 183.199 215.899 168.527 215.489H168.519ZM168.519 149.183V100.395C183.191 99.9845 197.508 98.5448 210.966 96.1607C215.419 112.075 218.233 130.111 218.897 149.183H168.512H168.519ZM168.519 82.8702V34.8092C183.137 39.5773 196.201 56.0492 205.377 79.356C193.674 81.2911 181.267 82.4909 168.519 82.8624V82.8702ZM204.457 41.737C220.111 47.7901 234.234 56.9239 246.1 68.3954C238.965 71.2594 231.142 73.7363 222.786 75.7953C217.784 62.5513 211.592 51.0411 204.457 41.737ZM96.7672 75.7876C88.4108 73.7286 80.5878 71.2516 73.4528 68.3876C85.3187 56.9161 99.4419 47.7823 115.096 41.7292C107.961 51.0333 101.769 62.5435 96.7672 75.7876ZM91.3638 92.4607C86.6715 109.544 83.7804 128.71 83.1311 149.183H35.7214C37.4762 124.081 46.6752 101.014 61.1385 82.1735C70.1984 86.2373 80.3714 89.6819 91.3638 92.453V92.4607ZM83.1388 166.7C83.7804 187.174 86.6715 206.347 91.3715 223.431C80.3868 226.202 70.2061 229.654 61.1462 233.71C46.683 214.877 37.484 191.803 35.7292 166.7H83.1388ZM96.7672 240.096C101.761 253.332 107.961 264.842 115.096 274.147C99.4419 268.093 85.3265 258.96 73.4605 247.488C80.5955 244.624 88.4186 242.155 96.775 240.088L96.7672 240.096ZM222.786 240.088C231.142 242.147 238.965 244.624 246.1 247.488C234.234 258.96 220.111 268.093 204.457 274.147C211.592 264.842 217.784 253.325 222.786 240.088ZM228.181 223.415C232.874 206.332 235.765 187.166 236.406 166.692H283.816C282.061 191.795 272.862 214.862 258.399 233.702C249.347 229.638 239.166 226.194 228.174 223.415H228.181ZM236.406 149.183C235.765 128.71 232.874 109.544 228.181 92.4607C239.174 89.6896 249.355 86.2373 258.407 82.1735C272.87 101.006 282.069 124.073 283.816 149.176H236.406V149.183Z" fill="#8FD2FF"/>
<path d="M137.281 285.463L127.804 288.327C123.738 289.558 119.401 287.476 117.809 283.528L58.3943 135.901C56.5932 131.419 59.0205 126.349 63.6354 124.955L71.0951 122.703L137.274 285.471L137.281 285.463Z" fill="#C5C3C4"/>
<path d="M199.997 266.499L135.457 286.021C131.932 287.089 128.168 285.285 126.792 281.856L66.5574 132.193C64.9959 128.307 67.0986 123.91 71.1028 122.703L136.037 103.065C140.683 101.664 145.622 104.033 147.439 108.538L205.98 254.006C208.036 259.122 205.269 264.904 199.997 266.491V266.499Z" fill="#405268"/>
<path d="M199.997 266.499L135.457 286.021C131.932 287.089 128.168 285.285 126.792 281.856L121.071 267.637L201.659 243.262L205.98 254.006C208.036 259.122 205.269 264.904 199.997 266.491V266.499Z" fill="#FCFCFC"/>
<path d="M118.638 116.221L93.2563 123.899L94.1081 126.722L119.49 119.044L118.638 116.221Z" fill="#19262F"/>
<path d="M171.101 262.931C172.029 266.011 170.29 269.262 167.213 270.191C164.136 271.12 160.89 269.378 159.962 266.298C159.034 263.217 160.774 259.966 163.85 259.037C166.927 258.108 170.174 259.85 171.101 262.931Z" fill="#110F12"/>
<path d="M197.083 244.647L129.389 265.121L77.3566 137.1L145.05 116.627L197.083 244.647Z" fill="#A3BDE5"/>
<path d="M79.9076 143.386L174.039 187.94L183.632 211.557L90.6681 169.858L79.9076 143.386Z" fill="#BBD0EF"/>
<path d="M97.0764 185.634L187.752 223.523L196.48 243.587L107.087 210.248L97.0764 185.634Z" fill="#BBD0EF"/>
<path d="M82.0179 135.692L167.978 173.047L164.484 164.44L91.2556 132.897L82.0179 135.692Z" fill="#BBD0EF"/>
<path d="M77.3566 137.1L142.971 122.115L197.083 244.647L145.05 116.627L77.3566 137.1Z" fill="#91AACE"/>
<path d="M213.37 114.204C213.37 114.204 215.728 108.004 215.512 108.298C215.512 108.298 215.241 105.333 215.419 102.663C215.628 99.5511 216.145 98.4132 217.506 98.4829C218.867 98.5525 224.935 108.747 224.989 108.902C225.043 109.056 223.157 112.873 223.157 112.873C223.157 112.873 220.575 117.362 218.851 117.617C218.851 117.617 214.406 118.376 213.363 114.204H213.37Z" fill="#C87457"/>
<path d="M223.798 77.7847C223.798 77.7847 223.234 77.1964 222.198 77.8234C221.162 78.4503 212.489 83.6984 211.074 86.0438C211.074 86.0438 210.093 87.5997 210.093 88.9001C210.093 89.5658 210.518 94.7984 213.741 96.896C213.741 96.896 215.241 98.1191 217.614 96.8032C217.614 96.8032 219.632 110.922 223.883 113.445C223.883 113.445 225.252 113.724 227.03 113.368C227.03 113.368 230.539 111.603 231.026 109.807C231.026 109.807 225.623 98.599 226.991 94.3726C226.991 94.3726 230.168 91.2532 229.99 88.3195L223.791 77.7847H223.798Z" fill="#1D3BD0"/>
<path d="M231.034 109.807C230.547 111.603 227.037 113.368 227.037 113.368C225.174 112.276 221.649 96.8418 222.515 95.5801C223.381 94.3184 226.999 94.3726 226.999 94.3726C225.63 98.6067 231.034 109.807 231.034 109.807Z" fill="#0000BF"/>
<path d="M229.998 88.3195C229.998 88.3195 229.434 91.3073 226.063 90.5023C223.25 89.8289 221.108 85.7574 220.83 81.7246C220.552 77.6918 223.798 77.7924 223.798 77.7924L229.998 88.3272V88.3195Z" fill="#0000BF"/>
<path d="M227.532 94.7829C227.532 94.7829 226.736 93.8463 224.448 95.1699C222.747 96.1529 220.652 98.568 222.129 99.0014C223.605 99.4349 227.177 97.4069 227.563 96.3C227.957 95.1853 227.524 94.7751 227.524 94.7751L227.532 94.7829Z" fill="#C87457"/>
<path d="M227.671 98.537C227.517 98.359 227.269 98.3048 227.053 98.4055C225.723 99.0324 221.085 101.324 221.101 102.709C221.108 103.77 221.425 104.482 223.396 103.646C225.368 102.81 228.784 101.153 228.607 100.217C228.483 99.5897 227.988 98.9163 227.671 98.5448V98.537Z" fill="#C87457"/>
<path d="M222.987 106.27C224.741 105.952 228.236 104.567 229.21 103.445C230.184 102.322 229.117 100.472 228.73 100.782C228.344 101.091 222.933 104.102 222.407 104.567C221.928 104.993 221.812 106.487 222.987 106.27Z" fill="#C87457"/>
<path d="M225.654 107.702C226.713 107.926 229.751 106.781 229.751 106.781C229.751 106.781 230.918 104.791 229.14 104.505C228.274 104.366 225.344 105.294 225.058 106.401C224.772 107.508 225.476 107.663 225.654 107.702Z" fill="#C87457"/>
<path d="M217.506 98.4829C217.506 98.4829 221.371 98.9163 222.02 99.8452C222.67 100.774 219.268 101.896 218.465 101.749C217.661 101.602 217.506 98.4829 217.506 98.4829Z" fill="#C87457"/>
<path d="M223.056 78.6206C223.056 78.6206 230.006 71.3136 230.671 63.9523L247.036 86.1831L246.092 86.7482C246.092 86.7482 235.463 84.7201 229.998 88.3195C229.998 88.3195 225.236 90.9513 223.234 86.067C221.232 81.1828 223.056 78.6206 223.056 78.6206Z" fill="#FDC300"/>
<path d="M247.028 86.1831L246.092 86.7482C246.092 86.7482 235.463 84.7201 229.998 88.3195C229.998 88.3195 225.244 90.9513 223.242 86.067C222.763 84.8982 222.507 83.8687 222.384 82.9708C222.863 83.5901 223.42 84.3254 223.961 85.022C225.228 86.6785 233.075 82.2432 236.932 81.7014C239.066 81.3995 240.82 80.2771 241.988 79.3173L247.043 86.1831H247.028Z" fill="#E5AC0A"/>
<path d="M232.634 54.2534C232.634 54.2534 227.965 56.2582 230.663 63.96C233.361 71.6619 245.219 93.9391 255.23 87.5067C265.24 81.0744 249.633 63.9213 248.234 62.5899C246.842 61.2586 237.945 51.0565 232.626 54.2534H232.634Z" fill="white"/>
<path d="M248.736 65.7249C251.326 68.7979 256.227 76.5617 256.466 81.9104C256.698 87.2591 251.805 87.5687 247.09 84.1319C241.632 80.1455 233.446 66.1274 232.085 61.754C230.725 57.3806 233.454 55.9486 235.394 55.4919C236.321 55.2752 240.635 56.1112 248.744 65.7326L248.736 65.7249Z" fill="#EFEAEA"/>
<path d="M250.939 86.098C249.718 85.7496 248.396 85.084 247.09 84.1319C242.722 80.9428 236.6 71.3136 233.639 65.3611C232.966 63.2557 232.379 59.9195 235.51 60.1827C240.047 60.5697 248.968 71.1974 251.403 75.1528C253.761 78.9844 256.544 85.8116 250.947 86.098H250.939Z" fill="#E2DEDE"/>
<path d="M247.167 74.2627C246.154 75.8031 244.144 79.3095 243.31 80.3932C240.782 77.3821 238.146 73.4035 236.035 69.7887C237.156 69.0688 241.145 66.677 243.225 67.4356C245.66 68.318 248.551 72.1573 247.159 74.2627H247.167Z" fill="#EFEAEA"/>
<path d="M242.312 67.7684C241.501 67.9309 239.792 68.287 242.266 71.0891C244.747 73.8989 245.698 75.0987 246.734 73.8834C248.18 72.1882 244.562 67.3117 242.312 67.7684Z" fill="white"/>
<path d="M219.361 80.7647C219.361 80.7647 211.654 85.2387 211.098 87.3906C210.549 89.5502 219.655 81.7478 219.655 81.7478C219.655 81.7478 220.072 80.339 219.361 80.7647Z" fill="#8FD2FF"/>
<path d="M230.632 68.8675C230.632 68.8675 226.141 76.2443 225.221 77.1577C224.301 78.071 222.492 79.7043 224.262 79.2476C226.032 78.7909 228.506 74.4175 229.627 72.614C230.176 71.7315 232.858 67.869 230.64 68.8675H230.632Z" fill="#F9CD53"/>
<path d="M205.284 149.895C201.334 149.957 195.204 148.417 189.236 137.023C180.633 120.598 185.503 108.909 185.503 108.909C187.636 108.77 189.468 109.9 190.906 111.433C194.478 115.233 201.651 132.162 201.651 132.162C201.999 131.473 201.868 131.071 202.88 131.071C203.669 131.071 204.581 131.233 204.743 132.634C204.743 132.634 206.305 128.834 215.086 109.591C215.086 109.591 215.303 111.766 216.957 112.857C220.567 115.241 222.376 114.126 222.376 114.126C220.443 143.231 211.701 149.803 205.284 149.903V149.895Z" fill="#1D3BD0"/>
<path d="M202.509 202.043C202.509 202.043 215.635 222.053 215.743 226.581C216.037 238.966 219.207 273.434 219.207 273.434H213.401C213.401 273.434 203.669 241.737 201.821 229.77C201.079 224.963 179.179 205.372 179.179 205.372L202.502 202.043H202.509Z" fill="#C87457"/>
<path d="M211.36 216.565C208.547 219.258 200.43 220.83 195.838 221.526C189.121 214.258 179.187 205.364 179.187 205.364L202.509 202.043C202.509 202.043 207.511 209.668 211.368 216.565H211.36Z" fill="#B76B50"/>
<path d="M175.446 208.755C175.446 208.755 171.812 233.78 171.194 239.245C170.869 242.07 170.12 247.209 169.2 253.085L157.658 256.568C157.573 248.162 157.457 240.305 157.295 236.589C157.11 232.332 156.259 207.764 156.259 207.764L175.446 208.762V208.755Z" fill="#C87457"/>
<path d="M175.446 208.755L173.366 223.26C173.366 223.26 165.01 225.939 156.8 223.105L156.259 207.756L175.453 208.755H175.446Z" fill="#B76B50"/>
<path d="M153.639 164.564L171.472 163.705L197.608 170.005C197.608 170.005 206.831 203.251 213.432 210.434C213.432 210.434 205.764 216.905 191.223 218.678C172.547 220.954 150.392 218.655 150.392 218.655C153.113 207.261 150.029 190.03 150.423 177.274C150.531 173.698 153.631 164.556 153.631 164.556L153.639 164.564Z" fill="#3E2B27"/>
<path d="M199.688 177.08C193.264 179.805 179.226 184.705 166.602 181.996C160.735 180.742 164.051 198.003 153.592 195.41C152.75 195.209 151.977 194.853 151.258 194.373C150.856 189.202 150.33 183.915 150.4 178.582C150.4 178.148 150.407 177.715 150.423 177.274C150.539 173.705 153.631 164.556 153.631 164.556L171.465 163.689L197.593 169.982C197.593 169.982 198.381 172.846 199.672 177.065L199.688 177.08Z" fill="#30201D"/>
<path d="M159.506 50.7469C159.506 50.7469 139.539 50.0967 135.905 63.8517C135.905 63.8517 131.492 89.5193 112.9 90.6339C112.9 90.6339 120.035 100.155 127.309 95.5414C127.309 95.5414 126.235 99.5742 117.075 101.765C117.075 101.765 131.955 108.46 143.002 103.514C143.002 103.514 136.74 110.094 130.278 111.827C130.278 111.827 160.488 116.727 167.87 103.87C167.87 103.87 180.509 109.521 190.481 104.489C190.481 104.489 187.814 102.965 184.915 98.359C184.915 98.359 187.783 101.3 194.787 98.359C194.787 98.359 185.078 91.4699 184.614 88.6523C184.614 88.6523 191.285 91.0442 194.787 89.5193C194.787 89.5193 177.015 66.2203 176.056 59.4782C175.098 52.7362 159.506 50.7469 159.506 50.7469Z" fill="#3E2B27"/>
<path d="M163.966 108.011C153.167 115.535 130.27 111.828 130.27 111.828C136.733 110.094 142.994 103.514 142.994 103.514C131.948 108.46 117.067 101.765 117.067 101.765C126.227 99.5742 127.302 95.5414 127.302 95.5414C120.028 100.155 112.893 90.6339 112.893 90.6339C125.052 89.9063 131.144 78.667 133.911 70.9884C136.887 74.9361 144.625 82.4832 159.498 81.0357C159.498 81.0357 168.79 97.7397 163.966 108.011Z" fill="#30201D"/>
<path d="M142.994 113.654L152.154 158.635L150.856 173.148C150.856 173.148 167.947 180.006 197.608 169.998C197.608 169.998 197.145 164.262 194.547 143.595C194.547 143.595 199.695 140.042 196.851 131.442C196.178 129.414 191.679 121.023 191.679 121.023C187.961 114.173 187.59 113.151 185.441 108.925L179.782 108.994L171.349 114.962L153.585 109.304L142.994 113.647V113.654Z" fill="#8FD2FF"/>
<path d="M154.806 92.0582C154.806 92.0582 157.813 106.123 157.813 108.623C157.813 111.123 173.768 114.962 173.768 114.962L176.435 110.148L175.5 103.096L154.806 92.0505V92.0582Z" fill="#C87457"/>
<path d="M155.208 93.5908L156.939 102.725C156.939 102.725 165.883 111.146 176.049 107.276L175.585 103.801L155.208 93.5908Z" fill="#B76B50"/>
<path d="M177.564 61.2509C177.734 61.4908 180.169 67.5594 180.455 73.3261C180.455 73.3261 185.309 99.7136 178.391 103.514C170.738 107.725 165.443 103.847 161.067 100.627C154.334 95.6731 150.956 91.052 150.956 91.052C150.956 91.052 142.878 95.1699 140.281 84.7434C137.606 73.9918 147.284 81.2369 146.937 80.7106C146.589 80.1842 136.957 68.4419 145.707 62.1256C154.458 55.817 170.568 51.4359 177.571 61.2509H177.564Z" fill="#C87457"/>
<path d="M155.625 52.2099C155.625 52.2099 163.889 65.2914 146.929 80.7105C146.929 80.7105 137.22 72.2966 138.116 66.855C139.809 56.5988 154.837 52.0783 155.625 52.2099Z" fill="#3E2B27"/>
<path d="M151.381 57.4735C151.381 57.4735 164.848 79.7507 184.908 70.4389C184.908 70.4389 183.841 49.5549 162.482 50.507C147.045 51.1959 151.381 57.4735 151.381 57.4735Z" fill="#3E2B27"/>
<path d="M156.939 102.725L173.768 114.97L163.673 127.262L153.585 109.312L156.939 102.725Z" fill="white"/>
<path d="M175.824 105.604L173.768 114.97L184.606 121.704L179.782 109.002L175.824 105.604Z" fill="white"/>
<path d="M197.608 169.998C167.947 180.006 150.856 173.148 150.856 173.148L152.162 158.635L145.955 128.176C147.439 124.599 149.178 122.455 150.933 124.692C150.933 124.692 153.77 133.114 155.208 143.525C156.166 150.453 159.962 170.764 159.962 170.764C159.962 170.764 186.222 173.125 197.601 169.99L197.608 169.998Z" fill="#5371FF"/>
<path d="M140.335 155.175C141.657 154.71 142.832 153.998 142.979 152.899C143.11 151.893 142.097 151.49 140.799 151.366C140.799 151.366 149.681 139.554 151.142 134.918C152.858 129.491 151.845 120.992 142.994 113.647C142.994 113.647 136.153 115.891 130.718 133.625C123.808 156.15 125.547 158.735 125.547 158.735C125.547 158.735 130.958 178.04 146.666 184.472C146.666 184.472 147.686 180.447 149.047 175.617L140.335 155.175Z" fill="#1D3BD0"/>
<path d="M149.256 176.144C151.219 175.888 154.056 175.292 155.935 175.911C157.813 176.531 162.498 178.977 161.802 181.113C160.805 182.212 158.826 180.037 158.068 179.666C157.311 179.302 155.788 178.853 155.053 179.263C157.983 180.455 162.443 183.799 160.998 185.943C160.302 186.593 158.439 184.256 156.723 183.42C155.904 183.017 154.211 182.321 153.94 182.785C155.594 183.497 157.241 184.418 158.122 185.997C159.003 187.569 159.815 189.589 158.671 190.084C158.06 190.224 157.326 188.064 156.136 187.042C154.79 185.897 154.157 185.92 152.649 185.525C153.082 185.935 154.396 186.771 155.192 188.335C156.839 191.571 154.945 190.502 154.365 190.131C153.739 189.721 152.294 188.134 151.606 187.84C151.606 187.84 149.016 188.289 147.269 185.997C145.313 183.443 147.949 176.314 149.256 176.144Z" fill="#C87457"/>
<path d="M148.444 74.4562C148.444 74.4562 150.647 87.6383 154.543 89.5193C154.543 89.5193 147.323 86.454 145.723 78.1639L148.444 74.4562Z" fill="#3E2B27"/>
<path d="M175.446 116.015C175.446 116.015 190.543 120.218 188.819 124.739L187.489 126.666C187.489 126.666 182.82 119.421 176.798 119.421C176.798 119.421 174.541 118.051 175.446 116.015Z" fill="#E5AC0A"/>
<path d="M173.59 116.015C173.59 116.015 160.511 124.669 163.541 128.431L165.396 129.855C165.396 129.855 167.615 121.519 173.351 119.669C173.351 119.669 175.082 117.672 173.598 116.007L173.59 116.015Z" fill="#E5AC0A"/>
<path d="M175.624 119.227C175.624 119.227 184.823 131.713 183.841 141.079L186.237 139.353C186.237 139.353 184.977 122.509 177.548 118.446L175.624 119.227Z" fill="#E5AC0A"/>
<path d="M174.402 119.746C174.402 119.746 168.682 134.167 172.013 142.975L169.254 141.915C169.254 141.915 166.193 125.304 172.338 119.483L174.394 119.754L174.402 119.746Z" fill="#E5AC0A"/>
<path d="M188.958 123.81C188.958 123.81 186.43 126.867 183.447 124.739C180.463 122.61 175.252 116.681 175.252 116.681C175.252 116.681 174.711 118.492 175.229 120.017C175.747 121.542 183.114 128.787 186.168 128.323C189.221 127.858 188.958 123.802 188.958 123.802V123.81Z" fill="#FDC300"/>
<path d="M163.124 127.587C163.124 127.587 166.463 129.716 168.651 126.774C170.838 123.833 173.977 116.588 173.977 116.588C173.977 116.588 175.051 118.144 175.028 119.762C175.005 121.379 170.22 130.529 167.174 131.032C164.129 131.527 163.131 127.595 163.131 127.595L163.124 127.587Z" fill="#FDC300"/>
<path d="M219.207 273.434L231.652 279.766C231.652 279.766 220.096 280.78 216.462 279.689C215.89 279.519 215.566 278.28 215.566 278.28L214.862 279.774L213.873 279.704C213.873 279.704 212.512 275.424 213.401 273.434H219.207Z" fill="#36233A"/>
<path d="M175.021 133.842C175.021 134.832 175.824 135.637 176.814 135.637C177.803 135.637 178.607 134.832 178.607 133.842C178.607 132.851 177.803 132.046 176.814 132.046C175.824 132.046 175.021 132.851 175.021 133.842Z" fill="white"/>
<path d="M176.976 146.962C176.976 147.953 177.78 148.758 178.77 148.758C179.759 148.758 180.563 147.953 180.563 146.962C180.563 145.971 179.759 145.166 178.77 145.166C177.78 145.166 176.976 145.971 176.976 146.962Z" fill="white"/>
<path d="M178.662 159.339C178.662 160.33 179.465 161.135 180.455 161.135C181.444 161.135 182.248 160.33 182.248 159.339C182.248 158.348 181.444 157.543 180.455 157.543C179.465 157.543 178.662 158.348 178.662 159.339Z" fill="white"/>
<path d="M175.446 116.015C175.446 116.015 178.522 120.342 175.446 121.712C172.369 123.082 171.983 117.138 171.983 117.138L173.761 114.97L175.438 116.015H175.446Z" fill="#FDC300"/>
<path d="M245.652 35.8464C244.809 38.3157 244.175 40.7849 243.572 43.3238C243.047 45.5221 242.305 47.6043 242.799 49.8568C243.116 51.3043 244.956 51.2656 245.69 50.2361C247.09 48.27 247.136 45.6692 247.53 43.347C247.932 40.9629 248.265 38.6408 248.435 36.2257C248.558 34.5538 246.147 34.4067 245.652 35.8464Z" fill="white"/>
<path d="M266.129 39.9722C263.145 41.8454 260.78 45.1738 258.499 47.8288C256.242 50.4451 253.8 53.0769 252.764 56.4285C252.424 57.5199 253.776 58.6501 254.766 57.9689C257.641 55.9796 259.52 52.9608 261.653 50.2284C263.741 47.5501 266.593 44.9958 268.155 41.9847C268.804 40.7385 267.451 39.1439 266.137 39.9644L266.129 39.9722Z" fill="white"/>
<path d="M283.144 59.2538C279.487 59.6176 276.21 61.0341 272.785 62.3345C269.639 63.5266 266.168 64.5793 263.617 66.8395C262.581 67.7606 263.486 69.2546 264.661 69.3552C268.209 69.6726 271.919 68.1322 275.174 66.8782C278.467 65.601 281.621 64.4013 284.319 62.1023C285.37 61.2044 284.558 59.1145 283.144 59.2615V59.2538Z" fill="white"/>
<path d="M277.346 77.4054C273.651 76.67 269.538 74.7271 265.727 75.6096C264.63 75.865 264.166 77.4518 265.039 78.2104C268.379 81.1286 273.334 80.3623 277.346 79.774C278.544 79.596 278.49 77.6299 277.346 77.4054Z" fill="white"/>
<path d="M282.204 149.979C293.323 140.729 294.848 124.205 285.61 113.071C276.373 101.937 259.87 100.41 248.751 109.66C237.632 118.91 236.107 135.434 245.345 146.568C254.582 157.702 271.085 159.229 282.204 149.979Z" fill="#E03E3B"/>
<path d="M281.041 120.218C275.931 109.761 265.488 124.003 265.488 124.003C265.488 124.003 255.044 109.761 249.934 120.218C244.825 130.676 265.488 143.138 265.488 143.138C265.488 143.138 286.158 130.676 281.041 120.218Z" fill="white"/>
<path d="M117.523 57.4038C126.638 57.4038 134.027 50.0049 134.027 40.8778C134.027 31.7507 126.638 24.3517 117.523 24.3517C108.408 24.3517 101.019 31.7507 101.019 40.8778C101.019 50.0049 108.408 57.4038 117.523 57.4038Z" fill="#E03E3B"/>
<path d="M127.333 34.8634C124.109 28.2684 117.523 37.2475 117.523 37.2475C117.523 37.2475 110.937 28.2684 107.713 34.8634C104.49 41.4583 117.523 49.3149 117.523 49.3149C117.523 49.3149 130.548 41.4583 127.333 34.8634Z" fill="white"/>
<path d="M231.714 216.634C237.307 216.634 241.841 212.094 241.841 206.494C241.841 200.894 237.307 196.354 231.714 196.354C226.121 196.354 221.588 200.894 221.588 206.494C221.588 212.094 226.121 216.634 231.714 216.634Z" fill="#E03E3B"/>
<path d="M237.728 202.802C235.749 198.754 231.706 204.265 231.706 204.265C231.706 204.265 227.664 198.754 225.685 202.802C223.706 206.85 231.706 211.673 231.706 211.673C231.706 211.673 239.7 206.85 237.728 202.802Z" fill="white"/>
<path d="M61.8619 189.025C67.036 186.9 69.5093 180.976 67.3862 175.795C65.2631 170.614 59.3475 168.137 54.1734 170.263C48.9993 172.389 46.5259 178.313 48.649 183.494C50.7721 188.675 56.6878 191.151 61.8619 189.025Z" fill="#E03E3B"/>
<path d="M64.0451 175.935C62.0662 171.886 58.0233 177.398 58.0233 177.398C58.0233 177.398 53.9803 171.886 52.0014 175.935C50.0224 179.983 58.0233 184.805 58.0233 184.805C58.0233 184.805 66.0163 179.983 64.0451 175.935Z" fill="white"/>
<path d="M199.193 65.5933C204.786 65.5933 209.32 61.0534 209.32 55.4532C209.32 49.853 204.786 45.3131 199.193 45.3131C193.6 45.3131 189.066 49.853 189.066 55.4532C189.066 61.0534 193.6 65.5933 199.193 65.5933Z" fill="#E03E3B"/>
<path d="M205.215 51.761C203.236 47.7127 199.193 53.2239 199.193 53.2239C199.193 53.2239 195.15 47.7127 193.171 51.761C191.192 55.8093 199.193 60.6316 199.193 60.6316C199.193 60.6316 207.186 55.8093 205.215 51.761Z" fill="white"/>
<path d="M116.487 247.875C122.08 247.875 126.614 243.335 126.614 237.735C126.614 232.135 122.08 227.595 116.487 227.595C110.894 227.595 106.36 232.135 106.36 237.735C106.36 243.335 110.894 247.875 116.487 247.875Z" fill="#E03E3B"/>
<path d="M122.501 234.043C120.522 229.995 116.479 235.506 116.479 235.506C116.479 235.506 112.436 229.995 110.457 234.043C108.479 238.091 116.479 242.914 116.479 242.914C116.479 242.914 124.472 238.091 122.501 234.043Z" fill="white"/>
<path d="M71.3579 247.875C75.1149 247.875 78.1605 244.826 78.1605 241.064C78.1605 237.302 75.1149 234.252 71.3579 234.252C67.6009 234.252 64.5553 237.302 64.5553 241.064C64.5553 244.826 67.6009 247.875 71.3579 247.875Z" fill="#E03E3B"/>
<path d="M75.4008 238.579C74.0712 235.862 71.3579 239.562 71.3579 239.562C71.3579 239.562 68.6446 235.862 67.315 238.579C65.9854 241.296 71.3579 244.539 71.3579 244.539C71.3579 244.539 76.7304 241.296 75.4008 238.579Z" fill="white"/>
<path d="M221.634 45.1738C225.391 45.1738 228.437 42.1241 228.437 38.3621C228.437 34.6001 225.391 31.5504 221.634 31.5504C217.877 31.5504 214.831 34.6001 214.831 38.3621C214.831 42.1241 217.877 45.1738 221.634 45.1738Z" fill="#E03E3B"/>
<path d="M225.677 35.8774C224.347 33.1604 221.634 36.8604 221.634 36.8604C221.634 36.8604 218.921 33.1604 217.591 35.8774C216.261 38.5943 221.634 41.8376 221.634 41.8376C221.634 41.8376 227.006 38.602 225.677 35.8774Z" fill="white"/>
<path d="M88.5577 268.844C92.3147 268.844 95.3603 265.795 95.3603 262.033C95.3603 258.271 92.3147 255.221 88.5577 255.221C84.8007 255.221 81.7551 258.271 81.7551 262.033C81.7551 265.795 84.8007 268.844 88.5577 268.844Z" fill="#E03E3B"/>
<path d="M92.6084 259.556C91.2788 256.839 88.5655 260.539 88.5655 260.539C88.5655 260.539 85.8521 256.839 84.5225 259.556C83.1929 262.273 88.5655 265.516 88.5655 265.516C88.5655 265.516 93.938 262.273 92.6084 259.556Z" fill="white"/>
<path d="M262.937 209.529C272.432 209.529 280.129 201.821 280.129 192.314C280.129 182.806 272.432 175.099 262.937 175.099C253.442 175.099 245.745 182.806 245.745 192.314C245.745 201.821 253.442 209.529 262.937 209.529Z" fill="#3A5898"/>
<path d="M273.782 191.733C273.782 190.827 273.048 190.092 272.143 190.092H266.013V184.403C266.013 182.754 264.676 181.415 263.029 181.415C263.029 181.415 262.372 184.24 261.553 185.533L257.355 193.684V203.189H269.739C270.644 203.189 271.378 202.454 271.378 201.548C271.378 200.642 270.644 199.907 269.739 199.907H270.767C271.672 199.907 272.406 199.172 272.406 198.266C272.406 197.36 271.672 196.625 270.767 196.625H271.633C272.538 196.625 273.272 195.89 273.272 194.984C273.272 194.078 272.538 193.343 271.633 193.343H272.143C273.048 193.343 273.782 192.608 273.782 191.702V191.733Z" fill="white"/>
<path d="M256.327 193.691H252.091V203.197H256.327V193.691Z" fill="white"/>
<path d="M35.9688 172.42C45.0411 172.42 52.3956 165.056 52.3956 155.972C52.3956 146.887 45.0411 139.523 35.9688 139.523C26.8966 139.523 19.542 146.887 19.542 155.972C19.542 165.056 26.8966 172.42 35.9688 172.42Z" fill="#3A5898"/>
<path d="M46.3274 155.414C46.3274 154.548 45.6239 153.851 44.7658 153.851H38.914V148.417C38.914 146.838 37.6386 145.561 36.0616 145.561C36.0616 145.561 35.4277 148.262 34.647 149.501L30.635 157.288V166.375H42.47C43.3358 166.375 44.0315 165.671 44.0315 164.811C44.0315 163.952 43.328 163.248 42.47 163.248H43.4517C44.3175 163.248 45.0132 162.544 45.0132 161.684C45.0132 160.825 44.3098 160.121 43.4517 160.121H44.2788C45.1446 160.121 45.8404 159.416 45.8404 158.557C45.8404 157.698 45.1369 156.994 44.2788 156.994H44.7658C45.6316 156.994 46.3274 156.289 46.3274 155.43V155.414Z" fill="white"/>
<path d="M29.6455 157.288H25.6026V166.375H29.6455V157.288Z" fill="white"/>
<path d="M238.625 257.504C246.399 257.504 252.702 251.194 252.702 243.409C252.702 235.624 246.399 229.313 238.625 229.313C230.851 229.313 224.548 235.624 224.548 243.409C224.548 251.194 230.851 257.504 238.625 257.504Z" fill="#3A5898"/>
<path d="M247.507 242.937C247.507 242.194 246.904 241.598 246.17 241.598H241.153V236.938C241.153 235.583 240.063 234.492 238.71 234.492C238.71 234.492 238.169 236.806 237.504 237.867L234.064 244.539V252.326H244.206C244.948 252.326 245.544 251.722 245.544 250.987C245.544 250.252 244.941 249.648 244.206 249.648H245.049C245.791 249.648 246.386 249.044 246.386 248.309C246.386 247.573 245.783 246.97 245.049 246.97H245.76C246.502 246.97 247.097 246.366 247.097 245.63C247.097 244.895 246.494 244.291 245.76 244.291H246.177C246.92 244.291 247.515 243.688 247.515 242.952L247.507 242.937Z" fill="white"/>
<path d="M233.222 244.547H229.751V252.334H233.222V244.547Z" fill="white"/>
<path d="M28.2433 193.708C29.3279 189.299 26.6384 184.845 22.236 183.759C17.8336 182.673 13.3856 185.366 12.301 189.775C11.2164 194.183 13.906 198.637 18.3084 199.723C22.7107 200.809 27.1588 198.116 28.2433 193.708Z" fill="#3A5898"/>
<path d="M25.4325 191.416C25.4325 190.982 25.0846 190.634 24.6517 190.634H21.722V187.917C21.722 187.127 21.0804 186.493 20.2996 186.493C20.2996 186.493 19.9827 187.84 19.5962 188.459L17.5863 192.352V196.896H23.4999C23.9328 196.896 24.2807 196.548 24.2807 196.114C24.2807 195.681 23.9328 195.332 23.4999 195.332H23.9869C24.4198 195.332 24.7677 194.984 24.7677 194.551C24.7677 194.117 24.4198 193.769 23.9869 193.769H24.4044C24.8373 193.769 25.1851 193.421 25.1851 192.987C25.1851 192.554 24.8373 192.205 24.4044 192.205H24.6517C25.0846 192.205 25.4325 191.857 25.4325 191.423V191.416Z" fill="white"/>
<path d="M17.0916 192.352H15.0662V196.896H17.0916V192.352Z" fill="white"/>
<path d="M222.763 171.508C223.888 167.11 221.24 162.631 216.848 161.504C212.456 160.378 207.983 163.03 206.858 167.428C205.733 171.826 208.381 176.304 212.773 177.431C217.165 178.558 221.638 175.906 222.763 171.508Z" fill="#3A5898"/>
<path d="M220.003 169.208C220.003 168.775 219.655 168.426 219.222 168.426H216.292V165.709C216.292 164.92 215.651 164.285 214.87 164.285C214.87 164.285 214.553 165.632 214.167 166.251L212.157 170.145V174.688H218.07C218.503 174.688 218.851 174.34 218.851 173.907C218.851 173.473 218.503 173.125 218.07 173.125H218.557C218.99 173.125 219.338 172.777 219.338 172.343C219.338 171.91 218.99 171.561 218.557 171.561H218.975C219.408 171.561 219.755 171.213 219.755 170.779C219.755 170.346 219.408 169.998 218.975 169.998H219.222C219.655 169.998 220.003 169.649 220.003 169.216V169.208Z" fill="white"/>
<path d="M211.67 170.145H209.644V174.688H211.67V170.145Z" fill="white"/>
<path d="M160.13 15.0295C161.176 10.6119 158.448 6.18164 154.036 5.13412C149.625 4.08661 145.2 6.81854 144.154 11.2361C143.108 15.6536 145.836 20.0839 150.248 21.1314C154.66 22.1789 159.084 19.447 160.13 15.0295Z" fill="#3A5898"/>
<path d="M157.357 12.9112C157.357 12.4778 157.009 12.1294 156.576 12.1294H153.646V9.41249C153.646 8.62296 153.005 7.98826 152.224 7.98826C152.224 7.98826 151.907 9.33509 151.521 9.95434L149.511 13.8478V18.3915H155.424C155.857 18.3915 156.205 18.0432 156.205 17.6097C156.205 17.1763 155.857 16.8279 155.424 16.8279H155.911C156.344 16.8279 156.692 16.4796 156.692 16.0461C156.692 15.6127 156.344 15.2643 155.911 15.2643H156.329C156.762 15.2643 157.11 14.916 157.11 14.4825C157.11 14.0491 156.762 13.7008 156.329 13.7008H156.576C157.009 13.7008 157.357 13.3524 157.357 12.919V12.9112Z" fill="white"/>
<path d="M149.024 13.8478H146.998V18.3915H149.024V13.8478Z" fill="white"/>
<path d="M98.406 214.295C99.9431 207.819 95.9465 201.322 89.4794 199.783C83.0123 198.244 76.5235 202.245 74.9864 208.721C73.4493 215.197 77.4459 221.694 83.913 223.234C90.3802 224.773 96.8689 220.771 98.406 214.295Z" fill="#3A5898"/>
<path d="M94.309 211.154C94.309 210.519 93.7988 210.009 93.1649 210.009H88.8746V206.03C88.8746 204.877 87.9393 203.94 86.7875 203.94C86.7875 203.94 86.3237 205.914 85.7516 206.827L82.8064 212.532V219.189H91.4797C92.1136 219.189 92.6238 218.678 92.6238 218.043C92.6238 217.408 92.1136 216.898 91.4797 216.898H92.1986C92.8325 216.898 93.3428 216.387 93.3428 215.752C93.3428 215.117 92.8325 214.606 92.1986 214.606H92.8016C93.4355 214.606 93.9457 214.095 93.9457 213.461C93.9457 212.826 93.4355 212.315 92.8016 212.315H93.1572C93.7911 212.315 94.3013 211.804 94.3013 211.17L94.309 211.154Z" fill="white"/>
<path d="M82.0952 212.524H79.1268V219.181H82.0952V212.524Z" fill="white"/>
<path d="M111.122 105.333L97.6639 94.7364C98.4911 91.9111 98.9472 88.9697 98.9472 85.9432C98.9472 64.4477 76.8 47.016 49.4736 47.016C22.1472 47.016 0 64.4399 0 85.9432C0 107.446 22.1472 124.87 49.4736 124.87C68.2504 124.87 84.5844 116.642 92.964 104.513L111.115 105.341L111.122 105.333Z" fill="white"/>
<path d="M49.4736 77.6918C55.4335 77.6918 60.265 72.8538 60.265 66.886C60.265 60.9181 55.4335 56.0802 49.4736 56.0802C43.5137 56.0802 38.6821 60.9181 38.6821 66.886C38.6821 72.8538 43.5137 77.6918 49.4736 77.6918Z" fill="#CDCDCD"/>
<path d="M49.7581 73.369V61.329H50.5283V73.369H49.7581ZM52.3507 64.941C52.2944 64.4644 52.0658 64.0944 51.665 63.831C51.2642 63.5677 50.7726 63.436 50.1902 63.436C49.7643 63.436 49.3917 63.5049 49.0723 63.6429C48.756 63.7809 48.5087 63.9706 48.3302 64.212C48.1548 64.4534 48.0672 64.7278 48.0672 65.035C48.0672 65.2921 48.1282 65.5132 48.2503 65.6982C48.3756 65.88 48.5353 66.0321 48.7294 66.1544C48.9236 66.2735 49.1271 66.3723 49.34 66.4507C49.553 66.5259 49.7487 66.5871 49.9271 66.6341L50.9041 66.8975C51.1546 66.9633 51.4333 67.0543 51.7401 67.1703C52.0501 67.2863 52.346 67.4446 52.6279 67.6453C52.9128 67.8428 53.1476 68.0968 53.3324 68.4072C53.5171 68.7176 53.6095 69.0986 53.6095 69.5501C53.6095 70.0705 53.4733 70.5409 53.2009 70.961C52.9316 71.3812 52.537 71.7151 52.0173 71.9628C51.5006 72.2105 50.8728 72.3343 50.1338 72.3343C49.4449 72.3343 48.8484 72.223 48.3443 72.0004C47.8433 71.7778 47.4487 71.4674 47.1607 71.0692C46.8757 70.671 46.7145 70.2085 46.6769 69.6818H47.8793C47.9106 70.0455 48.0327 70.3465 48.2457 70.5848C48.4617 70.8199 48.7341 70.9955 49.0629 71.1115C49.3948 71.2244 49.7518 71.2808 50.1338 71.2808C50.5784 71.2808 50.9777 71.2087 51.3315 71.0645C51.6853 70.9171 51.9656 70.7133 52.1723 70.4531C52.3789 70.1897 52.4822 69.8824 52.4822 69.5312C52.4822 69.2114 52.393 68.9512 52.2145 68.7505C52.036 68.5499 51.8012 68.3868 51.51 68.2614C51.2188 68.136 50.9041 68.0262 50.5659 67.9322L49.3823 67.5936C48.6308 67.3772 48.0359 67.0684 47.5975 66.667C47.1591 66.2657 46.9399 65.7405 46.9399 65.0915C46.9399 64.5522 47.0855 64.0819 47.3767 63.6805C47.6711 63.2761 48.0656 62.9625 48.5603 62.7399C49.0582 62.5142 49.614 62.4013 50.2277 62.4013C50.8477 62.4013 51.3988 62.5126 51.881 62.7352C52.3633 62.9547 52.7453 63.2557 53.0271 63.6382C53.312 64.0207 53.4623 64.455 53.478 64.941H52.3507Z" fill="white"/>
<path d="M52.9213 88.4046H46.0336V109.776H52.9213V88.4046Z" fill="#CDCDCD"/>
<path d="M63.1329 92.453H56.2453V109.776H63.1329V92.453Z" fill="#CDCDCD"/>
<path d="M73.3446 99.0866H66.4569V109.776H73.3446V99.0866Z" fill="#CDCDCD"/>
<path d="M32.5057 88.4046H25.618V109.776H32.5057V88.4046Z" fill="#CDCDCD"/>
<path d="M42.7096 83.2417H35.8219V109.776H42.7096V83.2417Z" fill="#CDCDCD"/>
<path d="M46.2578 222.633C53.5924 222.633 59.5383 216.679 59.5383 209.335C59.5383 201.991 53.5924 196.037 46.2578 196.037C38.9231 196.037 32.9772 201.991 32.9772 209.335C32.9772 216.679 38.9231 222.633 46.2578 222.633Z" fill="#FDC300"/>
<path d="M54.4983 210.225C54.4983 214.784 50.8109 218.477 46.2578 218.477C41.7047 218.477 38.0174 214.784 38.0174 210.225H54.4983Z" fill="#E03E3B"/>
<path d="M43.6063 207.601C43.3667 207.601 43.1503 207.431 43.1039 207.183C42.7483 205.302 41.6892 203.986 40.5374 203.986C39.3856 203.986 38.3266 205.302 37.9787 207.183C37.9246 207.462 37.6618 207.64 37.3835 207.593C37.1052 207.539 36.9196 207.276 36.9737 206.997C37.4221 204.582 38.8522 202.965 40.5374 202.965C42.2226 202.965 43.6527 204.582 44.1088 206.997C44.1629 207.276 43.9774 207.539 43.6991 207.593C43.6681 207.593 43.6372 207.601 43.6063 207.601Z" fill="#30201D"/>
<path d="M55.0471 207.601C54.8074 207.601 54.591 207.431 54.5446 207.183C54.189 205.302 53.13 203.986 51.9782 203.986C50.8264 203.986 49.7673 205.302 49.4195 207.183C49.3653 207.462 49.1025 207.64 48.8242 207.593C48.5459 207.539 48.3681 207.276 48.4145 206.997C48.8629 204.582 50.3007 202.965 51.9782 202.965C53.6556 202.965 55.0935 204.582 55.5495 206.997C55.6036 207.276 55.4181 207.539 55.1398 207.593C55.1089 207.593 55.078 207.601 55.0471 207.601Z" fill="#30201D"/>
<path d="M38.7826 251.459C43.8546 251.459 47.9662 247.342 47.9662 242.263C47.9662 237.185 43.8546 233.068 38.7826 233.068C33.7107 233.068 29.5991 237.185 29.5991 242.263C29.5991 247.342 33.7107 251.459 38.7826 251.459Z" fill="#FDC300"/>
<path d="M44.4798 242.875C44.4798 246.025 41.9289 248.58 38.7826 248.58C35.6364 248.58 33.0855 246.025 33.0855 242.875H44.4798Z" fill="#E03E3B"/>
<path d="M36.9506 241.064C36.7805 241.064 36.6336 240.947 36.6027 240.777C36.3553 239.477 35.6287 238.563 34.8248 238.563C34.0208 238.563 33.2942 239.469 33.0546 240.777C33.0159 240.971 32.8304 241.094 32.6448 241.064C32.4516 241.025 32.3279 240.847 32.3588 240.653C32.668 238.981 33.6575 237.867 34.8248 237.867C35.992 237.867 36.9815 238.989 37.2907 240.653C37.3294 240.847 37.198 241.033 37.0124 241.064C36.9893 241.064 36.966 241.064 36.9428 241.064H36.9506Z" fill="#30201D"/>
<path d="M44.8664 241.064C44.6963 241.064 44.5494 240.947 44.5185 240.777C44.2711 239.477 43.5445 238.563 42.7405 238.563C41.9366 238.563 41.21 239.469 40.9703 240.777C40.9317 240.971 40.7539 241.094 40.5606 241.064C40.3673 241.025 40.2437 240.839 40.2746 240.653C40.5838 238.981 41.5733 237.867 42.7405 237.867C43.9078 237.867 44.8973 238.989 45.2065 240.653C45.2451 240.847 45.1137 241.033 44.9282 241.064C44.905 241.064 44.8818 241.064 44.8586 241.064H44.8664Z" fill="#30201D"/>
<path d="M306.836 167.187C307.645 162.173 304.242 157.452 299.235 156.642C294.228 155.832 289.513 159.239 288.704 164.253C287.895 169.266 291.298 173.988 296.305 174.798C301.312 175.608 306.027 172.201 306.836 167.187Z" fill="#FDC300"/>
<path d="M303.505 166.383C303.505 169.533 300.954 172.088 297.808 172.088C294.662 172.088 292.111 169.533 292.111 166.383H303.505Z" fill="#E03E3B"/>
<path d="M295.968 164.564C295.798 164.564 295.651 164.448 295.62 164.277C295.373 162.977 294.646 162.064 293.842 162.064C293.038 162.064 292.312 162.969 292.072 164.277C292.033 164.471 291.848 164.595 291.662 164.564C291.469 164.525 291.345 164.347 291.376 164.154C291.685 162.482 292.675 161.367 293.842 161.367C295.009 161.367 295.999 162.489 296.308 164.154C296.347 164.347 296.215 164.533 296.03 164.564C296.007 164.564 295.983 164.564 295.96 164.564H295.968Z" fill="#30201D"/>
<path d="M303.884 164.564C303.714 164.564 303.567 164.448 303.536 164.277C303.289 162.977 302.562 162.064 301.758 162.064C300.954 162.064 300.227 162.969 299.988 164.277C299.949 164.471 299.771 164.595 299.578 164.564C299.385 164.525 299.261 164.339 299.292 164.154C299.601 162.489 300.591 161.367 301.758 161.367C302.925 161.367 303.915 162.489 304.224 164.154C304.263 164.347 304.131 164.533 303.946 164.564C303.922 164.564 303.899 164.564 303.876 164.564H303.884Z" fill="#30201D"/>
<path d="M243.201 162.952C243.782 159.353 241.339 155.962 237.744 155.38C234.149 154.798 230.764 157.244 230.182 160.843C229.6 164.443 232.043 167.833 235.638 168.416C239.233 168.998 242.619 166.552 243.201 162.952Z" fill="#FDC300"/>
<path d="M240.805 162.381C240.805 164.641 238.973 166.476 236.716 166.476C234.458 166.476 232.626 164.641 232.626 162.381H240.805Z" fill="#E03E3B"/>
<path d="M235.394 161.073C235.278 161.073 235.17 160.988 235.146 160.864C234.969 159.927 234.443 159.277 233.871 159.277C233.299 159.277 232.773 159.927 232.595 160.864C232.572 161.003 232.441 161.088 232.302 161.065C232.163 161.042 232.07 160.91 232.101 160.771C232.325 159.571 233.036 158.766 233.871 158.766C234.706 158.766 235.417 159.571 235.641 160.771C235.664 160.91 235.579 161.042 235.44 161.065C235.425 161.065 235.409 161.065 235.394 161.065V161.073Z" fill="#30201D"/>
<path d="M241.076 161.073C240.96 161.073 240.851 160.988 240.828 160.864C240.65 159.927 240.125 159.277 239.553 159.277C238.981 159.277 238.455 159.927 238.277 160.864C238.254 161.003 238.123 161.088 237.983 161.065C237.844 161.042 237.752 160.91 237.782 160.771C238.007 159.571 238.718 158.766 239.553 158.766C240.388 158.766 241.099 159.571 241.323 160.771C241.346 160.91 241.261 161.042 241.122 161.065C241.106 161.065 241.091 161.065 241.076 161.065V161.073Z" fill="#30201D"/>
<path d="M173.065 42.0389C178.137 42.0389 182.248 37.9218 182.248 32.8431C182.248 27.7644 178.137 23.6473 173.065 23.6473C167.993 23.6473 163.881 27.7644 163.881 32.8431C163.881 37.9218 167.993 42.0389 173.065 42.0389Z" fill="#FDC300"/>
<path d="M178.77 33.4623C178.77 36.6127 176.219 39.1671 173.072 39.1671C169.926 39.1671 167.375 36.6127 167.375 33.4623H178.77Z" fill="#E03E3B"/>
<path d="M171.233 31.6433C171.063 31.6433 170.916 31.5272 170.885 31.3569C170.638 30.0565 169.911 29.1431 169.107 29.1431C168.303 29.1431 167.576 30.0488 167.337 31.3569C167.298 31.5504 167.113 31.6743 166.927 31.6433C166.734 31.6046 166.61 31.4266 166.641 31.233C166.95 29.5611 167.94 28.4465 169.107 28.4465C170.274 28.4465 171.264 29.5688 171.573 31.233C171.611 31.4266 171.48 31.6124 171.295 31.6433C171.271 31.6433 171.248 31.6433 171.225 31.6433H171.233Z" fill="#30201D"/>
<path d="M179.149 31.6433C178.978 31.6433 178.832 31.5272 178.801 31.3569C178.553 30.0565 177.827 29.1431 177.023 29.1431C176.219 29.1431 175.492 30.0488 175.252 31.3569C175.214 31.5504 175.036 31.6743 174.843 31.6433C174.65 31.6046 174.526 31.4188 174.557 31.233C174.866 29.5688 175.855 28.4465 177.023 28.4465C178.19 28.4465 179.179 29.5688 179.496 31.233C179.535 31.4266 179.404 31.6124 179.218 31.6433C179.195 31.6433 179.172 31.6433 179.149 31.6433Z" fill="#30201D"/>
<path d="M323.555 103.818C325.628 95.106 320.255 86.3608 311.555 84.2853C302.854 82.2097 294.12 87.5898 292.047 96.3021C289.975 105.014 295.348 113.76 304.048 115.835C312.749 117.911 321.483 112.531 323.555 103.818Z" fill="#FDC300"/>
<path d="M317.906 101.215C317.906 106.773 313.407 111.278 307.857 111.278C302.307 111.278 297.808 106.773 297.808 101.215H317.906Z" fill="#E03E3B"/>
<path d="M304.618 98.0029C304.324 98.0029 304.062 97.794 304.007 97.4921C303.575 95.1931 302.284 93.5908 300.877 93.5908C299.47 93.5908 298.179 95.1931 297.754 97.4921C297.692 97.8327 297.367 98.0494 297.027 97.9952C296.687 97.9333 296.463 97.6081 296.525 97.2676C297.073 94.3262 298.82 92.3446 300.877 92.3446C302.933 92.3446 304.68 94.3184 305.229 97.2598C305.291 97.6004 305.074 97.9255 304.734 97.9874C304.695 97.9874 304.657 97.9952 304.618 97.9952V98.0029Z" fill="#30201D"/>
<path d="M318.579 98.0029C318.285 98.0029 318.022 97.794 317.968 97.4921C317.535 95.1931 316.244 93.5908 314.838 93.5908C313.431 93.5908 312.14 95.1931 311.715 97.4921C311.653 97.8327 311.328 98.0494 310.988 97.9874C310.648 97.9255 310.424 97.6004 310.493 97.2598C311.042 94.3184 312.789 92.3368 314.845 92.3368C316.901 92.3368 318.649 94.3107 319.205 97.2521C319.267 97.5927 319.051 97.9178 318.71 97.9797C318.672 97.9797 318.633 97.9874 318.594 97.9874L318.579 98.0029Z" fill="#30201D"/>
<path d="M99.6815 151.428C100.014 152.465 99.4419 153.58 98.4061 153.913C97.3702 154.246 96.257 153.673 95.9246 152.636C95.5922 151.598 96.1643 150.484 97.2001 150.151C98.236 149.818 99.3491 150.391 99.6815 151.428Z" fill="white"/>
<path d="M102.318 138.354C102.178 138.401 102.032 138.409 101.877 138.37C99.125 137.743 96.2416 137.874 93.5438 138.741C90.8459 139.608 88.4263 141.18 86.5478 143.293C86.2386 143.633 85.713 143.664 85.3729 143.362C85.0327 143.053 85.0018 142.526 85.3033 142.186C87.375 139.856 90.0497 138.114 93.0335 137.162C96.0174 136.202 99.2023 136.063 102.24 136.76C102.689 136.86 102.967 137.309 102.866 137.758C102.797 138.052 102.58 138.277 102.31 138.37L102.318 138.354Z" fill="white"/>
<path d="M101.545 141.59C101.413 141.636 101.259 141.644 101.112 141.613C98.9472 141.133 96.6822 141.242 94.5641 141.915C92.446 142.596 90.5444 143.827 89.0602 145.476C88.7509 145.816 88.2253 145.847 87.8852 145.538C87.5451 145.228 87.5141 144.702 87.8233 144.361C89.5085 142.496 91.6575 141.095 94.0539 140.328C96.4503 139.562 99.0167 139.438 101.467 139.988C101.916 140.088 102.202 140.529 102.101 140.978C102.032 141.28 101.815 141.505 101.545 141.59Z" fill="white"/>
<path d="M100.764 144.833C100.632 144.88 100.485 144.887 100.331 144.856C98.7616 144.516 97.1151 144.593 95.5767 145.089C94.0384 145.584 92.647 146.474 91.5725 147.666C91.2633 148.007 90.7376 148.03 90.3975 147.728C90.0574 147.418 90.0342 146.892 90.3434 146.552C91.6189 145.143 93.2577 144.09 95.0743 143.502C96.8909 142.921 98.839 142.821 100.694 143.231C101.143 143.331 101.429 143.773 101.328 144.222C101.266 144.524 101.042 144.748 100.771 144.841L100.764 144.833Z" fill="white"/>
<path d="M99.9908 148.061C99.8593 148.1 99.7202 148.115 99.5733 148.084C97.6021 147.689 95.4299 148.386 94.0694 149.849C93.7602 150.182 93.2268 150.205 92.8944 149.888C92.562 149.57 92.5388 149.044 92.8557 148.711C94.6028 146.83 97.3779 145.94 99.9057 146.451C100.354 146.544 100.648 146.977 100.555 147.434C100.493 147.744 100.269 147.976 99.9908 148.061Z" fill="white"/>
<path d="M197.09 0H244.044C246.626 0 248.736 2.11317 248.736 4.69851V14.32C248.736 16.9053 246.626 19.0185 244.044 19.0185H210.843L203.205 26.3643L204.233 19.0185H197.09C194.508 19.0185 192.398 16.9053 192.398 14.32V4.69851C192.398 2.11317 194.508 0 197.09 0Z" fill="#E03E3B"/>
<path d="M216.761 14.4361L221.011 6.01857V5.94424H216.112V4.92225H222.198V5.99999L217.967 14.4361H216.761Z" fill="white"/>
<path d="M226.822 14.5661C226.123 14.5661 225.528 14.3757 225.036 13.9948C224.545 13.6107 224.169 13.0548 223.909 12.3271C223.649 11.5962 223.519 10.7135 223.519 9.67916C223.519 8.65097 223.649 7.77299 223.909 7.04521C224.172 6.31433 224.549 5.75688 225.041 5.37286C225.536 4.98574 226.13 4.79218 226.822 4.79218C227.515 4.79218 228.108 4.98574 228.599 5.37286C229.094 5.75688 229.471 6.31433 229.731 7.04521C229.994 7.77299 230.126 8.65097 230.126 9.67916C230.126 10.7135 229.996 11.5962 229.736 12.3271C229.476 13.0548 229.1 13.6107 228.609 13.9948C228.117 14.3757 227.521 14.5661 226.822 14.5661ZM226.822 13.5442C227.515 13.5442 228.053 13.2097 228.437 12.5407C228.82 11.8718 229.012 10.9179 229.012 9.67916C229.012 8.85537 228.924 8.15391 228.748 7.57478C228.575 6.99566 228.324 6.55434 227.996 6.25084C227.671 5.94734 227.28 5.79559 226.822 5.79559C226.136 5.79559 225.599 6.1347 225.213 6.81294C224.826 7.48807 224.633 8.44348 224.633 9.67916C224.633 10.5029 224.719 11.2029 224.893 11.7789C225.066 12.3549 225.315 12.7931 225.639 13.0935C225.967 13.3939 226.362 13.5442 226.822 13.5442Z" fill="white"/>
<path d="M234.988 14.5661C234.289 14.5661 233.693 14.3757 233.201 13.9948C232.71 13.6107 232.334 13.0548 232.074 12.3271C231.814 11.5962 231.684 10.7135 231.684 9.67916C231.684 8.65097 231.814 7.77299 232.074 7.04521C232.337 6.31433 232.714 5.75688 233.206 5.37286C233.701 4.98574 234.295 4.79218 234.988 4.79218C235.68 4.79218 236.273 4.98574 236.764 5.37286C237.259 5.75688 237.637 6.31433 237.896 7.04521C238.159 7.77299 238.291 8.65097 238.291 9.67916C238.291 10.7135 238.161 11.5962 237.901 12.3271C237.641 13.0548 237.265 13.6107 236.774 13.9948C236.282 14.3757 235.687 14.5661 234.988 14.5661ZM234.988 13.5442C235.68 13.5442 236.219 13.2097 236.602 12.5407C236.986 11.8718 237.177 10.9179 237.177 9.67916C237.177 8.85537 237.089 8.15391 236.913 7.57478C236.74 6.99566 236.489 6.55434 236.161 6.25084C235.837 5.94734 235.445 5.79559 234.988 5.79559C234.301 5.79559 233.764 6.1347 233.378 6.81294C232.991 7.48807 232.798 8.44348 232.798 9.67916C232.798 10.5029 232.884 11.2029 233.058 11.7789C233.231 12.3549 233.48 12.7931 233.805 13.0935C234.132 13.3939 234.527 13.5442 234.988 13.5442Z" fill="white"/>
<path d="M243.153 14.5661C242.454 14.5661 241.858 14.3757 241.367 13.9948C240.875 13.6107 240.499 13.0548 240.239 12.3271C239.979 11.5962 239.849 10.7135 239.849 9.67916C239.849 8.65097 239.979 7.77299 240.239 7.04521C240.502 6.31433 240.879 5.75688 241.371 5.37286C241.866 4.98574 242.46 4.79218 243.153 4.79218C243.845 4.79218 244.438 4.98574 244.929 5.37286C245.424 5.75688 245.802 6.31433 246.061 7.04521C246.324 7.77299 246.456 8.65097 246.456 9.67916C246.456 10.7135 246.326 11.5962 246.066 12.3271C245.806 13.0548 245.43 13.6107 244.939 13.9948C244.447 14.3757 243.852 14.5661 243.153 14.5661ZM243.153 13.5442C243.845 13.5442 244.384 13.2097 244.767 12.5407C245.151 11.8718 245.342 10.9179 245.342 9.67916C245.342 8.85537 245.254 8.15391 245.078 7.57478C244.905 6.99566 244.654 6.55434 244.326 6.25084C244.002 5.94734 243.61 5.79559 243.153 5.79559C242.466 5.79559 241.929 6.1347 241.543 6.81294C241.156 7.48807 240.963 8.44348 240.963 9.67916C240.963 10.5029 241.05 11.2029 241.223 11.7789C241.396 12.3549 241.645 12.7931 241.97 13.0935C242.297 13.3939 242.692 13.5442 243.153 13.5442Z" fill="white"/>
<path d="M211.677 5.51126C209.528 1.12238 205.145 7.09806 205.145 7.09806C205.145 7.09806 200.762 1.11464 198.613 5.51126C196.464 9.90015 205.145 15.1405 205.145 15.1405C205.145 15.1405 213.826 9.90789 211.677 5.51126Z" fill="white"/>
</svg>
