<svg width="498" height="300" viewBox="0 0 498 300" fill="none" xmlns="http://www.w3.org/2000/svg">
<path d="M290.23 146.831H282.855V242.079H290.23V146.831Z" fill="#F0DBD1"/>
<path d="M300.488 108.662H272.605V129.875H300.488V108.662Z" fill="#242A60"/>
<path d="M326.078 110.579V8.73631C326.078 3.91244 323.109 0 319.449 0H253.636C249.976 0 247.007 3.91244 247.007 8.73631V110.579H326.078Z" fill="#23C0DF"/>
<path d="M337.097 138.43C337.097 139.832 334.229 140.967 330.694 140.967H239.034C235.498 140.967 232.63 139.832 232.63 138.43L244.489 122.265C245.864 120.691 247.356 119.728 250.892 119.728H322.044C325.58 119.728 327.764 120.786 328.448 122.265L337.089 138.43H337.097Z" fill="#23C0DF"/>
<path d="M232.63 138.301V144.596C232.63 146.281 235.086 147.648 238.124 147.648H331.611C334.641 147.648 337.097 146.281 337.097 144.596V138.301H232.63Z" fill="#009FC3"/>
<path d="M259.79 147.648C262.409 153.547 267.18 157.502 272.636 157.502H299.741C305.197 157.502 309.968 153.556 312.587 147.648H259.79Z" fill="#F0DBD1"/>
<path d="M243.417 242.724C245.561 233.119 252.011 222.397 259.604 216.206C267.204 210.006 276.778 206.584 286.546 206.584C296.314 206.584 305.881 209.997 313.488 216.206C321.073 222.397 327.508 233.119 329.652 242.724H321.586C317.972 226.541 303.238 214.795 286.546 214.795C269.854 214.795 255.112 226.541 251.506 242.724H243.417Z" fill="#F0DBD1"/>
<path d="M253.744 242.079C253.744 246.869 250.333 250.755 246.129 250.755C241.925 250.755 238.513 246.869 238.513 242.079C238.513 237.29 241.925 233.412 246.129 233.412C250.333 233.412 253.744 237.298 253.744 242.079Z" fill="#171541"/>
<path d="M294.146 242.079C294.146 246.869 290.743 250.755 286.531 250.755C282.319 250.755 278.915 246.869 278.915 242.079C278.915 237.29 282.327 233.412 286.531 233.412C290.735 233.412 294.146 237.298 294.146 242.079Z" fill="#171541"/>
<path d="M333.693 242.079C333.693 246.869 330.282 250.755 326.078 250.755C321.873 250.755 318.462 246.869 318.462 242.079C318.462 237.29 321.873 233.412 326.078 233.412C330.282 233.412 333.693 237.298 333.693 242.079Z" fill="#171541"/>
<path d="M181.489 146.831H174.114V242.079H181.489V146.831Z" fill="#F0DBD1"/>
<path d="M191.739 108.662H163.856V129.875H191.739V108.662Z" fill="#242A60"/>
<path d="M217.329 110.579V8.7277C217.329 3.90383 214.361 0 210.7 0H144.895C141.235 0 138.266 3.91243 138.266 8.7277V110.579H217.329Z" fill="#23C0DF"/>
<path d="M228.349 138.43C228.349 139.832 225.481 140.967 221.945 140.967H130.285C126.749 140.967 123.882 139.832 123.882 138.43L135.741 122.265C137.116 120.691 138.608 119.728 142.144 119.728H213.296C216.832 119.728 219.016 120.786 219.7 122.265L228.349 138.43Z" fill="#23C0DF"/>
<path d="M123.882 138.301V144.596C123.882 146.281 126.345 147.648 129.376 147.648H222.862C225.893 147.648 228.357 146.281 228.357 144.596V138.301H123.882Z" fill="#009FC3"/>
<path d="M151.042 147.648C153.653 153.547 158.425 157.502 163.888 157.502H190.993C196.449 157.502 201.22 153.556 203.839 147.648H151.042Z" fill="#F0DBD1"/>
<path d="M134.676 242.724C136.821 233.119 143.279 222.397 150.863 216.206C158.463 210.006 168.037 206.584 177.806 206.584C187.574 206.584 197.148 209.997 204.748 216.206C212.333 222.397 218.767 233.111 220.912 242.724H212.845C209.232 226.541 194.498 214.795 177.806 214.795C161.113 214.795 146.372 226.541 142.766 242.724H134.676Z" fill="#F0DBD1"/>
<path d="M144.996 242.079C144.996 246.869 141.585 250.755 137.38 250.755C133.176 250.755 129.765 246.869 129.765 242.079C129.765 237.29 133.176 233.412 137.38 233.412C141.585 233.412 144.996 237.298 144.996 242.079Z" fill="#171541"/>
<path d="M185.406 242.079C185.406 246.869 181.994 250.755 177.79 250.755C173.586 250.755 170.175 246.869 170.175 242.079C170.175 237.29 173.586 233.412 177.79 233.412C181.994 233.412 185.406 237.298 185.406 242.079Z" fill="#171541"/>
<path d="M224.945 242.079C224.945 246.869 221.533 250.755 217.329 250.755C213.125 250.755 209.714 246.869 209.714 242.079C209.714 237.29 213.117 233.412 217.329 233.412C221.541 233.412 224.945 237.298 224.945 242.079Z" fill="#171541"/>
<path d="M23.9822 111.671H14.6257V295.804H23.9822V111.671Z" fill="#242A60"/>
<path d="M53.8542 99.9599H44.4978V264.212H53.8542V99.9599Z" fill="#242A60"/>
<path d="M435.601 115.867H426.244V300H435.601V115.867Z" fill="#242A60"/>
<path d="M405.721 99.9599H396.365V264.212H405.721V99.9599Z" fill="#242A60"/>
<path d="M435.966 108.859H14.6257V122.101H435.966V108.859Z" fill="#242A60"/>
<path d="M448.734 108.859H1.85772L54.9109 88.9105H409.451L448.734 108.859Z" fill="white"/>
<path d="M152.872 299.991L155.47 132.317C155.47 124.862 146.069 119.083 139.154 116.289C127.775 111.68 114.469 111.921 114.469 111.921C114.469 111.921 111.794 128.293 96.9578 128.293C83.4458 128.293 80.1947 111.921 80.1947 111.921C80.1947 111.921 68.2825 112.058 54.8049 117.673C47.9156 120.545 42.2905 125.851 41.4907 134.183C37.5945 174.846 37.5171 252.492 37.8956 299.991H152.872Z" fill="#B3C8E7"/>
<path d="M114.83 113.692C114.83 113.692 112.895 130.322 97.2331 130.322C82.7836 130.322 80.1947 113.692 80.1947 113.692V96.7354H114.83V113.692Z" fill="#F59079"/>
<path d="M130.897 77.1475C123.517 101.705 110.126 106.495 97.1557 106.495C84.1856 106.495 71.181 100.115 63.7928 76.1501C60.7825 66.3648 60.6535 50.4142 62.1931 42.0047C66.5881 18.0401 81.5192 11.2901 97.5083 11.2901C113.497 11.2901 127.104 16.243 132.299 40.0098C134.148 48.4967 134.914 63.8024 130.897 77.1475Z" fill="#F69A83"/>
<path d="M49.524 120.562C49.524 120.562 17.2706 129.453 1.96964 248.133L30.9546 252.974C30.9546 252.974 37.543 191.295 38.5665 180.839C41.68 149.196 49.524 120.562 49.524 120.562Z" fill="#0000BF"/>
<path d="M25.6221 299.991L31.1696 251.082L1.89226 247.823L0 299.991H25.6221Z" fill="#0000BF"/>
<path d="M140.246 117.106C140.246 117.106 173.222 122.738 200.28 239.302L171.923 247.006C171.923 247.006 156.923 187.03 154.859 176.72C148.606 145.55 140.255 117.097 140.255 117.097L140.246 117.106Z" fill="#0000BF"/>
<path d="M208.666 299.991L200.315 238.992L171.51 245.149L183.362 299.991H208.666Z" fill="#242A60"/>
<path d="M78.9734 35.2203C78.9734 35.2203 68.6523 39.6314 68.4545 54.5072C68.3685 60.8444 68.5232 64.1549 62.8724 66.124C62.8724 66.124 58.1936 55.1091 63.5347 32.7611L78.9734 35.2289V35.2203Z" fill="#6E2C13"/>
<path d="M118.916 35.5126C118.916 35.5126 127.328 39.1671 127.525 54.0429C127.611 60.3801 125.289 66.468 132.703 67.6202C132.703 67.6202 137.365 56.1839 132.006 32.9674L118.916 35.5212V35.5126Z" fill="#6E2C13"/>
<path d="M97.6803 129.987C97.6803 129.987 104.63 141.036 116.387 145.662C116.387 145.662 116.783 121.706 122.029 112.634C122.029 112.634 118.15 111.783 114.813 111.921C114.813 111.921 108.036 130.245 97.6803 129.978V129.987Z" fill="#91ADDA"/>
<path d="M97.6803 129.987C97.6803 129.987 89.3547 142.936 78.9734 145.662C78.9734 145.662 78.5777 121.706 73.3312 112.634C73.3312 112.634 77.5628 111.792 80.2033 111.929C80.2033 111.929 88.7784 130.7 97.6889 129.987L97.6803 129.987Z" fill="#91ADDA"/>
<path d="M102.067 148.998L106.591 139.548L97.6803 129.987L88.7698 139.548L93.2939 148.998H102.067Z" fill="#85A9D9"/>
<path d="M108.861 264.797L97.1557 278.641L84.6758 264.797L93.2939 148.998H102.136L108.861 264.797Z" fill="#85A9D9"/>
<path d="M159.77 299.991C156.975 228.33 155.324 132.274 155.324 132.274C155.324 124.819 145.931 119.04 139.016 116.237C130.725 112.884 119.621 111.697 114.813 111.921L116.654 299.991H159.77Z" fill="#0000BF"/>
<path d="M79.2314 299.991L80.1947 111.921C74.8449 111.903 63.6036 113.787 54.9425 117.398C48.0618 120.261 43.1163 125.859 42.3164 134.191C37.8526 180.667 34.8594 247.952 33.6725 299.983H79.2314V299.991Z" fill="#0000BF"/>
<path d="M121.677 112.265C123.38 112.574 140.238 147.158 140.238 147.158L131.258 154.613L139.403 189.223L116.207 254.307L114.805 111.921C114.805 111.921 118.993 111.783 121.677 112.265Z" fill="#1B1A47"/>
<path d="M73.6408 112.471L54.3146 147.451L63.294 154.906L55.1575 189.515L79.4636 255.906L80.1947 111.929L73.6408 112.471Z" fill="#1B1A47"/>
<path d="M63.4143 33.148C63.4143 33.148 75.1374 48.4623 96.4504 43.9394C117.763 39.4164 124.713 32.7524 135.851 32.9674C135.851 32.9674 121.737 10.542 103.34 8.6245C86.1637 6.82738 71.0863 10.8171 63.4143 33.1566V33.148Z" fill="#6E2C13"/>
<path d="M65.3238 62.4953C65.3238 62.4953 67.7923 83.7858 78.9734 88.3861C78.9734 88.3861 95.1516 75.8062 111.726 88.3861C111.726 88.3861 127.525 84.1985 129.297 65.3243L132.394 70.5179C132.394 70.5179 128.515 107.157 96.6052 107.157C96.6052 107.157 65.1088 109.35 61.2212 62.6243L65.3152 62.5039L65.3238 62.4953Z" fill="#6E2C13"/>
<path d="M67.2418 63.5272C68.1707 67.3708 66.9666 70.9651 64.5583 71.5498C62.1415 72.1345 59.4322 69.4861 58.5033 65.6339C57.5744 61.7902 58.7785 58.196 61.1867 57.6199C63.6036 57.0438 66.3129 59.6836 67.2332 63.5272H67.2418Z" fill="#F69A83"/>
<path d="M127.534 65.0664C126.605 68.91 127.809 72.5042 130.217 73.0803C132.626 73.665 135.335 71.0167 136.264 67.173C137.193 63.3294 135.989 59.7352 133.58 59.159C131.172 58.5743 128.463 61.2228 127.534 65.0664Z" fill="#F69A83"/>
<path d="M440.116 299.673L442.756 127.123C442.756 119.668 433.459 113.89 426.621 111.087C415.371 106.486 402.203 106.727 402.203 106.727C402.203 106.727 399.554 123.099 384.881 123.099C371.515 123.099 368.299 106.727 368.299 106.727C368.299 106.727 356.515 106.865 343.175 112.48C336.363 115.343 330.79 120.657 330.007 128.989C326.017 171.071 326.068 252.785 326.49 299.673H440.116Z" fill="#91ADDA"/>
<path d="M402.556 108.49C402.556 108.49 400.638 125.12 385.148 125.12C370.853 125.12 368.29 108.49 368.29 108.49V91.5332H402.556V108.49Z" fill="#F59079"/>
<path d="M418.45 71.9539C411.14 96.5118 397.903 101.293 385.062 101.293C372.221 101.293 359.362 94.9125 352.052 70.9565C349.067 61.1712 348.947 45.2206 350.469 36.811C354.821 12.8551 369.597 6.0965 385.414 6.0965C401.231 6.0965 414.692 11.0493 419.827 34.8161C421.659 43.303 422.415 58.6087 418.442 71.9539H418.45Z" fill="#F69A83"/>
<path d="M342.075 112.97C342.075 112.97 309.451 118.602 282.685 235.166L310.742 242.87C310.742 242.87 325.578 182.894 327.625 172.584C333.809 141.414 342.075 112.961 342.075 112.961V112.97Z" fill="#0000BF"/>
<path d="M298.597 299.673L311.129 241.022L282.634 234.865L273.861 299.673H298.597Z" fill="#242A60"/>
<path d="M429.709 112.454C429.709 112.454 462.341 118.086 489.107 234.65L461.051 242.363C461.051 242.363 446.214 182.387 444.167 172.077C437.983 140.907 429.718 112.454 429.718 112.454H429.709Z" fill="#0000BF"/>
<path d="M498 299.673L489.141 234.34L460.655 240.506L473.298 299.673H498Z" fill="#0000BF"/>
<path d="M351.329 29.055C351.329 29.055 362.287 37.4388 380.185 38.8747C380.185 38.8747 373.898 34.0165 374.715 30.319C374.715 30.319 384.081 42.0993 410.159 39.8464C410.159 39.8464 403.64 36.8025 402.556 33.7585C402.556 33.7585 414.451 35.1687 419.844 30.147C419.844 30.147 419.448 6.8532 387.229 5.61499C376.556 5.20225 358.786 4.35097 351.338 29.0378L351.329 29.055Z" fill="#6E2C13"/>
<path d="M367.077 30.0267C367.077 30.0267 358.184 34.4206 357.986 49.2877C357.9 55.625 358.124 59.7781 350.787 60.9304C350.787 60.9304 345.308 47.9549 351.802 27.5588L367.077 30.0267Z" fill="#6E2C13"/>
<path d="M406.598 30.3276C406.598 30.3276 413.118 34.1197 413.316 48.9954C413.402 55.3327 412.507 61.7816 419.835 62.9339C419.835 62.9339 424.841 50.9903 419.543 27.7738L406.598 30.3276Z" fill="#6E2C13"/>
<path d="M353.918 57.7919C354.486 61.7043 352.972 65.1696 350.546 65.5307C348.121 65.8919 345.687 63.0113 345.119 59.0903C344.552 55.1779 346.057 51.7126 348.491 51.3515C350.916 50.9903 353.35 53.8709 353.918 57.7833V57.7919Z" fill="#F69A83"/>
<path d="M415.449 57.6973C414.795 61.5925 416.231 65.0921 418.657 65.5049C421.074 65.9176 423.568 63.0887 424.213 59.1849C424.858 55.281 423.422 51.7814 421.005 51.3686C418.579 50.9559 416.094 53.7849 415.44 57.6887L415.449 57.6973Z" fill="#F69A83"/>
<path d="M447.203 299.673C444.313 227.573 442.61 127.072 442.61 127.072C442.61 119.617 433.313 113.847 426.475 111.044C418.278 107.69 410.667 106.908 406.272 106.727L404.99 299.673H447.203Z" fill="#1D3BD0"/>
<path d="M365.994 299.673L364.239 107.028C359.663 107.527 351.733 108.877 343.158 112.488C336.346 115.352 330.773 120.666 329.99 128.998C325.44 176.944 322.421 247.041 321.329 299.682H365.994V299.673Z" fill="#0000BF"/>
<path d="M207.376 62.1858C207.376 62.1858 186.743 141.019 213.861 142.893C234.925 144.346 264.495 154.071 298.236 139.299C298.236 139.299 281.585 111.964 280.337 63.9571L207.376 62.1944V62.1858Z" fill="#6E2C13"/>
<path d="M197.218 299.991H290.521C286.229 283.516 280.243 264.978 280.053 245.691C279.692 209.688 289.566 184.984 283.141 147.287C281.404 137.098 278.032 124.733 269.5 121.121C261.089 117.57 252.126 118.223 252.126 118.223C252.126 118.223 251.714 129.763 242.244 130.967C232.783 129.754 232.37 118.223 232.37 118.223C232.37 118.223 225.154 117.037 216.742 120.588C208.21 124.191 203.652 137.476 202.121 147.7C196.272 186.79 205.054 209.954 204.693 245.957C204.512 264.1 200.487 285.21 197.227 299.983L197.218 299.991Z" fill="#F2C55A"/>
<path d="M255.773 120.433C255.773 120.433 255.515 131.543 243.431 131.543C231.347 131.543 231.502 120.433 231.502 120.433V102.677H255.773V120.433Z" fill="#F59079"/>
<path d="M272.072 84.4994C262.319 108.739 251.275 112.901 242.657 112.901C235.871 112.901 223.124 104.964 213.121 81.9026C209.122 72.6762 209.87 60.0361 211.393 51.7814C215.736 28.2639 232.439 24.1452 243.018 24.1452C254.165 24.1452 269.99 29.227 275.117 52.5466C276.949 60.8788 277.181 71.7905 272.063 84.4908L272.072 84.4994Z" fill="#F69A83"/>
<path d="M217.25 110.631C216.33 92.2211 212.287 73.3039 212.829 70.8447C214.661 62.6157 222.488 65.1867 224.853 47.5594C224.853 47.5594 245.856 33.4575 247.155 23.0101C247.155 23.0101 215.254 21.0754 208.769 53.5441C205.811 68.3339 205.14 89.2975 205.14 110.622H217.25V110.631Z" fill="#6E2C13"/>
<path d="M273.448 65.1265C274.007 68.1017 272.674 85.1701 268.58 111.405L282.101 109.857C281.421 83.5278 280.14 57.8091 279.649 53.7247C278.29 42.3572 271.745 26.6818 251.834 23.4143C227.485 19.4159 223.184 46.6222 223.184 46.6222C223.184 46.6222 230.736 69.0304 273.448 65.1352V65.1265Z" fill="#6E2C13"/>
<path d="M269.363 70.7415C268.632 74.3357 269.862 77.629 272.124 78.0848C274.377 78.5491 276.802 76.0039 277.534 72.4096C278.265 68.8154 277.035 65.5221 274.781 65.0664C272.528 64.602 270.102 67.1472 269.363 70.7415Z" fill="#F69A83"/>
<path d="M209.793 72.5215C210.61 76.0985 213.087 78.5835 215.332 78.0762C217.577 77.5603 218.729 74.2498 217.912 70.6727C217.095 67.0957 214.618 64.6107 212.373 65.118C210.128 65.6339 208.967 68.9444 209.793 72.5215Z" fill="#F69A83"/>
<path d="M215.409 78.6179C215.409 79.7787 214.463 80.7246 213.302 80.7246C212.141 80.7246 211.195 79.7787 211.195 78.6179C211.195 77.4571 212.141 76.5026 213.302 76.5026C214.463 76.5026 215.409 77.4485 215.409 78.6179Z" fill="#F2C55A"/>
<path d="M274.798 78.6179C274.798 79.7787 273.861 80.7246 272.691 80.7246C271.521 80.7246 270.584 79.7787 270.584 78.6179C270.584 77.4571 271.53 76.5026 272.691 76.5026C273.852 76.5026 274.798 77.4485 274.798 78.6179Z" fill="#F2C55A"/>
<path d="M273.25 123.426C273.25 123.426 304.876 131.027 325.286 230.032L300.446 233.85C300.446 233.85 284.431 178.122 282.84 168.956C278.024 141.208 273.259 123.426 273.259 123.426H273.25Z" fill="#F2C55A"/>
<path d="M215.409 121.138C215.409 121.138 186.201 126.134 162.247 229.362L187.362 236.189C187.362 236.189 200.65 183.075 202.474 173.943C208.012 146.333 215.409 121.138 215.409 121.138Z" fill="#F2C55A"/>
<path d="M173.583 299.991L187.714 234.547L162.204 229.087L152.494 299.991H173.583Z" fill="#F2C55A"/>
<path d="M243.173 131.569C243.173 131.569 249.744 138.37 259.48 141.672C259.48 141.672 257.786 125.085 262.138 118.619C262.138 118.619 257.708 118.12 255.524 118.215C255.524 118.215 251.757 131.758 243.181 131.569H243.173Z" fill="#242A60"/>
<path d="M243.173 131.569C243.173 131.569 235.011 139.075 226.41 141.019C226.41 141.019 228.698 124.535 224.354 118.069C224.354 118.069 229.076 117.931 231.364 118.258C231.364 118.258 235.785 132.076 243.164 131.569L243.173 131.569Z" fill="#242A60"/>
<path d="M233.512 156.623L225.919 240.522L288.904 246.219L296.497 162.321L233.512 156.623Z" fill="#B3C8E7"/>
<path d="M229.304 171.887L226.167 204.221L235.584 205.134L238.721 172.8L229.304 171.887Z" fill="#23C0DF"/>
<path d="M290.271 255.252L227.347 249.147L235.484 165.301L298.416 171.406L290.271 255.252Z" fill="#23C0DF"/>
<path d="M243.962 174.892L242.906 185.77L288.663 190.207L289.719 179.329L243.962 174.892Z" fill="#00A7CC"/>
<path d="M249.864 218.888C249.864 218.888 240.455 216.747 227.674 211.012C222.72 208.785 215.728 204.133 216.553 196.575C216.639 195.732 217.775 193.806 218.592 193.754C219.658 193.677 220.492 194.081 221.413 196.317C223.245 200.762 225.266 202.585 227.743 203.703C229.67 204.563 231.037 205.234 233.196 206.205C235.209 207.108 241.307 207.229 241.986 205.732C242.631 204.296 238.838 199.567 238.219 198.329C236.284 194.494 238.864 190.762 241.358 194.485C247.465 203.617 255.842 205.612 255.842 205.612L249.882 218.897L249.864 218.888Z" fill="#F69A83"/>
<path d="M254.715 202.018L246.605 220.066C246.605 220.066 321.398 251.65 326.266 249.938C329.801 248.7 324.856 228.631 324.856 228.631L254.724 202.018H254.715Z" fill="#F2C55A"/>
</svg>
