<svg width="392" height="300" viewBox="0 0 392 300" fill="none" xmlns="http://www.w3.org/2000/svg">
<path d="M354.551 58.101H44.7606V234.351H354.551V58.101Z" fill="#8FD2FF"/>
<path d="M338.692 139.205V215.25H64.7205V141.505L109.338 119.443L146.104 122.188L178.798 121.376L216.872 102.167L249.789 116.288L277.901 112.07L319.688 126.14L338.692 139.205Z" fill="#5371FF"/>
<path d="M64.7206 141.936C64.5626 141.936 64.4045 141.85 64.3327 141.699C64.225 141.483 64.3112 141.224 64.5267 141.117L108.921 119.062C108.993 119.026 109.065 119.012 109.144 119.019L146.133 121.764L178.683 120.959L216.664 101.793C216.779 101.736 216.915 101.729 217.03 101.779L249.832 115.85L277.901 111.603C277.973 111.595 278.037 111.603 278.102 111.624L319.803 125.738C319.839 125.752 319.875 125.767 319.911 125.788L338.915 138.853C339.109 138.99 339.159 139.263 339.03 139.457C338.894 139.651 338.628 139.708 338.427 139.572L319.472 126.543L277.922 112.479L249.832 116.726C249.753 116.741 249.674 116.726 249.595 116.698L216.865 102.656L178.978 121.771C178.921 121.8 178.856 121.814 178.791 121.814L146.097 122.626L109.179 119.888L64.8858 141.893C64.8211 141.921 64.7565 141.936 64.6918 141.936H64.7206Z" fill="white"/>
<path d="M64.7205 205.98L109.115 187.166L146.104 166.398L178.798 165.974L217.087 147.397L250.004 177.479L277.685 170.516L319.472 159.995L338.692 168.417V215.25H64.7205V205.98Z" fill="#5371FF"/>
<path d="M109.115 121.398C108.993 121.398 108.899 121.297 108.899 121.182V119.443C108.899 119.321 109 119.227 109.115 119.227C109.23 119.227 109.33 119.328 109.33 119.443V121.182C109.33 121.304 109.23 121.398 109.115 121.398Z" fill="#D0CCFF"/>
<path d="M109.115 208.502C108.993 208.502 108.899 208.402 108.899 208.287V204.801C108.899 204.679 109 204.586 109.115 204.586C109.23 204.586 109.33 204.686 109.33 204.801V208.287C109.33 208.409 109.23 208.502 109.115 208.502ZM109.115 199.792C108.993 199.792 108.899 199.692 108.899 199.577V196.092C108.899 195.969 109 195.876 109.115 195.876C109.23 195.876 109.33 195.977 109.33 196.092V199.577C109.33 199.699 109.23 199.792 109.115 199.792ZM109.115 191.083C108.993 191.083 108.899 190.982 108.899 190.867V187.382C108.899 187.26 109 187.166 109.115 187.166C109.23 187.166 109.33 187.267 109.33 187.382V190.867C109.33 190.989 109.23 191.083 109.115 191.083ZM109.115 182.373C108.993 182.373 108.899 182.272 108.899 182.157V178.672C108.899 178.55 109 178.456 109.115 178.456C109.23 178.456 109.33 178.557 109.33 178.672V182.157C109.33 182.28 109.23 182.373 109.115 182.373ZM109.115 173.663C108.993 173.663 108.899 173.563 108.899 173.448V169.962C108.899 169.84 109 169.747 109.115 169.747C109.23 169.747 109.33 169.847 109.33 169.962V173.448C109.33 173.57 109.23 173.663 109.115 173.663ZM109.115 164.953C108.993 164.953 108.899 164.853 108.899 164.738V161.253C108.899 161.13 109 161.037 109.115 161.037C109.23 161.037 109.33 161.138 109.33 161.253V164.738C109.33 164.86 109.23 164.953 109.115 164.953ZM109.115 156.244C108.993 156.244 108.899 156.143 108.899 156.028V152.543C108.899 152.421 109 152.327 109.115 152.327C109.23 152.327 109.33 152.428 109.33 152.543V156.028C109.33 156.15 109.23 156.244 109.115 156.244ZM109.115 147.527C108.993 147.527 108.899 147.426 108.899 147.311V143.826C108.899 143.704 109 143.61 109.115 143.61C109.23 143.61 109.33 143.711 109.33 143.826V147.311C109.33 147.433 109.23 147.527 109.115 147.527ZM109.115 138.817C108.993 138.817 108.899 138.716 108.899 138.601V135.116C108.899 134.994 109 134.901 109.115 134.901C109.23 134.901 109.33 135.001 109.33 135.116V138.601C109.33 138.724 109.23 138.817 109.115 138.817ZM109.115 130.107C108.993 130.107 108.899 130.007 108.899 129.892V126.406C108.899 126.284 109 126.191 109.115 126.191C109.23 126.191 109.33 126.291 109.33 126.406V129.892C109.33 130.014 109.23 130.107 109.115 130.107Z" fill="#D0CCFF"/>
<path d="M109.115 215.466C108.993 215.466 108.899 215.365 108.899 215.25V213.511C108.899 213.389 109 213.295 109.115 213.295C109.23 213.295 109.33 213.396 109.33 213.511V215.25C109.33 215.372 109.23 215.466 109.115 215.466Z" fill="#D0CCFF"/>
<path d="M146.104 124.143C145.982 124.143 145.889 124.042 145.889 123.927V122.188C145.889 122.066 145.989 121.972 146.104 121.972C146.219 121.972 146.32 122.073 146.32 122.188V123.927C146.32 124.049 146.219 124.143 146.104 124.143Z" fill="#D0CCFF"/>
<path d="M146.104 208.66C145.982 208.66 145.889 208.56 145.889 208.445V205.067C145.889 204.945 145.989 204.852 146.104 204.852C146.219 204.852 146.32 204.952 146.32 205.067V208.445C146.32 208.567 146.219 208.66 146.104 208.66ZM146.104 200.209C145.982 200.209 145.889 200.109 145.889 199.994V196.616C145.889 196.494 145.989 196.401 146.104 196.401C146.219 196.401 146.32 196.501 146.32 196.616V199.994C146.32 200.116 146.219 200.209 146.104 200.209ZM146.104 191.758C145.982 191.758 145.889 191.658 145.889 191.543V188.165C145.889 188.043 145.989 187.95 146.104 187.95C146.219 187.95 146.32 188.05 146.32 188.165V191.543C146.32 191.665 146.219 191.758 146.104 191.758ZM146.104 183.3C145.982 183.3 145.889 183.199 145.889 183.084V179.707C145.889 179.585 145.989 179.491 146.104 179.491C146.219 179.491 146.32 179.592 146.32 179.707V183.084C146.32 183.207 146.219 183.3 146.104 183.3ZM146.104 174.849C145.982 174.849 145.889 174.748 145.889 174.633V171.249C145.889 171.126 145.989 171.033 146.104 171.033C146.219 171.033 146.32 171.134 146.32 171.249V174.633C146.32 174.756 146.219 174.849 146.104 174.849ZM146.104 166.398C145.982 166.398 145.889 166.297 145.889 166.182V162.798C145.889 162.675 145.989 162.582 146.104 162.582C146.219 162.582 146.32 162.683 146.32 162.798V166.182C146.32 166.304 146.219 166.398 146.104 166.398ZM146.104 157.947C145.982 157.947 145.889 157.846 145.889 157.731V154.347C145.889 154.224 145.989 154.131 146.104 154.131C146.219 154.131 146.32 154.232 146.32 154.347V157.731C146.32 157.853 146.219 157.947 146.104 157.947ZM146.104 149.496C145.982 149.496 145.889 149.395 145.889 149.28V145.903C145.889 145.781 145.989 145.687 146.104 145.687C146.219 145.687 146.32 145.788 146.32 145.903V149.28C146.32 149.402 146.219 149.496 146.104 149.496ZM146.104 141.045C145.982 141.045 145.889 140.944 145.889 140.829V137.452C145.889 137.329 145.989 137.236 146.104 137.236C146.219 137.236 146.32 137.337 146.32 137.452V140.829C146.32 140.951 146.219 141.045 146.104 141.045ZM146.104 132.594C145.982 132.594 145.889 132.493 145.889 132.378V129.001C145.889 128.878 145.989 128.785 146.104 128.785C146.219 128.785 146.32 128.886 146.32 129.001V132.378C146.32 132.5 146.219 132.594 146.104 132.594Z" fill="#D0CCFF"/>
<path d="M146.104 215.466C145.982 215.466 145.889 215.365 145.889 215.25V213.511C145.889 213.389 145.989 213.295 146.104 213.295C146.219 213.295 146.32 213.396 146.32 213.511V215.25C146.32 215.372 146.219 215.466 146.104 215.466Z" fill="#D0CCFF"/>
<path d="M178.798 123.331C178.676 123.331 178.583 123.23 178.583 123.115V121.376C178.583 121.254 178.683 121.16 178.798 121.16C178.913 121.16 179.014 121.261 179.014 121.376V123.115C179.014 123.237 178.913 123.331 178.798 123.331Z" fill="#D0CCFF"/>
<path d="M178.798 208.61C178.676 208.61 178.583 208.509 178.583 208.394V204.981C178.583 204.859 178.683 204.765 178.798 204.765C178.913 204.765 179.014 204.866 179.014 204.981V208.394C179.014 208.517 178.913 208.61 178.798 208.61ZM178.798 200.087C178.676 200.087 178.583 199.986 178.583 199.872V196.458C178.583 196.336 178.683 196.242 178.798 196.242C178.913 196.242 179.014 196.343 179.014 196.458V199.872C179.014 199.994 178.913 200.087 178.798 200.087ZM178.798 191.557C178.676 191.557 178.583 191.456 178.583 191.341V187.928C178.583 187.806 178.683 187.712 178.798 187.712C178.913 187.712 179.014 187.813 179.014 187.928V191.341C179.014 191.464 178.913 191.557 178.798 191.557ZM178.798 183.027C178.676 183.027 178.583 182.926 178.583 182.811V179.398C178.583 179.276 178.683 179.182 178.798 179.182C178.913 179.182 179.014 179.283 179.014 179.398V182.811C179.014 182.933 178.913 183.027 178.798 183.027ZM178.798 174.504C178.676 174.504 178.583 174.403 178.583 174.288V170.875C178.583 170.753 178.683 170.659 178.798 170.659C178.913 170.659 179.014 170.76 179.014 170.875V174.288C179.014 174.411 178.913 174.504 178.798 174.504ZM178.798 165.974C178.676 165.974 178.583 165.873 178.583 165.758V162.345C178.583 162.223 178.683 162.129 178.798 162.129C178.913 162.129 179.014 162.23 179.014 162.345V165.758C179.014 165.881 178.913 165.974 178.798 165.974ZM178.798 157.444C178.676 157.444 178.583 157.343 178.583 157.228V153.815C178.583 153.693 178.683 153.599 178.798 153.599C178.913 153.599 179.014 153.7 179.014 153.815V157.228C179.014 157.35 178.913 157.444 178.798 157.444ZM178.798 148.914C178.676 148.914 178.583 148.813 178.583 148.698V145.285C178.583 145.163 178.683 145.069 178.798 145.069C178.913 145.069 179.014 145.17 179.014 145.285V148.698C179.014 148.82 178.913 148.914 178.798 148.914ZM178.798 140.391C178.676 140.391 178.583 140.29 178.583 140.175V136.762C178.583 136.64 178.683 136.546 178.798 136.546C178.913 136.546 179.014 136.647 179.014 136.762V140.175C179.014 140.297 178.913 140.391 178.798 140.391ZM178.798 131.861C178.676 131.861 178.583 131.76 178.583 131.645V128.232C178.583 128.109 178.683 128.016 178.798 128.016C178.913 128.016 179.014 128.117 179.014 128.232V131.645C179.014 131.767 178.913 131.861 178.798 131.861Z" fill="#D0CCFF"/>
<path d="M178.798 215.466C178.676 215.466 178.583 215.365 178.583 215.25V213.511C178.583 213.389 178.683 213.295 178.798 213.295C178.913 213.295 179.014 213.396 179.014 213.511V215.25C179.014 215.372 178.913 215.466 178.798 215.466Z" fill="#D0CCFF"/>
<path d="M216.872 104.122C216.75 104.122 216.657 104.021 216.657 103.906V102.167C216.657 102.045 216.757 101.951 216.872 101.951C216.987 101.951 217.087 102.052 217.087 102.167V103.906C217.087 104.028 216.987 104.122 216.872 104.122Z" fill="#D0CCFF"/>
<path d="M216.872 208.509C216.75 208.509 216.657 208.409 216.657 208.294V204.816C216.657 204.693 216.757 204.6 216.872 204.6C216.987 204.6 217.087 204.701 217.087 204.816V208.294C217.087 208.416 216.987 208.509 216.872 208.509ZM216.872 199.814C216.75 199.814 216.657 199.713 216.657 199.598V196.12C216.657 195.998 216.757 195.905 216.872 195.905C216.987 195.905 217.087 196.005 217.087 196.12V199.598C217.087 199.721 216.987 199.814 216.872 199.814ZM216.872 191.111C216.75 191.111 216.657 191.011 216.657 190.896V187.418C216.657 187.296 216.757 187.202 216.872 187.202C216.987 187.202 217.087 187.303 217.087 187.418V190.896C217.087 191.018 216.987 191.111 216.872 191.111ZM216.872 182.416C216.75 182.416 216.657 182.315 216.657 182.201V178.722C216.657 178.6 216.757 178.507 216.872 178.507C216.987 178.507 217.087 178.607 217.087 178.722V182.201C217.087 182.323 216.987 182.416 216.872 182.416ZM216.872 173.714C216.75 173.714 216.657 173.613 216.657 173.498V170.02C216.657 169.898 216.757 169.804 216.872 169.804C216.987 169.804 217.087 169.905 217.087 170.02V173.498C217.087 173.62 216.987 173.714 216.872 173.714ZM216.872 165.018C216.75 165.018 216.657 164.918 216.657 164.803V161.324C216.657 161.202 216.757 161.109 216.872 161.109C216.987 161.109 217.087 161.209 217.087 161.324V164.803C217.087 164.925 216.987 165.018 216.872 165.018ZM216.872 156.316C216.75 156.316 216.657 156.215 216.657 156.1V152.622C216.657 152.5 216.757 152.406 216.872 152.406C216.987 152.406 217.087 152.507 217.087 152.622V156.1C217.087 156.222 216.987 156.316 216.872 156.316ZM216.872 147.62C216.75 147.62 216.657 147.52 216.657 147.405V143.926C216.657 143.804 216.757 143.711 216.872 143.711C216.987 143.711 217.087 143.811 217.087 143.926V147.405C217.087 147.527 216.987 147.62 216.872 147.62ZM216.872 138.918C216.75 138.918 216.657 138.817 216.657 138.702V135.224C216.657 135.102 216.757 135.008 216.872 135.008C216.987 135.008 217.087 135.109 217.087 135.224V138.702C217.087 138.824 216.987 138.918 216.872 138.918ZM216.872 130.222C216.75 130.222 216.657 130.122 216.657 130.007V126.529C216.657 126.406 216.757 126.313 216.872 126.313C216.987 126.313 217.087 126.414 217.087 126.529V130.007C217.087 130.129 216.987 130.222 216.872 130.222ZM216.872 121.52C216.75 121.52 216.657 121.419 216.657 121.304V117.826C216.657 117.704 216.757 117.61 216.872 117.61C216.987 117.61 217.087 117.711 217.087 117.826V121.304C217.087 121.426 216.987 121.52 216.872 121.52ZM216.872 112.824C216.75 112.824 216.657 112.724 216.657 112.609V109.131C216.657 109.008 216.757 108.915 216.872 108.915C216.987 108.915 217.087 109.008 217.087 109.131V112.609C217.087 112.731 216.987 112.824 216.872 112.824Z" fill="#D0CCFF"/>
<path d="M216.872 215.466C216.75 215.466 216.657 215.365 216.657 215.25V213.511C216.657 213.389 216.757 213.295 216.872 213.295C216.987 213.295 217.087 213.396 217.087 213.511V215.25C217.087 215.372 216.987 215.466 216.872 215.466Z" fill="#D0CCFF"/>
<path d="M249.789 118.243C249.667 118.243 249.574 118.142 249.574 118.027V116.288C249.574 116.166 249.674 116.073 249.789 116.073C249.904 116.073 250.004 116.173 250.004 116.288V118.027C250.004 118.149 249.904 118.243 249.789 118.243Z" fill="#D0CCFF"/>
<path d="M249.789 208.323C249.667 208.323 249.574 208.222 249.574 208.107V204.507C249.574 204.384 249.674 204.291 249.789 204.291C249.904 204.291 250.004 204.392 250.004 204.507V208.107C250.004 208.229 249.904 208.323 249.789 208.323ZM249.789 199.318C249.667 199.318 249.574 199.218 249.574 199.103V195.502C249.574 195.38 249.674 195.287 249.789 195.287C249.904 195.287 250.004 195.387 250.004 195.502V199.103C250.004 199.225 249.904 199.318 249.789 199.318ZM249.789 190.307C249.667 190.307 249.574 190.206 249.574 190.091V186.491C249.574 186.369 249.674 186.275 249.789 186.275C249.904 186.275 250.004 186.376 250.004 186.491V190.091C250.004 190.213 249.904 190.307 249.789 190.307ZM249.789 181.302C249.667 181.302 249.574 181.202 249.574 181.087V177.486C249.574 177.364 249.674 177.271 249.789 177.271C249.904 177.271 250.004 177.371 250.004 177.486V181.087C250.004 181.209 249.904 181.302 249.789 181.302ZM249.789 172.291C249.667 172.291 249.574 172.19 249.574 172.075V168.475C249.574 168.353 249.674 168.259 249.789 168.259C249.904 168.259 250.004 168.36 250.004 168.475V172.075C250.004 172.197 249.904 172.291 249.789 172.291ZM249.789 163.286C249.667 163.286 249.574 163.186 249.574 163.071V159.47C249.574 159.348 249.674 159.255 249.789 159.255C249.904 159.255 250.004 159.355 250.004 159.47V163.071C250.004 163.193 249.904 163.286 249.789 163.286ZM249.789 154.275C249.667 154.275 249.574 154.174 249.574 154.059V150.459C249.574 150.337 249.674 150.243 249.789 150.243C249.904 150.243 250.004 150.344 250.004 150.459V154.059C250.004 154.181 249.904 154.275 249.789 154.275ZM249.789 145.27C249.667 145.27 249.574 145.17 249.574 145.055V141.454C249.574 141.332 249.674 141.239 249.789 141.239C249.904 141.239 250.004 141.339 250.004 141.454V145.055C250.004 145.177 249.904 145.27 249.789 145.27ZM249.789 136.259C249.667 136.259 249.574 136.158 249.574 136.043V132.443C249.574 132.321 249.674 132.227 249.789 132.227C249.904 132.227 250.004 132.328 250.004 132.443V136.043C250.004 136.165 249.904 136.259 249.789 136.259ZM249.789 127.254C249.667 127.254 249.574 127.154 249.574 127.039V123.438C249.574 123.316 249.674 123.223 249.789 123.223C249.904 123.223 250.004 123.323 250.004 123.438V127.039C250.004 127.161 249.904 127.254 249.789 127.254Z" fill="#D0CCFF"/>
<path d="M249.789 215.466C249.667 215.466 249.574 215.365 249.574 215.25V213.511C249.574 213.389 249.674 213.295 249.789 213.295C249.904 213.295 250.004 213.396 250.004 213.511V215.25C250.004 215.372 249.904 215.466 249.789 215.466Z" fill="#D0CCFF"/>
<path d="M277.901 113.981C277.779 113.981 277.685 113.881 277.685 113.766V112.027C277.685 111.904 277.786 111.811 277.901 111.811C278.016 111.811 278.116 111.912 278.116 112.027V113.766C278.116 113.888 278.016 113.981 277.901 113.981Z" fill="#D0CCFF"/>
<path d="M277.901 208.567C277.779 208.567 277.685 208.466 277.685 208.351V204.909C277.685 204.787 277.786 204.694 277.901 204.694C278.016 204.694 278.116 204.794 278.116 204.909V208.351C278.116 208.473 278.016 208.567 277.901 208.567ZM277.901 199.972C277.779 199.972 277.685 199.872 277.685 199.757V196.314C277.685 196.192 277.786 196.099 277.901 196.099C278.016 196.099 278.116 196.199 278.116 196.314V199.757C278.116 199.879 278.016 199.972 277.901 199.972ZM277.901 191.37C277.779 191.37 277.685 191.27 277.685 191.155V187.712C277.685 187.59 277.786 187.497 277.901 187.497C278.016 187.497 278.116 187.597 278.116 187.712V191.155C278.116 191.277 278.016 191.37 277.901 191.37ZM277.901 182.775C277.779 182.775 277.685 182.675 277.685 182.56V179.118C277.685 178.995 277.786 178.902 277.901 178.902C278.016 178.902 278.116 179.003 278.116 179.118V182.56C278.116 182.682 278.016 182.775 277.901 182.775ZM277.901 174.173C277.779 174.173 277.685 174.073 277.685 173.958V170.516C277.685 170.393 277.786 170.3 277.901 170.3C278.016 170.3 278.116 170.401 278.116 170.516V173.958C278.116 174.08 278.016 174.173 277.901 174.173ZM277.901 165.571C277.779 165.571 277.685 165.471 277.685 165.356V161.914C277.685 161.792 277.786 161.698 277.901 161.698C278.016 161.698 278.116 161.799 278.116 161.914V165.356C278.116 165.478 278.016 165.571 277.901 165.571ZM277.901 156.977C277.779 156.977 277.685 156.876 277.685 156.761V153.319C277.685 153.197 277.786 153.103 277.901 153.103C278.016 153.103 278.116 153.204 278.116 153.319V156.761C278.116 156.883 278.016 156.977 277.901 156.977ZM277.901 148.375C277.779 148.375 277.685 148.274 277.685 148.159V144.717C277.685 144.595 277.786 144.501 277.901 144.501C278.016 144.501 278.116 144.602 278.116 144.717V148.159C278.116 148.281 278.016 148.375 277.901 148.375ZM277.901 139.78C277.779 139.78 277.685 139.679 277.685 139.564V136.122C277.685 136 277.786 135.907 277.901 135.907C278.016 135.907 278.116 136.007 278.116 136.122V139.564C278.116 139.687 278.016 139.78 277.901 139.78ZM277.901 131.178C277.779 131.178 277.685 131.077 277.685 130.962V127.52C277.685 127.398 277.786 127.305 277.901 127.305C278.016 127.305 278.116 127.405 278.116 127.52V130.962C278.116 131.085 278.016 131.178 277.901 131.178ZM277.901 122.583C277.779 122.583 277.685 122.483 277.685 122.368V118.925C277.685 118.803 277.786 118.71 277.901 118.71C278.016 118.71 278.116 118.81 278.116 118.925V122.368C278.116 122.49 278.016 122.583 277.901 122.583Z" fill="#D0CCFF"/>
<path d="M277.901 215.466C277.779 215.466 277.685 215.365 277.685 215.25V213.511C277.685 213.389 277.786 213.295 277.901 213.295C278.016 213.295 278.116 213.396 278.116 213.511V215.25C278.116 215.372 278.016 215.466 277.901 215.466Z" fill="#D0CCFF"/>
<path d="M319.688 128.095C319.566 128.095 319.472 127.995 319.472 127.88V126.14C319.472 126.018 319.573 125.925 319.688 125.925C319.803 125.925 319.903 126.018 319.903 126.14V127.88C319.903 128.002 319.803 128.095 319.688 128.095Z" fill="#D0CCFF"/>
<path d="M319.688 208.38C319.566 208.38 319.472 208.279 319.472 208.164V204.593C319.472 204.471 319.573 204.377 319.688 204.377C319.803 204.377 319.903 204.478 319.903 204.593V208.164C319.903 208.287 319.803 208.38 319.688 208.38ZM319.688 199.455C319.566 199.455 319.472 199.354 319.472 199.239V195.675C319.472 195.553 319.573 195.459 319.688 195.459C319.803 195.459 319.903 195.56 319.903 195.675V199.239C319.903 199.361 319.803 199.455 319.688 199.455ZM319.688 190.537C319.566 190.537 319.472 190.436 319.472 190.321V186.757C319.472 186.634 319.573 186.541 319.688 186.541C319.803 186.541 319.903 186.642 319.903 186.757V190.321C319.903 190.443 319.803 190.537 319.688 190.537ZM319.688 181.618C319.566 181.618 319.472 181.518 319.472 181.403V177.838C319.472 177.716 319.573 177.623 319.688 177.623C319.803 177.623 319.903 177.723 319.903 177.838V181.403C319.903 181.525 319.803 181.618 319.688 181.618ZM319.688 172.7C319.566 172.7 319.472 172.6 319.472 172.485V168.92C319.472 168.798 319.573 168.705 319.688 168.705C319.803 168.705 319.903 168.805 319.903 168.92V172.485C319.903 172.607 319.803 172.7 319.688 172.7ZM319.688 163.775C319.566 163.775 319.472 163.674 319.472 163.559V159.995C319.472 159.873 319.573 159.779 319.688 159.779C319.803 159.779 319.903 159.88 319.903 159.995V163.559C319.903 163.682 319.803 163.775 319.688 163.775ZM319.688 154.857C319.566 154.857 319.472 154.756 319.472 154.641V151.077C319.472 150.955 319.573 150.861 319.688 150.861C319.803 150.861 319.903 150.962 319.903 151.077V154.641C319.903 154.763 319.803 154.857 319.688 154.857ZM319.688 145.939C319.566 145.939 319.472 145.838 319.472 145.723V142.151C319.472 142.029 319.573 141.936 319.688 141.936C319.803 141.936 319.903 142.036 319.903 142.151V145.723C319.903 145.845 319.803 145.939 319.688 145.939ZM319.688 137.02C319.566 137.02 319.472 136.92 319.472 136.805V133.241C319.472 133.118 319.573 133.025 319.688 133.025C319.803 133.025 319.903 133.126 319.903 133.241V136.805C319.903 136.927 319.803 137.02 319.688 137.02Z" fill="#D0CCFF"/>
<path d="M319.688 215.466C319.566 215.466 319.472 215.365 319.472 215.25V213.511C319.472 213.389 319.573 213.295 319.688 213.295C319.803 213.295 319.903 213.396 319.903 213.511V215.25C319.903 215.372 319.803 215.466 319.688 215.466Z" fill="#D0CCFF"/>
<path d="M252.942 116.288C252.942 118.027 251.527 119.443 249.789 119.443C248.051 119.443 246.636 118.027 246.636 116.288C246.636 114.549 248.051 113.133 249.789 113.133C251.527 113.133 252.942 114.549 252.942 116.288Z" fill="#8D86DC"/>
<path d="M252.188 116.288C252.188 117.61 251.118 118.688 249.789 118.688C248.46 118.688 247.39 117.618 247.39 116.288C247.39 114.959 248.46 113.888 249.789 113.888C251.118 113.888 252.188 114.959 252.188 116.288Z" fill="#0000BF"/>
<path d="M319.688 129.295C321.429 129.295 322.841 127.883 322.841 126.14C322.841 124.398 321.429 122.986 319.688 122.986C317.946 122.986 316.535 124.398 316.535 126.14C316.535 127.883 317.946 129.295 319.688 129.295Z" fill="#8D86DC"/>
<path d="M322.087 126.14C322.087 127.463 321.017 128.541 319.688 128.541C318.359 128.541 317.289 127.47 317.289 126.14C317.289 124.811 318.359 123.74 319.688 123.74C321.017 123.74 322.087 124.811 322.087 126.14Z" fill="#0000BF"/>
<path d="M220.025 102.167C220.025 103.906 218.61 105.322 216.872 105.322C215.134 105.322 213.719 103.906 213.719 102.167C213.719 100.428 215.134 99.0123 216.872 99.0123C218.61 99.0123 220.025 100.428 220.025 102.167Z" fill="#8D86DC"/>
<path d="M219.271 102.167C219.271 103.489 218.201 104.567 216.872 104.567C215.543 104.567 214.473 103.497 214.473 102.167C214.473 100.838 215.543 99.7669 216.872 99.7669C218.201 99.7669 219.271 100.838 219.271 102.167Z" fill="#0000BF"/>
<path d="M178.798 124.531C180.54 124.531 181.951 123.118 181.951 121.376C181.951 119.634 180.54 118.221 178.798 118.221C177.057 118.221 175.645 119.634 175.645 121.376C175.645 123.118 177.057 124.531 178.798 124.531Z" fill="#8D86DC"/>
<path d="M181.197 121.376C181.197 122.698 180.127 123.776 178.798 123.776C177.47 123.776 176.399 122.705 176.399 121.376C176.399 120.047 177.47 118.976 178.798 118.976C180.127 118.976 181.197 120.047 181.197 121.376Z" fill="#0000BF"/>
<path d="M149.257 122.188C149.257 123.927 147.842 125.343 146.104 125.343C144.366 125.343 142.951 123.927 142.951 122.188C142.951 120.449 144.366 119.033 146.104 119.033C147.842 119.033 149.257 120.449 149.257 122.188Z" fill="#8D86DC"/>
<path d="M148.503 122.188C148.503 123.51 147.433 124.588 146.104 124.588C144.775 124.588 143.705 123.517 143.705 122.188C143.705 120.859 144.775 119.788 146.104 119.788C147.433 119.788 148.503 120.859 148.503 122.188Z" fill="#0000BF"/>
<path d="M112.268 119.443C112.268 121.182 110.853 122.598 109.115 122.598C107.377 122.598 105.962 121.182 105.962 119.443C105.962 117.704 107.377 116.288 109.115 116.288C110.853 116.288 112.268 117.704 112.268 119.443Z" fill="#8D86DC"/>
<path d="M111.514 119.443C111.514 120.765 110.444 121.843 109.115 121.843C107.786 121.843 106.716 120.772 106.716 119.443C106.716 118.113 107.786 117.043 109.115 117.043C110.444 117.043 111.514 118.113 111.514 119.443Z" fill="#0000BF"/>
<path d="M342.399 215.681H64.2895V71.992H65.1515V214.812H342.399V215.681Z" fill="white"/>
<path d="M283.094 68.3342H252.188V75.0533H283.094V68.3342Z" fill="white"/>
<path d="M338.692 68.3342H290.534V75.0533H338.692V68.3342Z" fill="white"/>
<path d="M285.617 124.689C292.576 120.426 294.763 111.326 290.502 104.363C286.241 97.4007 277.146 95.2126 270.187 99.4759C263.229 103.739 261.042 112.839 265.302 119.802C269.563 126.764 278.659 128.952 285.617 124.689Z" fill="#C5BFFF"/>
<path d="M286.067 112.07C286.067 116.583 282.411 120.241 277.901 120.241C273.39 120.241 269.734 116.583 269.734 112.07C269.734 107.557 273.39 103.899 277.901 103.899C282.411 103.899 286.067 107.557 286.067 112.07Z" fill="#DCD9FF"/>
<path d="M280.019 117.169C282.861 115.997 284.216 112.742 283.045 109.898C281.874 107.054 278.621 105.698 275.778 106.87C272.936 108.041 271.581 111.297 272.752 114.141C273.923 116.985 277.176 118.34 280.019 117.169Z" fill="#B8B3FF"/>
<path d="M280.867 112.07C280.867 113.708 279.538 115.038 277.901 115.038C276.263 115.038 274.934 113.708 274.934 112.07C274.934 110.431 276.263 109.102 277.901 109.102C279.538 109.102 280.867 110.431 280.867 112.07Z" fill="#0000BF"/>
<path d="M141.177 0H0V104.567H141.177V0Z" fill="#0000BF"/>
<path d="M40.5876 69.3977L27.4081 88.1179C19.8019 82.7426 13.977 75.0102 11.0035 65.9843L32.723 58.8052C34.1523 63.1313 36.939 66.8322 40.5876 69.3905V69.3977Z" fill="white"/>
<path d="M96.5888 52.2154C96.5888 76.469 76.9377 96.1378 52.69 96.1378C43.2811 96.1378 34.5617 93.1699 27.4153 88.1251L40.5948 69.4049C44.0136 71.8267 48.1867 73.2496 52.6972 73.2496C64.3111 73.2496 73.7272 63.8284 73.7272 52.2154C73.7272 40.6024 64.3111 31.1812 52.6972 31.1812V8.29297C76.9449 8.29297 96.596 27.9618 96.596 52.2154H96.5888Z" fill="#FFB445"/>
<path d="M52.6828 8.29297V31.1812C41.0761 31.1812 31.66 40.6024 31.66 52.2154C31.66 54.515 32.0263 56.7356 32.723 58.8124L11.0035 65.9915C9.56698 61.6581 8.7914 57.0302 8.7914 52.2154C8.7914 27.9618 28.4423 8.29297 52.6828 8.29297Z" fill="#FF4766"/>
<path d="M133.118 74.6653H105.739V79.9903H133.118V74.6653Z" fill="#AFA9F2"/>
<path d="M133.118 86.1705H98.7004V91.4955H133.118V86.1705Z" fill="#AFA9F2"/>
<path d="M126.403 44.5333H117.669V50.4116H126.403V44.5333Z" fill="#FFB445"/>
<path d="M126.403 30.9584H117.669V36.8368H126.403V30.9584Z" fill="white"/>
<path d="M126.403 17.3908H117.669V23.2691H126.403V17.3908Z" fill="#FF4766"/>
<path d="M193.809 32.0364H152.884V38.0872H193.809V32.0364Z" fill="#0000BF"/>
<path d="M193.809 8.29297H152.884V14.3438H193.809V8.29297Z" fill="#0000BF"/>
<path d="M178.432 17.3045H152.884V23.3554H178.432V17.3045Z" fill="#0000BF"/>
<path d="M47.3536 123.654H27.6452V128.016H47.3536V123.654Z" fill="#0000BF"/>
<path d="M56.8702 130.409H18.1285V134.771H56.8702V130.409Z" fill="#0000BF"/>
<path d="M51.8282 137.171H23.1632V141.533H51.8282V137.171Z" fill="#0000BF"/>
<path d="M47.3536 156.014H27.6452V160.376H47.3536V156.014Z" fill="#5371FF"/>
<path d="M56.8702 162.769H18.1285V167.131H56.8702V162.769Z" fill="#5371FF"/>
<path d="M51.8282 169.531H23.1632V173.893H51.8282V169.531Z" fill="#5371FF"/>
<path d="M390.42 91.4955H337.112V195.229H390.42V91.4955Z" fill="#FF4766"/>
<path d="M354.522 161.102H344.797V188.539H354.522V161.102Z" fill="white"/>
<path d="M368.629 103.734H358.904V188.539H368.629V103.734Z" fill="#FFB445"/>
<path d="M382.735 137.84H373.01V188.532H382.735V137.84Z" fill="#0000BF"/>
<path d="M344.065 246.46H332.422V251.835H344.065V246.46Z" fill="#FF4766"/>
<path d="M344.065 257.441H332.422V262.816H344.065V257.441Z" fill="#FF4766"/>
<path d="M344.065 268.421H332.422V273.797H344.065V268.421Z" fill="#FF4766"/>
<path d="M385.256 246.46H348.539V251.835H385.256V246.46Z" fill="#746ADC"/>
<path d="M381.018 257.441H348.539V262.816H381.018V257.441Z" fill="#746ADC"/>
<path d="M387.734 268.421H348.539V273.797H387.734V268.421Z" fill="#746ADC"/>
<path d="M318.819 291.619C318.819 293.293 315.58 297.059 311.708 298.949C308.807 300.364 303.879 299.667 301.581 299.222C300.798 299.071 300.317 298.949 300.317 298.949L300.985 294.709C300.985 294.709 302.206 293.473 304.102 292.079C305.855 290.814 308.21 289.405 310.71 288.758C315.931 287.4 318.819 289.923 318.819 291.611V291.619Z" fill="#003190"/>
<path d="M318.819 291.619C318.819 293.293 315.58 297.059 311.708 298.949C308.807 300.364 303.879 299.667 301.581 299.222C302.12 297.439 303.247 293.889 304.102 292.086C305.855 290.821 308.21 289.412 310.71 288.766C315.931 287.407 318.819 289.93 318.819 291.619Z" fill="#000D53"/>
<path d="M295.541 299.401C295.541 299.401 281.707 300.803 273.053 296.965C273.053 296.965 273.132 296.584 273.361 296.009C274.144 294.055 276.629 289.908 283.402 291.446C285.593 291.942 287.439 292.467 288.99 292.955H288.998C293.63 294.436 295.534 295.722 295.534 295.722C295.534 295.722 295.828 298.208 295.534 299.401H295.541Z" fill="#003190"/>
<path d="M295.541 299.401C295.541 299.401 281.707 300.803 273.053 296.965C273.053 296.965 273.132 296.584 273.361 296.009C275.961 296.793 280.637 297.899 283.402 296.721C285.636 295.772 287.496 294.198 288.99 292.955H288.998C293.63 294.436 295.534 295.722 295.534 295.722C295.534 295.722 295.828 298.208 295.534 299.401H295.541Z" fill="#000D53"/>
<path d="M316.276 213.662C316.276 213.662 314.035 238.922 312.692 251.864C312.692 251.864 311.011 285.64 310.509 294.709C310.509 294.709 306.436 295.183 300.935 294.709C300.935 294.709 300.561 288.866 300.094 281.421C299.347 269.406 298.378 253.237 298.392 250.851C298.407 248.889 297.365 239.331 296.352 230.399C295.842 225.972 295.34 221.689 294.973 218.57C294.614 215.581 294.384 213.655 294.384 213.655H316.276V213.662Z" fill="#003190"/>
<path d="M316.276 213.662C316.276 213.662 314.035 238.922 312.692 251.864C312.692 251.864 311.011 285.64 310.509 294.709C310.509 294.709 306.436 295.183 300.935 294.709C300.935 294.709 300.561 288.866 300.094 281.421L300.31 278.748C300.31 278.748 300.597 256.391 300.31 250.678C300.022 244.965 296.352 230.399 296.352 230.399L297.128 219.598L294.973 218.57C294.614 215.581 294.384 213.655 294.384 213.655H316.276V213.662Z" fill="#000D53"/>
<path d="M300.31 213.604C300.137 214.345 291.691 250.024 291.691 250.52C291.691 251.016 295.562 295.722 295.562 295.722C291.993 296.879 288.516 296.843 286.67 296.706C285.823 296.656 285.32 296.57 285.32 296.57L276.579 250.527C277.089 245.82 277.987 214.675 277.987 214.675L285.291 214.316L300.073 213.604H300.317H300.31Z" fill="#003190"/>
<path d="M291.691 250.52C291.691 251.023 295.562 295.722 295.562 295.722C291.993 296.879 288.516 296.843 286.67 296.706L279.366 252.374L284.365 250.024L292.036 220.618C292.036 220.618 287.367 216.048 285.291 214.323C284.817 213.935 284.473 213.684 284.365 213.669L300.073 213.612H300.317C300.145 214.352 291.698 250.032 291.698 250.527L291.691 250.52Z" fill="#000D53"/>
<path d="M294.291 141.138C294.291 141.138 292.215 138.393 291.612 137.43C291.008 136.467 290.578 128.074 290.664 126.866C290.75 125.652 294.298 120.55 299.225 121.505C304.152 122.454 304.849 127.908 304.325 132.579C303.808 137.25 302.163 140.973 300.087 141.49C298.011 142.008 295.34 142.547 294.291 141.145V141.138Z" fill="#FFB3A0"/>
<path d="M304.318 149.438L291.612 147.189C291.612 147.189 293.422 142.69 293.86 139.837C294.284 136.977 295.153 136.46 295.153 136.46L303.111 138.199C303.111 138.199 303.377 141.878 303.7 145.083C303.858 146.578 304.03 147.965 304.174 148.828C304.224 149.086 304.267 149.295 304.31 149.446L304.318 149.438Z" fill="#FFB3A0"/>
<path d="M304.181 148.828L292.675 145.766C292.675 145.766 300.353 145.191 303.707 145.091C303.865 146.585 304.037 147.972 304.181 148.835V148.828Z" fill="#D3897C"/>
<path d="M293.321 132.917C293.321 132.917 292.632 131.365 292.129 130.747C291.619 130.129 290.75 129.374 290.75 129.374C290.75 129.374 289.385 125.961 289.077 124.459C288.768 122.95 288.279 121.139 289.788 119.939C291.296 118.746 293.328 118.746 293.328 118.746C293.328 118.746 294.743 116.489 298.507 116.31C302.27 116.13 306.429 117.445 308.605 121.505C310.774 125.566 310.157 128.893 309.582 130.97C309.007 133.054 305.158 138.235 304.712 139.212C304.267 140.19 302.191 142.712 301.035 142.978C299.886 143.244 296.611 142.137 295.72 140.987C294.837 139.837 293.946 137.667 293.996 136.201C294.039 134.742 293.336 132.924 293.336 132.924L293.321 132.917Z" fill="#3C0100"/>
<path d="M293.013 134.75C293.013 134.75 291.504 134.462 290.922 132.91C290.333 131.358 290.348 129.748 291.397 129.82C292.445 129.892 292.582 130.352 292.582 130.352L293.013 134.742V134.75Z" fill="#D3897C"/>
<path d="M334.749 182.632C334.692 182.747 333.837 183.932 332.58 185.664C332.207 186.174 331.79 186.721 331.359 187.296C327.452 192.369 321.57 198.98 321.426 199.433C321.203 200.101 316.391 202.451 314.373 202.451V196.408C314.373 196.408 317.792 195.603 319.695 196.278L327.251 180.167L321.426 173.11L323.595 171.788L328.594 168.741C328.594 168.741 334.304 177.249 334.756 178.14C335.202 179.046 334.972 182.179 334.756 182.632H334.749Z" fill="#FFB3A0"/>
<path d="M334.189 181.705C334.189 181.705 333.514 183.128 331.359 187.296C327.452 192.369 321.57 198.98 321.426 199.433C321.203 200.101 316.391 202.451 314.373 202.451V198.19C316.154 198.147 318.962 197.816 319.695 196.278L327.251 180.167L321.426 173.11L323.595 171.788H324.945C324.945 171.788 330.325 178.478 331.582 179.506C332.839 180.533 334.182 181.705 334.182 181.705H334.189Z" fill="#D3897C"/>
<path d="M328.587 168.741C328.587 168.741 327.265 171.421 324.945 173.771C323.681 175.05 322.116 176.222 320.306 176.811L310.789 169.186L313.49 153.729L313.92 151.271L328.594 168.741H328.587Z" fill="#5371FF"/>
<path d="M324.945 173.771C323.681 175.05 322.116 176.222 320.306 176.811L310.789 169.186L313.49 153.729L318.187 167.167L324.953 173.764L324.945 173.771Z" fill="#1D3BD0"/>
<path d="M316.276 213.662C316.276 213.662 315.982 213.719 315.414 213.82C313.173 214.222 306.76 215.229 298.392 215.545C292.337 215.782 285.248 215.66 277.98 214.668C277.98 214.668 280.558 184.306 280.558 182.847C280.558 182.129 280.099 175.381 279.632 168.741C279.158 161.957 278.676 155.317 278.676 155.317L280.056 151.882L283.467 143.366C283.467 143.366 308.886 147.706 313.913 151.278C313.913 151.278 315.472 175.172 313.813 183.53C313.698 184.083 316.276 213.669 316.276 213.669V213.662Z" fill="#5371FF"/>
<path d="M315.414 213.82C313.173 214.222 306.76 215.229 298.392 215.545C300.805 213.123 308.692 205.074 308.886 203.465C309.108 201.553 309.503 183.185 309.503 183.185L312.807 164.034C312.807 164.034 313.023 183.3 312.807 183.861C312.599 184.364 314.976 209.206 315.422 213.813L315.414 213.82Z" fill="#1D3BD0"/>
<path d="M280.056 151.882L279.632 168.733C279.158 161.964 278.676 155.317 278.676 155.317L280.056 151.882Z" fill="#1D3BD0"/>
<path d="M283.467 143.366L279.179 151.882L267.845 142.719C267.845 142.719 266.588 140.024 267.005 139.018C267.429 138.012 273.893 117.761 273.893 117.761L277.506 118.681C276.249 123.977 274.791 137.279 274.791 137.279L283.467 143.359L283.467 143.366Z" fill="#FFB3A0"/>
<path d="M272.327 144.825L271.609 145.759L267.853 142.719C267.853 142.719 267.766 141.145 268.858 141.577C269.95 141.993 272.327 144.825 272.327 144.825Z" fill="#D3897C"/>
<path d="M274.367 138.436L276.414 122.188C276.414 122.188 272.184 139.629 272.327 140.06L274.367 138.436Z" fill="#D3897C"/>
<path d="M283.467 143.366L280.056 151.882L278.676 155.317L271.02 149.309L266.919 146.082C269.77 141.289 274.791 137.286 274.791 137.286L283.467 143.366Z" fill="#5371FF"/>
<path d="M280.056 151.882L278.676 155.317L271.02 149.309C274.518 150.279 280.056 151.882 280.056 151.882Z" fill="#1D3BD0"/>
<path d="M273.893 117.761C273.893 117.761 273.555 112.716 273.893 111.962C274.23 111.207 277.585 109.188 278.597 109.526C279.603 109.864 281.707 111.545 281.707 111.545C281.707 111.545 280.242 115.167 280.407 115.67C280.573 116.173 277.506 118.688 277.506 118.688L275.193 119.443L273.893 117.761Z" fill="#FFB3A0"/>
<path d="M279.143 115.792C279.143 115.792 281.118 115.706 281.959 115.289C282.799 114.872 283.137 114.995 283.094 115.541C283.051 116.087 280.867 117.524 280.451 117.668C280.034 117.812 277.513 118.688 277.513 118.688L279.151 115.792H279.143Z" fill="#FFB3A0"/>
<path d="M113.647 181.036C113.647 181.036 113.108 181.137 112.297 181.288C111.988 181.345 111.65 181.417 111.277 181.482C109.955 181.733 108.296 182.035 107.017 182.265C106.421 182.366 105.912 182.459 105.538 182.531L103.534 156.323L103.383 154.318C103.383 154.318 108.591 156.057 110.386 161.073C112.167 166.075 113.654 181.036 113.654 181.036H113.647Z" fill="#5371FF"/>
<path d="M111.277 181.475C109.338 181.834 106.716 182.323 105.538 182.524L103.534 156.316L104.087 155.777C103.929 156.229 106.529 157.961 108.21 163.487C109.668 168.324 110.875 177.997 111.277 181.475Z" fill="#1D3BD0"/>
<path d="M111.119 210.335C110.652 211.42 108.964 212.282 107.887 212.627C107.599 212.721 107.355 212.778 107.183 212.785C106.4 212.843 107.851 210.895 108.195 208.984C108.547 207.079 108.368 204.643 108.368 204.643C108.368 204.643 107.233 206.425 107.003 207.288L106.766 208.143C106.766 208.143 105.416 207.043 105.832 205.405C106.249 203.766 108.497 201.503 108.54 200.633C108.547 200.418 108.555 199.843 108.54 199.067C108.504 196.695 108.346 192.376 108.095 190.328C107.966 189.265 107.52 185.923 107.025 182.251C108.303 182.014 109.962 181.719 111.284 181.468C111.65 181.403 111.995 181.338 112.304 181.273C112.354 186.153 112.426 191.14 112.433 192.858C112.455 196.609 111.693 208.948 111.119 210.32V210.335Z" fill="#FFB3A0"/>
<path d="M112.297 181.281L111.226 182.747C111.226 182.747 110.566 195.617 108.526 199.067C108.49 196.695 108.332 192.376 108.081 190.328C107.951 189.265 107.506 185.923 107.01 182.251C108.289 182.014 109.948 181.719 111.27 181.468C111.636 181.403 111.981 181.338 112.289 181.273L112.297 181.281Z" fill="#D3897C"/>
<path d="M108.511 210.148C108.476 210.593 108.275 211.901 107.887 212.627C107.599 212.721 107.355 212.778 107.183 212.785C106.4 212.843 107.851 210.895 108.195 208.984C108.547 207.079 108.368 204.643 108.368 204.643C108.404 204.643 108.82 204.672 109.065 205.089C109.323 205.534 108.562 209.537 108.511 210.141V210.148Z" fill="#D3897C"/>
<path d="M119.917 294.378C119.881 294.493 119.529 294.586 118.668 294.601C117.49 294.608 115.335 294.471 111.736 294.048C105.531 293.315 100.798 290.878 100.798 290.878C100.798 290.878 100.065 290.009 100.525 288.974C100.984 287.932 102.507 283.304 102.507 283.304L109.029 284.691C109.029 284.691 114.171 289.319 115.062 289.836C115.945 290.361 119.637 290.936 120.37 291.877C121.102 292.819 119.996 294.105 119.917 294.378Z" fill="#003190"/>
<path d="M118.668 294.608C117.49 294.615 115.335 294.479 111.736 294.055C105.531 293.322 100.798 290.886 100.798 290.886C100.798 290.886 100.065 290.016 100.525 288.981C100.984 287.939 102.507 283.311 102.507 283.311L109.029 284.698C109.029 284.698 104.899 285.237 103.182 284.978C103.182 284.978 103.089 288.291 104.066 289.642C105.042 290.986 112.232 292.165 114.315 292.481C116.405 292.797 118.646 292.74 118.804 293.566C118.869 293.932 118.847 294.306 118.668 294.608Z" fill="#000D53"/>
<path d="M94.8865 297.691C94.6208 298.769 93.6943 300.062 92.0567 299.998C89.9092 299.911 85.0969 299.028 83.3731 296.944C83.3731 296.944 83.7682 292.244 83.6246 290.785C83.4738 289.319 83.6891 285.654 83.6891 285.654L89.0975 285.043H89.119C89.119 285.043 91.1804 290.677 91.6904 291.741C92.2075 292.804 94.786 295.751 94.9512 296.793C94.9943 297.037 94.9727 297.353 94.8793 297.691H94.8865Z" fill="#003190"/>
<path d="M94.8865 297.691C94.6208 298.769 93.6943 300.062 92.0567 299.998C89.9092 299.911 85.0969 299.028 83.3731 296.944C83.3731 296.944 83.7682 292.244 83.6246 290.785C83.4738 289.319 83.6891 285.654 83.6891 285.654L89.0975 285.043C88.8892 285.115 87.1655 285.697 86.5335 286.322C85.8583 286.991 85.6069 287.53 85.7218 289.247C85.8367 290.965 86.1672 295.363 86.1672 295.363C86.3683 296.024 87.3809 297.08 89.0759 297.569C90.7709 298.05 93.0909 298.596 93.9959 298.093C94.2688 297.942 94.592 297.784 94.8793 297.691H94.8865Z" fill="#000D53"/>
<path d="M112.57 265.583C110.817 275.356 109.029 284.691 109.029 284.691C109.029 284.691 103.326 284.633 100.97 282.981C100.97 282.981 103.268 273.035 103.218 265.92C103.153 258.813 105.99 244.383 105.99 244.383L90.6274 217.435L94.039 201.632L96.3661 202.221L107.233 204.945C107.233 204.945 115.27 241.645 115.881 243.744C116.189 244.822 114.408 255.443 112.577 265.59L112.57 265.583Z" fill="#003190"/>
<path d="M113.331 246.755L112.57 265.583C110.817 275.356 109.029 284.691 109.029 284.691C109.029 284.691 103.326 284.633 100.97 282.981C100.97 282.981 103.268 273.035 103.218 265.92C103.153 258.813 105.99 244.383 105.99 244.383L90.6274 217.435L94.039 201.632L96.3661 202.221C97.2855 205.577 98.1186 209.113 98.1186 209.113C98.1186 209.113 102.392 231.771 103.211 232.317C104.03 232.871 108.784 243.643 109.61 244.62C110.436 245.605 113.338 246.755 113.338 246.755H113.331Z" fill="#000D53"/>
<path d="M98.4417 205.894C97.9676 214.028 92.2504 239.108 91.0366 245.864C89.7007 253.258 89.1046 285.101 89.1046 285.101C87.1366 285.74 85.1256 285.898 83.8113 285.905C82.8991 285.92 82.3173 285.87 82.3173 285.87C82.3173 285.87 80.3852 273.833 79.4731 266.352C78.5681 258.871 79.2934 245.037 79.5592 242.623C79.8321 240.208 77.5339 228.509 76.083 220.316C74.6322 212.117 76.9521 203.141 76.9521 203.141C76.9521 203.141 81.6062 202.221 86.5764 201.776C92.035 201.302 97.8599 201.402 98.3985 203.939C98.4129 203.982 98.4201 204.032 98.4273 204.075C98.4776 204.514 98.4848 205.132 98.4273 205.901L98.4417 205.894Z" fill="#003190"/>
<path d="M81.4339 206.325C81.4339 206.325 78.1156 211.161 78.2018 214.848C78.288 218.549 83.2008 242.651 83.6173 243.571C84.0483 244.491 88.056 245.274 88.056 245.274C86.167 246.122 83.409 246.007 83.409 246.007C83.409 246.007 81.2327 251.239 80.9957 257.002C80.7874 262.105 83.2367 281.507 83.8041 285.905C82.8919 285.92 82.3101 285.87 82.3101 285.87C82.3101 285.87 80.3781 273.833 79.4659 266.352C78.5609 258.871 79.2862 245.037 79.552 242.623C79.8249 240.208 77.5267 228.509 76.0758 220.316C74.625 212.117 76.9449 203.141 76.9449 203.141C76.9449 203.141 81.599 202.221 86.5692 201.776L102.378 204.665C101.336 205.211 99.9715 205.613 98.4273 205.901C91.604 207.209 81.4267 206.332 81.4267 206.332L81.4339 206.325Z" fill="#000D53"/>
<path d="M93.2777 124.365C93.2777 124.365 84.2495 125.012 82.7197 131.422C81.1898 137.833 81.4197 141.476 78.0799 145.242C74.7401 149.007 71.9748 151.666 73.3826 159.808C74.7831 167.95 75.3433 174.209 74.7975 179.154C74.2516 184.098 73.4687 189.15 75.7096 190.853C75.7096 190.853 81.1251 186.218 88.5588 187.446C95.9926 188.668 94.4771 147.915 94.4771 147.915L93.2777 124.373V124.365Z" fill="#3C0100"/>
<path d="M96.9837 154.224C96.9837 154.224 95.4683 154.576 93.2777 154.541C92.9832 154.541 92.6743 154.497 92.3583 154.426C90.3831 154.016 88.2716 152.55 88.2716 152.55C89.1694 151.213 89.6722 149.769 89.9523 148.619C90.254 147.39 90.3042 146.514 90.3042 146.514C90.3042 146.514 97.2854 146.564 96.8904 149.151C96.6175 150.955 96.7755 152.737 96.8904 153.628C96.9407 154.009 96.9837 154.232 96.9837 154.232V154.224Z" fill="#FFB3A0"/>
<path d="M96.9837 154.224C96.9837 154.224 95.4683 154.576 93.2777 154.541C92.9832 154.541 92.6743 154.497 92.3583 154.426C92.2434 154.009 92.0639 153.534 91.8699 153.017C91.2954 151.515 90.491 149.747 89.9523 148.619C90.254 147.39 90.3042 146.514 90.3042 146.514C90.3042 146.514 97.2854 146.564 96.8904 149.151C96.6175 150.955 96.7755 152.737 96.8904 153.628C96.9407 154.009 96.9837 154.232 96.9837 154.232V154.224Z" fill="#D3897C"/>
<path d="M102.134 129.202C102.134 129.202 104.59 128.605 105.071 131.832C105.545 135.059 102.837 138.918 101.106 139.413C99.3754 139.917 102.134 129.202 102.134 129.202Z" fill="#3C0100"/>
<path d="M101.94 138.12C101.94 138.12 100.855 143.546 102.895 146.24C102.895 146.24 100.424 144.897 100.769 138.544L101.94 138.113V138.12Z" fill="#3C0100"/>
<path d="M102.22 133.801C102.22 133.801 101.387 137.229 101.142 139.126C100.891 141.023 101.106 142.13 100.97 143.481C100.826 144.832 99.5335 149.108 95.2959 151.019C95.2959 151.019 89.9523 148.346 88.5014 145.666C87.0506 142.978 87.0002 137.868 88.1853 134.103C89.3775 130.337 91.3528 128.598 95.6694 128.778C99.9932 128.95 102.313 131.386 102.22 133.808V133.801Z" fill="#FFB3A0"/>
<path d="M88.724 139.112C88.724 139.112 98.3484 140.254 102.184 134.52C102.184 134.52 104.217 132.062 101.782 128.095C99.3468 124.128 92.3942 123.036 88.7384 126.471C85.0825 129.906 85.4776 136.963 86.7992 138.81L88.724 139.119V139.112Z" fill="#3C0100"/>
<path d="M88.724 139.112C88.724 139.112 87.3521 137.437 86.44 138.558C85.5278 139.679 85.7073 142.338 88.5515 143.495L88.7311 139.112L88.724 139.112Z" fill="#D3897C"/>
<path d="M89.6865 138.659C89.6865 138.788 88.1279 143.014 89.1478 147.685C89.1478 147.685 87.2445 143.883 88.7456 138.616L89.6865 138.652V138.659Z" fill="#3C0100"/>
<path d="M106.213 184.105C106.4 185.269 107.226 204.938 107.226 204.938C87.0433 207.467 76.9593 203.134 76.9593 203.134C77.1676 202.617 77.3688 202.106 77.5555 201.589C81.3119 191.564 82.3102 183.135 82.3102 183.135C82.3102 183.135 81.8361 176.186 80.457 170.595C79.6382 167.311 78.755 162.963 78.6185 159.478C78.5251 156.984 78.7907 154.936 79.746 153.994C81.3118 152.435 84.7521 152.334 86.756 152.428C87.6682 152.471 88.2788 152.55 88.2788 152.55L94.6494 153.384L100.525 154.016L103.383 154.318C103.383 154.318 110.501 166.614 110.544 168.46C110.587 170.314 106.041 182.948 106.22 184.112L106.213 184.105Z" fill="#5371FF"/>
<path d="M96.3302 158.931L92.2075 158.407L91.403 161.152C89.5499 158.745 87.5461 156.15 87.5461 156.15L93.9815 170.53C93.9815 170.53 94.8936 168.008 94.6638 166.125L96.3302 158.924V158.931Z" fill="#B02843"/>
<path d="M97.1059 159.506C96.7612 159.557 96.402 159.593 96.0214 159.621C94.7142 159.729 93.407 159.219 92.2075 158.414C89.708 156.74 87.6251 153.793 86.7488 152.428C87.661 152.471 88.2716 152.55 88.2716 152.55L91.8699 153.017L94.6494 153.376L98.7363 153.822L99.6198 153.908L100.525 154.009C102.119 157.645 100.826 159.003 97.1131 159.499L97.1059 159.506Z" fill="#FFB3A0"/>
<path d="M99.9357 154.814L98.2909 155.532C97.9677 156.689 97.5369 158.127 97.1131 159.506C96.7684 159.557 96.4092 159.593 96.0286 159.621C94.7214 159.729 93.4141 159.219 92.2147 158.414C92.4804 157.142 92.6672 155.92 92.5594 155.223C92.5307 155.008 92.466 154.735 92.3655 154.426L91.8771 153.017L94.6566 153.376L98.7435 153.822L99.6269 153.908L99.9501 154.806L99.9357 154.814Z" fill="#D3897C"/>
<path d="M106.213 184.105C106.213 184.105 100.834 185.018 98.7148 185.097C96.6032 185.19 90.6776 185.808 90.6776 185.808L92.2291 194.626C92.2291 194.626 86.3323 185.556 85.4274 186.908C84.5224 188.251 84.1776 203.917 84.1776 203.917L77.5555 201.589C81.3119 191.564 82.3102 183.135 82.3102 183.135C82.3102 183.135 81.8361 176.186 80.457 170.595C79.6382 167.311 78.755 162.963 78.6185 159.478L83.2223 158.4L88.4655 165.974L93.292 168.504C93.292 168.504 96.5815 172.801 97.5296 172.916C98.4705 173.045 101.423 172.815 101.423 172.815L100.201 177.055C100.201 177.055 107.549 174.684 110.537 168.453C110.58 170.307 106.034 182.941 106.213 184.105Z" fill="#1D3BD0"/>
<path d="M80.8162 153.254C80.8162 153.254 83.2224 151.86 85.8942 154.246C88.5661 156.632 94.1324 166.822 94.1324 166.822L89.0115 176.178C89.0115 176.178 78.8843 162.92 77.9219 160.972C76.9595 159.025 77.7278 154.483 80.8162 153.261V153.254Z" fill="#5371FF"/>
<path d="M101.329 155.762C100.992 156.122 100.252 156.337 99.6485 156.466C99.1314 156.574 98.7004 156.61 98.7004 156.61C98.7004 156.61 95.8993 173.656 94.786 174.906C94.2043 175.553 93.5147 176.222 92.5379 176.531C91.6472 176.811 90.5269 176.789 89.0114 176.171C89.0114 176.171 89.4926 172.434 90.6705 168.927C91.8485 165.428 94.0533 161.188 94.4843 158.004C94.9224 154.821 94.1108 153.319 94.1108 153.319C94.1108 153.319 92.854 151.35 91.7479 150.876C91.7479 150.876 92.8108 150.222 95.2959 151.019C95.2959 151.019 97.7954 148.863 99.4258 149.28C101.056 149.697 102.335 151.889 102.564 153.067C102.794 154.26 101.961 155.101 101.329 155.762Z" fill="#FFB3A0"/>
<path d="M92.5379 176.531C91.6472 176.811 90.5269 176.789 89.0114 176.171C89.0114 176.171 90.9577 172.492 92.5019 173.074C93.9384 173.613 93.802 175.453 92.5379 176.531Z" fill="#D3897C"/>
<path d="M100.905 155.626C100.532 156.222 99.6629 155.64 99.6485 156.459C99.1314 156.567 98.7004 156.603 98.7004 156.603C98.7004 156.603 99.2533 155.015 100.194 154.533C101.135 154.052 101.265 155.036 100.898 155.626H100.905Z" fill="#D3897C"/>
<path d="M187.317 70.6122H152.884V84.611H187.317V70.6122Z" fill="white"/>
<path d="M168.505 77.9724V77.1963L171.478 73.3071H172.676L169.746 77.1963L169.185 77.0238H173.969V77.9724H168.505ZM171.814 79.3435V77.9724L171.849 77.0238V75.8079H172.9V79.3435H171.814Z" fill="#4C42B3"/>
<path d="M175.281 79.4039C175.086 79.4039 174.919 79.3378 174.781 79.2056C174.643 79.0676 174.574 78.8951 174.574 78.6882C174.574 78.4697 174.643 78.2972 174.781 78.1707C174.919 78.0385 175.086 77.9724 175.281 77.9724C175.476 77.9724 175.643 78.0385 175.781 78.1707C175.919 78.2972 175.988 78.4697 175.988 78.6882C175.988 78.8951 175.919 79.0676 175.781 79.2056C175.643 79.3378 175.476 79.4039 175.281 79.4039Z" fill="#4C42B3"/>
<path d="M176.593 77.9724V77.1963L179.567 73.3071H180.765L177.834 77.1963L177.274 77.0238H182.057V77.9724H176.593ZM179.903 79.3435V77.9724L179.937 77.0238V75.8079H180.989V79.3435H179.903Z" fill="#4C42B3"/>
<path d="M183.275 79.3435V73.7383L183.767 74.247H182V73.3071H184.396V79.3435H183.275Z" fill="#4C42B3"/>
<path d="M188.109 79.4298C187.633 79.4298 187.202 79.309 186.817 79.0676C186.437 78.8261 186.139 78.4754 185.92 78.0155C185.702 77.5499 185.593 76.9865 185.593 76.3253C185.593 75.6642 185.702 75.1036 185.92 74.6437C186.139 74.1781 186.437 73.8245 186.817 73.583C187.202 73.3416 187.633 73.2208 188.109 73.2208C188.592 73.2208 189.023 73.3416 189.402 73.583C189.782 73.8245 190.08 74.1781 190.299 74.6437C190.523 75.1036 190.635 75.6642 190.635 76.3253C190.635 76.9865 190.523 77.5499 190.299 78.0155C190.08 78.4754 189.782 78.8261 189.402 79.0676C189.023 79.309 188.592 79.4298 188.109 79.4298ZM188.109 78.4553C188.391 78.4553 188.635 78.3806 188.842 78.2311C189.049 78.0759 189.21 77.8402 189.325 77.524C189.445 77.2078 189.506 76.8082 189.506 76.3253C189.506 75.8366 189.445 75.4371 189.325 75.1266C189.21 74.8104 189.049 74.5776 188.842 74.4281C188.635 74.2729 188.391 74.1953 188.109 74.1953C187.839 74.1953 187.598 74.2729 187.385 74.4281C187.179 74.5776 187.015 74.8104 186.894 75.1266C186.779 75.4371 186.722 75.8366 186.722 76.3253C186.722 76.8082 186.779 77.2078 186.894 77.524C187.015 77.8402 187.179 78.0759 187.385 78.2311C187.598 78.3806 187.839 78.4553 188.109 78.4553Z" fill="#4C42B3"/>
<path d="M159.04 75.1611L156.533 79.5016H161.546L159.04 75.1611Z" fill="#FF4766"/>
<path d="M187.317 52.316H152.884V66.3148H187.317V52.316Z" fill="white"/>
<path d="M166.037 61.0401V55.4348L166.528 55.9436H164.761V55.0037H167.157V61.0401H166.037Z" fill="#4C42B3"/>
<path d="M168.268 59.669V58.8929L171.241 55.0037H172.439L169.509 58.8929L168.949 58.7204H173.732V59.669H168.268ZM171.577 61.0401V59.669L171.612 58.7204V57.5045H172.663V61.0401H171.577Z" fill="#4C42B3"/>
<path d="M175.044 61.1005C174.849 61.1005 174.682 61.0344 174.544 60.9021C174.406 60.7642 174.337 60.5917 174.337 60.3847C174.337 60.1663 174.406 59.9938 174.544 59.8673C174.682 59.7351 174.849 59.669 175.044 59.669C175.24 59.669 175.406 59.7351 175.544 59.8673C175.682 59.9938 175.751 60.1663 175.751 60.3847C175.751 60.5917 175.682 60.7642 175.544 60.9021C175.406 61.0344 175.24 61.1005 175.044 61.1005Z" fill="#4C42B3"/>
<path d="M178.456 61.1263C178.031 61.1263 177.615 61.066 177.207 60.9452C176.804 60.8188 176.465 60.6463 176.19 60.4278L176.672 59.5569C176.891 59.7351 177.155 59.8788 177.465 59.988C177.776 60.0973 178.1 60.1519 178.439 60.1519C178.841 60.1519 179.155 60.0714 179.379 59.9104C179.603 59.7437 179.715 59.5195 179.715 59.2378C179.715 58.9618 179.611 58.7434 179.404 58.5824C179.198 58.4214 178.864 58.341 178.405 58.341H177.853V57.5735L179.577 55.5211L179.723 55.9436H176.483V55.0037H180.594V55.7539L178.87 57.8063L178.284 57.4614H178.62C179.361 57.4614 179.916 57.6281 180.284 57.9615C180.657 58.2892 180.844 58.7118 180.844 59.2292C180.844 59.5684 180.758 59.8817 180.585 60.1691C180.413 60.4566 180.149 60.6894 179.792 60.8676C179.442 61.0401 178.997 61.1263 178.456 61.1263Z" fill="#4C42B3"/>
<path d="M183.999 61.1263C183.499 61.1263 183.065 61.0516 182.697 60.9021C182.329 60.7527 182.045 60.5428 181.844 60.2726C181.643 59.9967 181.542 59.6747 181.542 59.3068C181.542 58.9388 181.64 58.6284 181.835 58.3754C182.031 58.1225 182.312 57.9299 182.68 57.7977C183.048 57.6654 183.487 57.5993 183.999 57.5993C184.51 57.5993 184.95 57.6654 185.317 57.7977C185.691 57.9299 185.975 58.1254 186.171 58.3841C186.372 58.637 186.472 58.9446 186.472 59.3068C186.472 59.6747 186.369 59.9967 186.162 60.2726C185.961 60.5428 185.674 60.7527 185.3 60.9021C184.932 61.0516 184.498 61.1263 183.999 61.1263ZM183.999 60.2467C184.412 60.2467 184.74 60.1605 184.981 59.988C185.222 59.8156 185.343 59.577 185.343 59.2723C185.343 58.9733 185.222 58.7376 184.981 58.5652C184.74 58.3927 184.412 58.3065 183.999 58.3065C183.585 58.3065 183.26 58.3927 183.025 58.5652C182.789 58.7376 182.671 58.9733 182.671 59.2723C182.671 59.577 182.789 59.8156 183.025 59.988C183.26 60.1605 183.585 60.2467 183.999 60.2467ZM183.999 58.1857C183.533 58.1857 183.134 58.1254 182.801 58.0046C182.467 57.8782 182.209 57.6971 182.025 57.4614C181.847 57.2199 181.758 56.9324 181.758 56.599C181.758 56.2541 181.85 55.958 182.033 55.7108C182.223 55.4578 182.487 55.2624 182.826 55.1244C183.165 54.9864 183.556 54.9174 183.999 54.9174C184.447 54.9174 184.84 54.9864 185.179 55.1244C185.518 55.2624 185.783 55.4578 185.972 55.7108C186.162 55.958 186.257 56.2541 186.257 56.599C186.257 56.9324 186.165 57.2199 185.981 57.4614C185.803 57.6971 185.544 57.8782 185.205 58.0046C184.866 58.1254 184.464 58.1857 183.999 58.1857ZM183.999 57.4958C184.355 57.4958 184.636 57.4211 184.843 57.2716C185.05 57.1164 185.154 56.9094 185.154 56.6507C185.154 56.3805 185.047 56.1707 184.835 56.0212C184.622 55.8718 184.343 55.797 183.999 55.797C183.654 55.797 183.378 55.8718 183.171 56.0212C182.964 56.1707 182.861 56.3805 182.861 56.6507C182.861 56.9094 182.961 57.1164 183.163 57.2716C183.369 57.4211 183.648 57.4958 183.999 57.4958Z" fill="#4C42B3"/>
<path d="M189.716 61.1263C189.239 61.1263 188.808 61.0056 188.423 60.7642C188.044 60.5227 187.745 60.172 187.527 59.7121C187.308 59.2464 187.199 58.683 187.199 58.0219C187.199 57.3607 187.308 56.8002 187.527 56.3403C187.745 55.8746 188.044 55.5211 188.423 55.2796C188.808 55.0381 189.239 54.9174 189.716 54.9174C190.199 54.9174 190.629 55.0381 191.009 55.2796C191.388 55.5211 191.687 55.8746 191.905 56.3403C192.129 56.8002 192.241 57.3607 192.241 58.0219C192.241 58.683 192.129 59.2464 191.905 59.7121C191.687 60.172 191.388 60.5227 191.009 60.7642C190.629 61.0056 190.199 61.1263 189.716 61.1263ZM189.716 60.1519C189.997 60.1519 190.242 60.0772 190.448 59.9277C190.655 59.7725 190.816 59.5367 190.931 59.2206C191.052 58.9044 191.112 58.5048 191.112 58.0219C191.112 57.5332 191.052 57.1337 190.931 56.8232C190.816 56.507 190.655 56.2742 190.448 56.1247C190.242 55.9695 189.997 55.8919 189.716 55.8919C189.446 55.8919 189.204 55.9695 188.992 56.1247C188.785 56.2742 188.621 56.507 188.501 56.8232C188.386 57.1337 188.328 57.5332 188.328 58.0219C188.328 58.5048 188.386 58.9044 188.501 59.2206C188.621 59.5367 188.785 59.7725 188.992 59.9277C189.204 60.0772 189.446 60.1519 189.716 60.1519Z" fill="#4C42B3"/>
<path d="M159.04 56.8577L156.533 61.2054H161.546L159.04 56.8577Z" fill="#FF4766"/>
</svg>
