<svg width="21" height="20" viewBox="0 0 21 20" fill="none" xmlns="http://www.w3.org/2000/svg">
<path fill-rule="evenodd" clip-rule="evenodd" d="M6.72877 0.122729C5.10089 0.196179 3.68993 0.594174 2.55062 1.72868C1.40732 2.86915 1.01427 4.28569 0.940639 5.89663C0.894867 6.90211 0.627218 14.4983 1.40334 16.4903C1.92673 17.8343 2.95756 18.8676 4.3138 19.3927C4.94664 19.6388 5.66905 19.8055 6.72877 19.8541C15.5896 20.2551 18.8741 20.0368 20.2592 16.4903C20.505 15.8591 20.6742 15.1373 20.7209 14.0802C21.1259 5.19669 20.6553 3.27113 19.111 1.72868C17.8861 0.506824 16.4453 -0.32492 6.72877 0.122729ZM6.81034 18.0675C5.84018 18.0238 5.31381 17.8622 4.96257 17.7262C4.07898 17.3828 3.41529 16.7218 3.07399 15.8434C2.48294 14.3297 2.67897 7.1405 2.73171 5.9772C2.78345 4.83772 3.0143 3.79632 3.81828 2.99235C4.81332 1.99977 6.09889 1.51332 14.8522 1.90837C15.9945 1.95998 17.0383 2.19035 17.8443 2.99235C18.8393 3.98491 19.3329 5.28038 18.9309 14.0001C18.8871 14.9679 18.7249 15.493 18.5886 15.8434C17.6881 18.1511 15.6164 18.4715 6.81034 18.0675ZM14.9487 4.68961C14.9487 5.3467 15.4831 5.88101 16.1428 5.88101C16.8025 5.88101 17.3378 5.3467 17.3378 4.68961C17.3378 4.03253 16.8025 3.49869 16.1428 3.49869C15.4831 3.49869 14.9487 4.03253 14.9487 4.68961ZM5.72178 9.98793C5.72178 12.8029 8.00937 15.0851 10.8313 15.0851C13.6532 15.0851 15.9408 12.8029 15.9408 9.98793C15.9408 7.173 13.6532 4.89224 10.8313 4.89224C8.00937 4.89224 5.72178 7.173 5.72178 9.98793ZM7.51483 9.98793C7.51483 8.16161 8.99943 6.67984 10.8313 6.67984C12.6632 6.67984 14.1477 8.16161 14.1477 9.98793C14.1477 11.8153 12.6632 13.2975 10.8313 13.2975C8.99943 13.2975 7.51483 11.8153 7.51483 9.98793Z" fill="#FDFDFD"/>
</svg>
