<svg width="22" height="20" viewBox="0 0 22 20" fill="none" xmlns="http://www.w3.org/2000/svg">
<path fill-rule="evenodd" clip-rule="evenodd" d="M5.60899 20V6.50536H1.12414V19.9999H5.60899V20ZM3.36703 4.66358C4.9305 4.66358 5.90442 3.62648 5.90442 2.33155C5.87486 1.00782 4.9305 0 3.39635 0C1.86196 4.09467e-05 0.859009 1.00786 0.859009 2.33159C0.859009 3.62653 1.83239 4.66362 3.33751 4.66362L3.36703 4.66358ZM8.09118 20C8.09118 20 8.15002 7.77152 8.09118 6.50541H12.5767V8.46241H12.547C13.1367 7.54152 14.1993 6.18852 16.6187 6.18852C19.5703 6.18852 21.7827 8.11723 21.7827 12.2623V20H17.2979V12.7808C17.2979 10.9668 16.649 9.72897 15.0255 9.72897C13.7867 9.72897 13.0484 10.5635 12.7242 11.3701C12.6056 11.6572 12.5767 12.0605 12.5767 12.4638V20H8.09118Z" fill="#FDFDFD"/>
</svg>
