<svg width="29" height="20" viewBox="0 0 29 20" fill="none" xmlns="http://www.w3.org/2000/svg">
<path fill-rule="evenodd" clip-rule="evenodd" d="M11.412 13.6944V5.67757C14.2581 7.01675 16.4623 8.31043 19.0692 9.70519C16.9191 10.8976 14.2581 12.2356 11.412 13.6944ZM27.2729 1.6904C26.7819 1.0436 25.9452 0.540127 25.0544 0.373441C22.4361 -0.123773 6.1014 -0.125187 3.4845 0.373441C2.77015 0.507355 2.13405 0.831045 1.58762 1.33396C-0.714803 3.47096 0.00666598 14.931 0.561639 16.7874C0.79501 17.5909 1.0967 18.1704 1.47664 18.5507C1.96615 19.0536 2.63638 19.3999 3.40622 19.5552C5.56207 20.0011 16.6686 20.2505 25.0088 19.6222C25.7773 19.4883 26.4574 19.1308 26.9939 18.6066C29.1227 16.4781 28.9776 4.37447 27.2729 1.6904Z" fill="#FDFDFD"/>
</svg>
