<svg width="24" height="24" viewBox="0 0 24 24" fill="none" xmlns="http://www.w3.org/2000/svg">
<path fill-rule="evenodd" clip-rule="evenodd" d="M12 0C12.6628 0 13.2 0.537264 13.2 1.2V2.4C13.2 3.06274 12.6628 3.6 12 3.6C11.3372 3.6 10.8 3.06274 10.8 2.4V1.2C10.8 0.537264 11.3372 0 12 0Z" fill="#FDFDFD"/>
<path fill-rule="evenodd" clip-rule="evenodd" d="M21.2485 2.75147C21.7171 3.2201 21.7171 3.9799 21.2485 4.44853L20.0485 5.64853C19.5799 6.11716 18.8201 6.11716 18.3515 5.64853C17.8829 5.1799 17.8829 4.4201 18.3515 3.95147L19.5515 2.75147C20.0201 2.28284 20.7799 2.28284 21.2485 2.75147Z" fill="#FDFDFD"/>
<path fill-rule="evenodd" clip-rule="evenodd" d="M20.4 12C20.4 11.3372 20.9372 10.8 21.6 10.8H22.8C23.4628 10.8 24 11.3372 24 12C24 12.6628 23.4628 13.2 22.8 13.2H21.6C20.9372 13.2 20.4 12.6628 20.4 12Z" fill="#FDFDFD"/>
<path fill-rule="evenodd" clip-rule="evenodd" d="M0 12C0 11.3372 0.537264 10.8 1.2 10.8H2.4C3.06274 10.8 3.6 11.3372 3.6 12C3.6 12.6628 3.06274 13.2 2.4 13.2H1.2C0.537264 13.2 0 12.6628 0 12Z" fill="#FDFDFD"/>
<path fill-rule="evenodd" clip-rule="evenodd" d="M2.75147 2.75147C3.2201 2.28284 3.9799 2.28284 4.44853 2.75147L5.64853 3.95147C6.11716 4.4201 6.11716 5.1799 5.64853 5.64853C5.1799 6.11716 4.4201 6.11716 3.95147 5.64853L2.75147 4.44853C2.28284 3.9799 2.28284 3.2201 2.75147 2.75147Z" fill="#FDFDFD"/>
<path fill-rule="evenodd" clip-rule="evenodd" d="M12 4.8C8.02355 4.8 4.8 8.02355 4.8 12C4.8 13.9598 5.58464 15.7388 6.85423 17.0359C7.17565 17.3644 7.34892 17.666 7.4024 17.9333L8.03731 21.1063C8.374 22.789 9.8514 24 11.5674 24H12.4326C14.1486 24 15.626 22.789 15.9626 21.1063L16.5976 17.9333C16.6511 17.666 16.8244 17.3644 17.1457 17.0359C18.4153 15.7388 19.2 13.9598 19.2 12C19.2 8.02355 15.9764 4.8 12 4.8ZM10.8 16.8C10.1372 16.8 9.6 17.3372 9.6 18C9.6 18.6628 10.1372 19.2 10.8 19.2H13.2C13.8628 19.2 14.4 18.6628 14.4 18C14.4 17.3372 13.8628 16.8 13.2 16.8H10.8Z" fill="#FDFDFD"/>
</svg>
