<svg width="22" height="24" viewBox="0 0 22 24" fill="none" xmlns="http://www.w3.org/2000/svg">
<path d="M11 0C9.94081 0 8.92623 0.240348 8.25777 1.00223C7.5893 1.7641 7.56784 2.57642 7.52916 3.07066C7.49048 3.5649 7.45829 3.87255 7.38368 4.06312C7.30907 4.25369 7.24752 4.39928 6.78075 4.66961C6.31398 4.93993 6.15765 4.92045 5.95581 4.88997C5.75397 4.8595 5.47238 4.73377 5.02633 4.52025C4.58028 4.30673 3.86804 3.91914 2.87603 4.11889C1.88403 4.31865 1.16919 5.07981 0.639597 5.99992C0.110002 6.92004 -0.189672 7.92162 0.133872 8.88326C0.457411 9.84489 1.14806 10.2698 1.55542 10.5506C1.96279 10.8313 2.21218 11.013 2.33941 11.1731C2.46663 11.3332 2.56165 11.4594 2.56165 12C2.56165 12.5406 2.46663 12.6668 2.33941 12.8269C2.21218 12.987 1.96279 13.1687 1.55542 13.4494C1.14806 13.7302 0.457411 14.1551 0.133872 15.1167C-0.189672 16.0784 0.110002 17.08 0.639597 18.0001C1.16919 18.9202 1.88403 19.6814 2.87603 19.8811C3.86804 20.0809 4.58028 19.6933 5.02633 19.4797C5.47238 19.2662 5.75397 19.1405 5.95581 19.11C6.15765 19.0796 6.31398 19.0601 6.78075 19.3304C7.24752 19.6007 7.30907 19.7463 7.38368 19.9369C7.45829 20.1275 7.49048 20.4351 7.52916 20.9293C7.56784 21.4236 7.5893 22.2359 8.25777 22.9978C8.92623 23.7597 9.94081 24 11 24C12.0592 24 13.0738 23.7597 13.7422 22.9978C14.4107 22.2359 14.4322 21.4236 14.4708 20.9293C14.5095 20.4351 14.5417 20.1275 14.6163 19.9369C14.6909 19.7463 14.7525 19.6007 15.2193 19.3304C15.686 19.0601 15.8424 19.0796 16.0442 19.11C16.246 19.1405 16.5276 19.2662 16.9737 19.4797C17.4197 19.6933 18.132 20.0809 19.124 19.8811C20.116 19.6814 20.8308 18.9202 21.3604 18.0001C21.89 17.08 22.1897 16.0784 21.8661 15.1167C21.5426 14.1551 20.8519 13.7302 20.4446 13.4494C20.0372 13.1687 19.7878 12.987 19.6606 12.8269C19.5334 12.6668 19.4383 12.5406 19.4383 12C19.4383 11.4594 19.5334 11.3332 19.6606 11.1731C19.7878 11.013 20.0372 10.8313 20.4446 10.5506C20.8519 10.2698 21.5426 9.84489 21.8661 8.88326C22.1897 7.92162 21.89 6.92004 21.3604 5.99992C20.8308 5.07981 20.116 4.31865 19.124 4.11889C18.132 3.91914 17.4197 4.30673 16.9737 4.52025C16.5276 4.73377 16.246 4.8595 16.0442 4.88997C15.8424 4.92045 15.686 4.93993 15.2193 4.66961C14.7525 4.39928 14.6909 4.25369 14.6163 4.06312C14.5417 3.87255 14.5095 3.5649 14.4708 3.07066C14.4322 2.57642 14.4107 1.7641 13.7422 1.00223C13.0738 0.240348 12.0592 0 11 0ZM11.0009 6.79983C13.8846 6.79983 16.193 9.11101 16.193 12C16.193 14.889 13.8846 17.2002 11.0009 17.2002C8.11731 17.2002 5.80884 14.889 5.80884 12C5.80884 9.11101 8.11731 6.79983 11.0009 6.79983Z" fill="#FDFDFD"/>
<path d="M11 8.80079C9.24995 8.80079 7.80476 10.2488 7.80476 12C7.80476 13.7512 9.24995 15.1992 11 15.1992C12.7501 15.1992 14.1952 13.7512 14.1952 12C14.1952 10.2488 12.7501 8.80079 11 8.80079Z" fill="#FDFDFD"/>
</svg>
