<svg width="24" height="24" viewBox="0 0 24 24" fill="none" xmlns="http://www.w3.org/2000/svg">
<path fill-rule="evenodd" clip-rule="evenodd" d="M12 6C8.68629 6 6 8.68629 6 12C6 15.3136 8.68629 18 12 18C15.3136 18 18 15.3136 18 12C18 8.68629 15.3136 6 12 6ZM9 12C9 10.3431 10.3431 9 12 9C13.6569 9 15 10.3431 15 12C15 13.6569 13.6569 15 12 15C10.3431 15 9 13.6569 9 12Z" fill="#FDFDFD"/>
<path fill-rule="evenodd" clip-rule="evenodd" d="M12 0C5.37258 0 0 5.37258 0 12C0 18.6274 5.37258 24 12 24C18.6274 24 24 18.6274 24 12C24 5.37258 18.6274 0 12 0ZM3 12C3 7.02943 7.02943 3 12 3C16.9705 3 21 7.02943 21 12C21 16.9705 16.9705 21 12 21C7.02943 21 3 16.9705 3 12Z" fill="#FDFDFD"/>
</svg>
