<svg width="12" height="24" viewBox="0 0 12 24" fill="none" xmlns="http://www.w3.org/2000/svg">
<path fill-rule="evenodd" clip-rule="evenodd" d="M7.88253 9.55898H4.11747C2.99036 9.55898 1.99956 10.3203 1.69033 11.3455L0.0974769 16.6512C-0.154957 17.4864 0.0911671 18.3977 0.739921 19.0107L4.21467 23.298C5.20042 24.2313 6.79958 24.2353 7.78533 23.3021L11.2601 19.023C11.9088 18.4088 12.155 17.5128 11.9025 16.6775L10.3097 11.3455C10.0004 10.3191 9.00964 9.55898 7.88253 9.55898ZM10.138 5.22539L10.5583 2.80898C10.8158 1.3524 9.62936 0 8.06932 0H3.93194C2.3719 0 1.18546 1.37875 1.44168 2.83535L1.86199 5.19902C2.0652 6.35211 3.11784 7.16953 4.35224 7.16953H7.64776C8.88216 7.16953 9.9348 6.37847 10.138 5.22539Z" fill="#FDFDFD"/>
</svg>
